<svg xmlns="http://www.w3.org/2000/svg" width="478.76" height="344.78">
  <path fill="#2f2e41" d="M79.48 312.78a7.41 7.41 0 0 1-4.92-1.9c-8.63-7.4-8.8-33.58-8.8-34.69-.77-18.46 2.34-25.74 5.08-28.6 1.59-1.65 2.93-1.67 3-1.67v.46s-1.25.03-2.7 1.56c-2.67 2.81-5.68 10-4.93 28.24 0 .28.19 27.1 8.63 34.35a6.93 6.93 0 0 0 5.76 1.71l.07.46a7.68 7.68 0 0 1-1.19.08z"/>
  <path fill="#2f2e41" d="M80.19 312.7c-10.09 0-11.93-19.31-12-20.13-1.18-17.4 1.27-23.94 3.53-26.35 1.12-1.2 2.07-1.2 2.1-1.2v.45s-.81.02-1.8 1.1c-1.8 1.95-4.6 7.92-3.39 25.97 0 .2 1.88 19.71 11.55 19.71z"/>
  <path fill="#2f2e41" d="M80.29 311.8a6.82 6.82 0 0 1-5.62-2.56c-5.3-6.65-.8-23.81-.6-24.53l.45.12c-.05.17-4.63 17.67.53 24.14 1.32 1.66 3.2 2.46 5.6 2.37v.46z"/>
  <path fill="#2f2e41" d="M80.06 242.12h59.05v71.77H80.06z"/>
  <rect width="69.05" height="15.9" x="75.51" y="292.54" fill="#0071f2" rx="2.69"/>
  <path fill="#0071f2" d="M73.24 297.09h73.59v6.36H73.24z"/>
  <path fill="#fff" d="M73.24 297.09h73.59v6.36H73.24z" opacity=".35"/>
  <rect width="42.24" height="3.18" x="102.32" y="298.68" fill="#fff" opacity=".35" rx="1.59"/>
  <circle cx="79.83" cy="300.27" r="2.04" fill="#fff"/>
  <circle cx="88.91" cy="300.27" r="2.04" fill="#fff"/>
  <circle cx="97.55" cy="300.27" r="2.04" fill="#fff"/>
  <rect width="69.05" height="15.9" x="75.51" y="274.83" fill="#0071f2" rx="2.69"/>
  <path fill="#0071f2" d="M73.24 279.37h73.59v6.36H73.24z"/>
  <path fill="#fff" d="M73.24 279.37h73.59v6.36H73.24z" opacity=".35"/>
  <rect width="42.24" height="3.18" x="102.32" y="280.96" fill="#fff" opacity=".35" rx="1.59"/>
  <circle cx="79.83" cy="282.55" r="2.04" fill="#fff"/>
  <circle cx="88.91" cy="282.55" r="2.04" fill="#fff"/>
  <circle cx="97.55" cy="282.55" r="2.04" fill="#fff"/>
  <rect width="69.05" height="15.9" x="75.06" y="257.57" fill="#0071f2" rx="2.69"/>
  <path fill="#0071f2" d="M72.79 262.11h73.59v6.36H72.79z"/>
  <path fill="#fff" d="M72.79 262.11h73.59v6.36H72.79z" opacity=".35"/>
  <rect width="42.24" height="3.18" x="101.86" y="263.7" fill="#fff" opacity=".35" rx="1.59"/>
  <circle cx="79.38" cy="265.29" r="2.04" fill="#fff"/>
  <circle cx="88.46" cy="265.29" r="2.04" fill="#fff"/>
  <circle cx="97.09" cy="265.29" r="2.04" fill="#fff"/>
  <rect width="69.05" height="15.9" x="75.51" y="239.4" fill="#0071f2" rx="2.69"/>
  <path fill="#0071f2" d="M73.24 243.94h73.59v6.36H73.24z"/>
  <path fill="#fff" d="M73.24 243.94h73.59v6.36H73.24z" opacity=".35"/>
  <rect width="42.24" height="3.18" x="102.32" y="245.53" fill="#fff" opacity=".35" rx="1.59"/>
  <circle cx="79.83" cy="247.12" r="2.04" fill="#fff"/>
  <circle cx="88.91" cy="247.12" r="2.04" fill="#fff"/>
  <circle cx="97.55" cy="247.12" r="2.04" fill="#fff"/>
  <rect width="201" height="134" x="158.19" y="25.68" fill="#2f2e41" rx="12.55"/>
  <rect width="194.42" height="126.51" x="161.82" y="28.86" fill="#0071f2" opacity=".28" rx="12.55"/>
  <path fill="#2f2e41" d="M215.96 88.44c-10.08-.15-18.2-3.68-24.11-10.5-14.97-17.26-10.94-50.24-10.9-50.57l.9.11c-.04.33-4 32.92 10.7 49.86 5.73 6.62 13.62 10.05 23.43 10.2zm85.32.32-.45-.8c18.67-10.4 14.53-58.6 14.5-59.05l.9-.08a158.17 158.17 0 0 1-.18 25.84c-1.72 18.11-6.69 29.59-14.77 34.09zm3.52 14.61a53.83 44.06 0 0 1-5.41-.18l.12-.91c.37.04 37.01 3.18 58.82-19.27l.87.57c-11.62 11.95-27.27 16.64-38.35 18.47a82.26 67.34 0 0 1-16.05 1.32z"/>
  <rect width="66.77" height="46.79" x="338.07" y="41.35" fill="#e6e7e8" rx="5.26"/>
  <path fill="#0071f2" d="M404.84 46.6v2.47h-66.77V46.6a5.26 5.26 0 0 1 5.25-5.25h56.27a5.26 5.26 0 0 1 5.25 5.25z" opacity=".28"/>
  <circle cx="382.13" cy="45.44" r="2.27" fill="#e6e7e8"/>
  <circle cx="390.31" cy="45.44" r="2.27" fill="#e6e7e8"/>
  <circle cx="398.48" cy="45.44" r="2.27" fill="#e6e7e8"/>
  <path fill="#2f2e41" d="M348.97 70.87h4.09v12.26h-4.09z"/>
  <path fill="#0071f2" d="M358.96 62.24h4.09v20.9h-4.09z"/>
  <path fill="#2f2e41" d="M370.32 65.42h4.09v17.72h-4.09z"/>
  <path fill="#0071f2" d="M380.77 58.61h4.09v24.53h-4.09z"/>
  <path fill="#2f2e41" d="M391.67 53.61h4.09v29.53h-4.09z"/>
  <path fill="#fff" d="M124.69 25.83 34.81 152.1h35.37l77.96-125.94a7.94 7.94 0 0 0-3.75-.57zm95.27 1.9v.04l-77.2 126.5h-36.03a12.55 12.55 0 0 1-12.55-12.54v-8.6l74.5-105.36Z" opacity=".18"/>
  <path fill="#0071f2" d="M344.88 82.76V52.5h-1.3v31.54h55.7v-1.28z"/>
  <rect width="66.77" height="86.76" x="115.49" y="57.7" fill="#e6e7e8" rx="6.53"/>
  <path fill="#0071f2" d="M182.26 64.23v1.2H115.5v-1.2a6.53 6.53 0 0 1 6.53-6.53h53.71a6.53 6.53 0 0 1 6.53 6.53z" opacity=".28"/>
  <circle cx="160" cy="61.33" r="1.82" fill="#e6e7e8"/>
  <circle cx="167.73" cy="61.33" r="1.82" fill="#e6e7e8"/>
  <circle cx="174.99" cy="61.33" r="1.82" fill="#e6e7e8"/>
  <rect width="15.44" height="4.09" x="120.03" y="70.87" fill="#0071f2" rx="2.04"/>
  <rect width="15.44" height="4.09" x="119.58" y="97.22" fill="#0071f2" rx="2.04"/>
  <rect width="15.44" height="4.09" x="120.03" y="119.02" fill="#0071f2" rx="2.04"/>
  <rect width="15.44" height="4.09" x="120.03" y="134.01" fill="#0071f2" rx="2.04"/>
  <rect width="49.06" height="2.73" x="127.75" y="78.6" fill="#0071f2" opacity=".28" rx="1.36"/>
  <rect width="36.34" height="2.73" x="127.75" y="105.4" fill="#0071f2" opacity=".28" rx="1.36"/>
  <rect width="16.81" height="2.73" x="127.75" y="112.21" fill="#0071f2" opacity=".28" rx="1.36"/>
  <rect width="36.34" height="2.73" x="127.75" y="127.2" fill="#0071f2" opacity=".28" rx="1.36"/>
  <rect width="28.62" height="2.73" x="148.65" y="112.21" fill="#0071f2" opacity=".28" rx="1.36"/>
  <rect width="27.71" height="2.73" x="127.75" y="85.86" fill="#0071f2" opacity=".28" rx="1.36"/>
  <rect width="34.52" height="2.73" x="138.65" y="93.13" fill="#0071f2" opacity=".28" rx="1.36"/>
  <path fill="#bcbec0" d="M326.72 252.98h3.71v31.49h-3.71z"/>
  <path fill="#a7a9ac" d="M323.63 280.15h9.88v20.38h-9.88z"/>
  <path fill="#0071f2" d="M345.18 251.27h-40v-1.3h39.9a19.8 19.8 0 0 0 7.56-3.3c4.88-3.55 7.1-8.85 6.62-15.76v-.05l.22-13.34h1.3l-.23 13.34c.65 9.21-3.55 14.28-7.2 16.9a20.65 20.65 0 0 1-8.12 3.52zm-70.33 54.2c-2.47 2.47-11.12 4.94-11.12 4.94-15.42 4.78-25.32 1.33-27.79.28a3.27 3.27 0 0 1-1.27-.91 1.52 1.52 0 0 1-.33-.67c-.25-1.38 2.85-1.77 2.85-1.77l8.63-2.47c6.17-1.24 7.4-4.32 7.4-4.32 1.24-3.7 3.36-2.73 3.36-2.73l15.8 2.08a8.56 8.56 0 0 1 2.47 5.57z"/>
  <path fill="#f9b499" d="m291.53 283.24 5.54 8.03 5.55 1.86s5.4-7.5 5.8-7.46c.38.04.38-4.28.38-4.28l-6.82-6.17zm-32.73 6.79-2.21 7.78s4.06 1.09 2.2 4.68c0 0 10.5 2.36 13.6-2.58v-5.65z"/>
  <path fill="#0071f2" d="M356.78 162.12a2.98 2.98 0 0 0-2.38 3.02l.75 39.83 1.16 23.96s6.97 4.13 6.9-4.12c0 0 1.79-51.46-3.17-60.1.02-.02-.89-3-3.26-2.6z"/>
  <path fill="#fff" d="M356.78 162.12a2.98 2.98 0 0 0-2.38 3.02l.75 39.83 1.16 23.96s6.97 4.13 6.9-4.12c0 0 1.79-51.46-3.17-60.1.02-.02-.89-3-3.26-2.6z" opacity=".4"/>
  <path fill="#f9b499" d="M329.67 154.05c-.14-5.71-1.1-7.27-1.1-7.27l4.62-4.67a8.5 8.5 0 0 0 2.17.72c1.24.24 3.7.24 6.18 5.8 2.13 4.82-11.87 5.42-11.87 5.42z"/>
  <path fill="#f7a48b" d="M329.67 154.05s8.15-6.72 3.52-11.93a8.5 8.5 0 0 0 2.17.72c1.24.24 3.7.24 6.18 5.8 2.13 4.8-11.87 5.4-11.87 5.4z"/>
  <ellipse cx="327.03" cy="134.13" fill="#f9b499" rx="8.34" ry="15.13"/>
  <path fill="#2f2e41" d="M348.2 143.77a10.1 10.1 0 0 1-2.06.8 2.08 2.08 0 0 0-1.42 1.58c-.2.78-.97 1.67-3.5 1.74 0 0-2.77-5.27-5.86-5.05 0 0-3.7-.38-4.01-3.46-.3-3.09-2.61-2.27-2.61-2.27s-2.5 1.64-1.34-4.55c0 0-4.63-5.22-5.74-10.02a17.88 17.88 0 0 0-2.33 5.8s-4.96-9.53 4.92-12.22c0 0 4.78-8.44 11.66 0 0 0 9.34-4.55 9.34 7.2 0 0 8.63 4.32 4.32 12.97 0 0 3.52 4.86-1.36 7.48z"/>
  <path d="M348.2 143.77a10.1 10.1 0 0 1-2.06.8 2.08 2.08 0 0 0-1.42 1.58c-.2.78-.97 1.67-3.5 1.74 0 0-2.77-5.27-5.86-5.05 0 0-3.7-.38-4.01-3.46-.3-3.09-2.61-2.27-2.61-2.27s-2.5 1.64-1.34-4.55c0 0 5.5-11.1 9.81-3.08 0 0 1.24 1.24 1.24 8.03 0 .01.37 6.94 9.76 6.26z" opacity=".2"/>
  <ellipse cx="331.35" cy="135.98" fill="#f9b499" rx="2.78" ry="3.4"/>
  <path fill="#f9b499" d="M319.93 196.79s-11.73 6.17-23.47 3.7c0 0-3.08 4.54-8.63 5.05l-9.99-1v-3.43s3.5-2.8 17.87-5.1a51.47 51.47 0 0 0 13.12-5.36l2.07-1.36c2.43-1.56 6.35-3.97 7.91-4.33l-.1 10.59z"/>
  <path fill="#f7a48b" d="M319.93 196.79s-11.73 6.17-23.47 3.7c0 0 9.84-4.68 14.42-11.19 2.43-1.56 6.36-3.97 7.91-4.33l-.1 10.58z"/>
  <path fill="#bcbec0" d="M153.84 208.53h4.32v105.58h-4.32z"/>
  <path fill="#2f2e41" d="M198.9 218.6s1.5 18.22-38.9 15.87c0 0-2.34-8.63.7-16.35 0 0 17.62-18.1 34.82-4.15z"/>
  <path d="M198.9 218.6s1.5 18.22-38.9 15.87c0 0-2.34-8.63.7-16.35 0 0 17.62-18.1 34.82-4.15z" opacity=".2"/>
  <path fill="#bcbec0" d="m138.88 196.4 7.55 32.5h4.69l-6.06-33.8a3.22 3.22 0 0 0-3.24-2.7h-.08a3.23 3.23 0 0 0-2.86 4zm63.12-2.82 2.45 1.65a3.63 3.63 0 0 1 1.6 3.25l-1.89 30.44h-4.64l1.31-25.32z"/>
  <path fill="#f9b499" d="M197.06 183.21H202v20.38h-4.94z"/>
  <path fill="#2f2e41" d="M203.3 161.74a5.63 5.63 0 0 1-2.76 3.32 5.2 5.2 0 0 1-.49.24 59.3 59.3 0 0 0-5.35-15.81 30.83 30.83 0 0 0-1.77-3.07c-4.13-5.6-11.3-7.36-11.3-7.36l-.1-2.57v-.31c5.84-2.53 7.21-10.08 7.47-11.96l.05-.43 1.45.82v.34l.17 9.25c-1.45 5.64 5.16 7.94 5.16 7.94 4.94 2.47 3.09 10.5 3.09 10.5-.63 6.17 4.38 9.1 4.38 9.1z"/>
  <path d="M203.3 161.74a5.63 5.63 0 0 1-2.76 3.32l-.24.04a51.33 51.33 0 0 0-5.6-15.61 24.33 24.33 0 0 0-1.77-2.73c-4.13-5.6-11.3-7.36-11.3-7.36l-.11-2.89c5.84-2.52 7.2-10.35 7.45-12.26l.05-.43 1.45 1.14.17 9.25c-1.45 5.64 5.16 7.95 5.16 7.95 4.94 2.46 3.1 10.5 3.1 10.5-.61 6.15 4.4 9.08 4.4 9.08z" opacity=".2"/>
  <path fill="#0071f2" d="m204.27 183.42-5.36 2.88-51.87-1.23c-7.63-.91-10.7-5.06-11.81-7.27a2.05 2.05 0 0 1 .27-2.23c.97-1.17 2.77-3.75 5.06-8.97l.3-.68s11.1-30.25 30.88-29.94l9.83 3.04s12.33 2.27 16.1 16.4a113.64 113.64 0 0 1 4.32 19.14s.4 3.5 2.7 5.86a1.89 1.89 0 0 1-.42 3z"/>
  <path fill="#f9b499" d="M189.03 122.7a19.26 19.26 0 0 1-.9 5.94c-1.24 3.87-3.67 6.81-6.62 7.85a6.95 6.95 0 0 1-2.36.42c-2.95 0-5.6-1.86-7.4-4.81a18.06 18.06 0 0 1-2.48-9.4 21.2 21.2 0 0 1 .14-2.36c.79-6.72 4.84-11.84 9.74-11.84 5.46 0 9.88 6.36 9.88 14.2z"/>
  <path d="m170.82 140.04-.65.55a5.77 5.77 0 0 0-1.94 3.18l-.81 3.63-5.5 3.84a1.49 1.49 0 0 0-.63 1.31l.57 9.05-8.02 8.63c-8.64 0-13.26-3.63-13.26-3.63l.29-.68s11.11-30.25 30.89-29.94c-1.25 1.54-.94 4.06-.94 4.06z" opacity=".2"/>
  <path fill="#0071f2" d="M177.1 161.14h-15.27l-.54-8.58a1.49 1.49 0 0 1 .64-1.31l5.49-3.85 1.17 1.67z"/>
  <path fill="#fff" d="M177.1 161.14h-15.27l-.54-8.58a1.49 1.49 0 0 1 .64-1.31l5.49-3.85 1.17 1.67z" opacity=".3"/>
  <path d="m163.85 156.88 3.84 4.26h-5.86l-.54-8.58a1.49 1.49 0 0 1 .64-1.31l5.49-3.85 1.17 1.67-4.42 3.59a2.93 2.93 0 0 0-1.07 2.27 2.9 2.9 0 0 0 .75 1.95z" opacity=".2"/>
  <path fill="#0071f2" d="M181.4 138.87s4.55 6.36.22 22.26h12.83s.45-12.2-2.99-16.44c0 .02-3.26-3.97-10.05-5.82z"/>
  <path fill="#fff" d="M181.4 138.87s4.55 6.36.22 22.26h12.83s.45-12.2-2.99-16.44c0 .02-3.26-3.97-10.05-5.82z" opacity=".3"/>
  <path fill="#bcbec0" d="M147.04 200.5h50.01v3.09h-50.01z"/>
  <path fill="#f9b499" d="m141.46 183.57-.88 20.03h6.46v-18.53s-3.76-.54-5.58-1.5z"/>
  <path fill="#f7a48b" d="m141.46 183.57-.2 4.63 3.94-.35v-3.11a11.36 11.36 0 0 1-3.74-1.17zm3.74 15.66s-6.82 4.9 1.84 3.7v-2.43s-1.85.55-1.85-1.27zm43.83-76.53a19.26 19.26 0 0 1-.9 5.94c-2.73-.9-5.58-15.87-5.58-15.87-1.54-3.77-5.9 3.88-5.9 3.88-2.81 6.18-6.48 4.18-7.22 3.69.79-6.72 4.85-11.84 9.74-11.84 5.44 0 9.86 6.36 9.86 14.2z"/>
  <path fill="#2f2e41" d="M160 234.46s-15.44-15.44-7.4-24.07h46.92s.62 5.3-.61 8.2c0 0-18.52-13.76-31.5-3.26 0 0-6.78 4.31-7.4 19.13z"/>
  <path fill="#939598" d="M146.43 228.9h59.12a3.86 3.86 0 0 1 3.85 3.86v2.32h-62.97z"/>
  <path fill="#bcbec0" d="M172.36 232.61h6.79v57.42h-6.79z"/>
  <path fill="#939598" d="M180.88 313.86v1.42h-10.8v-1.64h2.89v-12.48h-2.25l-23.92 10.58v1.68h-9.64v-1.68l33.34-17.4v-6.78l10.38.1v6.78l32.96 17.3v2.12h-9.1v-2.12l-23.86-10.06h-2.97v12.18z"/>
  <path fill="#bcbec0" d="M232.25 201.12h48.78v2.47h-48.78z"/>
  <path fill="#d1d3d4" d="m255.4 202.35-9.4-39.52h-24.87l9.26 39.52z"/>
  <path fill="#fff" d="m221.13 162.83 29.37 39.52h4.9l-2.13-8.95-19.83-30.57z" opacity=".3"/>
  <path fill="#bcbec0" d="M256.94 201.11h-1.84l-9.1-38.28h1.82z"/>
  <path fill="#2f2e41" d="M345.24 244.34h-59.9l-.6 5.56c3.56 6.11 15.52 18.1 19.6 22.12a1.86 1.86 0 0 1-.03 2.7 126 126 0 0 1-11.55 9.14c-6.18 3.08-11.11-4.32-11.11-4.32l-2.47 17.28c-18.53-1.85-21.61-6.81-21.61-6.81l6.8-45.07c-1.58-4.25-2.28-7.12-2.54-9.06-.46-3.4.45-3.9.45-3.9 10.28-12.36 46.53-25.32 46.53-25.32l22.23 2.47 17.29.62 6.79 14.82c.62 19.77-9.88 19.77-9.88 19.77z"/>
  <path d="M268.28 295.06s11.57-48.15 16.81-48.2l-.34 3.04-3.08 29.64-2.47 17.28s-7.6-1.06-10.92-1.76zm76.96-50.72h-56.61c17.06-1.02 24.7-3.71 28.1-5.93a4.51 4.51 0 0 0 1.26-6.3c-4.02-5.96-11.94-6.25-15.97-5.97a12.9 12.9 0 0 0-3.85.88c-4.75 1.89-7.64 1.89-7.64 1.89-5.94-.62-10.77 3.08-10.77 3.08-8.07 6.8-17.93 3.92-17.93 3.92-.45-3.41.46-3.91.46-3.91 10.28-12.35 46.52-25.32 46.52-25.32l22.24 2.47 17.28.62 6.8 14.82c.6 19.75-9.89 19.75-9.89 19.75z" opacity=".2"/>
  <path fill="#0071f2" d="M356.3 228.92a1.54 1.54 0 0 1-1.76 1.57c-2.96-.43-6.66-.99-8.8-1.32a1.79 1.79 0 0 1-1.49-2c.61-4.39 1.46-10.67 1.5-11.06l-6.77 8.34a2.57 2.57 0 0 1-2.32.9c-23.16-2.67-27.86-18.68-27.86-18.68 9.89-4.93 11.13-9.88 11.13-9.88l-1.24-1.24.14-13.58c.75-13.58 5.42-18.52 5.42-18.52v-3.64a1.69 1.69 0 0 1 .45-1.16c9.6-10 15.59-10 15.59-10 6.17-.6 5.55 6.18 5.55 6.18 2.22 3.54 3.97 9.74 5.36 17.12 3.84 20.26 4.92 49.43 5.1 56.97z"/>
  <path fill="#f9b499" d="M332.9 204.2c-1.86 6.18-6.18 8.03-6.18 8.03-11.73 7.41-37.05 11.74-37.05 11.74-5.56 6.17-15.44 5.55-15.44 5.55a18.25 18.25 0 0 0-3.7 1.86c-4.33 0-1.85-5.1-1.85-5.1a6.93 6.93 0 0 1 1.33-1.21c5.14-3.66 17.8-5.43 17.8-5.43 4.32-3.7 16.67-10.5 16.67-10.5 9.16-4.38 12.92-8.24 14.44-10.44a6.25 6.25 0 0 0 1-1.91c4.33 3.71 12.97 7.42 12.97 7.42z"/>
  <path fill="#f7a48b" d="M332.9 204.2c-1.86 6.18-6.18 8.03-6.18 8.03-11.73 7.41-37.05 11.74-37.05 11.74-5.56 6.17-15.44 5.55-15.44 5.55a18.25 18.25 0 0 0-3.7 1.86c-4.33 0-1.85-5.1-1.85-5.1a6.93 6.93 0 0 1 1.33-1.21s11.01 3.22 20.27-4.8c0 0 6.17.6 16.67-4.33l16.95-7.58s3.97-2.28 0-6l-5-3.64a6.25 6.25 0 0 0 1-1.9c4.35 3.68 13 7.39 13 7.39z"/>
  <path d="M338.45 168.4s5.75 8.02 2.57 28.4l-.8 5.55s-.53 3.1-7.32 1.86c0 0-1.23 5.55-6.17 8.02 0 0-3.7 2.33-10.5 4.87 0 0 4.34 4.33 12.05 6.52 0 0 5.16-9.81 8.72-14.53a9.77 9.77 0 0 1 3.4-2.8c1.12-.57 2.81-1.95 3.37-5.17 0 0 3.94-25.93-5.32-32.72z" opacity=".2"/>
  <path fill="#fff" d="M345.86 154.81c-9.26-6.79-21.61 8.63-21.61 8.63v-3.63a1.69 1.69 0 0 1 .45-1.17c9.6-10 15.59-10 15.59-10 6.19-.62 5.57 6.17 5.57 6.17z" opacity=".3"/>
  <path d="M356.3 228.92a1.54 1.54 0 0 1-1.76 1.57c-2.96-.43-6.66-.99-8.8-1.32a1.79 1.79 0 0 1-1.49-2c.61-4.39 1.46-10.67 1.5-11.06 0 0 .72-2.62 2.57-3.86 0 0-1.85 15.45 2.47 12.35 0 0 4.94-4.94 1.23-29.64l-.81-23c3.83 20.25 4.91 49.42 5.1 56.96z" opacity=".2"/>
  <path fill="#0071f2" d="M312.33 283.31a43.1 43.1 0 0 1-21.42 29.57 1.47 1.47 0 0 1-.86-.06c-.48-.23-.8-.95.24-3.03 0 0 7.4-12.35 5.56-15.44 0 0-2.92-2.43.4-4.3 0 0 2.68-2.13 3.92 1.08l5.42-4.82a4.87 4.87 0 0 0 1.62-3.34 12.17 12.17 0 0 0 .03-1.3 1.68 1.68 0 0 1 2.08-1.67 6.41 6.41 0 0 1 2 .87 2.43 2.43 0 0 1 1 2.44z"/>
  <path fill="#2f2e41" d="m318.62 290.26-4.4 5.3a1.52 1.52 0 0 1-1.6.45c-.8-.24-2-.23-3.08 1.28a5.45 5.45 0 0 0-.83 2.08c-.4 2.06-2.21 8.06-10.3 13.54 0 0-5.5 4.16-8.36-.1a1.47 1.47 0 0 0 .86.06 43.1 43.1 0 0 0 21.42-29.56 2.43 2.43 0 0 0-1.01-2.44c.15 0 1.96.1 5.52 4.83l1.86 2.8a1.47 1.47 0 0 1-.08 1.76zm-45 26.32h-10.5c-.62-4.32-5.57-1.23-5.57-1.23-10.5 3.7-21.8-.62-21.8-.62-3.27-.6-1.44-5.64-1.44-5.64a1.52 1.52 0 0 0 .33.67 3.27 3.27 0 0 0 1.27.9c2.47 1.06 12.37 4.52 27.79-.27 0 0 8.63-2.47 11.12-4.94 1.27 4.34-1.2 11.13-1.2 11.13z"/>
  <path fill="#bcbec0" d="M295.25 309.17s17.29-10.82 33.34-10.34c0 0 20.38 1.08 33.34 9.73l-1.85 1.85s-15.44-8.63-31.49-8.32c0 0-16.23-.68-31.89 9.08z"/>
  <path fill="#bcbec0" d="M326.72 300.53h3.71v10.5h-3.71z"/>
  <circle cx="363.15" cy="312.26" r="4.32" fill="#a7a9ac"/>
  <circle cx="294.61" cy="312.26" r="4.32" fill="#a7a9ac"/>
  <circle cx="328.57" cy="312.26" r="4.32" fill="#a7a9ac"/>
  <path fill="#bcbec0" d="M265.59 208.53h4.32v105.58h-4.32zm-36.43 0h4.32v105.58h-4.32zm-100.64 0h4.32v105.58h-4.32z"/>
  <ellipse cx="169.27" cy="123.32" fill="#f9b499" rx="2.47" ry="3.09"/>
  <path fill="#2f2e41" d="M195.82 142.46c-13.11 1.05-6.05-7.17-3.63-9.66a4.64 4.64 0 0 0 1.32-2.75c.3-3.26-3.18-4.65-4.21-5a2.08 2.08 0 0 1-.58-.28c-3.9-2.84-1.53-10.3-1.53-10.3-2.36-4.52-5.58-5.53-5.58-5.53-1.4-.35-2.8.66-3.9 1.88a12.36 12.36 0 0 0-2.65 4.9c-1.64 5.55-5.8 4.51-5.8 4.51-.3 7.72 2.47 11.86 2.47 11.86v3.89c-8.63 3.4-5.56 8.95-5.56 8.95 1.86 3.7-.61 4.94-.61 4.94l-3.26 2.05a3.35 3.35 0 0 0-1.63 2.65c-.13 2.95 3.64 3.94 3.64 3.94-4.3 6.8-11.7-1.24-11.7-1.24 1.24 6.18-4.32 7.41-4.32 7.41-3.08 0-2.63-3.7-2.63-3.7 6-4.32 1.4-9.87 1.4-9.87-4.94-5.56-1.85-9.47-1.85-9.47 1.85-3.28 5.78-2.75 5.78-2.75 7.62-.45 5.19-9.93 5.19-9.93-3.85-12.26 4.46-14.9 4.46-14.9a10.57 10.57 0 0 0 4.92-4.94 10.35 10.35 0 0 1 11.07-5.9c7.97-2.2 10.55 3.42 10.55 3.42 6.77 3.72 4.96 9.3 4.96 9.3-2.47 6.17 1.23 8.63 1.23 8.63 5.56 4.94 1.1 11.42 1.1 11.42-3.24 4.02 1.35 6.47 1.35 6.47z"/>
  <path d="M187.18 106.65h-4.33a20.92 20.92 0 0 0-6.22-3.43c7.97-2.19 10.55 3.43 10.55 3.43zm-15.44 25.45v3.88c-8.63 3.4-5.56 8.95-5.56 8.95 1.86 3.7-.62 4.94-.62 4.94l-3.25 2.05a3.35 3.35 0 0 0-1.63 2.65c-.14 2.95 3.63 3.95 3.63 3.95-8.63.61-5.55-6.8-5.55-6.8a7.2 7.2 0 0 0-.59-5.84 4.85 4.85 0 0 1-.72-3.37c.4-2.22 2.21-2.88 3.44-3.06a5.07 5.07 0 0 0 3.74-2.49c1.55-2.83.3-6.43.3-6.43-2.48-8.23 2.61-9.43 2.61-9.43.75-.36 1.72-.86 1.72-.86-.6 8.02 2.48 11.86 2.48 11.86z" opacity=".2"/>
  <path fill="#f9b499" d="M182.5 143.29c-.39 2.66-3.35 3.1-3.35 3.1-5.56.22-8.03-5.16-8.03-5.16-1.23-3.7.62-5.25.62-5.25v-3.88a11.81 11.81 0 0 0 1.93 2.42 2.04 2.04 0 0 0 .18.16l.25.23a7.77 7.77 0 0 0 5.05 2 7.1 7.1 0 0 0 2.27-.38.6.6 0 0 1 .1-.04l.1 2.88c.83 1.67 1.04 2.95.89 3.92z"/>
  <path fill="#f7a48b" d="M182.5 143.29a11.36 11.36 0 0 1-8.83-8.77 2.05 2.05 0 0 0 .18.17 2.94 2.94 0 0 0 .25.23 7.15 7.15 0 0 0 7.32 1.61.6.6 0 0 1 .1-.03l.1 2.88c.83 1.66 1.04 2.94.89 3.9z"/>
  <path fill="#d1d3d4" d="M147.04 160.99h51.87v39.51h-51.87z"/>
  <path fill="#fff" d="m195.1 200.5-31.28-39.52h-12.7l26.87 39.52zm3.8-10.4-21.81-28.96h-4.12l25.93 35.25z" opacity=".3"/>
  <path fill="#bcbec0" d="M146.13 160.99h.9v39.52h-.9a.94.94 0 0 1-.94-.94v-37.65a.94.94 0 0 1 .94-.93z"/>
  <path fill="#f9b499" d="m192.73 238.17-23.46 50.63s-2.53 11.63-4.84 16.59a3.18 3.18 0 0 1-2.17 1.77c-2.1.49-5.76.64-6.62-3.96a8.88 8.88 0 0 1 .42-4.72 9.66 9.66 0 0 1 1.5-2.64c1.86-2.37 4.53-6.13 4.92-8.9l2.23-9.54 6.18-26.31 11.1-28.66s7.04-10.2 13.83-3.38c0 0 .8.4 1.24 1.96.64 2.32.46 7.2-4.33 17.16z"/>
  <path fill="#f7a48b" d="M197.06 220.99c-6.18-2.35-9.27 6.05-9.27 6.05l-23.07 50.35 6.17-26.32 11.1-28.66s7.04-10.18 13.83-3.36c0 0 .8.38 1.24 1.94z"/>
  <path fill="#f9b499" d="m174.83 243.12-22.21 45.06c0 5.55-3.1 12.97-3.1 12.97-1.23 1.23-4.65 3.08-4.65 3.08-2.18 1.24-2.75 0-2.75 0l-2.49-4.33c-.33-.45-.3-1.2-.03-2.12 1.22-4.2 7.43-12.08 7.43-12.08l11.73-45.68c4.34-29.64 17.93-24.7 17.93-24.7 12.95 3.73-1.86 27.8-1.86 27.8z"/>
  <path fill="#0071f2" d="M164.43 305.39c-.52 4.23-5.04 8.72-5.04 8.72-3.09 2.47-4.94-3.09-4.94-3.09-3.09-8.02 1.61-12.54 1.61-12.54a8.88 8.88 0 0 0-.42 4.72c.86 4.6 4.54 4.45 6.62 3.96a3.18 3.18 0 0 0 2.17-1.77zm-14.92-4.24c0 3.08-4.94 9.26-4.94 9.26-3.09 3.7-5.18-1.46-5.18-1.46-3.85-8.04 0-11.02.2-11.16-.27.9-.29 1.68.04 2.12l2.47 4.32s.57 1.24 2.76 0c0 0 3.42-1.85 4.65-3.08z"/>
  <path fill="#939598" d="M126.67 203.59h161.15V211H126.67z"/>
  <circle cx="172.36" cy="180.75" r="3.71" fill="#fff"/>
  <path d="M319.33 128.35s-2.73-5.32 2.33-5.8c0 0-1.73 2.02-2.33 5.8z" opacity=".2"/>
  <rect width="51.25" height="10.5" x="300.17" y="244.34" fill="#0071f2" rx="2.24"/>
  <rect width="51.25" height="10.5" x="300.17" y="244.34" fill="#fff" opacity=".4" rx="2.24"/>
  <path fill="#0071f2" d="M364.06 276.1a147.33 147.33 0 0 1 .23-15.65 199.41 199.41 0 0 1 4.9-31.86c1.37-5.9 3.06-11.7 4.81-17.5.06-.18.34-.12.28.06-5.42 20.44-9.87 41.5-9.57 62.73.09 5.95.79 11.78 1.34 17.69 0 .16-.25.22-.28.06a88.12 88.12 0 0 1-1.71-15.53z"/>
  <path fill="#0071f2" d="M374.29 211.13s8.22 20.85 6.36 25.76c-1.86 4.9-5.64 5.95-5.64 5.95s5.06 7.18 1.55 13.91c-3.5 6.73-11.36 6.41-11.85 14.05-.03 0-.46-31.92 9.58-59.67z"/>
  <path fill="#2f2e41" d="M365.57 257.62a.16.16 0 0 1 0-.12 191.38 191.38 0 0 1 8-41.97c0-.04.08 0 .07 0q-2.46 9.18-4.33 18.44a9.01 9.01 0 0 1 3.92-2.19s.04.03 0 .04a10.48 10.48 0 0 0-4.05 2.72c-.24 1.22-.45 2.42-.67 3.64 1.84-2.05 4.39-3.07 6.93-4.04m0 .05c-2.66 1.09-5.33 2.47-7.09 4.77q-.95 5.19-1.65 10.41a9.92 9.92 0 0 1 4.92-2.8c.06 0 .1.07.03.08a10.34 10.34 0 0 0-4.96 3.18q-.25 1.84-.46 3.69a12.6 12.6 0 0 1 3.4-2.06c.04 0 .06.04 0 .06a11.76 11.76 0 0 0-3.43 2.27h-.05a306.7 306.7 0 0 0-.4 3.5 16.75 16.75 0 0 1 6.98-4.97c.05 0 .09.06.03.08a18.17 18.17 0 0 0-6.88 5.26.15.15 0 0 1-.18.05q-.26 2.7-.45 5.4c-.2 2.7-.05 0-.04 0 .1-1.82.22-3.67.37-5.5z"/>
  <path fill="#2f2e41" d="M372.18 229.7a10.23 10.23 0 0 1 4.94-1.53c.04 0 .04.05 0 .06a19.62 19.62 0 0 0-4.88 1.6.07.07 0 0 1-.1-.03.07.07 0 0 1 .04-.1zm-1 22.09a10.3 10.3 0 0 1 3.7-1.27.04.04 0 0 1 .04.03.04.04 0 0 1-.04.04 13.99 13.99 0 0 0-3.66 1.29c-.05.02-.09-.06-.04-.09z"/>
  <path fill="#0071f2" d="M346.3 239.06a55.94 55.94 0 0 1 8.91 8.97 34.18 34.18 0 0 1 5.82 11.78 84.4 84.4 0 0 1 2.98 27.32 65.73 65.73 0 0 1-2.59 15.04.15.15 0 0 1-.19.08.14.14 0 0 1-.09-.15 85.6 85.6 0 0 0 1.82-26.5c-.8-8.7-2.32-18.22-7.27-25.59-2.7-4-6.2-7.3-9.64-10.66-.19-.19.08-.44.25-.29z"/>
  <path fill="#0071f2" d="M363.24 280.88a51.24 51.24 0 0 0-6.26-9.33c-3.8-4.4-7.04-7.57-7.37-10.31-.34-2.75 4.45-4.41 4.45-4.41s-5.76.59-7.1-1.91c-1.33-2.5-1.11-16.35-1.11-16.35s9.78 8.11 13.78 18.81 3.61 23.5 3.61 23.5z"/>
  <path fill="#2f2e41" d="M349.13 242.38c4 4.59 8.07 9.45 10.22 15.24a57.38 57.38 0 0 1 1.84 6.11l.3 1.25a.17.17 0 0 1 0 .07 116.74 116.74 0 0 1 2 12.96s-.04.04-.04 0c-.29-2.19-.62-4.39-1.02-6.6h-.06a9.03 9.03 0 0 0-2.66-.88c-.06 0-.05-.12 0-.11a10 10 0 0 1 2.66.67c-.35-2-.75-4-1.22-5.95a28.78 28.78 0 0 0-6.07-1.25m0-.04a23.74 23.74 0 0 1 6 .96l-.25-1a31.99 31.99 0 0 0-4-1v-.04a20.15 20.15 0 0 1 3.95.78c-.45-1.7-.9-3.4-1.48-5.04a30.08 30.08 0 0 0-1.67-3.92 24.76 24.76 0 0 0-3.26-.83v-.06a8.94 8.94 0 0 1 3.06.53c-.45-.9-.98-1.81-1.53-2.66-2.27-.67-4.6-1.33-7-1.06a.04.04 0 0 1 0-.05c2.3-.43 4.51.08 6.72.67-.21-.35-.45-.67-.66-1.03a15.57 15.57 0 0 0-4.28-1s-.03-.04 0-.04a11.22 11.22 0 0 1 4 .67 113.4 113.4 0 0 0-5.62-7.27c-.1-.1-.03-.16.07-.05z"/>
  <path fill="#2f2e41" d="M348.56 251.79a9.45 9.45 0 0 1 2.05.08c.08 0 .07.15 0 .15-.66-.04-1.33-.14-2.04-.15a.04.04 0 0 1-.05-.03.04.04 0 0 1 .04-.05zM355 265.7a9.54 9.54 0 0 1 3.14.88v.05c-1.03-.33-2.09-.5-3.13-.76a.09.09 0 0 1-.08-.08.08.08 0 0 1 .08-.08zm2.57-4.45a7.02 7.02 0 0 1 1.33.23c.05 0 0 .08 0 .08a6.97 6.97 0 0 1-1.33-.17.07.07 0 0 1-.05-.09.06.06 0 0 1 .05-.05z"/>
  <path fill="#0071f2" d="M389.68 249.2a47.3 47.3 0 0 0-9.08 5.55 28.85 28.85 0 0 0-7.13 8.45 71.16 71.16 0 0 0-7.93 21.75 55.3 55.3 0 0 0-.91 12.83.12.12 0 0 0 .24 0 71.86 71.86 0 0 1 3.87-22.05c2.4-6.96 5.55-14.44 11.1-19.48 3-2.73 6.52-4.71 9.98-6.77a.16.16 0 1 0-.14-.29z"/>
  <path fill="#0071f2" d="M367.43 279.96a43.2 43.2 0 0 1 7-6.36c4-2.83 7.27-4.77 8.1-6.95.84-2.18-2.74-4.5-2.74-4.5s4.57 1.66 6.2-.1 4.2-13.15 4.2-13.15-9.63 4.67-15.09 12.58c-5.45 7.92-7.67 18.48-7.67 18.48z"/>
  <path fill="#2f2e41" d="M367.7 277.65c4-9.97 9.73-19.22 18.28-25.85a45.74 45.74 0 0 0-6.13 6 10.64 10.64 0 0 1 5.51.54c.05 0 0 .07 0 .06a14.8 14.8 0 0 0-5.65-.33h-.06c-.3.34-.58.67-.86 1.05a17.47 17.47 0 0 1 2.92.06v.04a14.73 14.73 0 0 0-3.06.09 63.14 63.14 0 0 0-4.14 5.9 4.86 4.86 0 0 1 2-.07.04.04 0 0 1 0 .07 11 11 0 0 0-2.15.21c-.24.38-.46.76-.71 1.14a19.67 19.67 0 0 1 6.15-.08m0 .05a24.74 24.74 0 0 0-6.3.28l-.62 1.11a13.39 13.39 0 0 1 3.66 0 .05.05 0 0 1 0 .06.05.05 0 0 1 0 .02 13.69 13.69 0 0 0-3.78.12 114 114 0 0 0-2.6 4.88 3.47 3.47 0 0 1 1.6-.07v.04a7.08 7.08 0 0 0-1.72.27q-1.11 2.23-2.11 4.49c-.07.13-.3.07-.22-.07z"/>
  <path fill="#2f2e41" d="M374.64 268.98a7.66 7.66 0 0 1 2.95.03m0 .05a22.45 22.45 0 0 0-2.92 0 .05.05 0 0 1-.04-.07zm4.53-12.51a5.22 5.22 0 0 1 1.33-.08.05.05 0 0 1 .03.06.04.04 0 0 1-.03.03c-.45 0-.88.07-1.33.1a.06.06 0 0 1-.04-.08.1.1 0 0 1 .04-.03zm-23.82 28.7-.83 6.94-3.25 27.05H377l-3.25-27.05-.83-6.94z"/>
  <path fill="#231f20" d="M372.91 285.25h-14.6l-.84 6.94h16.27z" opacity=".3"/>
  <path fill="#2f2e41" d="M356.22 282.86h18.79v5.88h-18.79z"/>
  <text xml:space="preserve" x="213.18" y="123.49" stroke-width="2.09" font-family="American Captain" font-size="83.49" font-weight="400" letter-spacing="0" style="line-height:1.25;-inkscape-font-specification:'American Captain'" word-spacing="0"><tspan x="213.18" y="123.49" fill="#fff">KPI</tspan></text>
</svg>
