<svg xmlns="http://www.w3.org/2000/svg" xmlns:xlink="http://www.w3.org/1999/xlink" width="478.76" height="344.78">
  <defs>
    <path id="a" fill="#e0e0e0" stroke-width=".5" d="M111.45 245.93c-1.55-2.58-4.1-.33-4.1-.33.37-4.9-4.13-8.23-4.13-8.23s5.23 0 5.95-4.98c.72-4.98-1.82-2.66-4.21-2.7-2.4-.03-4.9 6.95-1.72 10.88 3.18 3.93 2.3 10.64-4.98 17.1a14.28 14.28 0 0 0-3.8 5.93c.55-5.93.86-14.28-.86-19.85-2.96-9.46 2.69-12.02 4.3-16.76 1.61-4.73-4.3-8.74-4.3-8.74s5.6-2.58 2.87-5.46c-2.74-2.88-8.38-2.5-8.38 1.3 0 3.78 3.82 5.25 3.82 5.25s4.38 4.55 4.38 6.89c0 2.33-4.38 7.49-4.38 7.49s2-4.36-2-4.54c-4-.18-5.28 5.09-3.64 7.45 1.65 2.36 4.37.37 4.37.37a46.7 46.7 0 0 0 1.27 8.17c.42 1.36.23 6.7-.12 12.26a13.85 13.85 0 0 0-3.55-5.26c-7.29-6.45-8.13-13.17-4.97-17.1 3.15-3.92.63-10.9-1.73-10.87-2.35.03-4.94-2.29-4.2 2.7.72 4.97 5.94 5 5.94 5s-4.5 3.34-4.13 8.22c0 0-2.58-2.22-4.1.34-2.76 4.55 3.65 7.37 4.72 5.16 0 0 13.59 9.61 10.32 23.45l.76 1.13-.15 1.79 1.05-.46 1.21 1.75a42.43 42.43 0 0 0 .31 6.01l3.25-4.8c-3.28-13.83 10.32-23.45 10.32-23.45.99 2.27 7.39-.56 4.6-5.1z"/>
  </defs>
  <path fill="#ebebeb" d="M28.1 305.07h430.04v.22H28.1zm358.46 13.84h28.48v.22h-28.48zm-81.06 2.34h7.47v.22h-7.47zm63.7-10.32h16.5v.22h-16.5zm-295.98 1.44h37.15v.22H73.22zm44.81 0h5.44v.22h-5.44zm23.14 3.63h80.57v.22h-80.57zm90.77-49.3H65.87a4.9 4.9 0 0 1-4.9-4.9V28.35a4.9 4.9 0 0 1 4.9-4.87h166.07a4.9 4.9 0 0 1 4.9 4.91v233.4a4.9 4.9 0 0 1-4.9 4.92zM65.87 23.66a4.7 4.7 0 0 0-4.7 4.7V261.8a4.7 4.7 0 0 0 4.7 4.7h166.07a4.7 4.7 0 0 0 4.7-4.7V28.35a4.7 4.7 0 0 0-4.7-4.69zM417.98 266.7H251.9a4.92 4.92 0 0 1-4.91-4.9V28.35a4.92 4.92 0 0 1 4.9-4.86H418a4.9 4.9 0 0 1 4.88 4.86V261.8a4.9 4.9 0 0 1-4.89 4.9zM251.9 23.66a4.7 4.7 0 0 0-4.72 4.7V261.8a4.7 4.7 0 0 0 4.7 4.7h166.1a4.7 4.7 0 0 0 4.7-4.7V28.35a4.7 4.7 0 0 0-4.7-4.7z"/>
  <path fill="#e0e0e0" d="M202.82 76.96H411.2v200.86H202.82z"/>
  <path fill="#f5f5f5" d="M206.16 80.61h205.03v193.7H206.16z"/>
  <path fill="#e6e6e6" d="M241.73 197.12v-15.88H244v46.16h5.29v-17.41h3.78v-4.54h8.33v-15.89h4.54v-10.6h5.3v-15.89h2.27v15.9h5.3v10.6h4.53v15.88h8.33v4.54h3.78v17.4h4.54v-21.94h8.33v-48.43h2.27v-5.3h18.15v5.3h3.79v34.81h15.13v3.78h5.3v2.27h-5.3v13.62h15.9v-45.4h3.02v-9.08h7.57v-34.8h2.27v34.8h5.3v9.08h29.48v108.2H206.17v-46.9h1.5v-58.28h6.05v-7.7l13.63-6.35v-7.88h2.27v21.93h2.27v58.28h3.03v-30.28z"/>
  <path fill="#f0f0f0" d="M393.3 168.48h2.14v2.14h-2.14zm0 3.6h2.14v2.14h-2.14zm0 14.38h2.14v2.14h-2.14zm0 3.58h2.14v2.14h-2.14zm0 3.59h2.14v2.14h-2.14zm0 10.79h2.14v2.14h-2.14zm0 3.6h2.14v2.14h-2.14zm-3.41-25.16h2.14V185h-2.14zm0 3.6h2.14v2.14h-2.14zm0 3.58h2.14v2.14h-2.14zm0 3.59h2.14v2.14h-2.14zm0 3.6h2.14v2.14h-2.14zm0 7.19h2.14v2.14h-2.14zm0 3.6h2.14v2.14h-2.14zm-3.41-39.54h2.14v2.14h-2.14zm0 3.6h2.14v2.14h-2.14zm0 3.59h2.14v2.14h-2.14zm0 3.59h2.14v2.14h-2.14zm0 3.6h2.14V185h-2.14zm0 3.6h2.14v2.14h-2.14zm0 3.58h2.14v2.14h-2.14zm0 3.59h2.14v2.14h-2.14zm0 3.6h2.14v2.14h-2.14zm0 3.6h2.14v2.14h-2.14zm0 7.19h2.14v2.14h-2.14zm-3.4-39.54h2.14v2.14h-2.14zm0 3.6h2.14v2.14h-2.14zm0 3.59h2.14v2.14h-2.14zm0 3.59h2.14v2.14h-2.14zm0 3.6h2.14V185h-2.14zm0 3.6h2.14v2.14h-2.14zm0 3.58h2.14v2.14h-2.14zm0 32.36h2.14v2.14h-2.14zm-3.41-53.92h2.14v2.14h-2.14zm0 3.6h2.14v2.14h-2.14zm0 3.59h2.14v2.14h-2.14zm0 3.59h2.14v2.14h-2.14zm0 3.6h2.14V185h-2.14zm0 3.6h2.14v2.14h-2.14zm0 3.58h2.14v2.14h-2.14zm0 3.59h2.14v2.14h-2.14zm0 21.58h2.14v2.14h-2.14zm0 3.59h2.14v2.14h-2.14zm0 3.6h2.14v2.14h-2.14zm0 3.59h2.14v2.14h-2.14zm0 14.38h2.14v2.14h-2.14zm-3.4-71.89h2.14v2.14h-2.14zm0 3.6h2.14v2.14h-2.14zm0 3.59h2.14v2.14h-2.14zm0 3.59h2.14v2.14h-2.14zm0 3.6h2.14V185h-2.14zm0 3.6h2.14v2.14h-2.14zm0 3.58h2.14v2.14h-2.14zm0 3.59h2.14v2.14h-2.14zm0 3.6h2.14v2.14h-2.14zm0 3.6h2.14v2.14h-2.14zm0 10.78h2.14v2.14h-2.14zm0 3.6h2.14v2.14h-2.14zm0 3.59h2.14v2.14h-2.14zm0 3.6h2.14v2.14h-2.14zm0 3.59h2.14v2.14h-2.14zm0 14.38h2.14v2.14h-2.14zm-3.41-71.89H375v2.14h-2.14zm0 3.6H375v2.14h-2.14zm0 3.59H375v2.14h-2.14zm0 3.59H375v2.14h-2.14zm0 3.6H375V185h-2.14zm0 3.6H375v2.14h-2.14zm0 3.58H375v2.14h-2.14zm0 3.59H375v2.14h-2.14zm0 3.6H375v2.14h-2.14zm0 3.6H375v2.14h-2.14zm0 3.59H375v2.14h-2.14zm0 3.6H375v2.14h-2.14zm0 3.59H375v2.14h-2.14zm0 3.6H375v2.14h-2.14zm0 3.59H375v2.14h-2.14zm0 3.6H375v2.14h-2.14zm0 3.59H375v2.14h-2.14zm0 3.59H375v2.14h-2.14zm-3.41-61.1h2.14v2.14h-2.14zm0 3.6h2.14v2.14h-2.14zm0 3.59h2.14v2.14h-2.14zm0 3.59h2.14v2.14h-2.14zm0 3.6h2.14V185h-2.14zm0 3.6h2.14v2.14h-2.14zm0 3.58h2.14v2.14h-2.14zm0 3.59h2.14v2.14h-2.14zm0 3.6h2.14v2.14h-2.14zm0 3.6h2.14v2.14h-2.14zm0 10.78h2.14v2.14h-2.14zm0 3.6h2.14v2.14h-2.14zm0 3.59h2.14v2.14h-2.14zm0 3.6h2.14v2.14h-2.14zm-3.39-53.92h2.14v2.14h-2.14zm0 3.6h2.14v2.14h-2.14zm0 3.59h2.14v2.14h-2.14zm0 3.59h2.14v2.14h-2.14zm0 3.6h2.14V185h-2.14zm0 3.6h2.14v2.14h-2.14zm0 3.58h2.14v2.14h-2.14zm0 3.59h2.14v2.14h-2.14zm0 3.6h2.14v2.14h-2.14zm0 3.6h2.14v2.14h-2.14zm0 10.78h2.14v2.14h-2.14zm0 3.6h2.14v2.14h-2.14zm0 3.59h2.14v2.14h-2.14zm-38.34-59.65h2.14v2.14h-2.14zm0 3.59h2.14v2.14h-2.14zm0 3.6h2.14v2.14h-2.14zm0 3.59h2.14v2.14h-2.14zm0 3.6h2.14v2.14h-2.14zm0 3.6h2.14v2.14h-2.14zm0 3.58h2.14v2.14h-2.14zm0 3.59h2.14v2.14h-2.14zm0 10.79h2.14v2.14h-2.14zm0 3.59h2.14v2.14h-2.14zm-3.41-39.53h2.14v2.14h-2.14zm0 3.59h2.14v2.14h-2.14zm0 3.6h2.14v2.14h-2.14zm0 3.59h2.14v2.14h-2.14zm0 3.6h2.14v2.14h-2.14zm0 3.6h2.14v2.14h-2.14zm0 3.58h2.14v2.14h-2.14zm0 3.59h2.14v2.14h-2.14zm0 14.38h2.14v2.14h-2.14zm-3.41-39.53h2.14v2.14h-2.14zm0 3.59h2.14v2.14h-2.14zm0 3.6h2.14v2.14h-2.14zm0 3.59h2.14v2.14h-2.14zm0 3.6h2.14v2.14h-2.14zm0 3.6h2.14v2.14h-2.14zm0 3.58h2.14v2.14h-2.14zm0 3.59h2.14v2.14h-2.14zm-3.4-25.15h2.14v2.14h-2.14zm0 3.59h2.14v2.14h-2.14zm0 3.6h2.14v2.14h-2.14zm0 3.59h2.14v2.14h-2.14zm0 3.6h2.14v2.14h-2.14zm0 3.6h2.14v2.14h-2.14zm0 7.17h2.14v2.14h-2.14zm0 3.6h2.14v2.14h-2.14zm0 10.78h2.14v2.14h-2.14zm0 3.6h2.14v2.14h-2.14zm0 3.6h2.14v2.14h-2.14zm0 3.59h2.14v2.14h-2.14zm0 3.59h2.14v2.14h-2.14zm0 3.6h2.14v2.14h-2.14zm0 3.59h2.14v2.14h-2.14zm-3.41-61.1h2.14v2.14h-2.14zm0 3.59h2.14v2.14h-2.14zm0 3.6h2.14v2.14h-2.14zm0 3.59h2.14v2.14h-2.14zm0 3.6h2.14v2.14h-2.14zm0 3.6h2.14v2.14h-2.14zm0 10.77h2.14v2.14h-2.14zm0 3.6h2.14v2.14h-2.14zm0 3.59h2.14v2.14h-2.14zm0 3.59h2.14v2.14h-2.14zm0 3.6h2.14v2.14h-2.14zm0 3.6h2.14v2.14h-2.14zm0 3.59h2.14v2.14h-2.14zm0 3.59h2.14v2.14h-2.14zm0 3.6h2.14v2.14h-2.14zm0 3.59h2.14v2.14h-2.14zm0 3.59h2.14v2.14h-2.14zm0 7.2h2.14v2.14h-2.14zm-3.4-71.89h2.14v2.14h-2.14zm0 3.59h2.14v2.14h-2.14zm0 3.6h2.14v2.14h-2.14zm0 3.59h2.14v2.14h-2.14zm0 3.6h2.14v2.14h-2.14zm0 3.6h2.14v2.14h-2.14zm0 10.77h2.14v2.14h-2.14zm0 3.6h2.14v2.14h-2.14zm0 3.59h2.14v2.14h-2.14zm0 3.59h2.14v2.14h-2.14zm0 10.79h2.14v2.14h-2.14zm0 3.59h2.14v2.14h-2.14zm0 3.6h2.14v2.14h-2.14zm0 3.59h2.14v2.14h-2.14zm0 3.59h2.14v2.14h-2.14zm0 7.2h2.14v2.14h-2.14zm0 3.59h2.14v2.14h-2.14zm-30.9-42.06h2.14v2.14h-2.14zm0 3.59h2.14v2.14h-2.14zm0 3.6h2.14v2.14h-2.14zm0 3.59h2.14v2.14h-2.14zm0 3.59h2.14v2.14h-2.14zm0 3.6h2.14v2.14h-2.14zm0 3.59h2.14v2.14h-2.14zm0 10.79h2.14v2.14h-2.14zm0 3.59h2.14v2.14h-2.14zm0 3.6h2.14v2.14h-2.14zm-3.4-39.54h2.14v2.14h-2.14zm0 3.59h2.14v2.14h-2.14zm0 3.6h2.14v2.14h-2.14zm0 3.59h2.14v2.14h-2.14zm0 3.59h2.14v2.14h-2.14zm0 3.6h2.14v2.14h-2.14zm0 3.59h2.14v2.14h-2.14zm-3.41-21.56h2.14v2.14h-2.14zm0 3.59h2.14v2.14h-2.14zm0 3.6h2.14v2.14h-2.14zm0 3.59h2.14v2.14h-2.14zm0 3.59h2.14v2.14h-2.14zm0 3.6h2.14v2.14h-2.14zm0 3.59h2.14v2.14h-2.14zm-3.41-21.56h2.14v2.14h-2.14zm0 3.59h2.14v2.14h-2.14zm0 3.6h2.14v2.14h-2.14zm0 3.59h2.14v2.14h-2.14zm0 3.59h2.14v2.14h-2.14zm0 3.6h2.14v2.14h-2.14zm0 3.59h2.14v2.14h-2.14zm0 3.6h2.14v2.14h-2.14zm0 3.59h2.14v2.14h-2.14zm0 3.6h2.14v2.14h-2.14zm0 3.59h2.14v2.14h-2.14zm-3.4-35.94h2.14v2.14h-2.14zm0 3.59h2.14v2.14h-2.14zm0 3.6h2.14v2.14h-2.14zm0 3.59h2.14v2.14h-2.14zm0 3.59h2.14v2.14h-2.14zm0 3.6h2.14v2.14h-2.14zm0 3.59h2.14v2.14h-2.14zm0 3.6h2.14v2.14h-2.14zm0 3.59h2.14v2.14h-2.14zm0 3.6h2.14v2.14h-2.14zm0 3.59h2.14v2.14h-2.14zm0 3.6h2.14v2.14h-2.14zm0 10.78h2.14v2.14h-2.14zm0 3.59h2.14v2.14h-2.14zm-3.41-53.91h2.14v2.14h-2.14zm0 3.59h2.14v2.14h-2.14zm0 3.6h2.14v2.14h-2.14zm0 10.78h2.14v2.14h-2.14zm0 3.59h2.14v2.14h-2.14zm0 3.6h2.14v2.14h-2.14zm0 3.59h2.14v2.14h-2.14zm0 3.6h2.14v2.14h-2.14zm0 3.59h2.14v2.14h-2.14zm0 3.6h2.14v2.14h-2.14zm0 10.78h2.14v2.14h-2.14zm0 3.59h2.14v2.14h-2.14zm0 3.59h2.14v2.14h-2.14zM227.08 171h2.14v2.14h-2.14zm0 3.6h2.14v2.14h-2.14zm0 3.59h2.14v2.14h-2.14zm0 3.59h2.14v2.14h-2.14zm0 3.6h2.14v2.14h-2.14zm0 3.6h2.14v2.14h-2.14zm0 3.59h2.14v2.14h-2.14zm0 3.59h2.14v2.14h-2.14zm0 3.6h2.14v2.14h-2.14zm0 3.59h2.14v2.14h-2.14zm0 3.59h2.14v2.14h-2.14zm0 3.6h2.14v2.14h-2.14zm0 3.59h2.14v2.14h-2.14zm0 3.6h2.14v2.14h-2.14zm0 3.59h2.14v2.14h-2.14zm0 3.6h2.14v2.14h-2.14zm0 3.59h2.14v2.14h-2.14zm0 3.6h2.14v2.14h-2.14zm0 3.59h2.14v2.14h-2.14zm0 3.59h2.14v2.14h-2.14zm0 3.6h2.14v2.14h-2.14zm0 3.59h2.14v2.14h-2.14zm0 3.59h2.14v2.14h-2.14zM223.67 171h2.14v2.14h-2.14zm0 3.6h2.14v2.14h-2.14zm0 3.59h2.14v2.14h-2.14zm0 3.59h2.14v2.14h-2.14zm0 3.6h2.14v2.14h-2.14zm0 3.6h2.14v2.14h-2.14zm0 3.59h2.14v2.14h-2.14zm0 3.59h2.14v2.14h-2.14zm0 3.6h2.14v2.14h-2.14zm0 3.59h2.14v2.14h-2.14zm0 3.59h2.14v2.14h-2.14zm0 3.6h2.14v2.14h-2.14zm0 3.59h2.14v2.14h-2.14zm0 3.6h2.14v2.14h-2.14zm0 3.59h2.14v2.14h-2.14zm0 3.6h2.14v2.14h-2.14zm0 3.59h2.14v2.14h-2.14zm0 3.6h2.14v2.14h-2.14zm0 3.59h2.14v2.14h-2.14zm-3.4-64.7h2.14v2.14h-2.14zm0 3.6h2.14v2.14h-2.14zm0 3.59h2.14v2.14h-2.14zm0 3.59h2.14v2.14h-2.14zm0 3.6h2.14v2.14h-2.14zm0 3.6h2.14v2.14h-2.14zm0 3.59h2.14v2.14h-2.14zm0 3.59h2.14v2.14h-2.14zm0 3.6h2.14v2.14h-2.14zm0 3.59h2.14v2.14h-2.14zm0 3.59h2.14v2.14h-2.14zm0 3.6h2.14v2.14h-2.14zm0 3.59h2.14v2.14h-2.14zm0 3.6h2.14v2.14h-2.14zm0 3.59h2.14v2.14h-2.14zm0 3.6h2.14v2.14h-2.14zm0 3.59h2.14v2.14h-2.14zm0 3.6h2.14v2.14h-2.14zm0 3.59h2.14v2.14h-2.14zm-3.41-64.7H219v2.14h-2.14zm0 3.6H219v2.14h-2.14zm0 3.59H219v2.14h-2.14zm0 3.59H219v2.14h-2.14zm0 3.6H219v2.14h-2.14zm0 3.6H219v2.14h-2.14zm0 3.59H219v2.14h-2.14zm0 3.59H219v2.14h-2.14zm0 3.6H219v2.14h-2.14zm0 3.59H219v2.14h-2.14zm0 3.59H219v2.14h-2.14zm0 3.6H219v2.14h-2.14zm0 3.59H219v2.14h-2.14zm0 3.6H219v2.14h-2.14zm0 3.59H219v2.14h-2.14zm-3.4-50.32h2.14v2.14h-2.14zm0 3.6h2.14v2.14h-2.14zm0 3.59h2.14v2.14h-2.14zm0 3.59h2.14v2.14h-2.14zm0 3.6h2.14v2.14h-2.14zm0 3.6h2.14v2.14h-2.14zm0 3.59h2.14v2.14h-2.14zm0 3.59h2.14v2.14h-2.14zm0 3.6h2.14v2.14h-2.14zm0 3.59h2.14v2.14h-2.14zm0 3.59h2.14v2.14h-2.14zm0 3.6h2.14v2.14h-2.14zm0 3.59h2.14v2.14h-2.14zM210.05 171h2.14v2.14h-2.14zm0 3.6h2.14v2.14h-2.14zm0 3.59h2.14v2.14h-2.14zm0 3.59h2.14v2.14h-2.14zm0 3.6h2.14v2.14h-2.14zm0 3.6h2.14v2.14h-2.14zm0 3.59h2.14v2.14h-2.14zm0 3.59h2.14v2.14h-2.14zm0 3.6h2.14v2.14h-2.14zm0 3.59h2.14v2.14h-2.14zm0 3.59h2.14v2.14h-2.14zm0 3.6h2.14v2.14h-2.14zm198.75-40.61h2.14v2.14h-2.14zm0 3.6h2.14v2.14h-2.14zm0 3.6h2.14v2.14h-2.14zm0 3.58h2.14v2.14h-2.14zm0 3.59h2.14v2.14h-2.14zm0 3.6h2.14v2.14h-2.14zm0 3.6h2.14v2.14h-2.14zm0 3.59h2.14v2.14h-2.14zm0 3.59h2.14v2.14h-2.14zm0 3.6h2.14v2.14h-2.14zm0 3.6h2.14v2.14h-2.14zm0 3.59h2.14v2.14h-2.14zm0 3.59h2.14v2.14h-2.14zm0 3.6h2.14v2.14h-2.14zm0 3.59h2.14v2.14h-2.14zm0 3.59h2.14v2.14h-2.14zm0 3.6h2.14v2.14h-2.14zm0 7.19h2.14v2.14h-2.14zm0 3.59h2.14v2.14h-2.14zm0 3.6h2.14v2.14h-2.14zm0 3.6h2.14v2.14h-2.14zm0 3.58h2.14v2.14h-2.14zm-3.4-79.07h2.14v2.14h-2.14zm0 3.6h2.14v2.14h-2.14zm0 3.6h2.14v2.14h-2.14zm0 3.58h2.14v2.14h-2.14zm0 3.59h2.14v2.14h-2.14zm0 3.6h2.14v2.14h-2.14zm0 3.6h2.14v2.14h-2.14zm0 3.59h2.14v2.14h-2.14zm0 3.59h2.14v2.14h-2.14zm0 3.6h2.14v2.14h-2.14zm0 3.6h2.14v2.14h-2.14zm0 3.59h2.14v2.14h-2.14zm0 3.59h2.14v2.14h-2.14zm0 3.6h2.14v2.14h-2.14zm0 3.59h2.14v2.14h-2.14zm0 3.59h2.14v2.14h-2.14zm0 21.58h2.14v2.14h-2.14zm0 3.58h2.14v2.14h-2.14zm-3.4-79.07h2.14v2.14H402zm0 3.6h2.14v2.14H402zm0 3.6h2.14v2.14H402zm0 3.58h2.14v2.14H402zm0 3.59h2.14v2.14H402zm0 3.6h2.14v2.14H402zm0 3.6h2.14v2.14H402zm0 3.59h2.14v2.14H402zm0 3.59h2.14v2.14H402zm0 3.6h2.14v2.14H402zm0 3.6h2.14v2.14H402zm0 3.59h2.14v2.14H402zm0 3.59h2.14v2.14H402zm0 3.6h2.14v2.14H402zm0 3.59h2.14v2.14H402zm0 3.59h2.14v2.14H402zm0 7.2h2.14v2.14H402zm0 3.59h2.14v2.14H402zm0 3.59h2.14v2.14H402zm0 3.6h2.14v2.14H402zm0 7.18h2.14v2.14H402zm-59.4-53.91h2.14v2.14h-2.14zm0 3.59h2.14v2.14h-2.14zm0 3.6h2.14v2.14h-2.14zm0 3.6h2.14v2.14h-2.14zm0 3.59h2.14v2.14h-2.14zm0 3.59h2.14v2.14h-2.14zm0 3.6h2.14v2.14h-2.14zm0 3.59h2.14v2.14h-2.14zm0 3.59h2.14v2.14h-2.14zm0 3.6h2.14v2.14h-2.14zm0 3.6h2.14v2.14h-2.14zm0 3.59h2.14v2.14h-2.14zm0 3.59h2.14v2.14h-2.14zm0 7.2h2.14v2.14h-2.14zm0 3.58h2.14v2.14h-2.14zm0 3.59h2.14v2.14h-2.14zm0 3.6h2.14v2.14h-2.14zm0 7.19h2.14v2.14h-2.14zm0 3.6h2.14v2.14h-2.14zm0 3.59h2.14v2.14h-2.14zm-3.41-75.48h2.14v2.14h-2.14zm0 3.59h2.14v2.14h-2.14zm0 3.6h2.14v2.14h-2.14zm0 3.6h2.14v2.14h-2.14zm0 3.59h2.14v2.14h-2.14zm0 3.59h2.14v2.14h-2.14zm0 3.6h2.14v2.14h-2.14zm0 3.59h2.14v2.14h-2.14zm0 3.59h2.14v2.14h-2.14zm0 3.6h2.14v2.14h-2.14zm0 3.6h2.14v2.14h-2.14zm0 3.59h2.14v2.14h-2.14zm0 3.59h2.14v2.14h-2.14zm0 10.78h2.14v2.14h-2.14zm0 3.59h2.14v2.14h-2.14zm0 7.2h2.14v2.14h-2.14zm0 3.59h2.14v2.14h-2.14zm0 3.6h2.14v2.14h-2.14zm0 3.59h2.14v2.14h-2.14zm-3.4-75.48h2.14v2.14h-2.14zm0 3.59h2.14v2.14h-2.14zm0 3.6h2.14v2.14h-2.14zm0 3.6h2.14v2.14h-2.14zm0 3.59h2.14v2.14h-2.14zm0 3.59h2.14v2.14h-2.14zm0 3.6h2.14v2.14h-2.14zm0 3.59h2.14v2.14h-2.14zm0 3.59h2.14v2.14h-2.14zm0 3.6h2.14v2.14h-2.14zm0 3.6h2.14v2.14h-2.14zm0 3.59h2.14v2.14h-2.14zm0 3.59h2.14v2.14h-2.14zm0 3.6h2.14v2.14h-2.14zm0 7.18h2.14v2.14h-2.14zm0 7.19h2.14v2.14h-2.14zm0 3.6h2.14v2.14h-2.14zm0 3.59h2.14v2.14h-2.14zm0 3.6h2.14v2.14h-2.14zm0 3.59h2.14v2.14h-2.14zm20.68-54.98h2.14v2.14h-2.14zm0 3.59h2.14v2.14h-2.14zm0 3.6h2.14v2.14h-2.14zm0 3.58h2.14v2.14h-2.14zm0 3.6h2.14v2.14h-2.14zm0 3.59h2.14v2.14h-2.14zm0 10.79h2.14v2.14h-2.14zm0 3.59h2.14v2.14h-2.14zm0 3.6h2.14v2.14h-2.14zm0 3.59h2.14v2.14h-2.14zm0 3.6h2.14v2.14h-2.14zm0 3.59h2.14v2.14h-2.14zm0 3.59h2.14v2.14h-2.14zm-3.41-50.31h2.14v2.14h-2.14zm0 3.59h2.14v2.14h-2.14zm0 3.6h2.14v2.14h-2.14zm0 3.58h2.14v2.14h-2.14zm0 3.6h2.14v2.14h-2.14zm0 3.59h2.14v2.14h-2.14zm0 10.79h2.14v2.14h-2.14zm0 3.59h2.14v2.14h-2.14zm0 3.6h2.14v2.14h-2.14zm0 3.59h2.14v2.14h-2.14zm0 3.6h2.14v2.14h-2.14zm0 3.59h2.14v2.14h-2.14zm0 7.19h2.14v2.14h-2.14zm-113.12-69.74h2.14v2.14h-2.14zm0 3.59h2.14v2.14h-2.14zm0 3.59h2.14v2.14h-2.14zm0 3.6h2.14v2.14h-2.14zm0 3.59h2.14v2.14h-2.14zm0 3.6h2.14v2.14h-2.14zm0 3.59h2.14v2.14h-2.14zm0 3.6h2.14v2.14h-2.14zm0 3.59h2.14v2.14h-2.14zm0 3.6h2.14v2.14h-2.14zm0 3.59h2.14v2.14h-2.14zm0 7.19h2.14v2.14h-2.14zm0 3.59h2.14v2.14h-2.14zm0 3.59h2.14v2.14h-2.14zm0 3.6h2.14v2.14h-2.14zm0 3.6h2.14v2.14h-2.14zm0 3.59h2.14V263h-2.14zm0 3.59h2.14v2.14h-2.14zm0 3.6h2.14v2.14h-2.14zm-3.4-68.29h2.14v2.14h-2.14zm0 3.59h2.14v2.14h-2.14zm0 3.59h2.14v2.14h-2.14zm0 3.6h2.14v2.14h-2.14zm0 3.59h2.14v2.14h-2.14zm0 3.6h2.14v2.14h-2.14zm0 3.59h2.14v2.14h-2.14zm0 3.6h2.14v2.14h-2.14zm0 3.59h2.14v2.14h-2.14zm0 3.6h2.14v2.14h-2.14zm0 3.59h2.14v2.14h-2.14zm0 3.59h2.14v2.14h-2.14zm0 3.6h2.14v2.14h-2.14zm0 3.59h2.14v2.14h-2.14zm0 3.59h2.14v2.14h-2.14zm0 3.6h2.14v2.14h-2.14zm0 3.6h2.14v2.14h-2.14zm0 3.59h2.14V263h-2.14zm0 3.59h2.14v2.14h-2.14zm0 3.6h2.14v2.14h-2.14zm20.18-54.29h2.14v2.14h-2.14zm0 3.59h2.14v2.14h-2.14zm0 3.59h2.14v2.14h-2.14zm0 3.6h2.14v2.14h-2.14zm0 3.6h2.14v2.14h-2.14zm0 3.59h2.14v2.14h-2.14zm0 3.59h2.14v2.14h-2.14zm0 3.59h2.14v2.14h-2.14zm0 3.6h2.14v2.14h-2.14zm0 3.59h2.14v2.14h-2.14zm-3.41-32.34h2.14v2.14h-2.14zm0 3.59h2.14v2.14h-2.14zm0 3.59h2.14v2.14h-2.14zm0 3.6h2.14v2.14h-2.14zm0 3.6h2.14v2.14h-2.14zm0 3.59h2.14v2.14h-2.14zm0 3.59h2.14v2.14h-2.14zm0 3.59h2.14v2.14h-2.14zm0 3.6h2.14v2.14h-2.14z"/>
  <path fill="#e0e0e0" d="M272.11 77.36h3.6v200.47h-3.6zm67.7 0h3.6v200.47h-3.6zm67.69 0h3.6v200.47h-3.6z"/>
  <path fill="#f0f0f0" d="M155.23 258.28h22.18a3.8 3.8 0 0 1 3.79 3.8v42.85h-29.75v-42.82a3.79 3.79 0 0 1 3.76-3.83z"/>
  <path fill="#e6e6e6" d="M151.45 264.63h29.75v3.35h-29.75z"/>
  <path fill="#e0e0e0" d="M168.37 299.33h7.41a2.04 2.04 0 0 1 2.04 2.04v3.61H166.3v-3.65a2.04 2.04 0 0 1 2.04-2.04z"/>
  <path fill="#e6e6e6" d="M177.86 304.96h-8.25a1.32 1.32 0 0 1-1.32-1.32 1.32 1.32 0 0 1 1.32-1.31h8.25a1.32 1.32 0 0 1 1.32 1.31 1.32 1.32 0 0 1-1.32 1.32z"/>
  <use xlink:href="#a" stroke-width=".5"/>
  <use xlink:href="#a" stroke-width=".5" opacity=".2" style="isolation:isolate"/>
  <path fill="#e6e6e6" d="M108.81 304.96H77.7l-3.35-34.06h37.83z"/>
  <path fill="#f0f0f0" d="M72.68 267.15h41.15v7.52H72.68z"/>
  <rect width="26.71" height="16.79" x="161.48" y="208.8" fill="#0071f2" rx="1.19" transform="rotate(-28.31)"/>
  <rect width="26.71" height="16.79" x="161.48" y="208.8" fill="#fff" opacity=".7" rx="1.19" style="isolation:isolate" transform="rotate(-28.31)"/>
  <path d="M259.78 109.67a2.91 2.91 0 0 1-3.06 1.66l-14.19-2.1 13.94 1.38a2.73 2.73 0 0 0 2.69-1.43l6.66-12.52z" opacity=".2" style="isolation:isolate"/>
  <path fill="#0071f2" d="m174.53 109.94-1.64 1.84a.25.25 0 0 1-.22.08.25.25 0 0 1-.2-.27l.23-2.18-2.84.22a.22.22 0 0 1-.21-.1.22.22 0 0 1 .07-.31l2.71-1.72z"/>
  <path fill="#fff" d="m174.53 109.94-1.64 1.84a.25.25 0 0 1-.22.08.25.25 0 0 1-.2-.27l.23-2.18-2.84.22a.22.22 0 0 1-.21-.1.22.22 0 0 1 .07-.31l2.71-1.72z" opacity=".3" style="isolation:isolate"/>
  <path fill="#2f2e41" d="M174.92 106.83a.4.4 0 0 1 0 .78.4.4 0 0 1 0-.78z"/>
  <path fill="#0071f2" d="M356.9 146.3a.32.47 68.91 0 1-.48-.22.33.48 68.91 0 1 .43-.44 30.6 44.9 68.91 0 0 7.16-2.23.33.48 68.91 0 1 .24.6 31.44 46.13 68.91 0 1-7.35 2.3zm14.22-5.21a.32.47 68.91 0 1-.47-.11.33.48 68.91 0 1 .24-.5 48.54 71.23 68.91 0 0 6.64-3.48.32.47 68.91 1 1 .4.52 43.64 64.05 68.91 0 1-6.75 3.52zm-21.45 6.43a.35.5 68.91 0 1-.23.04 17.6 25.82 68.91 0 1-7.12-.25.33.48 68.91 0 1 .41-.7 16.82 24.68 68.91 0 0 6.86.25.32.47 68.91 0 1 .35.31.3.45 68.91 0 1-.33.33zm34-13.97a.33.49 68.91 0 1 .13-.5c2.03-1.36 4.01-2.8 5.91-4.27a.32.47 68.91 0 1 .58-.06.33.48 68.91 0 1 0 .47c-1.93 1.5-3.95 2.96-6 4.33l-.13.05a.33.49 68.91 0 1-.49-.02zm12.03-8.88a.33.49 68.91 0 1-.52.04.32.46 68.91 0 1 .01-.47 94.7 94.7 0 0 0 5.02-4.86.32.47 68.91 0 1 .64-.16.32.46 68.91 0 1 .05.46 90.13 90.13 0 0 1-5.07 4.91.28.4 68.91 0 1-.22.09zm-58.93 20.61a.33.49 68.91 0 1-.52.06c-.56-.32-1.1-.66-1.6-1a19.29 28.3 68.91 0 1-2.8-2.55.32.47 68.91 0 1 .18-.49.33.49 68.91 0 1 .62.02 18.03 26.46 68.91 0 0 2.71 2.46c.5.35 1.01.69 1.54.96a.32.46 68.91 0 1-.01.46.28.4 68.91 0 1-.22.09zm68.4-30.64a.32.47 68.91 0 1-.38-.04.34.5 68.91 0 1-.16-.43 37.09 54.43 68.91 0 0 3.62-5.31.31.46 68.91 0 1 .6-.24.33.48 68.91 0 1 .17.43 37.98 55.73 68.91 0 1-3.68 5.42.35.51 68.91 0 1-.25.18zm-75.47 22.67a.33.48 68.91 0 1-.56-.13 30.36 44.56 68.91 0 1-1.2-5.13.34.5 68.91 0 1 .43-.45.32.47 68.91 0 1 .49.22 30.05 44.1 68.91 0 0 1.19 5 .32.47 68.91 0 1-.33.47zm-1.45-10.4a.33.49 68.91 0 1-.44-.26c.07-1.64.24-3.45.5-5.48a.33.49 68.91 0 1 .5-.4.32.47 68.91 0 1 .38.3 56.5 56.5 0 0 0-.48 5.43.33.49 68.91 0 1-.35.38zm1.29-10.96a.33.49 68.91 0 1-.4-.32c.27-1.55.72-3.4 1.19-5.41l-.03-.08a.33.48 68.91 0 1 .9-.06l.03.08c-.47 1.98-.93 3.85-1.19 5.43a.3.44 68.91 0 1-.32.31zm2.67-11.09a.3.44 68.91 0 1-.17 0 .32.47 68.91 0 1-.38-.31c.42-2.07.69-3.86.82-5.47a.33.49 68.91 0 1 .49-.42.33.48 68.91 0 1 .42.29 55.21 55.21 0 0 1-.83 5.53.33.48 68.91 0 1-.35.33zm.7-10.88a.34.5 68.91 0 1-.5-.2 17.35 25.46 68.91 0 0-.68-2.63 12.02 17.64 68.91 0 0-1.14-2.08.34.5 68.91 0 1 .19-.44.33.48 68.91 0 1 .64-.02 12.95 19 68.91 0 1 1.2 2.22 17.33 25.43 68.91 0 1 .7 2.72.33.49 68.91 0 1-.33.42zm-6.53-7.9a.33.49 68.91 0 1-.43 0 13.02 19.11 68.91 0 0-6.52-.84.34.5 68.91 0 1-.35-.33.33.49 68.91 0 1 .56-.36 13.83 20.3 68.91 0 1 6.85.87.34.5 68.91 0 1 .16.43.32.47 68.91 0 1-.26.17zm-49.02 14.34a.32.47 68.91 0 1-.51-.07.33.48 68.91 0 1 .2-.5 155.6 155.6 0 0 1 6.75-3.52.32.46 68.91 0 1 .58.07.32.46 68.91 0 1-.24.48 127.45 127.45 0 0 0-6.66 3.49l-.13.05zm35.02-14.3a32.68 47.96 68.91 0 0-7.21 2 .32.47 68.91 0 1-.53-.17.33.49 68.91 0 1 .37-.46 34.43 50.53 68.91 0 1 7.33-2.02.32.46 68.91 0 1 .52.17.33.48 68.91 0 1-.38.46zm-21.4 7.66a.32.47 68.91 0 1-.46-.19.31.46 68.91 0 1 .3-.46c1.96-.87 4.38-1.92 6.97-2.96a.32.46 68.91 0 1 .54.13.33.48 68.91 0 1-.31.47 228.01 228.01 0 0 0-6.98 2.95zM408.5 127.9a.34.34 0 0 1-.2-.06.3.3 0 0 1-.07-.43 22.2 22.2 0 0 0 1.12-2.27.34.34 0 0 1 .42-.17.32.32 0 0 1 .17.43 21.62 21.62 0 0 1-1.16 2.33.32.32 0 0 1-.29.17z"/>
  <path fill="#c2c4c6" d="m118.76 139.48 8.98 95.2h4.6l-9.4-95.4zm12.74 0 6.05 93.95h3.76l-5.22-94.16zm-.63 182.68h-4.6v-80.8h6.9zm26.1-.42h-4.6l-1.87-80.37h6.89zm6.89.21h4.59l1.88-80.38h-6.89zm34.86 0h4.6l.2-79.75h-6.89z"/>
  <path fill="#2e3135" d="M125.44 231.77h36.53v10.85h-36.53z"/>
  <path fill="#3f4347" d="M161.98 231.77h42.8v10.85h-42.8z"/>
  <path fill="#f9b499" d="M166.78 304.83v8.56h9.81v-9.6z"/>
  <path fill="#0071f2" d="M166.36 320.99v-8.22l10.26-.13 11.46 6.05a1.97 1.97 0 0 1 1.05 1.74 1.97 1.97 0 0 1-1.95 1.97l-19.2.17a1.58 1.58 0 0 1-1.62-1.58z"/>
  <path fill="#f9b499" d="M211.88 304.63v8.55h9.8v-9.6z"/>
  <path fill="#0071f2" d="M211.46 320.78v-8.22l10.26-.13 11.44 6.05a1.96 1.96 0 0 1 1.05 1.74 1.96 1.96 0 0 1-1.95 1.97l-19.21.18a1.59 1.59 0 0 1-1.6-1.6z"/>
  <path fill="#9ea0a3" d="M98.51 322.16h3.13l16.91-125.27h-3.34zm60.75 0h-3.13l-16.9-125.27h3.33z"/>
  <path fill="#9ea0a3" d="M107.07 265.59h43.01v3.34h-43.01zm155.33 56.57h3.13l16.92-125.27h-3.35zm60.76 0h-3.14l-16.9-125.27h3.33z"/>
  <path fill="#9ea0a3" d="M270.96 265.59h43.01v3.34h-43.01z"/>
  <path fill="#2e3135" d="m172.63 128 .41 12.73L117.1 142l-.63-12.32z"/>
  <rect width="219.42" height="6.68" x="104.98" y="192.73" fill="#e1e1e2" rx="3.34"/>
  <path fill="#2f2e41" d="M160.93 308.8h26.31l4.38-57.6s.21-8.34-.41-12.31c0 0 10.85 7.1 13.36 8.35l-.77 57.3s17.68 4.08 25.82 1.57l2.92-62.42s2.09-15.66-10.01-25.68l-22.04-18.5-57.17-.2s-6.01 22.87 6.32 36.03l12.3 12.25a4.9 4.9 0 0 1 1.44 3.69z"/>
  <path d="M191.2 238.87s.63-7.51-5.21-16.08l-11.28-18.58s23.75 18.9 33.14 29.42a13.19 13.19 0 0 1 3.34 8.94l-.8 63.1a54.04 54.04 0 0 1-6.6-1.16l.78-57.27z" opacity=".2"/>
  <path fill="#0071f2" d="m176.28 130.97-22.26 5.18s-10.85.2-14.2 11.9l-4.9 25.79 11.8 8.45 9.68 10.42h61.73l-3.35-40.7s-3.14-11.33-24.75-16.2z"/>
  <path d="m157.6 147.42-1 17.92-.18 27.37h15.38s-9.61-26.7-14.2-45.29zm43.2 45.29h9.66s-6.1-21.07-6.31-37.77z" opacity=".2"/>
  <rect width="70.15" height="48.23" x="206.86" y="132.18" fill="#2f2e41" rx="5.25"/>
  <rect width="70.15" height="48.23" x="206.86" y="132.18" opacity=".2" rx="5.18"/>
  <path fill="#f9b499" d="M245.78 122.66a.96.96 0 0 1-.27.57 1 1 0 0 1-.57.3l-6.55.93s2.09.41 2.09 1.67c0 0 .41.83-.84 1.67a2.42 2.42 0 0 1-.2 2.71s.53 1.35-.26 1.72l-14.78-.05s5-9.4 13.15-10.44l7.02-.17h.22a1 1 0 0 1 .99 1.09z"/>
  <path fill="#f7a48b" d="M245.78 122.66a.96.96 0 0 1-.27.57 1 1 0 0 1-.57.3l-6.55.93a10.22 10.22 0 0 0-6.27 1.67c1.47-2.92 7.94-2.92 7.94-2.92 2.95-.21 4.09-.96 4.5-1.64h.23a1 1 0 0 1 .99 1.09z"/>
  <path fill="none" stroke="#f7a48b" stroke-miterlimit="10" stroke-width=".5" d="m238.8 128.22-3.14 3.13s-.71.71-4 .88"/>
  <path fill="#f9b499" d="M189.95 128.22v8.66a6.79 6.79 0 0 1-13.57 0v-13.26l2.2-.92z"/>
  <path fill="#f7a48b" d="M189.95 128.22v6.16c-1.85-.08-6.82-.93-9.91-7.34z"/>
  <ellipse cx="194.96" cy="114.75" fill="#0071f2" rx="3.76" ry="5.32"/>
  <ellipse cx="194.55" cy="115.17" opacity=".2" rx="2.71" ry="3.85"/>
  <rect width="19.41" height="27.97" x="123.95" y="161.01" fill="#f9b499" rx="9.71" transform="rotate(-20.47)"/>
  <path fill="#2f2e41" d="M171.74 120.82s-5.3-6.45-1.5-15.47a4.11 4.11 0 0 1 1.57-1.9 2.84 2.84 0 0 1 3.13-.08s0-.11.04-.3a5.89 5.89 0 0 1 6.94-4.76 26 26 0 0 0 8.16.17 9.46 9.46 0 0 0 1.35-.28c1.57-.43 6.72-1.33 7.07 5.57 0 0 1.23 3.63-4.3 6.3l-.83-1.77a8.26 8.26 0 0 0-1.68-2.05s-5.71 4.82-12.81 3.57l-.8 2.5z"/>
  <path fill="#f9b499" d="M176.06 119.01h3v6.06h-3a3 3 0 0 1-3-3 3 3 0 0 1 3-3.06z"/>
  <path fill="#0071f2" d="M175.34 112.97s-1.28-10.52 6.56-14.66l1.78.3s-6.01 6.08-4.57 14.19z"/>
  <ellipse cx="177.43" cy="118.09" fill="#3f4347" rx="4.18" ry="5.95"/>
  <ellipse cx="175.34" cy="118.09" fill="#0071f2" rx="4.18" ry="5.11"/>
  <ellipse cx="175.02" cy="117.88" opacity=".2" rx="2.82" ry="3.65"/>
  <ellipse cx="149.34" cy="179.16" fill="#0071f2" rx="15.55" ry="15.45"/>
  <path fill="#f9b499" d="M176.6 181.24s-35.92 19.63-40.08 1.26c0 0-3.55-14.2 12.1-14.2 0 0 11.9-.21 29.24 3.34l17.73 3.66a7.15 7.15 0 0 1 4.1 2.5l7.77 9.52a.88.88 0 0 1-.26 1.33.88.88 0 0 1-1.03-.12l-8.7-7.9 1.56 4.14a2.87 2.87 0 0 1-.23 2.53c-.5.79-1.44 1.47-3.21 1.05 0 0-1.25 1.25-3.34 0 0 0-1.76 1.05-6.09 1.23a.5.5 0 0 1-.37-.9c.8-.77 2.07-1.71 3.33-1.59l-1.25-2.92s-8.36 1.25-11.28-2.93z"/>
  <path fill="none" stroke="#f7a48b" stroke-miterlimit="10" stroke-width=".5" d="M192.04 177.7s4.6-.42 5.43 2.92m-7.31-2.09 2.54 1.22a4.34 4.34 0 0 1 2.47 3.57l.42 5.01m-3.34.02-.16-3.32a3.74 3.74 0 0 0-1.39-2.77l-2-1.64"/>
  <rect width="70.15" height="48.23" x="210.62" y="132.18" fill="#2f2e41" rx="6.95"/>
  <rect width="3.55" height="10.65" x="257.18" y="136.99" fill="#0071f2" rx="1.77"/>
  <rect width="3.55" height="10.65" x="262.61" y="136.99" fill="#0071f2" rx="1.77"/>
  <rect width="3.55" height="10.65" x="268.24" y="136.99" fill="#0071f2" rx="1.77"/>
  <path fill="#0071f2" d="m238.17 156.2 7.93 34.23h-24.2a1.26 1.26 0 0 0-1.26 1.26 1.26 1.26 0 0 0 1.26 1.26h35.3a3.06 3.06 0 0 0 3-3.67l-6.75-32.88z"/>
  <path d="m238.18 156.19-.17 24.13 5.7.17z" opacity=".2"/>
  <path fill="#0071f2" d="M81.53 259.44c-5.26-10.83-14.52-16.39-24.87-13.32-10.35 3.06-12 17.56-4.2 21.21 7.78 3.66 15.52-7 19.6-9.21 4.07-2.2 9.47 1.32 9.47 1.32z"/>
  <path fill="#2f2e41" d="M86.63 288.31c0-1.3-.08-2.61-.13-3.92l-.28-7.81c-.17-4.77-.68-9.44-2.65-13.84a21.5 21.5 0 0 0-8.36-9.62 17.62 17.62 0 0 0-4.39-1.9 10.23 10.23 0 0 0-5.12-2.82 20.83 20.83 0 0 0-7.31-.19c-.1 0-.09.16 0 .14a17.47 17.47 0 0 1 6.9.5 14.11 14.11 0 0 1 2.8 1.07 12.6 12.6 0 0 1 1.6 1 14.84 14.84 0 0 0-6.35.07 13.84 13.84 0 0 0-2.2.72 6.64 6.64 0 0 0-1.73-.15 10.69 10.69 0 0 0-2.25.32 16.65 16.65 0 0 0-4.27 1.87c-.08 0 0 .16.07.11a16.26 16.26 0 0 1 4.17-1.61 14.8 14.8 0 0 1 2.15-.31 11.73 11.73 0 0 1 1.18 0 13.76 13.76 0 0 0-6.7 6.68c0 .08.07.16.11.07a12.7 12.7 0 0 1 8.56-6.85l.7-.13c-.05.35-.09.7-.1 1.04-.08.53-.17 1.06-.27 1.58a26.62 26.62 0 0 1-.85 3.17 25.39 25.39 0 0 1-1.3 3.07 14.64 14.64 0 0 1-1.76 2.98.08.08 0 0 0-.02.1.08.08 0 0 0 .1 0 .08.08 0 0 0 .03-.04c.63-1 1.35-1.88 1.92-2.9a21.5 21.5 0 0 0 1.41-3 20.12 20.12 0 0 0 .9-3.24 17.53 17.53 0 0 0 .28-1.76 3.93 3.93 0 0 0 .07-1.08 14.38 14.38 0 0 1 3.68-.07c-.46 2.58-.95 5.28-2.4 7.51-.04.07.09.14.13.06a30.73 30.73 0 0 0 1.81-3.69 14.16 14.16 0 0 0 .91-3.84 17.17 17.17 0 0 1 6.1 2.04 20.22 20.22 0 0 1 8.13 8.89 33.64 33.64 0 0 1 3 12.7c.35 5.5.42 11.1.97 16.61 0 .36.6.5.67.07a20.76 20.76 0 0 0 .1-3.6zm-12.17-36.12a6.31 6.31 0 0 0-1.2-1.08c-.44-.36-.9-.7-1.34-1a9.93 9.93 0 0 0-3-1.4c-.1 0-.14.13 0 .14a7.91 7.91 0 0 1 2.94 1.45 12.7 12.7 0 0 1 1.27 1.03 7.33 7.33 0 0 0 1.21 1c.07.03.17-.08.12-.14z"/>
  <path fill="#2f2e41" d="M57.65 256.11a32.16 32.16 0 0 0-2.42 3.16 20.06 20.06 0 0 0-1.81 3.57s.04.05.06 0a42.53 42.53 0 0 1 4.25-6.7c.08 0-.02-.1-.08-.03zm11.33-1.07a7.71 7.71 0 0 1-.6 1.95 12.74 12.74 0 0 1-1.01 1.77s0 .07.05 0a7.01 7.01 0 0 0 1.68-3.71c.03-.06-.11-.1-.12 0z"/>
  <path fill="#0071f2" d="M85.9 259.7s7.46-9.38 21.89-6.06c13.67 3.17 19.96 28.25 6.17 31.25-13.8 3.01-11.43-20.18-16.47-24.15-3.7-2.89-9.02-2.27-11.59-1.04z"/>
  <path fill="#2f2e41" d="M118.86 267.35a28.36 28.36 0 0 0-2.97-2.28 13.02 13.02 0 0 0-3.16-1.57 19.82 19.82 0 0 0-1.87-2.42 18.82 18.82 0 0 0-4.36-3.46h.44a22 22 0 0 1 2.3 0 12.58 12.58 0 0 1 4.43 1.1c.08 0 .15-.09.07-.12a20.44 20.44 0 0 0-4.44-1.34 12.52 12.52 0 0 0-2.25-.2 6.97 6.97 0 0 0-1.2.08h-.24a19.1 19.1 0 0 0-4.17-1.5 2.39 2.39 0 0 0 .4-.12 19.06 19.06 0 0 1 2.13-.35 16.76 16.76 0 0 1 4.31.06c.1 0 .11-.12 0-.12a26.9 26.9 0 0 0-4.35-.19 18.08 18.08 0 0 0-3.63.48 19.39 19.39 0 0 0-2.63-.3c-5-.22-10.49 1.66-13.6 5.78-3.13 4.13-3.7 9.63-4.24 14.62a110.88 110.88 0 0 0-.47 20.95c0 .4.6.34.62-.06.2-5.91.4-11.79.96-17.72.27-2.72.56-5.44 1-8.17a24.14 24.14 0 0 1 2-6.72 12.28 12.28 0 0 1 4.86-5.23 16.3 16.3 0 0 1 6.88-2.12 18.75 18.75 0 0 1 6.47.6 4.23 4.23 0 0 0 0 1.29 7.01 7.01 0 0 0 .31 1.57 8.01 8.01 0 0 0 .6 1.4c.26.5.6.9.9 1.4 0 .07.17 0 .11-.08a6.63 6.63 0 0 1-1.14-2.85 12.86 12.86 0 0 1-.17-1.46v-1.11a19.1 19.1 0 0 1 6.28 3.32 12.95 12.95 0 0 1 1 .9 7.07 7.07 0 0 0-1.22 1.5 14.79 14.79 0 0 0-1.28 2.29 19.43 19.43 0 0 0-1.37 4.94c0 .1.12.12.13 0a14.4 14.4 0 0 1 1.64-4.74 19.13 19.13 0 0 1 1.28-2.1c.23-.35.5-.7.75-1.03.14-.17.29-.35.43-.55a19.63 19.63 0 0 1 4.08 5.75 9.8 9.8 0 0 0-1.69 2.43 22.04 22.04 0 0 0-1.34 2.87 48.66 48.66 0 0 0-1.72 5.87.07.07 0 0 0 .04.1.08.08 0 0 0 .1-.05.09.09 0 0 0 0-.05 24.64 24.64 0 0 1 2.08-5.77c.43-.9.9-1.8 1.37-2.66a25.4 25.4 0 0 0 1.35-2.5 18.64 18.64 0 0 1 1.64 6.66c0 .1.15.09.14 0a23.34 23.34 0 0 0-3.23-10.23 27.7 27.7 0 0 1 2.6 1.2 14.62 14.62 0 0 1 3 2.1c.02.07.11 0 .04-.1z"/>
  <path fill="#2f2e41" d="M108.3 267.87c-.42 1.43-.97 2.81-1.36 4.24a16.4 16.4 0 0 0-.64 4.24h.07a41.57 41.57 0 0 1 2.07-8.43.07.07 0 1 0-.14-.05zm9.13-3.51a8.19 8.19 0 0 0-1.92-1.36 12.94 12.94 0 0 0-2.2-.79c-.09 0-.11.12 0 .14a8.64 8.64 0 0 1 2.14.92 15.16 15.16 0 0 1 1.95 1.2s.06-.08.03-.11z"/>
  <path fill="#0071f2" d="M92.98 247.18s1.38-16.84 13.9-22.29c10.45-4.53 16.43 7.19 9.06 14.38-6 5.81-15.58 3.19-22.96 7.9z"/>
  <path fill="#2f2e41" d="M113.6 228.15a53.36 53.36 0 0 0-5.56 2.64 40.57 40.57 0 0 0-4.32 2.86c.2-.42.39-.9.6-1.28a21.43 21.43 0 0 1 1.06-1.9 18.03 18.03 0 0 1 2.72-3.51c.07-.05 0-.15-.1-.1a28.64 28.64 0 0 0-2.9 3.38 21.27 21.27 0 0 0-1.2 1.9 7.87 7.87 0 0 0-.83 1.95l-.14.1a41.53 41.53 0 0 0-5.98 5.85 1.76 1.76 0 0 1 .11-.5c.24-.83.5-1.63.76-2.45a20.87 20.87 0 0 1 2.26-4.9.07.07 0 0 0-.02-.1.07.07 0 0 0-.1.03 38.66 38.66 0 0 0-2.62 4.79 18.62 18.62 0 0 0-.9 2.5 10.76 10.76 0 0 0-.41 1.7c-.55.68-1.1 1.38-1.59 2.1-5.38 7.65-8.07 16.9-8.71 26.16a77.58 77.58 0 0 0-.15 8.3 52.2 52.2 0 0 0 .73 8.32.16.16 0 0 0 .2.1.16.16 0 0 0 .1-.14c-.05-2.44-.3-4.87-.35-7.26a71.29 71.29 0 0 1 .23-7.31 68.28 68.28 0 0 1 2.73-14.32 51.24 51.24 0 0 1 6.34-13.47c.53-.11 1.06-.26 1.58-.38l1.87-.5a19.12 19.12 0 0 0 3.5-1.28c.09 0 0-.17-.07-.12a11.02 11.02 0 0 1-3.54 1.23c-.97.19-2 .31-2.97.54q1.36-2 2.91-3.83a21.57 21.57 0 0 0 7.1-.53 30.4 30.4 0 0 0 3.62-1.13c1.26-.5 2.44-1.1 3.68-1.62.09 0 0-.18-.06-.13a21 21 0 0 1-7.24 2.38 44.08 44.08 0 0 1-6.75.55c.9-1 1.81-2 2.79-2.94a32.85 32.85 0 0 1 11.52-7.51c.24-.07.19-.2.1-.17z"/>
  <path fill="#2f2e41" d="M103.43 228.2a18.43 18.43 0 0 0-1.53 2.24 12.13 12.13 0 0 0-1.1 2.62h.04c.42-.83.77-1.68 1.2-2.5a12.76 12.76 0 0 1 1.5-2.28c.03-.05-.07-.15-.1-.07zm11.61 5.61a12.78 12.78 0 0 1-2.57 1.07 22.35 22.35 0 0 1-2.61.7v.07a12.71 12.71 0 0 0 2.72-.59 23.8 23.8 0 0 0 2.5-1.13c.13-.06.06-.16-.04-.12z"/>
  <path fill="#0071f2" d="M83.3 244.15c-.08.73-1.9-6.11-12.48-12.18-9.66-5.51-21.09-19.87-11.71-28.94 7.61-7.25 27.65 8.65 24.18 41.12z"/>
  <path fill="#2f2e41" d="M90.55 283.37a185.64 185.64 0 0 0-1.68-21.28 95.67 95.67 0 0 0-4.47-19.03 86.7 86.7 0 0 0-2.66-6.58 16.14 16.14 0 0 0 0-2.5 76.52 76.52 0 0 0-.25-3.24c-.1-1.07-.2-2.14-.34-3.22-.13-1.07-.35-2.13-.4-3.2a.07.07 0 0 0-.06-.07.07.07 0 0 0-.06.06 22.34 22.34 0 0 1 .37 3.41c.08 1.04.14 2.08.17 3.12.02 1.05 0 2.08 0 3.13v1.17q-1.5-3.15-3.22-6.19c.72-4.4-.22-8.97-1.1-13.26 0-.1-.16 0-.14 0a37.4 37.4 0 0 1 .68 6.78c0 1.81 0 3.63-.06 5.44l-.76-1.28q-2.06-3.38-4.4-6.58a10.34 10.34 0 0 0-.1-3.12 25.04 25.04 0 0 0-.77-3.42q-.5-1.68-1.17-3.3c-.45-1.12-1.07-2.17-1.5-3.29a.07.07 0 0 0-.09-.03.07.07 0 0 0-.03.09 16.76 16.76 0 0 1 1.26 3.3 29.78 29.78 0 0 1 .86 3.3q.34 1.67.56 3.36c.11.74.18 1.5.3 2.26a80.95 80.95 0 0 0-7.4-8.62c-.07-.07-.16 0-.1.1a98.5 98.5 0 0 1 10.76 14.67l.34.59c-.59-.36-1.25-.65-1.81-.97l-3.09-1.7c-1-.52-2-1.08-3-1.63a28 28 0 0 0-1.54-.85 12.52 12.52 0 0 1-1.82-1c-.07-.05-.16.07-.07.11 1 .56 1.91 1.4 2.9 2 1 .61 2 1.25 3 1.82 1.89 1.05 3.93 1.81 5.78 2.89a87.9 87.9 0 0 1 3.56 6.9q-1.68-1.07-3.44-2.06c-.74-.41-1.5-.83-2.26-1.23a11.4 11.4 0 0 1-2.13-1.29c-.07-.05-.16 0-.1.1a20.22 20.22 0 0 0 4.07 2.83 66.2 66.2 0 0 0 4.15 2.26 78.98 78.98 0 0 1 3.1 7.6c4.46 12.62 6.1 26.01 6.87 39.3a255 255 0 0 1 .4 11.9c.06 3.98-.15 7.93-.14 11.9a.1.1 0 0 0 .2 0c.5-3.51.57-7.1.72-10.64.15-3.54.18-7.21.11-10.81z"/>
  <path fill="#2f2e41" d="M71.3 226.26a50.97 50.97 0 0 1-5.62-2.9 58.46 58.46 0 0 1-5.32-3.4s-.07 0 0 .05a43.65 43.65 0 0 0 5.12 3.63 52.7 52.7 0 0 0 5.8 2.78c.04 0 .1-.12.02-.16zM74.38 212a23.6 23.6 0 0 0-.56-1.81.05.05 0 0 0 0-.06 20.8 20.8 0 0 0-.41-1 .57.57 0 0 0 0-.13l-.09-.2.11.35a1.31 1.31 0 0 0 .06.2 49.64 49.64 0 0 1 1.56 7.18.07.07 0 0 0 .07.07.06.06 0 0 0 .06-.07 24.26 24.26 0 0 0-.8-4.53zm27.34 73.92-.75 8.96-2.32 27.3H73.9l-2.31-27.3-.76-8.96z"/>
  <path d="m101.72 285.92-.75 8.96H71.58l-.76-8.96z" opacity=".2"/>
  <path fill="#2f2e41" d="M68.39 282.34h35.75v8.59H68.39z"/>
  <rect width="113.16" height="62.98" x="48.91" y="24.14" fill="#0071f2" rx="12.74"/>
  <path fill="#0071f2" d="m115.55 82.34 42.62 33.5-26.42-35.92z"/>
  <text xml:space="preserve" x="80.37" y="69.92" fill="#fff" font-family="American Captain" font-size="40" font-weight="400" letter-spacing="0" style="line-height:1.25;-inkscape-font-specification:'American Captain'" word-spacing="0"><tspan x="80.37" y="69.92">24hs</tspan></text>
  <circle cx="38.1" cy="64.58" r="20.26" fill="#e0e0e0" transform="rotate(-13.28)"/>
  <circle cx="51.91" cy="54.08" r="17.23" fill="#f0f0f0"/>
  <path fill="#f0f0f0" d="M52.72 42.28v12.04l7.98-4.52"/>
  <path fill="#666" d="M52.73 55.15a.83.83 0 0 1-.44-.12.86.86 0 0 1-.42-.74V42.24a.86.86 0 0 1 1.72 0v10.6l6.7-3.79a.86.86 0 0 1 .84 1.5l-7.98 4.51a.93.93 0 0 1-.42.1z"/>
</svg>
