<?xml version="1.0" encoding="UTF-8" standalone="no"?>
<svg
   xmlns:dc="http://purl.org/dc/elements/1.1/"
   xmlns:cc="http://creativecommons.org/ns#"
   xmlns:rdf="http://www.w3.org/1999/02/22-rdf-syntax-ns#"
   xmlns:svg="http://www.w3.org/2000/svg"
   xmlns="http://www.w3.org/2000/svg"
   xmlns:sodipodi="http://sodipodi.sourceforge.net/DTD/sodipodi-0.dtd"
   xmlns:inkscape="http://www.inkscape.org/namespaces/inkscape"
   width="478.76007"
   height="344.78394"
   viewBox="0 0 478.76007 344.78393"
   version="1.1"
   id="svg1654"
   sodipodi:docname="database.svg"
   inkscape:version="0.92.4 (5da689c313, 2019-01-14)">
  <metadata
     id="metadata1660">
    <rdf:RDF>
      <cc:Work
         rdf:about="">
        <dc:format>image/svg+xml</dc:format>
        <dc:type
           rdf:resource="http://purl.org/dc/dcmitype/StillImage" />
        <dc:title></dc:title>
      </cc:Work>
    </rdf:RDF>
  </metadata>
  <defs
     id="defs1658"><style
   id="style5909">
        .cls-bg21{fill:#f8f8ff;}
        .cls-bg22{fill:#bac5f4;}
        .cls-bg23{fill:#e1e6fb;}
      </style>
<clipPath
   id="fe9b49f8-e166-4e47-ac65-a2d5a59265ce">
  <path
     fill="none"
     d="M734.19,333.45c-6.71,56.78-32.6,122.79-84.4,153.12-78.23,45.82-71.69,116.3-224.38,147a313.33,313.33,0,0,1-67.69,6.39,260.44,260.44,0,0,1-33.24-2.72c-97-14.18-162.34-81.63-186.3-163C106.7,367,169.62,297,211.36,254.71S283.64,80.85,433.51,49.62A304.56,304.56,0,0,1,503.09,43c53.32,1.36,111.48,18.82,151.72,55.36q4.56,4.08,8.83,8.52C719.57,164.25,743.34,256.05,734.19,333.45Z"
     data-name="SVGID"
     id="b1f04b0c-412f-4f15-bef7-21759d12595e" />
</clipPath>

	
	
	
</defs>
  <sodipodi:namedview
     pagecolor="#ffffff"
     bordercolor="#666666"
     borderopacity="1"
     objecttolerance="10"
     gridtolerance="10"
     guidetolerance="10"
     inkscape:pageopacity="0"
     inkscape:pageshadow="2"
     inkscape:window-width="1366"
     inkscape:window-height="705"
     id="namedview1656"
     showgrid="false"
     fit-margin-top="0"
     fit-margin-left="0"
     fit-margin-right="0"
     fit-margin-bottom="0"
     inkscape:zoom="0.69118012"
     inkscape:cx="474.03447"
     inkscape:cy="196.28834"
     inkscape:window-x="1912"
     inkscape:window-y="113"
     inkscape:window-maximized="1"
     inkscape:current-layer="svg1654" />
  <path
     id="path1618"
     clip-path="none"
     style="color:#212529;font-style:normal;font-variant:normal;font-weight:400;font-size:16px;line-height:24px;font-family:Averta, 'Helvetica Neue', 'Open Sans', Arial, sans-serif;font-variant-ligatures:normal;font-variant-caps:normal;font-variant-numeric:normal;text-indent:0px;text-align:center;text-decoration:none;text-decoration-line:none;text-decoration-style:solid;text-decoration-color:#212529;letter-spacing:normal;word-spacing:0px;text-transform:none;writing-mode:lr-tb;direction:ltr;dominant-baseline:auto;baseline-shift:0px;text-anchor:start;white-space:normal;clip-rule:nonzero;display:inline;visibility:visible;opacity:1;isolation:auto;mix-blend-mode:normal;vector-effect:none;fill:#f8f8ff;fill-opacity:1;fill-rule:nonzero;stroke:none;stroke-width:0.67620546px;stroke-linecap:butt;stroke-linejoin:miter;stroke-miterlimit:4;stroke-dasharray:none;stroke-dashoffset:0px;stroke-opacity:1;marker-start:none;marker-mid:none;marker-end:none;paint-order:normal;color-rendering:auto;image-rendering:auto;shape-rendering:auto;text-rendering:auto"
     d="m 98.467478,100.85825 c 18.047842,-28.029299 9.107632,-35.803343 12.276442,-52.963656 2.87589,-15.6126 13.93354,-37.9326604 47.86884,-40.6910789 52.72852,-4.3019172 74.30547,38.3982779 74.30547,38.3982779 0,0 38.96767,62.345277 49.03402,69.614837 10.06636,7.26957 24.57635,36.28114 75.45374,36.09328 50.8774,-0.18786 79.31476,16.39668 76.79009,34.60542 -2.52469,18.20874 -58.80748,45.97181 -71.00238,51.33737 -12.19492,5.36554 -26.86517,34.01752 -27.53872,48.11219 -0.67355,14.09468 -2.31811,58.01303 -57.17367,28.75498 C 223.62574,284.86184 55.050116,201.55124 55.050116,201.55124 c 0,0 -59.2466854,-31.31854 -7.540175,-71.67336 43.167704,-33.691259 43.949161,-18.13701 50.957537,-29.01963 z"
     class="cls-bg21"
     inkscape:connector-curvature="0" />
  <g
     id="g962"
     transform="matrix(0.77439741,0,0,0.77439741,94.347579,25.386856)" />
  <g
     id="g964"
     transform="matrix(0.77439741,0,0,0.77439741,94.347579,25.386856)" />
  <g
     id="g966"
     transform="matrix(0.77439741,0,0,0.77439741,94.347579,25.386856)" />
  <g
     id="g968"
     transform="matrix(0.77439741,0,0,0.77439741,94.347579,25.386856)" />
  <g
     id="g970"
     transform="matrix(0.77439741,0,0,0.77439741,94.347579,25.386856)" />
  <g
     id="g972"
     transform="matrix(0.77439741,0,0,0.77439741,94.347579,25.386856)" />
  <g
     id="g974"
     transform="matrix(0.77439741,0,0,0.77439741,94.347579,25.386856)" />
  <g
     id="g976"
     transform="matrix(0.77439741,0,0,0.77439741,94.347579,25.386856)" />
  <g
     id="g978"
     transform="matrix(0.77439741,0,0,0.77439741,94.347579,25.386856)" />
  <g
     id="g980"
     transform="matrix(0.77439741,0,0,0.77439741,94.347579,25.386856)" />
  <g
     id="g982"
     transform="matrix(0.77439741,0,0,0.77439741,94.347579,25.386856)" />
  <g
     id="g984"
     transform="matrix(0.77439741,0,0,0.77439741,94.347579,25.386856)" />
  <g
     id="g986"
     transform="matrix(0.77439741,0,0,0.77439741,94.347579,25.386856)" />
  <g
     id="g988"
     transform="matrix(0.77439741,0,0,0.77439741,94.347579,25.386856)" />
  <g
     id="g990"
     transform="matrix(0.77439741,0,0,0.77439741,94.347579,25.386856)" />
  <style
     id="style2491"
     type="text/css">
	.st0{fill:#FFC54D;}
	.st1{fill:#C19D72;}
	.st2{fill:#A88763;}
</style>
  <g
     id="g967"
     transform="matrix(0.57564305,0,0,0.57564305,83.104603,27.1247)">
</g>
  <g
     id="g969"
     transform="matrix(0.57564305,0,0,0.57564305,83.104603,27.1247)">
</g>
  <g
     id="g971"
     transform="matrix(0.57564305,0,0,0.57564305,83.104603,27.1247)">
</g>
  <g
     id="g973"
     transform="matrix(0.57564305,0,0,0.57564305,83.104603,27.1247)">
</g>
  <g
     id="g975"
     transform="matrix(0.57564305,0,0,0.57564305,83.104603,27.1247)">
</g>
  <g
     id="g977"
     transform="matrix(0.57564305,0,0,0.57564305,83.104603,27.1247)">
</g>
  <g
     id="g979"
     transform="matrix(0.57564305,0,0,0.57564305,83.104603,27.1247)">
</g>
  <g
     id="g981"
     transform="matrix(0.57564305,0,0,0.57564305,83.104603,27.1247)">
</g>
  <g
     id="g983"
     transform="matrix(0.57564305,0,0,0.57564305,83.104603,27.1247)">
</g>
  <g
     id="g985"
     transform="matrix(0.57564305,0,0,0.57564305,83.104603,27.1247)">
</g>
  <g
     id="g987"
     transform="matrix(0.57564305,0,0,0.57564305,83.104603,27.1247)">
</g>
  <g
     id="g989"
     transform="matrix(0.57564305,0,0,0.57564305,83.104603,27.1247)">
</g>
  <g
     id="g991"
     transform="matrix(0.57564305,0,0,0.57564305,83.104603,27.1247)">
</g>
  <g
     id="g993"
     transform="matrix(0.57564305,0,0,0.57564305,83.104603,27.1247)">
</g>
  <g
     id="g995"
     transform="matrix(0.57564305,0,0,0.57564305,83.104603,27.1247)">
</g>
  <g
     id="g1256"
     transform="matrix(3.9998599,0,0,3.9998599,135.72453,61.209683)">
    <g
       id="g1178">
      <g
         id="g1160">
        <path
           id="path1132"
           d="M 49.311,8 V 8 C 48.58,3.538 38.137,0 25.356,0 12.575,0 2.132,3.538 1.401,8 V 8 H 1.356 V 8.5 20 20.5 21 32 32.5 33 45 h 0.045 c 0.731,4.461 11.175,8 23.955,8 12.78,0 23.224,-3.539 23.955,-8 h 0.045 V 33 32.5 32 21 20.5 20 8.5 8 Z"
           style="fill:#545e73"
           inkscape:connector-curvature="0" />
        <g
           id="g1140">
          <path
             id="path1134"
             d="m 25.356,41 c -13.255,0 -24,-3.806 -24,-8.5 V 45 h 0.045 c 0.731,4.461 11.175,8 23.955,8 12.78,0 23.224,-3.539 23.955,-8 h 0.045 V 32.5 c 0,4.694 -10.745,8.5 -24,8.5 z"
             style="fill:#38454f"
             inkscape:connector-curvature="0" />
          <path
             id="path1136"
             d="m 1.356,32 v 0.5 c 0,-0.168 0.018,-0.334 0.045,-0.5 z"
             style="fill:#38454f"
             inkscape:connector-curvature="0" />
          <path
             id="path1138"
             d="m 49.311,32 c 0.027,0.166 0.045,0.332 0.045,0.5 V 32 Z"
             style="fill:#38454f"
             inkscape:connector-curvature="0" />
        </g>
        <g
           id="g1148">
          <path
             id="path1142"
             d="m 25.356,29 c -13.255,0 -24,-3.806 -24,-8.5 V 33 h 0.045 c 0.731,4.461 11.175,8 23.955,8 12.78,0 23.224,-3.539 23.955,-8 h 0.045 V 20.5 c 0,4.694 -10.745,8.5 -24,8.5 z"
             style="fill:#556080"
             inkscape:connector-curvature="0" />
          <path
             id="path1144"
             d="m 1.356,20 v 0.5 c 0,-0.168 0.018,-0.334 0.045,-0.5 z"
             style="fill:#556080"
             inkscape:connector-curvature="0" />
          <path
             id="path1146"
             d="m 49.311,20 c 0.027,0.166 0.045,0.332 0.045,0.5 V 20 Z"
             style="fill:#556080"
             inkscape:connector-curvature="0" />
        </g>
        <ellipse
           id="ellipse1150"
           ry="8.5"
           rx="24"
           cy="8.5"
           cx="25.356001"
           style="fill:#91bae1" />
        <g
           id="g1158">
          <path
             id="path1152"
             d="m 25.356,17 c -13.255,0 -24,-3.806 -24,-8.5 V 21 h 0.045 c 0.731,4.461 11.175,8 23.955,8 12.78,0 23.224,-3.539 23.955,-8 h 0.045 V 8.5 c 0,4.694 -10.745,8.5 -24,8.5 z"
             style="fill:#8697cb"
             inkscape:connector-curvature="0" />
          <path
             id="path1154"
             d="M 1.356,8 V 8.5 C 1.356,8.332 1.374,8.166 1.401,8 Z"
             style="fill:#8697cb"
             inkscape:connector-curvature="0" />
          <path
             id="path1156"
             d="m 49.311,8 c 0.027,0.166 0.045,0.332 0.045,0.5 V 8 Z"
             style="fill:#8697cb"
             inkscape:connector-curvature="0" />
        </g>
      </g>
      <g
         id="g1176">
        <polygon
           id="polygon1162"
           points="30.196,52.786 34.843,48.139 32.192,45.489 32.184,45.496 "
           style="fill:#eddcc7" />
        <path
           id="path1164"
           d="m 51.442,31.54 -1.247,-1.247 c -0.775,-0.775 -2.032,-0.775 -2.807,0 l -3.582,3.582 2.651,2.651 z"
           style="fill:#d75a4a"
           inkscape:connector-curvature="0" />
        <rect
           id="rect1166"
           height="16.424"
           width="3.7490001"
           style="fill:#f29c21"
           transform="matrix(0.7071,0.7071,-0.7071,0.7071,40.5143,-15.7956)"
           y="32.794998"
           x="37.450001" />
        <polygon
           id="polygon1168"
           points="37.841,51.153 37.849,51.145 34.843,48.139 30.196,52.786 30.063,53.274 "
           style="fill:#d6c4b1" />
        <path
           id="path1170"
           d="m 49.462,39.532 3.582,-3.582 c 0.775,-0.775 0.775,-2.032 0,-2.807 l -1.602,-1.602 -4.985,4.985 z"
           style="fill:#a34740"
           inkscape:connector-curvature="0" />
        <rect
           id="rect1172"
           height="16.424"
           width="4.2509999"
           style="fill:#e18c25"
           transform="matrix(-0.7071,-0.7071,0.7071,-0.7071,40.962,104.6381)"
           y="35.623001"
           x="40.027" />
        <path
           id="path1174"
           d="m 29.356,54.981 c -0.256,0 -0.512,-0.098 -0.707,-0.293 -0.391,-0.391 -0.391,-1.023 0,-1.414 l 2.207,-2.207 c 0.391,-0.391 1.023,-0.391 1.414,0 0.391,0.391 0.391,1.023 0,1.414 l -2.207,2.207 c -0.195,0.196 -0.451,0.293 -0.707,0.293 z"
           style="fill:#5e5e5e"
           inkscape:connector-curvature="0" />
      </g>
    </g>
    <g
       id="g1180" />
    <g
       id="g1182" />
    <g
       id="g1184" />
    <g
       id="g1186" />
    <g
       id="g1188" />
    <g
       id="g1190" />
    <g
       id="g1192" />
    <g
       id="g1194" />
    <g
       id="g1196" />
    <g
       id="g1198" />
    <g
       id="g1200" />
    <g
       id="g1202" />
    <g
       id="g1204" />
    <g
       id="g1206" />
    <g
       id="g1208" />
  </g>
</svg>
