<svg xmlns="http://www.w3.org/2000/svg" width="108.57" height="38.24">
  <g data-name="Grupo 42">
    <path fill="#005960" d="M47.72 20.35a8.5 8.5 0 0 0 4.75 1.38c1.44 0 3.31-.65 3.31-2.56 0-2.2-1.94-2.81-3.6-2.81-1.78 0-3.78.97-4.46 4m-3.63 1.77c0-5.85 3.81-9.02 8.06-9.02 3.41 0 7 1.59 7 6.1 0 3.57-2.98 5.26-6.03 5.37a9.3 9.3 0 0 1-5.64-1.52c.1 4.23 2.44 5.92 5.82 5.92a11.8 11.8 0 0 0 4.59-1.08l.77 2.88a12.53 12.53 0 0 1-6.33 1.45c-5.15 0-8.24-3.83-8.24-10.1m-13.8-7V31.7h-3.53zm58.29 1.99a7.2 7.2 0 0 0-3.2-.73c-2.99 0-5.18 2.38-5.18 6.64 0 3.6 1.76 5.91 4.35 5.91 2.3 0 4.03-2.77 4.03-6.49zm3.38-2.38.03 16.95h-2.37l-.72-2.74a5.8 5.8 0 0 1-5.14 3.28c-4.68 0-6.94-4.08-6.94-9.2 0-6.31 3.74-9.92 8.8-9.92a13.65 13.65 0 0 1 6.34 1.63m-27.47 11.6c0 3.36 7.12 3.65 7.12-.03 0-4.5-10.25-.4-10.25-7.46 0-3.83 3.38-5.7 6.72-5.7 3.6 0 6.8 1.84 6.73 5.44h-3.53c0-3.1-6.4-2.88-6.4.18 0 3.86 10.21 0 10.21 7.61 0 3.97-3.38 5.81-6.86 5.81-3.38 0-7.2-1.66-7.2-5.84zm-27.8-12.69h6.22v3.07H36.7v8c0 4.47 2.95 4.83 6.26 3.68l.78 2.98a14.56 14.56 0 0 1-4.39.82c-3.65 0-6.1-2.2-6.1-7.4l.03-16.34h3.42zm-12.56 3.07v-3.07h-6.45v-1.51c0-4.48 3.63-4.94 6.58-3.72l.57-2.74c-5.4-1.87-10.5-.8-10.5 6.38l-.01 1.6v17.92l3.35-.9V16.71Z" data-name="Caminho 3"/>
    <path fill="#7bc5bf" d="m26.83 13.65.69 14.48 2.76-13v-1.48z" data-name="Caminho 4"/>
  </g>
</svg>
