<svg xmlns="http://www.w3.org/2000/svg" xmlns:xlink="http://www.w3.org/1999/xlink" width="1000" height="1000" viewBox="0 0 264.58 264.58" style="">
  <defs>
    <path id="b" fill="#000" stroke="none" d="M7.6.06C5.08-.19 2.66.3-.01 1.8v1.27a11.9 11.9 0 0 1 7.48-1.78c2.3.23 4.5 1.08 6.78 1.94 4.57 1.71 9.55 3.46 15.82-.16V1.8c-6.45 3.7-10.82 1.98-15.38.27-2.28-.85-4.57-1.75-7.1-2z" class="myvAnTEy_0"></path>
  </defs>
  <defs>
    <pattern xlink:href="#a" id="i" patternTransform="translate(-62.67 4.54)"></pattern>
    <pattern xlink:href="#a" id="j" patternTransform="translate(-62.67 4.54)"></pattern>
    <pattern id="a" width="30.07" height="5.18" patternUnits="userSpaceOnUse">
      <use xlink:href="#b"></use>
    </pattern>
    <pattern xlink:href="#c" id="k" patternTransform="translate(-237.72 -81.98)"></pattern>
    <pattern id="c" width="30.07" height="5.18" patternUnits="userSpaceOnUse">
      <use xlink:href="#b"></use>
    </pattern>
    <pattern xlink:href="#d" id="l" patternTransform="translate(-6.6 -66.3)"></pattern>
    <pattern id="d" width="30.07" height="5.18" patternUnits="userSpaceOnUse">
      <use xlink:href="#b"></use>
    </pattern>
    <linearGradient id="f">
      <stop offset="0" stop-opacity=".41"></stop>
      <stop offset="1" stop-opacity=".04"></stop>
    </linearGradient>
    <linearGradient id="e">
      <stop offset="0" stop-opacity=".2"></stop>
      <stop offset="1" stop-opacity=".04"></stop>
    </linearGradient>
    <linearGradient xlink:href="#e" id="g" x1="199.83" x2="326.48" y1="128.09" y2="133.9" gradientTransform="translate(-62.67 4.54)" gradientUnits="userSpaceOnUse"></linearGradient>
    <linearGradient xlink:href="#f" id="h" x1="13.8" x2="-46.99" y1="140.4" y2="138.51" gradientTransform="translate(-62.67 4.54)" gradientUnits="userSpaceOnUse"></linearGradient>
  </defs>
  <g transform="translate(83.34 77.7)">
    <path fill="none" stroke="#000" stroke-width=".26" d="m50.58 151.83-.21-43.43m-1.74 43.32-.72-43.5m9.49 43.66-.45-43.01M55.6 151.8l-.79-43.09m7.79 54.17-1.43-53.71m3.61 53.8-1.28-53.64m5.74 53.47-1.59-53.17m3.63 53.08-1.36-52.92m5.27 52.91-1.1-52.61m3.27 52.44-1.05-52.28m6.07 52.16-2.2-51.89m4.14 52.03-1.98-51.87m6.46 51.53-2.34-51.24m4.4 51.34-2.04-51.17m5.98 51.07-2.34-50.81m4.42 50.68-2.13-50.52m3.4.24 2.94 50.28m2.05-.18-2.78-49.94m6.61 49.85-2.8-49.58m5 49.81-2.7-49.65m6.51 49.56-2.74-49.29m4.73 49.29-2.86-49.15m6.54 48.88-2.92-48.63m8.47 48.36-2.75-43.32-.3-4.65m5 47.97-3.03-47.76m.23 4.23 5.48-.58 207.93 9.04m.53 29.9-216.15 7.63-80.99 2.96-1.48-.36m-19.37 1.16-164.17 5.67m-1.13-69.92 82.02 4.91 1.11-36.57 6.07-11.81 3.02-1.14 1.52-3.77.37-10.97L-48.1 38l12.48 2.21.14 7.21 23.3 3.56 8.3-12.23L66.8 50.46l.24 14.1 28.48 3.66 7.94-4.15 3.78.75 3.4 54.43m1.69-.18 3.85-.42m1.94-.2 3.28-.39M-36.48 66.58l140.96 15.8" class="myvAnTEy_1"></path>
    <path fill="none" stroke="#000" stroke-width=".26" d="m-36.57 43.68.56 58.56 78.39 5.59m5.53.4 2.46.17m4.44.31 2.14.16m4.22.3 2.33.16m4.15.3 2.27.16m4.16.3 2.23.16m3.88.27 2.15.16m4.12.29 2.36.17m3.64.26 2.29.16m3.4.24 2.2.16m3.81.27 2.3.16m3.78.27 1.87.14m3.62.25 2.1.15 3.19 48.45M19.3 167.63l-7.62.18-.07-62.17" class="myvAnTEy_2"></path>
    <path fill="none" stroke="#000" stroke-width=".26" d="m19.3 167.73-.5-57.93 20.78 1.14.57 55.89m2.27-59.11.57 55.38 3.96-.1-.09-11.24 12.95.19V163l61.19-1.38 10.34-.22m-2.51-44.1 2.5 44.1m-167.34-59.16-.45 67.14m-3.21-126.47 3.1.77m-4.17 125.87.95-126.27-7.95 13.87.01-11.42-4.53 9.27m-1.52 3.77-3.2 7.19.18-6.05m9.07-14.18 6.02.88m5.15.65 31.54 4.71v3.4M-36.36 73.6 95.9 86.76l-.38-5.3m-121.52-7-.18 28.35m12.66-26.84.07 27.75M2.35 77.3l.1 27.64M17.66 79l.28 27.12M32.97 80.5l.19 26.51m12.47-24.99.2 31m12.84-29.87.29 30.57m12.37-29.24.48 30.05M83.8 85.8l.67 29.34m18.99-51.07 2.94 48.33.46 7.6 3.78-.75M-36.6 51.17 95.53 68.22" class="myvAnTEy_3"></path>
    <path fill="none" stroke="#000" stroke-width=".87" d="m-35.44 43.51 138.9 20.56m-14.71 3.21-.07-5.4m-15.24 3.44-.22-5.6m-15.7 3.67-.1-6.2M41.4 61.23l-.06-6.3m-18.2 3.98.03-6.82M5.1 56.6l-.18-7.1" class="myvAnTEy_4"></path>
    <path fill="none" stroke="#000" stroke-width=".26" d="m18.89 111.74 19.22 1.01m4.32.23 5.55.29m2.38.12 4.5.24m2.12.1 4.34.23m2.27.12 4.28.22m2.2.12 4.13.21m2.27.12 3.92.2m2.15.12 4.08.2m2.39.13 3.6.19m2.33.12 2.66.14m-59.43-4.87.5 55.5m-19.92-50.92 19.43.8m4.28.2 5.59.23m2.4.1 4.5.2m2.12.09 4.3.18m2.36.1 4.16.18m2.18.1 4.2.17m2.17.1 4.07.17m2.17.1 4.18.17m2.25.1 3.73.16m2.15.1 2.69.1-.08-3.06m-2.08-47.63 8.22 1.1m-167.72 38.97 19.7 1.08-1.22 60.48m141.3-54.2-1.08-29M46.95 163l3.16-.09.03-11.09m1.77 1.24 6.2.15.08 9.47-6.28.13zm71.21-39.41-1.96-.21m-78.67 7.15 83.92 4.07m-83.52 24.59 85 .27M95.9 118.8l1.88 43.28m-59.3.23-19.38.44" class="myvAnTEy_5"></path>
    <path fill="none" stroke="#000" stroke-width=".87" d="m-16.56 53.74-.17-7.47" class="myvAnTEy_6"></path>
    <path fill="none" stroke="#000" stroke-width=".26" d="m-3.88 38.74.2 16.65" class="myvAnTEy_7"></path>
    <path d="M-8.59 110.02c.03-.32.12-.35.99-.3.73.05.82.14.83.7v.18h-.05c-.19-.24-.35-.3-.9-.33a4.8 4.8 0 0 0-1.5.02c-.47.11-.69.46-.68 1.12.01.87.35 1.16 1.43 1.21.78.05 1.09.03 1.28-.05a.82.74 0 0 0 .45-.44h.02v.5l1.14.06-.01-2.18c-.01-.66-.09-.93-.28-1.2-.27-.32-.52-.4-1.57-.46a4.6 4.6 0 0 0-1.8.09c-.38.19-.53.46-.57 1l1.22.07v.01zm.82 1.01c.5.03.7.06.77.08a.38.34 0 0 1 .2.32c.01.32-.22.4-1.08.35-.65-.03-.82-.12-.83-.42 0-.3.2-.37.94-.33zm-1.02-2.7 1.01.05c.35-.28.7-.37 1.81-.38l-1.32-.65c-.36.12-1.31.57-1.5.97zm3.7.77.03 3.62 1.18.07v-1.5c-.01-.54.02-.74.14-.9.1-.17.33-.24.59-.22.48.03.61.18.62.72l1.1.06v-.24c-.01-1.08-.33-1.46-1.27-1.52-.66-.04-.99.11-1.2.56h-.07v-.55l-1.12-.1zm3.98.27.01 3.57 1.16.06-.01-3.56-1.16-.07zm-.01-1.48v1.01l1.17.08v-1l-1.17-.09zm5.9.41-1.14-.08v1.92h-.05c-.21-.47-.48-.6-1.27-.65-.79-.05-1.11-.02-1.39.18-.32.23-.45.65-.44 1.55 0 .89.08 1.25.33 1.53.27.29.66.41 1.49.46.81.04 1.11-.06 1.33-.48h.06v.47l1.06.05.01-4.95zm-2.1 2.21c.81.05.96.2.96.93 0 .41-.05.6-.18.68-.12.1-.43.15-.85.12-.86-.05-.99-.18-.99-.95.01-.72.17-.83 1.07-.78zm4.62-.68c-1-.07-1.45-.02-1.73.2-.3.23-.38.56-.38 1.38 0 1.02.06 1.35.34 1.63.28.28.65.38 1.75.44 1.08.06 1.45 0 1.73-.24.27-.26.34-.57.35-1.52 0-.86-.07-1.2-.36-1.47-.27-.25-.7-.36-1.7-.42zm0 .98c.3.02.57.07.7.15.21.11.27.28.26.75 0 .74-.14.85-.98.8a1.8 1.8 0 0 1-.74-.15c-.2-.11-.25-.26-.25-.73 0-.74.16-.87 1-.82zm-17.18 4.28v.1c0 .26.05.4.18.51.15.12.41.17 1.05.2.53.03.8 0 .94-.07.16-.09.23-.24.22-.5 0-.42-.18-.6-.6-.64a23.78 21.71 0 0 0-.88-.07c-.45 0-.56-.07-.56-.3 0-.1.03-.19.08-.23.08-.07.33-.1.76-.07.44.02.67.07.75.17.04.04.06.1.06.25l.32.02c0-.25-.02-.32-.08-.42-.14-.2-.4-.29-1.04-.32-.56-.03-.84 0-.97.09-.13.1-.2.24-.19.48 0 .43.18.59.68.61l.87.06c.38.02.5.1.5.35 0 .1-.01.17-.07.22-.1.08-.24.1-.75.07-.85-.04-.91-.06-.92-.45v-.06h-.35zm3.74-1.22c-.42-.02-.64 0-.79.09-.24.14-.35.43-.35.93 0 .52.1.8.34.96.17.13.4.17.95.2.47.02.68 0 .84-.1.23-.14.33-.42.32-.93 0-.5-.1-.76-.32-.93-.16-.14-.4-.18-1-.22zm.05.3c.37.01.58.05.69.11.2.1.26.29.26.7 0 .37-.05.55-.17.66-.12.1-.28.13-.72.1a1.9 1.9 0 0 1-.64-.1c-.21-.08-.3-.28-.3-.72 0-.68.14-.8.88-.75zm1.35.09.41.02.01 1.8.3.02-.02-1.8.93.04v-.28l-.93-.05v-.07c0-.47.08-.55.6-.53h.31v-.28l-.33-.01c-.73-.02-.89.14-.88.87l-.41-.02v.29zm2.17-.7v.52l-.45-.02v.29l.46.02v1c0 .33.02.46.1.59.12.18.32.25.71.27.39.02.57-.04.68-.22.07-.12.1-.25.1-.57v-.13l-.29-.01v.13c0 .25 0 .32-.06.4-.05.11-.15.14-.41.13-.28-.01-.4-.06-.48-.17-.05-.1-.05-.12-.06-.5v-.9l1.27.06v-.29l-1.28-.06v-.52l-.29-.01zm1.6.6.83 2.12.42.02.55-1.72h.03l.54 1.77.42.02.83-2.01-.33-.02-.68 1.72H1.6l-.55-1.79-.44-.02-.54 1.74H.05l-.7-1.8-.33-.02zm4.01.83v-.02c0-.28.11-.33.72-.3.46.03.61.08.72.22.07.09.08.18.08.4v.22h-.02c-.12-.2-.24-.24-.96-.28-.37-.01-.54 0-.64.04-.19.07-.26.22-.26.55 0 .25.04.37.16.49.13.12.3.16.93.19.53.02.66-.02.8-.23v.23l.28.01v-1.07c0-.48-.03-.63-.14-.76-.15-.2-.36-.26-.95-.29-.76-.04-1 .07-1 .5v.09l.28.01zm.72.53c.61.03.78.1.78.38s-.14.32-.73.3c-.43-.02-.62-.04-.7-.1-.1-.04-.14-.12-.14-.28 0-.13.04-.22.11-.26.08-.05.21-.06.68-.04zm1.37-1.04v2.05h.27v-.93c0-.71.12-.83.79-.8.42.03.52.12.52.55v.14l.28.01v-.2c0-.27-.06-.47-.18-.6-.11-.12-.25-.16-.6-.18-.33-.02-.47 0-.58.05a.48.44 0 0 0-.2.2H5.4v-.26l-.28-.03zm3.93 1.6c-.01.13-.02.16-.07.22-.08.11-.24.14-.62.12-.52-.02-.7-.08-.81-.2-.08-.1-.12-.26-.12-.53l1.91.1c0-.48-.04-.67-.17-.85-.16-.22-.36-.29-.95-.32-.42-.02-.62 0-.76.09-.22.13-.32.41-.32.9 0 .41.08.7.24.85.15.16.41.21 1 .24.7.03.94-.12.95-.6l-.28-.02zm-1.6-.66c.02-.46.17-.55.76-.52.67.03.84.15.83.6l-1.6-.08z" class="myvAnTEy_8"></path>
    <path stroke="#000" stroke-width=".26" d="m68.21 21.8 47.55 2.2h.09" transform="matrix(.39408 0 0 .35973 -36.51 109.59)" class="myvAnTEy_9"></path>
    <g style="line-height:1.25;-inkscape-font-specification:'American Captain'" word-spacing="0">
      <path d="m68.46 25.4.08 5.99.53.02-.02-1.96c-.01-.78.02-.97.2-1.22.22-.3.65-.43 1.47-.4.73.03 1.07.15 1.25.41.16.25.2.47.2 1.33l.02 1.95.53.02-.02-2.15c-.01-.99-.07-1.3-.3-1.6-.27-.35-.68-.49-1.62-.52-1.1-.05-1.49.09-1.7.6h-.05L69 25.43l-.54-.03zm8.47 5.02c-.02.26-.03.33-.12.44-.17.23-.46.29-1.22.26-1-.03-1.36-.13-1.57-.4-.16-.2-.24-.53-.26-1.06l3.73.14c-.02-.98-.1-1.35-.35-1.73-.32-.44-.72-.57-1.87-.62-.81-.03-1.2.02-1.47.2-.43.27-.62.85-.61 1.85 0 .85.17 1.43.5 1.74.3.3.81.41 1.97.45 1.35.05 1.81-.27 1.83-1.25l-.56-.02zm-3.16-1.32c.05-.92.33-1.12 1.49-1.08 1.3.06 1.63.29 1.64 1.2l-3.13-.12zm4.76-.23v-.05c0-.57.2-.66 1.34-.61.87.03 1.17.12 1.36.41.12.18.16.36.16.79v.44h-.04c-.23-.4-.46-.46-1.82-.51-.7-.03-1.02 0-1.22.08-.34.15-.47.46-.46 1.11 0 .5.08.75.3.97.24.24.56.3 1.74.34 1.01.04 1.25-.04 1.5-.47h.02v.47l.52.02-.02-2.15c0-.97-.06-1.25-.29-1.54-.28-.38-.66-.49-1.79-.53-1.44-.06-1.86.17-1.85 1.03v.18l.55.02zm1.35 1.05c1.16.05 1.48.2 1.48.73 0 .55-.26.67-1.36.63a3.92 3.92 0 0 1-1.33-.15c-.19-.1-.26-.27-.26-.57 0-.27.06-.44.19-.54.15-.11.4-.13 1.28-.1zm6.74-3.75-.51-.03.01 2.29h-.04c-.22-.45-.53-.57-1.43-.6-.99-.05-1.4 0-1.66.18-.42.28-.6.85-.6 1.84.01.96.17 1.47.56 1.8.3.24.68.33 1.6.36 1.05.04 1.32-.05 1.56-.52h.03v.52l.51.02-.03-5.86zm-2.01 2.21c1.3.06 1.53.3 1.54 1.64 0 .68-.09 1.02-.32 1.23-.2.17-.55.22-1.38.2-1.24-.05-1.5-.3-1.5-1.58 0-.72.08-1.09.32-1.3.2-.17.53-.22 1.34-.19zm6.75 5.27-.01-5.5-.5-.02v.52h-.02c-.22-.48-.51-.6-1.55-.63-.74-.03-1.14 0-1.39.12-.52.24-.73.77-.73 1.8 0 .95.14 1.45.47 1.8.3.3.68.4 1.77.44.6.02.88-.01 1.08-.13.16-.1.27-.2.34-.36h.03v1.95l.51.01zm-2.19-5.08c.7.03 1.08.09 1.28.21.31.2.42.57.43 1.36 0 .69-.09 1.08-.3 1.28-.2.17-.5.22-1.2.2-.67-.02-1.03-.08-1.22-.2-.32-.2-.45-.58-.45-1.36 0-1.3.23-1.54 1.46-1.49zm2.78-.4v2.24c0 .84.1 1.23.32 1.49.25.29.67.4 1.46.43 1 .04 1.32-.09 1.58-.6h.03v.6l.5.03v-4.03l-.5-.02v2c0 .58-.05.84-.18 1.04-.22.34-.61.46-1.38.43-.6-.02-.9-.11-1.08-.31-.18-.22-.23-.47-.24-1.23V28.2l-.51-.03zm5 1.41v-.05c0-.56.2-.64 1.29-.6.83.03 1.12.12 1.3.4.11.18.15.36.15.77v.44h-.04c-.22-.4-.44-.45-1.75-.5-.67-.03-.97 0-1.17.08-.33.15-.45.45-.45 1.09 0 .48.07.73.28.95.23.23.53.3 1.67.33.97.04 1.2-.04 1.44-.46h.02v.46l.5.02v-2.1c0-.96-.05-1.23-.27-1.52-.27-.36-.64-.47-1.71-.52-1.39-.05-1.8.17-1.8 1.02v.17l.54.02zm1.28 1.03c1.12.05 1.42.2 1.42.71 0 .54-.25.66-1.31.62a3.68 3.68 0 0 1-1.27-.15c-.18-.1-.25-.26-.25-.55 0-.26.06-.43.18-.53.15-.11.39-.13 1.23-.1zm2.49-2.08v4l.5.02V30.7c0-1.41.2-1.64 1.4-1.6.78.03.95.22.95 1.05v.28l.5.02.01-.41c0-.52-.1-.9-.32-1.14-.2-.24-.46-.32-1.08-.35-.6-.02-.86 0-1.05.12-.17.1-.3.23-.38.41h-.03v-.53l-.5-.02zm4.28-.83v1l-.77-.03v.54l.77.03v1.93c0 .63.03.88.17 1.12.18.33.54.47 1.2.5.66.02 1-.11 1.18-.45.13-.24.17-.5.18-1.11v-.25l-.5-.02v.25c0 .49-.02.63-.1.78-.1.2-.27.26-.7.24-.48-.01-.7-.1-.83-.3-.1-.17-.1-.2-.11-.95v-1.72l2.19.09v-.55l-2.18-.08v-1l-.5-.01zm6.53 4c-.03.25-.04.32-.12.42-.16.22-.43.28-1.13.25-.93-.03-1.27-.12-1.46-.37-.14-.2-.2-.52-.22-1.03l3.45.13c0-.94-.07-1.3-.3-1.66-.3-.43-.66-.55-1.73-.6-.75-.02-1.1.02-1.36.2-.4.26-.59.81-.59 1.78 0 .81.14 1.37.44 1.67.27.28.75.4 1.82.43 1.25.05 1.68-.26 1.7-1.2l-.5-.03zm-2.91-1.27c.05-.88.32-1.08 1.39-1.04 1.2.05 1.5.28 1.5 1.15l-2.9-.11zM112.5 29l-.03 3.95.49.01v-1.82c.02-1.39.22-1.62 1.4-1.57.75.03.91.21.9 1.03v.28l.5.02v-.41c0-.51-.1-.89-.3-1.13-.2-.24-.45-.31-1.05-.34-.59-.02-.84 0-1.03.11a.85.85 0 0 0-.37.42h-.03v-.53l-.48-.02z" aria-label="headquarter" font-family="Microgramma D Extended" font-size="7.42" font-weight="400" letter-spacing="0" style="-inkscape-font-specification:'Microgramma D Extended'" transform="matrix(.39408 0 0 .35973 -36.51 109.59)" class="myvAnTEy_10"></path>
    </g>
    <path fill="none" stroke="#000" stroke-width=".26" d="m337.3 160.81-482.93 28.5m482.9-26.78-482.97 28.85" class="myvAnTEy_11"></path>
    <path fill="url(#g)" d="m131.71 119.25.17 42.17 197.47-8.58-16.03-25z" opacity=".34" class="myvAnTEy_12"></path>
    <path fill="url(#h)" d="m-132.4 107.53 87.33 2.3-2.6 58.6-92.66-2.31z" opacity=".2" class="myvAnTEy_13"></path>
    <path fill="url(#i)" d="m-120.3 72.74 27.5 22.41 21.36-52.07-70.03 7.36z" opacity=".06" class="myvAnTEy_14"></path>
    <path fill="url(#j)" d="m119.72 100.35 76.35-31.94 57.44-25.15 58.3 71.74Z" opacity=".03" class="myvAnTEy_15"></path>
    <path fill-opacity=".2" opacity=".15" d="M121.80000000000001,55.65A12.56,12.29 0,1,1 146.92000000000002,55.65A12.56,12.29 0,1,1 121.80000000000001,55.65" class="myvAnTEy_16"></path>
    <path fill-opacity=".2" opacity=".15" d="M153.6,66.49A5.61,5.49 0,1,1 164.82000000000002,66.49A5.61,5.49 0,1,1 153.6,66.49" class="myvAnTEy_17"></path>
    <path fill-opacity=".2" opacity=".15" d="M146.36,71.51A2.5,2.45 0,1,1 151.36,71.51A2.5,2.45 0,1,1 146.36,71.51" class="myvAnTEy_18"></path>
    <path fill="none" d="M-56.24 183.11v5.1l-75.22 3.03-10.77-3.6z" class="myvAnTEy_19"></path>
    <path fill="url(#k)" d="m28.95 41.8-7.18-26.64L122.1-72.58 109.04 50.27l-1.8 14.55-39.67-7-.77-7.36Z" opacity=".03" class="myvAnTEy_20"></path>
    <path fill="url(#l)" d="m-48.36 9.84 27.5 22.42L-7.5-45.21l-62.01 32.75Z" opacity=".06" class="myvAnTEy_21"></path>
    <path fill-opacity=".2" opacity=".15" d="M11.200000000000001,-14.17A12.56,12.29 0,1,1 36.32,-14.17A12.56,12.29 0,1,1 11.200000000000001,-14.17" class="myvAnTEy_22"></path>
    <path fill-opacity=".2" opacity=".15" d="M-71.11,16.8A5.61,5.49 0,1,1 -59.89,16.8A5.61,5.49 0,1,1 -71.11,16.8" class="myvAnTEy_23"></path>
    <path fill-opacity=".2" opacity=".15" d="M1.12,-0.73A5.61,5.49 0,1,1 12.34,-0.73A5.61,5.49 0,1,1 1.12,-0.73" class="myvAnTEy_24"></path>
  </g>
<style data-made-with="vivus-instant">.myvAnTEy_0{stroke-dasharray:66 68;stroke-dashoffset:67;animation:myvAnTEy_draw 3000ms ease-in-out 0ms forwards;}.myvAnTEy_1{stroke-dasharray:2466 2468;stroke-dashoffset:2467;animation:myvAnTEy_draw 3000ms ease-in-out 0ms forwards;}.myvAnTEy_2{stroke-dasharray:283 285;stroke-dashoffset:284;animation:myvAnTEy_draw 3000ms ease-in-out 0ms forwards;}.myvAnTEy_3{stroke-dasharray:1225 1227;stroke-dashoffset:1226;animation:myvAnTEy_draw 3000ms ease-in-out 0ms forwards;}.myvAnTEy_4{stroke-dasharray:178 180;stroke-dashoffset:179;animation:myvAnTEy_draw 3000ms ease-in-out 0ms forwards;}.myvAnTEy_5{stroke-dasharray:570 572;stroke-dashoffset:571;animation:myvAnTEy_draw 3000ms ease-in-out 0ms forwards;}.myvAnTEy_6{stroke-dasharray:8 10;stroke-dashoffset:9;animation:myvAnTEy_draw 3000ms ease-in-out 0ms forwards;}.myvAnTEy_7{stroke-dasharray:17 19;stroke-dashoffset:18;animation:myvAnTEy_draw 3000ms ease-in-out 0ms forwards;}.myvAnTEy_8{stroke-dasharray:219 221;stroke-dashoffset:220;animation:myvAnTEy_draw 3000ms ease-in-out 0ms forwards;}.myvAnTEy_9{stroke-dasharray:48 50;stroke-dashoffset:49;animation:myvAnTEy_draw 3000ms ease-in-out 0ms forwards;}.myvAnTEy_10{stroke-dasharray:288 290;stroke-dashoffset:289;animation:myvAnTEy_draw 3000ms ease-in-out 0ms forwards;}.myvAnTEy_11{stroke-dasharray:968 970;stroke-dashoffset:969;animation:myvAnTEy_draw 3000ms ease-in-out 0ms forwards;}.myvAnTEy_12{stroke-dasharray:452 454;stroke-dashoffset:453;animation:myvAnTEy_draw 3000ms ease-in-out 0ms forwards;}.myvAnTEy_13{stroke-dasharray:298 300;stroke-dashoffset:299;animation:myvAnTEy_draw 3000ms ease-in-out 0ms forwards;}.myvAnTEy_14{stroke-dasharray:193 195;stroke-dashoffset:194;animation:myvAnTEy_draw 3000ms ease-in-out 0ms forwards;}.myvAnTEy_15{stroke-dasharray:431 433;stroke-dashoffset:432;animation:myvAnTEy_draw 3000ms ease-in-out 0ms forwards;}.myvAnTEy_16{stroke-dasharray:79 81;stroke-dashoffset:80;animation:myvAnTEy_draw 3000ms ease-in-out 0ms forwards;}.myvAnTEy_17{stroke-dasharray:35 37;stroke-dashoffset:36;animation:myvAnTEy_draw 3000ms ease-in-out 0ms forwards;}.myvAnTEy_18{stroke-dasharray:16 18;stroke-dashoffset:17;animation:myvAnTEy_draw 3000ms ease-in-out 0ms forwards;}.myvAnTEy_19{stroke-dasharray:178 180;stroke-dashoffset:179;animation:myvAnTEy_draw 3000ms ease-in-out 0ms forwards;}.myvAnTEy_20{stroke-dasharray:386 388;stroke-dashoffset:387;animation:myvAnTEy_draw 3000ms ease-in-out 0ms forwards;}.myvAnTEy_21{stroke-dasharray:215 217;stroke-dashoffset:216;animation:myvAnTEy_draw 3000ms ease-in-out 0ms forwards;}.myvAnTEy_22{stroke-dasharray:79 81;stroke-dashoffset:80;animation:myvAnTEy_draw 3000ms ease-in-out 0ms forwards;}.myvAnTEy_23{stroke-dasharray:35 37;stroke-dashoffset:36;animation:myvAnTEy_draw 3000ms ease-in-out 0ms forwards;}.myvAnTEy_24{stroke-dasharray:35 37;stroke-dashoffset:36;animation:myvAnTEy_draw 3000ms ease-in-out 0ms forwards;}@keyframes myvAnTEy_draw{100%{stroke-dashoffset:0;}}@keyframes myvAnTEy_fade{0%{stroke-opacity:1;}94.44444444444444%{stroke-opacity:1;}100%{stroke-opacity:0;}}</style></svg>
