<!--?xml version="1.0" encoding="UTF-8" standalone="no"?-->
<svg xmlns:dc="http://purl.org/dc/elements/1.1/" xmlns:cc="http://creativecommons.org/ns#" xmlns:rdf="http://www.w3.org/1999/02/22-rdf-syntax-ns#" xmlns:svg="http://www.w3.org/2000/svg" xmlns="http://www.w3.org/2000/svg" xmlns:xlink="http://www.w3.org/1999/xlink" xmlns:sodipodi="http://sodipodi.sourceforge.net/DTD/sodipodi-0.dtd" xmlns:inkscape="http://www.inkscape.org/namespaces/inkscape" width="1826.67" height="580.48" viewBox="0 0 483.31 153.58" version="1.1" id="svg993" sodipodi:docname="frente-opt.svg" inkscape:version="0.92.4 (5da689c313, 2019-01-14)" style="">
  <metadata id="metadata997">
    <rdf:rdf>
      <cc:work rdf:about="">
        <dc:format>image/svg+xml</dc:format>
        <dc:type rdf:resource="http://purl.org/dc/dcmitype/StillImage"></dc:type>
      </cc:work>
    </rdf:rdf>
  </metadata>
  <sodipodi:namedview pagecolor="#ffffff" bordercolor="#666666" borderopacity="1" objecttolerance="10" gridtolerance="10" guidetolerance="10" inkscape:pageopacity="0" inkscape:pageshadow="2" inkscape:window-width="1366" inkscape:window-height="705" id="namedview995" showgrid="false" inkscape:zoom="0.41496274" inkscape:cx="907.51096" inkscape:cy="246.1635" inkscape:window-x="1912" inkscape:window-y="113" inkscape:window-maximized="1" inkscape:current-layer="svg993"></sodipodi:namedview>
  <defs id="defs926">
    <pattern inkscape:collect="always" xlink:href="#g" id="pattern2267" patternTransform="translate(83.34,-33.3)"></pattern>
    <pattern inkscape:collect="always" xlink:href="#g" id="pattern2264" patternTransform="translate(83.34,-33.3)"></pattern>
    <path id="c" fill="#000" stroke="none" d="M7.6.06C5.08-.19 2.66.3-.01 1.8v1.27a11.9 11.9 0 0 1 7.48-1.78c2.3.23 4.5 1.08 6.78 1.94 4.57 1.71 9.55 3.46 15.82-.16V1.8c-6.45 3.7-10.82 1.98-15.38.27-2.28-.85-4.57-1.75-7.1-2z" class="jPQHNxHe_0"></path>
  </defs>
  <defs id="defs947">
    <linearGradient id="b">
      <stop offset="0" stop-opacity=".41" id="stop928"></stop>
      <stop offset="1" stop-opacity=".04" id="stop930"></stop>
    </linearGradient>
    <linearGradient id="a">
      <stop offset="0" stop-opacity=".2" id="stop933"></stop>
      <stop offset="1" stop-opacity=".04" id="stop935"></stop>
    </linearGradient>
    <linearGradient xlink:href="#a" id="e" x1="199.83" x2="326.48" y1="128.09" y2="133.9" gradientUnits="userSpaceOnUse" gradientTransform="translate(83.34,-33.3)"></linearGradient>
    <linearGradient xlink:href="#b" id="f" x1="13.8" x2="-46.99" y1="140.4" y2="138.51" gradientUnits="userSpaceOnUse" gradientTransform="translate(83.34,-33.3)"></linearGradient>
    <pattern id="g" width="30.07" height="5.18" patternUnits="userSpaceOnUse">
      <use xlink:href="#c" id="use940"></use>
    </pattern>
    <pattern xlink:href="#d" id="h" patternTransform="translate(-91.71,-119.82)"></pattern>
    <pattern id="d" width="30.07" height="5.18" patternUnits="userSpaceOnUse">
      <use xlink:href="#c" id="use944"></use>
    </pattern>
  </defs>
  <path style="fill:none;stroke:#000000;stroke-width:0.25999999" inkscape:connector-curvature="0" id="path949" d="m 196.59,114 -0.21,-43.44 m -1.74,43.33 -0.72,-43.5 m 9.5,43.65 -0.46,-43.01 m -1.34,42.93 -0.8,-43.08 m 7.79,54.17 -1.43,-53.72 m 3.61,53.8 -1.28,-53.63 m 5.74,53.47 -1.59,-53.18 m 3.63,53.09 -1.36,-52.93 m 5.26,52.92 -1.1,-52.62 m 3.28,52.45 -1.05,-52.3 m 6.07,52.18 -2.2,-51.9 m 4.13,52.03 -1.97,-51.87 m 6.45,51.54 -2.33,-51.25 m 4.4,51.35 -2.04,-51.18 m 5.99,51.08 -2.35,-50.82 m 4.42,50.68 -2.14,-50.52 m 3.41,0.25 2.94,50.27 m 2.04,-0.19 -2.77,-49.93 m 6.61,49.86 -2.81,-49.59 m 5.01,49.81 -2.7,-49.64 m 6.51,49.55 -2.74,-49.28 m 4.72,49.28 -2.85,-49.15 m 6.54,48.88 -2.92,-48.62 m 8.47,48.36 -2.75,-43.33 -0.3,-4.65 m 4.99,47.98 -3.02,-47.77 m 0.23,4.23 5.48,-0.58 207.93,9.04 m 0.53,29.9 -216.15,7.63 -81,2.96 -1.47,-0.35 m -19.37,1.16 -164.17,5.67 m -1.13,-69.93 82.02,4.91 1.1,-36.56 6.08,-11.82 3.02,-1.13 1.51,-3.78 0.38,-10.96 3.78,-6.05 12.48,2.22 0.14,7.2 23.3,3.56 8.3,-12.22 70.69,11.71 0.24,14.1 28.48,3.67 7.94,-4.16 3.78,0.76 3.4,54.43 m 1.69,-0.19 3.85,-0.41 m 1.94,-0.2 3.27,-0.4 M 109.53,28.74 250.49,44.55" class="jPQHNxHe_1"></path>
  <path style="fill:none;stroke:#000000;stroke-width:0.25999999" inkscape:connector-curvature="0" id="path951" d="m 109.44,5.84 0.56,58.57 78.39,5.58 m 5.53,0.4 2.46,0.17 m 4.44,0.32 2.14,0.15 m 4.22,0.3 2.33,0.17 m 4.15,0.3 2.27,0.15 m 4.16,0.3 2.23,0.16 m 3.87,0.28 2.16,0.15 m 4.12,0.3 2.36,0.16 m 3.64,0.26 2.28,0.16 m 3.4,0.25 2.22,0.15 m 3.8,0.27 2.3,0.17 m 3.78,0.27 1.87,0.13 m 3.62,0.26 2.1,0.15 3.19,48.45 m -101.72,5.98 -7.62,0.17 -0.07,-62.16" class="jPQHNxHe_2"></path>
  <path style="fill:none;stroke:#000000;stroke-width:0.25999999" inkscape:connector-curvature="0" id="path953" d="m 165.31,129.9 -0.5,-57.93 20.78,1.13 0.57,55.9 m 2.27,-59.11 0.56,55.37 3.97,-0.1 -0.1,-11.24 12.95,0.19 v 11.06 l 61.2,-1.39 10.34,-0.22 m -2.51,-44.1 2.5,44.1 M 110,64.4 l -0.45,67.14 m -3.21,-126.47 3.1,0.77 M 105.27,131.71 106.22,5.44 98.27,19.31 98.28,7.9 93.74,17.16 m -1.5,3.78 -3.22,7.18 0.19,-6.05 m 9.07,-14.17 6.01,0.88 m 5.16,0.64 31.54,4.72 v 3.4 m -31.34,18.23 132.26,13.14 -0.38,-5.3 m -121.52,-6.98 -0.19,28.34 m 12.67,-26.83 0.06,27.75 m 15.81,-26.43 0.1,27.64 m 15.21,-25.94 0.28,27.12 m 15.03,-25.61 0.19,26.5 m 12.47,-24.99 0.19,31 m 12.85,-29.86 0.28,30.57 m 12.38,-29.25 0.48,30.05 m 12,-28.73 0.66,29.34 m 18.99,-51.07 2.94,48.34 0.46,7.6 3.78,-0.75 M 109.42,13.34 241.53,30.39" class="jPQHNxHe_3"></path>
  <path style="fill:none;stroke:#000000;stroke-width:0.87" inkscape:connector-curvature="0" id="path955" d="m 110.56,5.68 138.91,20.55 m -14.71,3.21 -0.07,-5.4 m -15.25,3.45 -0.2,-5.6 m -15.72,3.66 -0.1,-6.2 m -16,4.05 -0.08,-6.31 m -18.19,3.98 0.02,-6.81 m -18.07,4.51 -0.17,-7.11" class="jPQHNxHe_4"></path>
  <path style="fill:none;stroke:#000000;stroke-width:0.25999999" inkscape:connector-curvature="0" id="path957" d="m 164.9,73.9 19.22,1.02 m 4.31,0.23 5.56,0.28 m 2.38,0.13 4.5,0.23 m 2.12,0.11 4.34,0.23 m 2.27,0.12 4.28,0.22 m 2.2,0.11 4.13,0.22 m 2.27,0.12 3.92,0.2 m 2.15,0.11 4.08,0.21 m 2.39,0.13 3.6,0.18 m 2.33,0.13 2.66,0.13 m -59.43,-4.86 0.5,55.49 m -19.93,-50.91 19.44,0.8 m 4.27,0.19 5.6,0.24 m 2.4,0.1 4.5,0.2 m 2.12,0.08 4.3,0.19 m 2.36,0.1 4.16,0.18 m 2.17,0.09 4.2,0.18 m 2.18,0.1 4.07,0.17 m 2.17,0.09 4.18,0.18 m 2.25,0.1 3.73,0.15 m 2.15,0.1 2.69,0.11 -0.08,-3.07 m -2.07,-47.62 8.2,1.1 m -167.71,38.96 19.7,1.09 -1.22,60.47 m 141.3,-54.19 -1.09,-29.01 m -47.76,76.36 3.15,-0.1 0.04,-11.08 m 1.77,1.23 6.2,0.16 0.08,9.47 -6.28,0.13 z m 71.21,-39.41 -1.96,-0.2 m -78.67,7.14 83.92,4.08 m -83.52,24.58 84.99,0.27 m -31.99,-30.71 1.89,43.27 m -59.3,0.24 -19.38,0.43" class="jPQHNxHe_5"></path>
  <path style="fill:none;stroke:#000000;stroke-width:0.87" inkscape:connector-curvature="0" id="path959" d="M 129.45,15.9 129.28,8.43" class="jPQHNxHe_6"></path>
  <path style="fill:none;stroke:#000000;stroke-width:0.25999999" inkscape:connector-curvature="0" id="path961" d="m 142.13,0.9 0.2,16.66" class="jPQHNxHe_7"></path>
  <path inkscape:connector-curvature="0" id="path963" d="m 137.42,72.18 c 0.03,-0.32 0.12,-0.35 0.99,-0.3 0.73,0.05 0.82,0.14 0.83,0.7 v 0.18 h -0.05 c -0.19,-0.24 -0.35,-0.3 -0.9,-0.33 a 4.8,4.8 0 0 0 -1.5,0.02 c -0.47,0.11 -0.69,0.46 -0.68,1.12 0.01,0.87 0.35,1.16 1.43,1.21 0.78,0.05 1.09,0.03 1.28,-0.05 a 0.82,0.74 0 0 0 0.45,-0.44 h 0.02 v 0.5 l 1.14,0.06 -0.01,-2.18 c -0.01,-0.66 -0.09,-0.93 -0.28,-1.2 -0.27,-0.32 -0.52,-0.4 -1.57,-0.46 a 4.6,4.6 0 0 0 -1.8,0.09 c -0.38,0.19 -0.53,0.46 -0.57,1 l 1.22,0.07 z m 0.82,1.01 c 0.5,0.03 0.7,0.06 0.77,0.08 a 0.38,0.34 0 0 1 0.2,0.32 c 0.01,0.32 -0.22,0.4 -1.08,0.35 -0.65,-0.03 -0.82,-0.12 -0.83,-0.42 0,-0.3 0.2,-0.37 0.94,-0.33 z m -1.02,-2.7 1.01,0.05 c 0.35,-0.28 0.7,-0.37 1.81,-0.38 l -1.32,-0.65 c -0.36,0.12 -1.31,0.57 -1.5,0.97 z m 3.7,0.77 0.03,3.62 1.18,0.07 v -1.5 c -0.01,-0.54 0.02,-0.74 0.14,-0.9 0.1,-0.17 0.33,-0.24 0.59,-0.22 0.48,0.03 0.61,0.18 0.62,0.72 l 1.1,0.06 v -0.24 c -0.01,-1.08 -0.33,-1.46 -1.27,-1.52 -0.66,-0.04 -0.99,0.11 -1.2,0.56 h -0.07 v -0.55 z m 3.98,0.27 0.01,3.57 1.16,0.06 -0.01,-3.56 z m -0.01,-1.48 v 1.01 l 1.17,0.08 v -1 z m 5.9,0.41 -1.14,-0.08 v 1.92 h -0.05 c -0.21,-0.47 -0.48,-0.6 -1.27,-0.65 -0.79,-0.05 -1.11,-0.02 -1.39,0.18 -0.32,0.23 -0.45,0.65 -0.44,1.55 0,0.89 0.08,1.25 0.33,1.53 0.27,0.29 0.66,0.41 1.49,0.46 0.81,0.04 1.11,-0.06 1.33,-0.48 h 0.06 v 0.47 l 1.06,0.05 0.01,-4.95 z m -2.1,2.21 c 0.81,0.05 0.96,0.2 0.96,0.93 0,0.41 -0.05,0.6 -0.18,0.68 -0.12,0.1 -0.43,0.15 -0.85,0.12 -0.86,-0.05 -0.99,-0.18 -0.99,-0.95 0.01,-0.72 0.17,-0.83 1.07,-0.78 z m 4.62,-0.68 c -1,-0.07 -1.45,-0.02 -1.73,0.2 -0.3,0.23 -0.38,0.56 -0.38,1.38 0,1.02 0.06,1.35 0.34,1.63 0.28,0.28 0.65,0.38 1.75,0.44 1.08,0.06 1.45,0 1.73,-0.24 0.27,-0.26 0.34,-0.57 0.35,-1.52 0,-0.86 -0.07,-1.2 -0.36,-1.47 -0.27,-0.25 -0.7,-0.36 -1.7,-0.42 z m 0,0.98 c 0.3,0.02 0.57,0.07 0.7,0.15 0.21,0.11 0.27,0.28 0.26,0.75 0,0.74 -0.14,0.85 -0.98,0.8 a 1.8,1.8 0 0 1 -0.74,-0.15 c -0.2,-0.11 -0.25,-0.26 -0.25,-0.73 0,-0.74 0.16,-0.87 1,-0.82 z m -17.18,4.28 v 0.1 c 0,0.26 0.05,0.4 0.18,0.51 0.15,0.12 0.41,0.17 1.05,0.2 0.53,0.03 0.8,0 0.94,-0.07 0.16,-0.09 0.23,-0.24 0.22,-0.5 0,-0.42 -0.18,-0.6 -0.6,-0.64 a 23.78,21.71 0 0 0 -0.88,-0.07 c -0.45,0 -0.56,-0.07 -0.56,-0.3 0,-0.1 0.03,-0.19 0.08,-0.23 0.08,-0.07 0.33,-0.1 0.76,-0.07 0.44,0.02 0.67,0.07 0.75,0.17 0.04,0.04 0.06,0.1 0.06,0.25 l 0.32,0.02 c 0,-0.25 -0.02,-0.32 -0.08,-0.42 -0.14,-0.2 -0.4,-0.29 -1.04,-0.32 -0.56,-0.03 -0.84,0 -0.97,0.09 -0.13,0.1 -0.2,0.24 -0.19,0.48 0,0.43 0.18,0.59 0.68,0.61 l 0.87,0.06 c 0.38,0.02 0.5,0.1 0.5,0.35 0,0.1 -0.01,0.17 -0.07,0.22 -0.1,0.08 -0.24,0.1 -0.75,0.07 -0.85,-0.04 -0.91,-0.06 -0.92,-0.45 v -0.06 z m 3.74,-1.22 c -0.42,-0.02 -0.64,0 -0.79,0.09 -0.24,0.14 -0.35,0.43 -0.35,0.93 0,0.52 0.1,0.8 0.34,0.96 0.17,0.13 0.4,0.17 0.95,0.2 0.47,0.02 0.68,0 0.84,-0.1 0.23,-0.14 0.33,-0.42 0.32,-0.93 0,-0.5 -0.1,-0.76 -0.32,-0.93 -0.16,-0.14 -0.4,-0.18 -1,-0.22 z m 0.05,0.3 c 0.37,0.01 0.58,0.05 0.69,0.11 0.2,0.1 0.26,0.29 0.26,0.7 0,0.37 -0.05,0.55 -0.17,0.66 -0.12,0.1 -0.28,0.13 -0.72,0.1 a 1.9,1.9 0 0 1 -0.64,-0.1 c -0.21,-0.08 -0.3,-0.28 -0.3,-0.72 0,-0.68 0.14,-0.8 0.88,-0.75 z m 1.35,0.09 0.41,0.02 0.01,1.8 0.3,0.02 -0.02,-1.8 0.93,0.04 v -0.28 l -0.93,-0.05 V 76.1 c 0,-0.47 0.08,-0.55 0.6,-0.53 h 0.31 v -0.28 l -0.33,-0.01 c -0.73,-0.02 -0.89,0.14 -0.88,0.87 l -0.41,-0.02 v 0.29 z m 2.17,-0.7 v 0.52 l -0.45,-0.02 v 0.29 l 0.46,0.02 v 1 c 0,0.33 0.02,0.46 0.1,0.59 0.12,0.18 0.32,0.25 0.71,0.27 0.39,0.02 0.57,-0.04 0.68,-0.22 0.07,-0.12 0.1,-0.25 0.1,-0.57 v -0.13 l -0.29,-0.01 v 0.13 c 0,0.25 0,0.32 -0.06,0.4 -0.05,0.11 -0.15,0.14 -0.41,0.13 -0.28,-0.01 -0.4,-0.06 -0.48,-0.17 -0.05,-0.1 -0.05,-0.12 -0.06,-0.5 v -0.9 l 1.27,0.06 v -0.29 l -1.28,-0.06 v -0.52 l -0.29,-0.01 z m 1.6,0.6 0.83,2.12 0.42,0.02 0.55,-1.72 h 0.03 l 0.54,1.77 0.42,0.02 0.83,-2.01 -0.33,-0.02 -0.68,1.72 h -0.03 l -0.55,-1.79 -0.44,-0.02 -0.54,1.74 h -0.03 l -0.7,-1.8 -0.33,-0.02 z m 4.01,0.83 v -0.02 c 0,-0.28 0.11,-0.33 0.72,-0.3 0.46,0.03 0.61,0.08 0.72,0.22 0.07,0.09 0.08,0.18 0.08,0.4 v 0.22 h -0.02 c -0.12,-0.2 -0.24,-0.24 -0.96,-0.28 -0.37,-0.01 -0.54,0 -0.64,0.04 -0.19,0.07 -0.26,0.22 -0.26,0.55 0,0.25 0.04,0.37 0.16,0.49 0.13,0.12 0.3,0.16 0.93,0.19 0.53,0.02 0.66,-0.02 0.8,-0.23 v 0.23 l 0.28,0.01 V 77.6 c 0,-0.48 -0.03,-0.63 -0.14,-0.76 -0.15,-0.2 -0.36,-0.26 -0.95,-0.29 -0.76,-0.04 -1,0.07 -1,0.5 v 0.09 z m 0.72,0.53 c 0.61,0.03 0.78,0.1 0.78,0.38 0,0.28 -0.14,0.32 -0.73,0.3 -0.43,-0.02 -0.62,-0.04 -0.7,-0.1 -0.1,-0.04 -0.14,-0.12 -0.14,-0.28 0,-0.13 0.04,-0.22 0.11,-0.26 0.08,-0.05 0.21,-0.06 0.68,-0.04 z m 1.37,-1.04 v 2.06 h 0.27 v -0.93 c 0,-0.71 0.12,-0.83 0.79,-0.8 0.42,0.03 0.52,0.12 0.52,0.55 v 0.14 l 0.28,0.01 v -0.2 c 0,-0.27 -0.06,-0.47 -0.18,-0.6 -0.11,-0.12 -0.25,-0.16 -0.6,-0.18 -0.33,-0.02 -0.47,0 -0.58,0.05 a 0.48,0.44 0 0 0 -0.2,0.2 h -0.02 v -0.26 l -0.28,-0.03 z m 3.93,1.6 c -0.01,0.13 -0.02,0.16 -0.07,0.22 -0.08,0.11 -0.24,0.14 -0.62,0.12 -0.52,-0.02 -0.7,-0.08 -0.81,-0.2 -0.08,-0.1 -0.12,-0.26 -0.12,-0.53 l 1.91,0.1 c 0,-0.48 -0.04,-0.67 -0.17,-0.85 -0.16,-0.22 -0.36,-0.29 -0.95,-0.32 -0.42,-0.02 -0.62,0 -0.76,0.09 -0.22,0.13 -0.32,0.41 -0.32,0.9 0,0.41 0.08,0.7 0.24,0.85 0.15,0.16 0.41,0.21 1,0.24 0.7,0.03 0.94,-0.12 0.95,-0.6 z m -1.6,-0.66 c 0.02,-0.46 0.17,-0.55 0.76,-0.52 0.67,0.03 0.84,0.15 0.83,0.6 l -1.6,-0.08 z" class="jPQHNxHe_8"></path>
  <path style="stroke:#000000;stroke-width:0.0978935" inkscape:connector-curvature="0" id="path965" d="m 136.3802,79.592114 18.7385,0.791406 h 0.0355" class="jPQHNxHe_9"></path>
  <g id="g969" word-spacing="0" style="line-height:1.25;-inkscape-font-specification:'American Captain';word-spacing:0" transform="translate(83.34,-33.3)">
    <path inkscape:connector-curvature="0" id="path967" transform="matrix(0.39408,0,0,0.35973,26.16,105.05)" style="font-weight:400;font-size:7.42000008px;font-family:'Microgramma D Extended';-inkscape-font-specification:'Microgramma D Extended';letter-spacing:0" letter-spacing="0" font-weight="400" font-size="7.42" aria-label="headquarter" d="m 68.46,25.4 0.08,5.99 0.53,0.02 -0.02,-1.96 c -0.01,-0.78 0.02,-0.97 0.2,-1.22 0.22,-0.3 0.65,-0.43 1.47,-0.4 0.73,0.03 1.07,0.15 1.25,0.41 0.16,0.25 0.2,0.47 0.2,1.33 l 0.02,1.95 0.53,0.02 -0.02,-2.15 c -0.01,-0.99 -0.07,-1.3 -0.3,-1.6 -0.27,-0.35 -0.68,-0.49 -1.62,-0.52 -1.1,-0.05 -1.49,0.09 -1.7,0.6 H 69.03 L 69,25.43 Z m 8.47,5.02 c -0.02,0.26 -0.03,0.33 -0.12,0.44 -0.17,0.23 -0.46,0.29 -1.22,0.26 -1,-0.03 -1.36,-0.13 -1.57,-0.4 -0.16,-0.2 -0.24,-0.53 -0.26,-1.06 l 3.73,0.14 c -0.02,-0.98 -0.1,-1.35 -0.35,-1.73 -0.32,-0.44 -0.72,-0.57 -1.87,-0.62 -0.81,-0.03 -1.2,0.02 -1.47,0.2 -0.43,0.27 -0.62,0.85 -0.61,1.85 0,0.85 0.17,1.43 0.5,1.74 0.3,0.3 0.81,0.41 1.97,0.45 1.35,0.05 1.81,-0.27 1.83,-1.25 z M 73.77,29.1 c 0.05,-0.92 0.33,-1.12 1.49,-1.08 1.3,0.06 1.63,0.29 1.64,1.2 z m 4.76,-0.23 v -0.05 c 0,-0.57 0.2,-0.66 1.34,-0.61 0.87,0.03 1.17,0.12 1.36,0.41 0.12,0.18 0.16,0.36 0.16,0.79 v 0.44 h -0.04 c -0.23,-0.4 -0.46,-0.46 -1.82,-0.51 -0.7,-0.03 -1.02,0 -1.22,0.08 -0.34,0.15 -0.47,0.46 -0.46,1.11 0,0.5 0.08,0.75 0.3,0.97 0.24,0.24 0.56,0.3 1.74,0.34 1.01,0.04 1.25,-0.04 1.5,-0.47 h 0.02 v 0.47 l 0.52,0.02 -0.02,-2.15 c 0,-0.97 -0.06,-1.25 -0.29,-1.54 -0.28,-0.38 -0.66,-0.49 -1.79,-0.53 -1.44,-0.06 -1.86,0.17 -1.85,1.03 v 0.18 z m 1.35,1.05 c 1.16,0.05 1.48,0.2 1.48,0.73 0,0.55 -0.26,0.67 -1.36,0.63 a 3.92,3.92 0 0 1 -1.33,-0.15 c -0.19,-0.1 -0.26,-0.27 -0.26,-0.57 0,-0.27 0.06,-0.44 0.19,-0.54 0.15,-0.11 0.4,-0.13 1.28,-0.1 z m 6.74,-3.75 -0.51,-0.03 0.01,2.29 h -0.04 c -0.22,-0.45 -0.53,-0.57 -1.43,-0.6 -0.99,-0.05 -1.4,0 -1.66,0.18 -0.42,0.28 -0.6,0.85 -0.6,1.84 0.01,0.96 0.17,1.47 0.56,1.8 0.3,0.24 0.68,0.33 1.6,0.36 1.05,0.04 1.32,-0.05 1.56,-0.52 h 0.03 v 0.52 l 0.51,0.02 z m -2.01,2.21 c 1.3,0.06 1.53,0.3 1.54,1.64 0,0.68 -0.09,1.02 -0.32,1.23 -0.2,0.17 -0.55,0.22 -1.38,0.2 -1.24,-0.05 -1.5,-0.3 -1.5,-1.58 0,-0.72 0.08,-1.09 0.32,-1.3 0.2,-0.17 0.53,-0.22 1.34,-0.19 z m 6.75,5.27 -0.01,-5.5 -0.5,-0.02 v 0.52 h -0.02 c -0.22,-0.48 -0.51,-0.6 -1.55,-0.63 -0.74,-0.03 -1.14,0 -1.39,0.12 -0.52,0.24 -0.73,0.77 -0.73,1.8 0,0.95 0.14,1.45 0.47,1.8 0.3,0.3 0.68,0.4 1.77,0.44 0.6,0.02 0.88,-0.01 1.08,-0.13 0.16,-0.1 0.27,-0.2 0.34,-0.36 h 0.03 v 1.95 z m -2.19,-5.08 c 0.7,0.03 1.08,0.09 1.28,0.21 0.31,0.2 0.42,0.57 0.43,1.36 0,0.69 -0.09,1.08 -0.3,1.28 -0.2,0.17 -0.5,0.22 -1.2,0.2 -0.67,-0.02 -1.03,-0.08 -1.22,-0.2 -0.32,-0.2 -0.45,-0.58 -0.45,-1.36 0,-1.3 0.23,-1.54 1.46,-1.49 z m 2.78,-0.4 v 2.24 c 0,0.84 0.1,1.23 0.32,1.49 0.25,0.29 0.67,0.4 1.46,0.43 1,0.04 1.32,-0.09 1.58,-0.6 h 0.03 v 0.6 l 0.5,0.03 v -4.03 l -0.5,-0.02 v 2 c 0,0.58 -0.05,0.84 -0.18,1.04 -0.22,0.34 -0.61,0.46 -1.38,0.43 -0.6,-0.02 -0.9,-0.11 -1.08,-0.31 C 92.52,31.25 92.47,31 92.46,30.24 V 28.2 Z m 5,1.41 v -0.05 c 0,-0.56 0.2,-0.64 1.29,-0.6 0.83,0.03 1.12,0.12 1.3,0.4 0.11,0.18 0.15,0.36 0.15,0.77 v 0.44 h -0.04 c -0.22,-0.4 -0.44,-0.45 -1.75,-0.5 -0.67,-0.03 -0.97,0 -1.17,0.08 -0.33,0.15 -0.45,0.45 -0.45,1.09 0,0.48 0.07,0.73 0.28,0.95 0.23,0.23 0.53,0.3 1.67,0.33 0.97,0.04 1.2,-0.04 1.44,-0.46 h 0.02 v 0.46 l 0.5,0.02 v -2.1 c 0,-0.96 -0.05,-1.23 -0.27,-1.52 -0.27,-0.36 -0.64,-0.47 -1.71,-0.52 -1.39,-0.05 -1.8,0.17 -1.8,1.02 v 0.17 z m 1.28,1.03 c 1.12,0.05 1.42,0.2 1.42,0.71 0,0.54 -0.25,0.66 -1.31,0.62 a 3.68,3.68 0 0 1 -1.27,-0.15 c -0.18,-0.1 -0.25,-0.26 -0.25,-0.55 0,-0.26 0.06,-0.43 0.18,-0.53 0.15,-0.11 0.39,-0.13 1.23,-0.1 z m 2.49,-2.08 v 4 l 0.5,0.02 V 30.7 c 0,-1.41 0.2,-1.64 1.4,-1.6 0.78,0.03 0.95,0.22 0.95,1.05 v 0.28 l 0.5,0.02 0.01,-0.41 c 0,-0.52 -0.1,-0.9 -0.32,-1.14 -0.2,-0.24 -0.46,-0.32 -1.08,-0.35 -0.6,-0.02 -0.86,0 -1.05,0.12 -0.17,0.1 -0.3,0.23 -0.38,0.41 h -0.03 V 28.55 Z M 105,27.7 v 1 l -0.77,-0.03 v 0.54 l 0.77,0.03 v 1.93 c 0,0.63 0.03,0.88 0.17,1.12 0.18,0.33 0.54,0.47 1.2,0.5 0.66,0.02 1,-0.11 1.18,-0.45 0.13,-0.24 0.17,-0.5 0.18,-1.11 v -0.25 l -0.5,-0.02 v 0.25 c 0,0.49 -0.02,0.63 -0.1,0.78 -0.1,0.2 -0.27,0.26 -0.7,0.24 -0.48,-0.01 -0.7,-0.1 -0.83,-0.3 -0.1,-0.17 -0.1,-0.2 -0.11,-0.95 v -1.72 l 2.19,0.09 V 28.8 l -2.18,-0.08 v -1 L 105,27.71 Z m 6.53,4 c -0.03,0.25 -0.04,0.32 -0.12,0.42 -0.16,0.22 -0.43,0.28 -1.13,0.25 -0.93,-0.03 -1.27,-0.12 -1.46,-0.37 -0.14,-0.2 -0.2,-0.52 -0.22,-1.03 l 3.45,0.13 c 0,-0.94 -0.07,-1.3 -0.3,-1.66 -0.3,-0.43 -0.66,-0.55 -1.73,-0.6 -0.75,-0.02 -1.1,0.02 -1.36,0.2 -0.4,0.26 -0.59,0.81 -0.59,1.78 0,0.81 0.14,1.37 0.44,1.67 0.27,0.28 0.75,0.4 1.82,0.43 1.25,0.05 1.68,-0.26 1.7,-1.2 l -0.5,-0.03 z m -2.91,-1.27 c 0.05,-0.88 0.32,-1.08 1.39,-1.04 1.2,0.05 1.5,0.28 1.5,1.15 l -2.9,-0.11 z m 3.88,-1.43 -0.03,3.95 0.49,0.01 v -1.82 c 0.02,-1.39 0.22,-1.62 1.4,-1.57 0.75,0.03 0.91,0.21 0.9,1.03 v 0.28 l 0.5,0.02 v -0.41 c 0,-0.51 -0.1,-0.89 -0.3,-1.13 -0.2,-0.24 -0.45,-0.31 -1.05,-0.34 -0.59,-0.02 -0.84,0 -1.03,0.11 a 0.85,0.85 0 0 0 -0.37,0.42 h -0.03 v -0.53 z" class="jPQHNxHe_10"></path>
  </g>
  <path style="fill:none;stroke:#000000;stroke-width:0.25999999" inkscape:connector-curvature="0" id="path971" d="M 483.32,122.97 0.38,151.47 M 483.28,124.7 0.31,153.54" class="jPQHNxHe_11"></path>
  <path inkscape:connector-curvature="0" style="opacity:0.34000011;fill:url(#e)" id="path973" d="m 277.72,81.42 0.17,42.16 L 475.36,115 459.34,90.01 Z" class="jPQHNxHe_12"></path>
  <path inkscape:connector-curvature="0" style="opacity:0.2;fill:url(#f)" id="path975" d="m 13.61,69.7 87.32,2.3 -2.6,58.6 -92.65,-2.32 z" class="jPQHNxHe_13"></path>
  <path style="opacity:0.06000001;fill:url(#pattern2267)" inkscape:connector-curvature="0" id="path977" d="M 25.7,34.9 53.2,57.32 74.57,5.24 4.53,12.6 Z" class="jPQHNxHe_14"></path>
  <path style="opacity:0.02999998;fill:url(#pattern2264)" inkscape:connector-curvature="0" id="path979" d="m 265.72,62.52 76.35,-31.94 57.45,-25.16 58.3,71.74 z" class="jPQHNxHe_15"></path>
  <path style="opacity:0.15;fill-opacity:0.2" id="ellipse981" d="M267.80002,17.82A12.56,12.29 0,1,1 292.92002,17.82A12.56,12.29 0,1,1 267.80002,17.82" class="jPQHNxHe_16"></path>
  <path style="opacity:0.15;fill-opacity:0.2" id="ellipse983" d="M299.60999990000005,28.66A5.6100001,5.4899998 0,1,1 310.8300001,28.66A5.6100001,5.4899998 0,1,1 299.60999990000005,28.66" class="jPQHNxHe_17"></path>
  <path style="opacity:0.15;fill-opacity:0.2" id="ellipse985" d="M292.37,33.670002A2.5,2.45 0,1,1 297.37,33.670002A2.5,2.45 0,1,1 292.37,33.670002" class="jPQHNxHe_18"></path>
  <path style="fill:none" inkscape:connector-curvature="0" id="path987" d="m 89.77,145.27 v 5.1 L 14.55,153.4 3.78,149.81 Z" class="jPQHNxHe_19"></path>
<style data-made-with="vivus-instant">.jPQHNxHe_0{stroke-dasharray:66 68;stroke-dashoffset:67;animation:jPQHNxHe_draw 4000ms ease-in-out 0ms forwards;}.jPQHNxHe_1{stroke-dasharray:2466 2468;stroke-dashoffset:2467;animation:jPQHNxHe_draw 4000ms ease-in-out 0ms forwards;}.jPQHNxHe_2{stroke-dasharray:283 285;stroke-dashoffset:284;animation:jPQHNxHe_draw 4000ms ease-in-out 0ms forwards;}.jPQHNxHe_3{stroke-dasharray:1225 1227;stroke-dashoffset:1226;animation:jPQHNxHe_draw 4000ms ease-in-out 0ms forwards;}.jPQHNxHe_4{stroke-dasharray:178 180;stroke-dashoffset:179;animation:jPQHNxHe_draw 4000ms ease-in-out 0ms forwards;}.jPQHNxHe_5{stroke-dasharray:569 571;stroke-dashoffset:570;animation:jPQHNxHe_draw 4000ms ease-in-out 0ms forwards;}.jPQHNxHe_6{stroke-dasharray:8 10;stroke-dashoffset:9;animation:jPQHNxHe_draw 4000ms ease-in-out 0ms forwards;}.jPQHNxHe_7{stroke-dasharray:17 19;stroke-dashoffset:18;animation:jPQHNxHe_draw 4000ms ease-in-out 0ms forwards;}.jPQHNxHe_8{stroke-dasharray:219 221;stroke-dashoffset:220;animation:jPQHNxHe_draw 4000ms ease-in-out 0ms forwards;}.jPQHNxHe_9{stroke-dasharray:19 21;stroke-dashoffset:20;animation:jPQHNxHe_draw 4000ms ease-in-out 0ms forwards;}.jPQHNxHe_10{stroke-dasharray:288 290;stroke-dashoffset:289;animation:jPQHNxHe_draw 4000ms ease-in-out 0ms forwards;}.jPQHNxHe_11{stroke-dasharray:968 970;stroke-dashoffset:969;animation:jPQHNxHe_draw 4000ms ease-in-out 0ms forwards;}.jPQHNxHe_12{stroke-dasharray:452 454;stroke-dashoffset:453;animation:jPQHNxHe_draw 4000ms ease-in-out 0ms forwards;}.jPQHNxHe_13{stroke-dasharray:298 300;stroke-dashoffset:299;animation:jPQHNxHe_draw 4000ms ease-in-out 0ms forwards;}.jPQHNxHe_14{stroke-dasharray:193 195;stroke-dashoffset:194;animation:jPQHNxHe_draw 4000ms ease-in-out 0ms forwards;}.jPQHNxHe_15{stroke-dasharray:431 433;stroke-dashoffset:432;animation:jPQHNxHe_draw 4000ms ease-in-out 0ms forwards;}.jPQHNxHe_16{stroke-dasharray:79 81;stroke-dashoffset:80;animation:jPQHNxHe_draw 4000ms ease-in-out 0ms forwards;}.jPQHNxHe_17{stroke-dasharray:35 37;stroke-dashoffset:36;animation:jPQHNxHe_draw 4000ms ease-in-out 0ms forwards;}.jPQHNxHe_18{stroke-dasharray:16 18;stroke-dashoffset:17;animation:jPQHNxHe_draw 4000ms ease-in-out 0ms forwards;}.jPQHNxHe_19{stroke-dasharray:178 180;stroke-dashoffset:179;animation:jPQHNxHe_draw 4000ms ease-in-out 0ms forwards;}@keyframes jPQHNxHe_draw{100%{stroke-dashoffset:0;}}@keyframes jPQHNxHe_fade{0%{stroke-opacity:1;}95.1219512195122%{stroke-opacity:1;}100%{stroke-opacity:0;}}</style></svg>
