<svg xmlns="http://www.w3.org/2000/svg" xmlns:xlink="http://www.w3.org/1999/xlink" width="1826.67" height="580.48" viewBox="0 0 483.31 153.58">
  <defs>
    <path id="c" fill="#000" stroke="none" d="M7.6.06C5.08-.19 2.66.3-.01 1.8v1.27a11.9 11.9 0 0 1 7.48-1.78c2.3.23 4.5 1.08 6.78 1.94 4.57 1.71 9.55 3.46 15.82-.16V1.8c-6.45 3.7-10.82 1.98-15.38.27-2.28-.85-4.57-1.75-7.1-2z"/>
  </defs>
  <defs>
    <linearGradient id="b">
      <stop offset="0" stop-opacity=".41"/>
      <stop offset="1" stop-opacity=".04"/>
    </linearGradient>
    <linearGradient id="a">
      <stop offset="0" stop-opacity=".2"/>
      <stop offset="1" stop-opacity=".04"/>
    </linearGradient>
    <linearGradient xlink:href="#a" id="e" x1="199.83" x2="326.48" y1="128.09" y2="133.9" gradientUnits="userSpaceOnUse"/>
    <linearGradient xlink:href="#b" id="f" x1="13.8" x2="-46.99" y1="140.4" y2="138.51" gradientUnits="userSpaceOnUse"/>
    <pattern id="g" width="30.07" height="5.18" patternUnits="userSpaceOnUse">
      <use xlink:href="#c"/>
    </pattern>
    <pattern xlink:href="#d" id="h" patternTransform="translate(-175.05 -86.52)"/>
    <pattern id="d" width="30.07" height="5.18" patternUnits="userSpaceOnUse">
      <use xlink:href="#c"/>
    </pattern>
  </defs>
  <g transform="translate(83.34 -33.3)">
    <path fill="none" stroke="#000" stroke-width=".26" d="m113.25 147.3-.21-43.44m-1.74 43.33-.72-43.5m9.5 43.65-.46-43.01m-1.34 42.93-.8-43.08m7.79 54.17-1.43-53.72m3.61 53.8-1.28-53.63m5.74 53.47-1.59-53.18m3.63 53.09-1.36-52.93m5.26 52.92-1.1-52.62m3.28 52.45-1.05-52.3m6.07 52.18-2.2-51.9m4.13 52.03-1.97-51.87m6.45 51.54-2.33-51.25m4.4 51.35-2.04-51.18m5.99 51.08-2.35-50.82m4.42 50.68-2.14-50.52m3.41.25 2.94 50.27m2.04-.19-2.77-49.93m6.61 49.86-2.81-49.59m5.01 49.81-2.7-49.64m6.51 49.55-2.74-49.28m4.72 49.28-2.85-49.15m6.54 48.88-2.92-48.62m8.47 48.36-2.75-43.33-.3-4.65m4.99 47.98-3.02-47.77m.23 4.23 5.48-.58 207.93 9.04m.53 29.9-216.15 7.63-81 2.96-1.47-.35m-19.37 1.16-164.17 5.67m-1.13-69.93 82.02 4.91 1.1-36.56 6.08-11.82 3.02-1.13 1.51-3.78.38-10.96 3.78-6.05 12.48 2.22.14 7.2 23.3 3.56 8.3-12.22 70.69 11.71.24 14.1 28.48 3.67 7.94-4.16 3.78.76 3.4 54.43m1.69-.19 3.85-.41m1.94-.2 3.27-.4M26.19 62.04l140.96 15.81"/>
    <path fill="none" stroke="#000" stroke-width=".26" d="m26.1 39.14.56 58.57 78.39 5.58m5.53.4 2.46.17m4.44.32 2.14.15m4.22.3 2.33.17m4.15.3 2.27.15m4.16.3 2.23.16m3.87.28 2.16.15m4.12.3 2.36.16m3.64.26 2.28.16m3.4.25 2.22.15m3.8.27 2.3.17m3.78.27 1.87.13m3.62.26 2.1.15 3.19 48.45M81.97 163.1l-7.62.17-.07-62.16"/>
    <path fill="none" stroke="#000" stroke-width=".26" d="m81.97 163.2-.5-57.93 20.78 1.13.57 55.9m2.27-59.11.56 55.37 3.97-.1-.1-11.24 12.95.19v11.06l61.2-1.39 10.34-.22m-2.51-44.1 2.5 44.1M26.66 97.7l-.45 67.14M23 38.37l3.1.77m-4.17 125.87.95-126.27-7.95 13.87.01-11.41-4.54 9.26m-1.5 3.78-3.22 7.18.19-6.05m9.07-14.17 6.01.88m5.16.64 31.54 4.72v3.4M26.31 69.07l132.26 13.14-.38-5.3M36.67 69.93l-.19 28.34m12.67-26.83.06 27.75m15.81-26.43.1 27.64m15.21-25.94.28 27.12m15.03-25.61.19 26.5m12.47-24.99.19 31m12.85-29.86.28 30.57M134 79.94l.48 30.05m12-28.73.66 29.34m18.99-51.07 2.94 48.34.46 7.6 3.78-.75M26.08 46.64l132.11 17.05"/>
    <path fill="none" stroke="#000" stroke-width=".87" d="m27.22 38.98 138.91 20.55m-14.71 3.21-.07-5.4m-15.25 3.45-.2-5.6m-15.72 3.66-.1-6.2m-16 4.05-.08-6.31m-18.19 3.98.02-6.81m-18.07 4.51-.17-7.11"/>
    <path fill="none" stroke="#000" stroke-width=".26" d="m81.56 107.2 19.22 1.02m4.31.23 5.56.28m2.38.13 4.5.23m2.12.11 4.34.23m2.27.12 4.28.22m2.2.11 4.13.22m2.27.12 3.92.2m2.15.11 4.08.21m2.39.13 3.6.18m2.33.13 2.66.13m-59.43-4.86.5 55.49m-19.93-50.91 19.44.8m4.27.19 5.6.24m2.4.1 4.5.2m2.12.08 4.3.19m2.36.1 4.16.18m2.17.09 4.2.18m2.18.1 4.07.17m2.17.09 4.18.18m2.25.1 3.73.15m2.15.1 2.69.11-.08-3.07m-2.07-47.62 8.2 1.1M-1.31 103.75l19.7 1.09-1.22 60.47m141.3-54.19-1.09-29.01m-47.76 76.36 3.15-.1.04-11.08m1.77 1.23 6.2.16.08 9.47-6.28.13zm71.21-39.41-1.96-.2m-78.67 7.14 83.92 4.08m-83.52 24.58 84.99.27m-31.99-30.71 1.89 43.27m-59.3.24-19.38.43"/>
    <path fill="none" stroke="#000" stroke-width=".87" d="m46.11 49.2-.17-7.47"/>
    <path fill="none" stroke="#000" stroke-width=".26" d="m58.79 34.2.2 16.66"/>
    <path d="M54.08 105.48c.03-.32.12-.35.99-.3.73.05.82.14.83.7v.18h-.05c-.19-.24-.35-.3-.9-.33a4.8 4.8 0 0 0-1.5.02c-.47.11-.69.46-.68 1.12.01.87.35 1.16 1.43 1.21.78.05 1.09.03 1.28-.05a.82.74 0 0 0 .45-.44h.02v.5l1.14.06-.01-2.18c-.01-.66-.09-.93-.28-1.2-.27-.32-.52-.4-1.57-.46a4.6 4.6 0 0 0-1.8.09c-.38.19-.53.46-.57 1l1.22.07v.01zm.82 1.01c.5.03.7.06.77.08a.38.34 0 0 1 .2.32c.01.32-.22.4-1.08.35-.65-.03-.82-.12-.83-.42 0-.3.2-.37.94-.33zm-1.02-2.7 1.01.05c.35-.28.7-.37 1.81-.38l-1.32-.65c-.36.12-1.31.57-1.5.97zm3.7.77.03 3.62 1.18.07v-1.5c-.01-.54.02-.74.14-.9.1-.17.33-.24.59-.22.48.03.61.18.62.72l1.1.06v-.24c-.01-1.08-.33-1.46-1.27-1.52-.66-.04-.99.11-1.2.56h-.07v-.55l-1.12-.1zm3.98.27.01 3.57 1.16.06-.01-3.56-1.16-.07zm-.01-1.48v1.01l1.17.08v-1l-1.17-.09zm5.9.41-1.14-.08v1.92h-.05c-.21-.47-.48-.6-1.27-.65-.79-.05-1.11-.02-1.39.18-.32.23-.45.65-.44 1.55 0 .89.08 1.25.33 1.53.27.29.66.41 1.49.46.81.04 1.11-.06 1.33-.48h.06v.47l1.06.05.01-4.95zm-2.1 2.21c.81.05.96.2.96.93 0 .41-.05.6-.18.68-.12.1-.43.15-.85.12-.86-.05-.99-.18-.99-.95.01-.72.17-.83 1.07-.78zm4.62-.68c-1-.07-1.45-.02-1.73.2-.3.23-.38.56-.38 1.38 0 1.02.06 1.35.34 1.63.28.28.65.38 1.75.44 1.08.06 1.45 0 1.73-.24.27-.26.34-.57.35-1.52 0-.86-.07-1.2-.36-1.47-.27-.25-.7-.36-1.7-.42zm0 .98c.3.02.57.07.7.15.21.11.27.28.26.75 0 .74-.14.85-.98.8a1.8 1.8 0 0 1-.74-.15c-.2-.11-.25-.26-.25-.73 0-.74.16-.87 1-.82zm-17.18 4.28v.1c0 .26.05.4.18.51.15.12.41.17 1.05.2.53.03.8 0 .94-.07.16-.09.23-.24.22-.5 0-.42-.18-.6-.6-.64a23.78 21.71 0 0 0-.88-.07c-.45 0-.56-.07-.56-.3 0-.1.03-.19.08-.23.08-.07.33-.1.76-.07.44.02.67.07.75.17.04.04.06.1.06.25l.32.02c0-.25-.02-.32-.08-.42-.14-.2-.4-.29-1.04-.32-.56-.03-.84 0-.97.09-.13.1-.2.24-.19.48 0 .43.18.59.68.61l.87.06c.38.02.5.1.5.35 0 .1-.01.17-.07.22-.1.08-.24.1-.75.07-.85-.04-.91-.06-.92-.45v-.06h-.35zm3.74-1.22c-.42-.02-.64 0-.79.09-.24.14-.35.43-.35.93 0 .52.1.8.34.96.17.13.4.17.95.2.47.02.68 0 .84-.1.23-.14.33-.42.32-.93 0-.5-.1-.76-.32-.93-.16-.14-.4-.18-1-.22zm.05.3c.37.01.58.05.69.11.2.1.26.29.26.7 0 .37-.05.55-.17.66-.12.1-.28.13-.72.1a1.9 1.9 0 0 1-.64-.1c-.21-.08-.3-.28-.3-.72 0-.68.14-.8.88-.75zm1.35.09.41.02.01 1.8.3.02-.02-1.8.93.04v-.28l-.93-.05v-.07c0-.47.08-.55.6-.53h.31v-.28l-.33-.01c-.73-.02-.89.14-.88.87l-.41-.02v.29zm2.17-.7v.52l-.45-.02v.29l.46.02v1c0 .33.02.46.1.59.12.18.32.25.71.27.39.02.57-.04.68-.22.07-.12.1-.25.1-.57v-.13l-.29-.01v.13c0 .25 0 .32-.06.4-.05.11-.15.14-.41.13-.28-.01-.4-.06-.48-.17-.05-.1-.05-.12-.06-.5v-.9l1.27.06v-.29l-1.28-.06v-.52l-.29-.01zm1.6.6.83 2.12.42.02.55-1.72h.03l.54 1.77.42.02.83-2.01-.33-.02-.68 1.72h-.03l-.55-1.79-.44-.02-.54 1.74h-.03l-.7-1.8-.33-.02zm4.01.83v-.02c0-.28.11-.33.72-.3.46.03.61.08.72.22.07.09.08.18.08.4v.22h-.02c-.12-.2-.24-.24-.96-.28-.37-.01-.54 0-.64.04-.19.07-.26.22-.26.55 0 .25.04.37.16.49.13.12.3.16.93.19.53.02.66-.02.8-.23v.23l.28.01v-1.07c0-.48-.03-.63-.14-.76-.15-.2-.36-.26-.95-.29-.76-.04-1 .07-1 .5v.09l.28.01zm.72.53c.61.03.78.1.78.38s-.14.32-.73.3c-.43-.02-.62-.04-.7-.1-.1-.04-.14-.12-.14-.28 0-.13.04-.22.11-.26.08-.05.21-.06.68-.04zm1.37-1.04V112h.27v-.93c0-.71.12-.83.79-.8.42.03.52.12.52.55v.14l.28.01v-.2c0-.27-.06-.47-.18-.6-.11-.12-.25-.16-.6-.18-.33-.02-.47 0-.58.05a.48.44 0 0 0-.2.2h-.02v-.26l-.28-.03zm3.93 1.6c-.01.13-.02.16-.07.22-.08.11-.24.14-.62.12-.52-.02-.7-.08-.81-.2-.08-.1-.12-.26-.12-.53l1.91.1c0-.48-.04-.67-.17-.85-.16-.22-.36-.29-.95-.32-.42-.02-.62 0-.76.09-.22.13-.32.41-.32.9 0 .41.08.7.24.85.15.16.41.21 1 .24.7.03.94-.12.95-.6l-.28-.02zm-1.6-.66c.02-.46.17-.55.76-.52.67.03.84.15.83.6l-1.6-.08z"/>
    <path stroke="#000" stroke-width=".26" d="m68.21 21.8 47.55 2.2h.09" transform="matrix(.39408 0 0 .35973 26.16 105.05)"/>
    <g style="line-height:1.25;-inkscape-font-specification:'American Captain'" word-spacing="0">
      <path d="m68.46 25.4.08 5.99.53.02-.02-1.96c-.01-.78.02-.97.2-1.22.22-.3.65-.43 1.47-.4.73.03 1.07.15 1.25.41.16.25.2.47.2 1.33l.02 1.95.53.02-.02-2.15c-.01-.99-.07-1.3-.3-1.6-.27-.35-.68-.49-1.62-.52-1.1-.05-1.49.09-1.7.6h-.05L69 25.43l-.54-.03zm8.47 5.02c-.02.26-.03.33-.12.44-.17.23-.46.29-1.22.26-1-.03-1.36-.13-1.57-.4-.16-.2-.24-.53-.26-1.06l3.73.14c-.02-.98-.1-1.35-.35-1.73-.32-.44-.72-.57-1.87-.62-.81-.03-1.2.02-1.47.2-.43.27-.62.85-.61 1.85 0 .85.17 1.43.5 1.74.3.3.81.41 1.97.45 1.35.05 1.81-.27 1.83-1.25l-.56-.02zm-3.16-1.32c.05-.92.33-1.12 1.49-1.08 1.3.06 1.63.29 1.64 1.2l-3.13-.12zm4.76-.23v-.05c0-.57.2-.66 1.34-.61.87.03 1.17.12 1.36.41.12.18.16.36.16.79v.44h-.04c-.23-.4-.46-.46-1.82-.51-.7-.03-1.02 0-1.22.08-.34.15-.47.46-.46 1.11 0 .5.08.75.3.97.24.24.56.3 1.74.34 1.01.04 1.25-.04 1.5-.47h.02v.47l.52.02-.02-2.15c0-.97-.06-1.25-.29-1.54-.28-.38-.66-.49-1.79-.53-1.44-.06-1.86.17-1.85 1.03v.18l.55.02zm1.35 1.05c1.16.05 1.48.2 1.48.73 0 .55-.26.67-1.36.63a3.92 3.92 0 0 1-1.33-.15c-.19-.1-.26-.27-.26-.57 0-.27.06-.44.19-.54.15-.11.4-.13 1.28-.1zm6.74-3.75-.51-.03.01 2.29h-.04c-.22-.45-.53-.57-1.43-.6-.99-.05-1.4 0-1.66.18-.42.28-.6.85-.6 1.84.01.96.17 1.47.56 1.8.3.24.68.33 1.6.36 1.05.04 1.32-.05 1.56-.52h.03v.52l.51.02-.03-5.86zm-2.01 2.21c1.3.06 1.53.3 1.54 1.64 0 .68-.09 1.02-.32 1.23-.2.17-.55.22-1.38.2-1.24-.05-1.5-.3-1.5-1.58 0-.72.08-1.09.32-1.3.2-.17.53-.22 1.34-.19zm6.75 5.27-.01-5.5-.5-.02v.52h-.02c-.22-.48-.51-.6-1.55-.63-.74-.03-1.14 0-1.39.12-.52.24-.73.77-.73 1.8 0 .95.14 1.45.47 1.8.3.3.68.4 1.77.44.6.02.88-.01 1.08-.13.16-.1.27-.2.34-.36h.03v1.95l.51.01zm-2.19-5.08c.7.03 1.08.09 1.28.21.31.2.42.57.43 1.36 0 .69-.09 1.08-.3 1.28-.2.17-.5.22-1.2.2-.67-.02-1.03-.08-1.22-.2-.32-.2-.45-.58-.45-1.36 0-1.3.23-1.54 1.46-1.49zm2.78-.4v2.24c0 .84.1 1.23.32 1.49.25.29.67.4 1.46.43 1 .04 1.32-.09 1.58-.6h.03v.6l.5.03v-4.03l-.5-.02v2c0 .58-.05.84-.18 1.04-.22.34-.61.46-1.38.43-.6-.02-.9-.11-1.08-.31-.18-.22-.23-.47-.24-1.23V28.2l-.51-.03zm5 1.41v-.05c0-.56.2-.64 1.29-.6.83.03 1.12.12 1.3.4.11.18.15.36.15.77v.44h-.04c-.22-.4-.44-.45-1.75-.5-.67-.03-.97 0-1.17.08-.33.15-.45.45-.45 1.09 0 .48.07.73.28.95.23.23.53.3 1.67.33.97.04 1.2-.04 1.44-.46h.02v.46l.5.02v-2.1c0-.96-.05-1.23-.27-1.52-.27-.36-.64-.47-1.71-.52-1.39-.05-1.8.17-1.8 1.02v.17l.54.02zm1.28 1.03c1.12.05 1.42.2 1.42.71 0 .54-.25.66-1.31.62a3.68 3.68 0 0 1-1.27-.15c-.18-.1-.25-.26-.25-.55 0-.26.06-.43.18-.53.15-.11.39-.13 1.23-.1zm2.49-2.08v4l.5.02V30.7c0-1.41.2-1.64 1.4-1.6.78.03.95.22.95 1.05v.28l.5.02.01-.41c0-.52-.1-.9-.32-1.14-.2-.24-.46-.32-1.08-.35-.6-.02-.86 0-1.05.12-.17.1-.3.23-.38.41h-.03v-.53l-.5-.02zm4.28-.83v1l-.77-.03v.54l.77.03v1.93c0 .63.03.88.17 1.12.18.33.54.47 1.2.5.66.02 1-.11 1.18-.45.13-.24.17-.5.18-1.11v-.25l-.5-.02v.25c0 .49-.02.63-.1.78-.1.2-.27.26-.7.24-.48-.01-.7-.1-.83-.3-.1-.17-.1-.2-.11-.95v-1.72l2.19.09v-.55l-2.18-.08v-1l-.5-.01zm6.53 4c-.03.25-.04.32-.12.42-.16.22-.43.28-1.13.25-.93-.03-1.27-.12-1.46-.37-.14-.2-.2-.52-.22-1.03l3.45.13c0-.94-.07-1.3-.3-1.66-.3-.43-.66-.55-1.73-.6-.75-.02-1.1.02-1.36.2-.4.26-.59.81-.59 1.78 0 .81.14 1.37.44 1.67.27.28.75.4 1.82.43 1.25.05 1.68-.26 1.7-1.2l-.5-.03zm-2.91-1.27c.05-.88.32-1.08 1.39-1.04 1.2.05 1.5.28 1.5 1.15l-2.9-.11zM112.5 29l-.03 3.95.49.01v-1.82c.02-1.39.22-1.62 1.4-1.57.75.03.91.21.9 1.03v.28l.5.02v-.41c0-.51-.1-.89-.3-1.13-.2-.24-.45-.31-1.05-.34-.59-.02-.84 0-1.03.11a.85.85 0 0 0-.37.42h-.03v-.53l-.48-.02z" aria-label="headquarter" font-family="Microgramma D Extended" font-size="7.42" font-weight="400" letter-spacing="0" style="-inkscape-font-specification:'Microgramma D Extended'" transform="matrix(.39408 0 0 .35973 26.16 105.05)"/>
    </g>
    <path fill="none" stroke="#000" stroke-width=".26" d="m399.98 156.27-482.94 28.5M399.94 158l-482.97 28.84"/>
    <path fill="url(#e)" d="m194.38 114.72.17 42.16 197.47-8.58L376 123.31z" opacity=".34"/>
    <path fill="url(#f)" d="m-69.73 103 87.32 2.3-2.6 58.6-92.65-2.32z" opacity=".2"/>
    <path fill="url(#g)" d="m-57.64 68.2 27.5 22.42 21.37-52.08-70.04 7.36Z" opacity=".06"/>
    <path fill="url(#g)" d="m182.38 95.82 76.35-31.94 57.45-25.16 58.3 71.74z" opacity=".03"/>
    <ellipse cx="197.02" cy="51.12" fill-opacity=".2" opacity=".15" rx="12.56" ry="12.29"/>
    <ellipse cx="221.88" cy="61.96" fill-opacity=".2" opacity=".15" rx="5.61" ry="5.49"/>
    <ellipse cx="211.53" cy="66.97" fill-opacity=".2" opacity=".15" rx="2.5" ry="2.45"/>
    <path fill="none" d="M6.43 178.57v5.1l-75.22 3.03-10.77-3.59z"/>
    <path fill="url(#h)" d="m91.62 37.27-7.94-59.91L236-40.61 129.47 45.92Z" opacity=".03"/>
  </g>
</svg>
