<?xml version="1.0" encoding="UTF-8" standalone="no"?>
<!-- Created with Inkscape (http://www.inkscape.org/) -->

<svg
   xmlns:dc="http://purl.org/dc/elements/1.1/"
   xmlns:cc="http://creativecommons.org/ns#"
   xmlns:rdf="http://www.w3.org/1999/02/22-rdf-syntax-ns#"
   xmlns:svg="http://www.w3.org/2000/svg"
   xmlns="http://www.w3.org/2000/svg"
   xmlns:xlink="http://www.w3.org/1999/xlink"
   xmlns:sodipodi="http://sodipodi.sourceforge.net/DTD/sodipodi-0.dtd"
   xmlns:inkscape="http://www.inkscape.org/namespaces/inkscape"
   width="331.75198mm"
   height="135.59868mm"
   viewBox="0 0 331.75198 135.59868"
   version="1.1"
   id="svg8"
   inkscape:version="0.92.4 (5da689c313, 2019-01-14)"
   sodipodi:docname="frente.svg">
  <defs
     id="defs2">
    <linearGradient
       inkscape:collect="always"
       id="linearGradient1056">
      <stop
         style="stop-color:#000000;stop-opacity:1;"
         offset="0"
         id="stop1052" />
      <stop
         style="stop-color:#000000;stop-opacity:0;"
         offset="1"
         id="stop1054" />
    </linearGradient>
    <inkscape:path-effect
       effect="perspective-envelope"
       up_left_point="109.52897,142.20414"
       up_right_point="134.59659,144.12644"
       down_left_point="109.77939,162.36532"
       down_right_point="134.46664,163.20176"
       id="path-effect939"
       is_visible="true"
       deform_type="perspective"
       horizontal_mirror="false"
       vertical_mirror="false"
       overflow_perspective="false" />
    <inkscape:path-effect
       effect="perspective-envelope"
       up_left_point="64.826501,1.6529823"
       up_right_point="116.579,1.6529823"
       down_left_point="64.826501,33.968124"
       down_right_point="116.579,33.968124"
       id="path-effect5326"
       is_visible="true"
       deform_type="perspective"
       horizontal_mirror="false"
       vertical_mirror="false"
       overflow_perspective="false" />
    <inkscape:path-effect
       down_right_point="131.67783,158.48116"
       down_left_point="112.21644,157.93713"
       up_right_point="131.7685,155.53621"
       up_left_point="112.21644,154.83095"
       effect="perspective-envelope"
       id="path-effect5288"
       is_visible="true"
       deform_type="perspective"
       horizontal_mirror="false"
       vertical_mirror="false"
       overflow_perspective="false" />
    <inkscape:path-effect
       effect="perspective-envelope"
       up_left_point="52.075786,11.341467"
       up_right_point="104.11104,15.843804"
       down_left_point="51.599534,38.263063"
       down_right_point="103.82949,40.91569"
       id="path-effect5259"
       is_visible="true"
       deform_type="perspective"
       horizontal_mirror="false"
       vertical_mirror="false"
       overflow_perspective="false" />
    <inkscape:path-effect
       effect="spiro"
       id="path-effect881"
       is_visible="true" />
    <inkscape:path-effect
       effect="simplify"
       id="path-effect879"
       is_visible="true"
       steps="1"
       threshold="0.0466667"
       smooth_angles="360"
       helper_size="0"
       simplify_individual_paths="false"
       simplify_just_coalesce="false"
       simplifyindividualpaths="false"
       simplifyJustCoalesce="false" />
    <inkscape:path-effect
       effect="simplify"
       id="path-effect875"
       is_visible="true"
       steps="1"
       threshold="0.0466667"
       smooth_angles="360"
       helper_size="0"
       simplify_individual_paths="false"
       simplify_just_coalesce="false"
       simplifyindividualpaths="false"
       simplifyJustCoalesce="false" />
    <inkscape:path-effect
       effect="bspline"
       id="path-effect871"
       is_visible="true"
       weight="33.333333"
       steps="2"
       helper_size="0"
       apply_no_weight="true"
       apply_with_weight="true"
       only_selected="false" />
    <inkscape:path-effect
       effect="simplify"
       id="path-effect869"
       is_visible="true"
       steps="1"
       threshold="0.0466667"
       smooth_angles="360"
       helper_size="0"
       simplify_individual_paths="false"
       simplify_just_coalesce="false"
       simplifyindividualpaths="false"
       simplifyJustCoalesce="false" />
    <linearGradient
       inkscape:collect="always"
       xlink:href="#linearGradient1056"
       id="linearGradient1058"
       x1="275.31372"
       y1="143.05057"
       x2="300.45615"
       y2="143.05057"
       gradientUnits="userSpaceOnUse" />
  </defs>
  <sodipodi:namedview
     id="base"
     pagecolor="#ffffff"
     bordercolor="#666666"
     borderopacity="1.0"
     inkscape:pageopacity="0.0"
     inkscape:pageshadow="2"
     inkscape:zoom="0.7"
     inkscape:cx="323.65904"
     inkscape:cy="101.45757"
     inkscape:document-units="mm"
     inkscape:current-layer="layer1"
     showgrid="false"
     showguides="false"
     inkscape:window-width="1366"
     inkscape:window-height="705"
     inkscape:window-x="-8"
     inkscape:window-y="-8"
     inkscape:window-maximized="1"
     fit-margin-top="0"
     fit-margin-left="0"
     fit-margin-right="0"
     fit-margin-bottom="0" />
  <metadata
     id="metadata5">
    <rdf:RDF>
      <cc:Work
         rdf:about="">
        <dc:format>image/svg+xml</dc:format>
        <dc:type
           rdf:resource="http://purl.org/dc/dcmitype/StillImage" />
        <dc:title />
      </cc:Work>
    </rdf:RDF>
  </metadata>
  <g
     inkscape:label="Capa 1"
     inkscape:groupmode="layer"
     id="layer1"
     transform="translate(23.154068,-76.322491)">
    <path
       style="fill:none;stroke:#000000;stroke-width:0.26458332px;stroke-linecap:butt;stroke-linejoin:miter;stroke-opacity:1"
       d="M 173.56465,190.31408 173.35179,146.8795"
       id="path4909"
       inkscape:connector-curvature="0"
       sodipodi:nodetypes="cc" />
    <path
       style="fill:none;stroke:#000000;stroke-width:0.26458332px;stroke-linecap:butt;stroke-linejoin:miter;stroke-opacity:1"
       d="m 171.61353,190.20612 -0.71957,-43.50174"
       id="path4911"
       inkscape:connector-curvature="0"
       sodipodi:nodetypes="cc" />
    <path
       style="fill:none;stroke:#000000;stroke-width:0.26458332px;stroke-linecap:butt;stroke-linejoin:miter;stroke-opacity:1"
       d="M 180.39124,190.35872 179.9295,147.34819"
       id="path4913"
       inkscape:connector-curvature="0"
       sodipodi:nodetypes="cc" />
    <path
       style="fill:none;stroke:#000000;stroke-width:0.26458332px;stroke-linecap:butt;stroke-linejoin:miter;stroke-opacity:1"
       d="m 178.59072,190.28204 -0.7967,-43.08601"
       id="path4915"
       inkscape:connector-curvature="0" />
    <path
       style="fill:none;stroke:#000000;stroke-width:0.26458332px;stroke-linecap:butt;stroke-linejoin:miter;stroke-opacity:1"
       d="M 185.58343,201.36403 184.1569,147.6494"
       id="path4917"
       inkscape:connector-curvature="0" />
    <path
       style="fill:none;stroke:#000000;stroke-width:0.26458332px;stroke-linecap:butt;stroke-linejoin:miter;stroke-opacity:1"
       d="m 187.76745,201.45279 -1.28369,-53.63759 v 0"
       id="path4919"
       inkscape:connector-curvature="0"
       sodipodi:nodetypes="ccc" />
    <path
       style="fill:none;stroke:#000000;stroke-width:0.26458332px;stroke-linecap:butt;stroke-linejoin:miter;stroke-opacity:1"
       d="m 192.22603,201.28575 -1.58879,-53.1746"
       id="path4921"
       inkscape:connector-curvature="0"
       sodipodi:nodetypes="cc" />
    <path
       style="fill:none;stroke:#000000;stroke-width:0.26458332px;stroke-linecap:butt;stroke-linejoin:miter;stroke-opacity:1"
       d="m 194.26494,201.19599 -1.3579,-52.92311"
       id="path4923"
       inkscape:connector-curvature="0"
       sodipodi:nodetypes="cc" />
    <path
       style="fill:none;stroke:#000000;stroke-width:0.26458332px;stroke-linecap:butt;stroke-linejoin:miter;stroke-opacity:1"
       d="m 198.16802,201.19125 -1.10415,-52.62219"
       id="path4925"
       inkscape:connector-curvature="0"
       sodipodi:nodetypes="cc" />
    <path
       style="fill:none;stroke:#000000;stroke-width:0.26458332px;stroke-linecap:butt;stroke-linejoin:miter;stroke-opacity:1"
       d="m 200.34156,201.01373 -1.05155,-52.28605"
       id="path4927"
       inkscape:connector-curvature="0"
       sodipodi:nodetypes="cc" />
    <path
       style="fill:none;stroke:#000000;stroke-width:0.26458332px;stroke-linecap:butt;stroke-linejoin:miter;stroke-opacity:1"
       d="m 205.36137,200.8963 -2.19322,-51.89229 v 0"
       id="path4929"
       inkscape:connector-curvature="0"
       sodipodi:nodetypes="ccc" />
    <path
       style="fill:none;stroke:#000000;stroke-width:0.26458332px;stroke-linecap:butt;stroke-linejoin:miter;stroke-opacity:1"
       d="m 207.29908,201.02994 -1.97525,-51.87233"
       id="path4931"
       inkscape:connector-curvature="0"
       sodipodi:nodetypes="cc" />
    <path
       style="fill:none;stroke:#000000;stroke-width:0.26458332px;stroke-linecap:butt;stroke-linejoin:miter;stroke-opacity:1"
       d="M 211.77584,200.69585 209.4437,149.45116"
       id="path4933"
       inkscape:connector-curvature="0" />
    <path
       style="fill:none;stroke:#000000;stroke-width:0.26458332px;stroke-linecap:butt;stroke-linejoin:miter;stroke-opacity:1"
       d="m 213.84718,200.7944 -2.03966,-51.17481"
       id="path4935"
       inkscape:connector-curvature="0"
       sodipodi:nodetypes="cc" />
    <path
       style="fill:none;stroke:#000000;stroke-width:0.26458332px;stroke-linecap:butt;stroke-linejoin:miter;stroke-opacity:1"
       d="m 217.78941,200.69585 -2.34885,-50.81739"
       id="path4937"
       inkscape:connector-curvature="0" />
    <path
       style="fill:none;stroke:#000000;stroke-width:0.26458332px;stroke-linecap:butt;stroke-linejoin:miter;stroke-opacity:1"
       d="m 219.86074,200.56222 -2.1329,-50.52078 v 0"
       id="path4939"
       inkscape:connector-curvature="0"
       sodipodi:nodetypes="ccc" />
    <path
       style="fill:none;stroke:#000000;stroke-width:0.26458332px;stroke-linecap:butt;stroke-linejoin:miter;stroke-opacity:1"
       d="m 221.13253,150.28403 2.93771,50.27819"
       id="path4941"
       inkscape:connector-curvature="0" />
    <path
       style="fill:none;stroke:#000000;stroke-width:0.26458332px;stroke-linecap:butt;stroke-linejoin:miter;stroke-opacity:1"
       d="m 226.12062,200.37323 -2.78005,-49.93187 v 0"
       id="path4943"
       inkscape:connector-curvature="0"
       sodipodi:nodetypes="ccc" />
    <path
       style="fill:none;stroke:#000000;stroke-width:0.26458332px;stroke-linecap:butt;stroke-linejoin:miter;stroke-opacity:1"
       d="m 229.95017,200.29495 -2.80603,-49.58258"
       id="path4945"
       inkscape:connector-curvature="0" />
    <path
       style="fill:none;stroke:#000000;stroke-width:0.26458332px;stroke-linecap:butt;stroke-linejoin:miter;stroke-opacity:1"
       d="M 232.1504,200.52307 229.4448,150.8763"
       id="path4947"
       inkscape:connector-curvature="0"
       sodipodi:nodetypes="cc" />
    <path
       style="fill:none;stroke:#000000;stroke-width:0.26458332px;stroke-linecap:butt;stroke-linejoin:miter;stroke-opacity:1"
       d="m 235.96374,200.42858 -2.74152,-49.28312"
       id="path4949"
       inkscape:connector-curvature="0" />
    <path
       style="fill:none;stroke:#000000;stroke-width:0.26458332px;stroke-linecap:butt;stroke-linejoin:miter;stroke-opacity:1"
       d="m 237.94812,200.42858 -2.85499,-49.14981"
       id="path4951"
       inkscape:connector-curvature="0"
       sodipodi:nodetypes="cc" />
    <path
       style="fill:none;stroke:#000000;stroke-width:0.26458332px;stroke-linecap:butt;stroke-linejoin:miter;stroke-opacity:1"
       d="m 241.63104,200.16201 -2.91957,-48.62543"
       id="path4953"
       inkscape:connector-curvature="0"
       sodipodi:nodetypes="cc" />
    <path
       style="fill:none;stroke:#000000;stroke-width:0.26458332px;stroke-linecap:butt;stroke-linejoin:miter;stroke-opacity:1"
       d="m 247.18906,199.89405 -2.75353,-43.32165 -0.29576,-4.65323"
       id="path4955"
       inkscape:connector-curvature="0"
       sodipodi:nodetypes="ccc" />
    <path
       style="fill:none;stroke:#000000;stroke-width:0.26458332px;stroke-linecap:butt;stroke-linejoin:miter;stroke-opacity:1"
       d="m 249.12874,199.89405 c -1.00833,-15.92053 -2.01665,-31.84105 -3.02499,-47.76158"
       id="path4959"
       inkscape:connector-curvature="0"
       sodipodi:nodetypes="cc" />
    <path
       style="fill:none;stroke:url(#linearGradient1058);stroke-width:0.26458332px;stroke-linecap:butt;stroke-linejoin:miter;stroke-opacity:1"
       d="m 246.33293,156.35984 5.48215,-0.58099 56.65055,3.69342 m 0,40.59464 -64.34261,2.28218 -80.98923,2.96224 -1.48267,-0.35504 m -19.37029,1.15739 -104.832544,3.53238 m 0.469687,-64.04567 21.083378,1.17192 1.111007,-36.56478 6.070544,-11.816167 3.023809,-1.133931 1.511903,-3.779761 0.377979,-10.961309 3.779761,-6.047621 12.473218,2.217745 0.144107,7.211024 23.294341,3.552124 8.31155,-12.224938 70.68154,11.71726 0.24435,14.097794 28.48184,3.66709 7.9375,-4.15774 3.77977,0.75595 3.40178,54.42857 m 1.68571,-0.18185 3.84916,-0.41522 m 1.94122,-0.19925 3.2767,-0.39429"
       id="path826"
       inkscape:connector-curvature="0"
       sodipodi:nodetypes="ccccccccccccccccccccccccccccccc" />
    <path
       style="fill:none;stroke:#000000;stroke-width:0.26458332px;stroke-linecap:butt;stroke-linejoin:miter;stroke-opacity:1"
       d="M 86.503872,105.06126 227.46606,120.86944"
       id="path828"
       inkscape:connector-curvature="0"
       sodipodi:nodetypes="cc" />
    <path
       style="fill:none;stroke:#000000;stroke-width:0.26458332px;stroke-linecap:butt;stroke-linejoin:miter;stroke-opacity:1"
       d="m 86.41077,82.157663 0.560822,58.566987 78.388898,5.58545 m 5.53347,0.39428 2.45783,0.17512 m 4.44223,0.31653 2.13548,0.15216 m 4.2274,0.30121 2.32686,0.1658 m 4.15348,0.29595 2.2698,0.16173 m 4.15683,0.29618 2.22614,0.15862 m 3.87814,0.27633 2.15568,0.1536 m 4.11987,0.29355 2.36382,0.16843 m 3.63304,0.25887 2.28728,0.16298 m 3.40469,0.24259 2.20804,0.15733 m 3.80357,0.27101 2.30066,0.16393 m 3.77742,0.26916 1.87091,0.13331 m 3.61834,0.25781 2.09643,0.14938 3.19334,48.44882 m -101.72041,5.9789 -7.61742,0.17936 -0.0668,-62.1666"
       id="path887"
       inkscape:connector-curvature="0"
       sodipodi:nodetypes="ccccccccccccccccccccccccccccccc" />
    <path
       style="fill:none;stroke:#000000;stroke-width:0.26458332px;stroke-linecap:butt;stroke-linejoin:miter;stroke-opacity:1"
       d="m 142.28083,206.21391 -0.50269,-57.92973 20.78869,1.13393 0.56696,55.89322"
       id="path906"
       inkscape:connector-curvature="0"
       sodipodi:nodetypes="cccc" />
    <path
       style="fill:none;stroke:#000000;stroke-width:0.26458332px;stroke-linecap:butt;stroke-linejoin:miter;stroke-opacity:1"
       d="m 165.40165,146.20531 0.56696,55.37351 3.96876,-0.0945 -0.0945,-11.24479 12.94568,0.18899 1e-5,11.05581 61.18969,-1.3844 10.34168,-0.222"
       id="path908"
       inkscape:connector-curvature="0"
       sodipodi:nodetypes="cccccccc" />
    <path
       style="fill:none;stroke:#000000;stroke-width:0.26458332px;stroke-linecap:butt;stroke-linejoin:miter;stroke-opacity:1"
       d="m 251.81508,155.77885 2.50485,44.09908"
       id="path910"
       inkscape:connector-curvature="0"
       sodipodi:nodetypes="cc" />
    <path
       style="fill:none;stroke:#000000;stroke-width:0.26458332px;stroke-linecap:butt;stroke-linejoin:miter;stroke-opacity:1"
       d="m 86.971592,140.72465 -0.448851,67.13802"
       id="path912"
       inkscape:connector-curvature="0"
       sodipodi:nodetypes="cc" />
    <path
       style="fill:none;stroke:#000000;stroke-width:0.26458332px;stroke-linecap:butt;stroke-linejoin:miter;stroke-opacity:1"
       d="m 83.308762,81.392872 3.102008,0.764791"
       id="path914"
       inkscape:connector-curvature="0"
       sodipodi:nodetypes="cc" />
    <path
       style="fill:none;stroke:#000000;stroke-width:0.26458332px;stroke-linecap:butt;stroke-linejoin:miter;stroke-opacity:1"
       d="m 82.246892,208.02804 0.94494,-126.267672 -7.947,13.872447 0.0095,-11.4156 -4.535713,9.260416"
       id="path916"
       inkscape:connector-curvature="0"
       sodipodi:nodetypes="ccccc" />
    <path
       style="fill:none;stroke:#000000;stroke-width:0.26458332px;stroke-linecap:butt;stroke-linejoin:miter;stroke-opacity:1"
       d="m 69.206711,97.257392 -3.212798,7.181548 0.188989,-6.047617"
       id="path918"
       inkscape:connector-curvature="0" />
    <path
       style="fill:none;stroke:#000000;stroke-width:0.26458332px;stroke-linecap:butt;stroke-linejoin:miter;stroke-opacity:1"
       d="m 75.254329,84.217215 6.013846,0.878128 m 5.157659,0.645344 31.539806,4.713135 v 3.401785"
       id="path920"
       inkscape:connector-curvature="0"
       sodipodi:nodetypes="ccccc" />
    <path
       style="fill:none;stroke:#000000;stroke-width:0.26458332px;stroke-linecap:butt;stroke-linejoin:miter;stroke-opacity:1"
       d="m 86.626042,112.08821 132.259238,13.13942 -0.37798,-5.29166"
       id="path926"
       inkscape:connector-curvature="0"
       sodipodi:nodetypes="ccc" />
    <path
       style="fill:none;stroke:#000000;stroke-width:0.26458332px;stroke-linecap:butt;stroke-linejoin:miter;stroke-opacity:1"
       d="m 96.987962,112.94341 -0.18899,28.34821"
       id="path928"
       inkscape:connector-curvature="0" />
    <path
       style="fill:none;stroke:#000000;stroke-width:0.26458332px;stroke-linecap:butt;stroke-linejoin:miter;stroke-opacity:1"
       d="m 109.46117,114.45531 0.0678,27.74883"
       id="path930"
       inkscape:connector-curvature="0"
       sodipodi:nodetypes="cc" />
    <path
       style="fill:none;stroke:#000000;stroke-width:0.26458332px;stroke-linecap:butt;stroke-linejoin:miter;stroke-opacity:1"
       d="m 125.33617,115.77823 0.0945,27.63951"
       id="path932"
       inkscape:connector-curvature="0"
       sodipodi:nodetypes="cc" />
    <path
       style="fill:none;stroke:#000000;stroke-width:0.26458332px;stroke-linecap:butt;stroke-linejoin:miter;stroke-opacity:1"
       d="m 140.64421,117.47912 0.28348,27.11979"
       id="path934"
       inkscape:connector-curvature="0"
       sodipodi:nodetypes="cc" />
    <path
       style="fill:none;stroke:#000000;stroke-width:0.26458332px;stroke-linecap:butt;stroke-linejoin:miter;stroke-opacity:1"
       d="m 155.95224,118.99102 0.18899,26.50558"
       id="path936"
       inkscape:connector-curvature="0"
       sodipodi:nodetypes="cc" />
    <path
       style="fill:none;stroke:#000000;stroke-width:0.26458332px;stroke-linecap:butt;stroke-linejoin:miter;stroke-opacity:1"
       d="m 168.61445,120.50293 0.18898,30.99404"
       id="path938"
       inkscape:connector-curvature="0" />
    <path
       style="fill:none;stroke:#000000;stroke-width:0.26458332px;stroke-linecap:butt;stroke-linejoin:miter;stroke-opacity:1"
       d="m 181.65463,121.63686 0.28348,30.56882"
       id="path940"
       inkscape:connector-curvature="0"
       sodipodi:nodetypes="cc" />
    <path
       style="fill:none;stroke:#000000;stroke-width:0.26458332px;stroke-linecap:butt;stroke-linejoin:miter;stroke-opacity:1"
       d="m 194.31683,122.95977 0.47247,30.04911"
       id="path942"
       inkscape:connector-curvature="0"
       sodipodi:nodetypes="cc" />
    <path
       style="fill:none;stroke:#000000;stroke-width:0.26458332px;stroke-linecap:butt;stroke-linejoin:miter;stroke-opacity:1"
       d="m 206.79004,124.28269 0.66146,29.34041"
       id="path944"
       inkscape:connector-curvature="0"
       sodipodi:nodetypes="cc" />
    <path
       style="fill:none;stroke:#000000;stroke-width:0.26458332px;stroke-linecap:butt;stroke-linejoin:miter;stroke-opacity:1"
       d="m 226.4448,102.54906 2.9395,48.33837 0.46229,7.6021 3.77976,-0.75595"
       id="path950"
       inkscape:connector-curvature="0"
       sodipodi:nodetypes="cccc" />
    <path
       style="fill:none;stroke:#000000;stroke-width:0.26458332px;stroke-linecap:butt;stroke-linejoin:miter;stroke-opacity:1"
       d="M 86.391192,89.655948 218.5073,106.7068"
       id="path952"
       inkscape:connector-curvature="0"
       sodipodi:nodetypes="cc" />
    <path
       style="fill:none;stroke:#000000;stroke-width:0.865;stroke-linecap:butt;stroke-linejoin:miter;stroke-opacity:1;stroke-miterlimit:4;stroke-dasharray:none"
       d="M 87.538554,81.996603 226.4448,102.54906"
       id="path954"
       inkscape:connector-curvature="0"
       sodipodi:nodetypes="cc" />
    <path
       style="fill:none;stroke:#000000;stroke-width:0.86500001;stroke-linecap:butt;stroke-linejoin:miter;stroke-miterlimit:4;stroke-dasharray:none;stroke-opacity:1"
       d="m 211.73714,105.76284 -0.0773,-5.40434"
       id="path956"
       inkscape:connector-curvature="0"
       sodipodi:nodetypes="cc" />
    <path
       style="fill:none;stroke:#000000;stroke-width:0.865;stroke-linecap:butt;stroke-linejoin:miter;stroke-opacity:1;stroke-miterlimit:4;stroke-dasharray:none"
       d="m 196.41862,103.80713 -0.21191,-5.604796"
       id="path958"
       inkscape:connector-curvature="0"
       sodipodi:nodetypes="cc" />
    <path
       style="fill:none;stroke:#000000;stroke-width:0.86500001;stroke-linecap:butt;stroke-linejoin:miter;stroke-miterlimit:4;stroke-dasharray:none;stroke-opacity:1"
       d="m 180.49777,101.87139 -0.0992,-6.2032"
       id="path960"
       inkscape:connector-curvature="0"
       sodipodi:nodetypes="cc" />
    <path
       style="fill:none;stroke:#000000;stroke-width:0.865;stroke-linecap:butt;stroke-linejoin:miter;stroke-opacity:1;stroke-miterlimit:4;stroke-dasharray:none"
       d="m 164.38989,99.716205 -0.0709,-6.308748"
       id="path962"
       inkscape:connector-curvature="0"
       sodipodi:nodetypes="cc" />
    <path
       style="fill:none;stroke:#000000;stroke-width:0.865;stroke-linecap:butt;stroke-linejoin:miter;stroke-opacity:1;stroke-miterlimit:4;stroke-dasharray:none"
       d="m 146.12486,97.392995 0.0229,-6.817004"
       id="path964"
       inkscape:connector-curvature="0"
       sodipodi:nodetypes="cc" />
    <path
       style="fill:none;stroke:#000000;stroke-width:0.865;stroke-linecap:butt;stroke-linejoin:miter;stroke-opacity:1;stroke-miterlimit:4;stroke-dasharray:none"
       d="m 128.0765,95.084029 -0.17515,-7.107607"
       id="path966"
       inkscape:connector-curvature="0"
       sodipodi:nodetypes="cc" />
    <path
       style="fill:none;stroke:#000000;stroke-width:0.26458332px;stroke-linecap:butt;stroke-linejoin:miter;stroke-opacity:1"
       d="m 141.87263,150.2213 19.21948,1.01506 m 4.31703,0.228 5.5536,0.28861 m 2.38322,0.12385 4.48985,0.23333 m 2.12406,0.11038 4.34481,0.22579 m 2.26787,0.11786 4.27781,0.22231 m 2.19842,0.11425 4.13522,0.2149 m 2.27032,0.11798 3.91829,0.20363 m 2.15252,0.11186 4.07953,0.212 m 2.38812,0.12411 3.59334,0.18674 m 2.33733,0.12146 2.66272,0.13838"
       id="path968"
       inkscape:connector-curvature="0"
       sodipodi:nodetypes="cccccccccccccccccccc" />
    <path
       style="fill:none;stroke:#000000;stroke-width:0.26458332px;stroke-linecap:butt;stroke-linejoin:miter;stroke-opacity:1"
       d="m 161.14942,149.46535 0.5017,55.49094"
       id="path970"
       inkscape:connector-curvature="0"
       sodipodi:nodetypes="cc" />
    <path
       style="fill:none;stroke:#000000;stroke-width:0.26458332px;stroke-linecap:butt;stroke-linejoin:miter;stroke-opacity:1"
       d="m 141.72896,154.04463 19.43162,0.80666 m 4.27848,0.18329 5.59205,0.23956 m 2.40922,0.1032 4.49035,0.19236 m 2.12424,0.091 4.29969,0.18419 m 2.36307,0.10123 4.15719,0.17809 m 2.17343,0.0931 4.20334,0.18007 m 2.17443,0.0932 4.06389,0.17409 m 2.17241,0.0931 4.18279,0.17919 m 2.24517,0.0962 3.73073,0.15982 m 2.15086,0.0921 2.6913,0.11529 -0.077,-3.06851"
       id="path972"
       inkscape:connector-curvature="0"
       sodipodi:nodetypes="ccccccccccccccccccccc" />
    <path
       style="fill:none;stroke:#000000;stroke-width:0.26458332px;stroke-linecap:butt;stroke-linejoin:miter;stroke-opacity:1"
       d="m 218.5073,106.7068 8.21337,1.1002"
       id="path974"
       inkscape:connector-curvature="0" />
    <path
       style="fill:none;stroke:#000000;stroke-width:0.26458332px;stroke-linecap:butt;stroke-linejoin:miter;stroke-opacity:1"
       d="m 59.00135,146.77227 v 0 l 19.709164,1.08194 -1.228423,60.47619"
       id="path1142"
       inkscape:connector-curvature="0" />
    <path
       style="fill:none;stroke:#000000;stroke-width:0.26458332px;stroke-linecap:butt;stroke-linejoin:miter;stroke-opacity:1"
       d="m 218.78692,154.1363 -1.08765,-29.0089"
       id="path1146"
       inkscape:connector-curvature="0"
       sodipodi:nodetypes="cc" />
    <path
       style="fill:none;stroke:#000000;stroke-width:0.26458332px;stroke-linecap:butt;stroke-linejoin:miter;stroke-opacity:1"
       d="m 169.93737,201.48432 3.15121,-0.0869 0.0334,-11.09169 v 0"
       id="path1148"
       inkscape:connector-curvature="0" />
    <path
       style="fill:none;stroke:#000000;stroke-width:0.26458332px;stroke-linecap:butt;stroke-linejoin:miter;stroke-opacity:1"
       d="m 174.89265,191.54187 6.20017,0.1532 0.0807,9.46849 -6.28083,0.13364 z"
       id="path1150"
       inkscape:connector-curvature="0"
       sodipodi:nodetypes="ccccc" />
    <path
       style="fill:none;stroke:#000000;stroke-width:0.26458332px;stroke-linecap:butt;stroke-linejoin:miter;stroke-opacity:1"
       d="m 246.10375,152.13247 -1.96398,-0.2133"
       id="path4961"
       inkscape:connector-curvature="0"
       sodipodi:nodetypes="cc" />
    <path
       style="fill:none;stroke:#000000;stroke-width:0.26458332px;stroke-linecap:butt;stroke-linejoin:miter;stroke-opacity:1"
       d="m 165.4714,159.06863 83.92264,4.07585"
       id="path5147"
       inkscape:connector-curvature="0"
       sodipodi:nodetypes="cc" />
    <path
       style="fill:none;stroke:#000000;stroke-width:0.26458332px;stroke-linecap:butt;stroke-linejoin:miter;stroke-opacity:1"
       d="m 165.8723,187.73328 84.99171,0.26727"
       id="path5149"
       inkscape:connector-curvature="0"
       sodipodi:nodetypes="cc" />
    <path
       style="fill:none;stroke:#000000;stroke-width:0.26458332px;stroke-linecap:butt;stroke-linejoin:miter;stroke-opacity:1"
       d="m 218.87395,157.28508 1.88882,43.27714"
       id="path5151"
       inkscape:connector-curvature="0"
       sodipodi:nodetypes="cc" />
    <path
       style="fill:none;stroke:#000000;stroke-width:0.26458332px;stroke-linecap:butt;stroke-linejoin:miter;stroke-opacity:1"
       d="m 161.46236,200.79608 -19.37705,0.43431"
       id="path5182"
       inkscape:connector-curvature="0"
       sodipodi:nodetypes="cc" />
    <g
       aria-label="headquater"
       style="font-style:normal;font-variant:normal;font-weight:normal;font-stretch:normal;font-size:10.58333302px;line-height:1.25;font-family:'American Captain';-inkscape-font-specification:'American Captain';letter-spacing:0px;word-spacing:0px;fill:#000000;fill-opacity:1;stroke:none;stroke-width:0.26458332"
       id="text5186" />
    <path
       style="fill:none;stroke:#000000;stroke-width:0.86500001;stroke-linecap:butt;stroke-linejoin:miter;stroke-miterlimit:4;stroke-dasharray:none;stroke-opacity:1"
       d="m 106.42559,92.22494 -0.17515,-7.475103"
       id="path966-3"
       inkscape:connector-curvature="0"
       sodipodi:nodetypes="cc" />
    <path
       style="fill:none;stroke:#000000;stroke-width:0.26458332px;stroke-linecap:butt;stroke-linejoin:miter;stroke-opacity:1"
       d="m 119.09957,77.224696 0.19614,16.649789"
       id="path5236"
       inkscape:connector-curvature="0"
       sodipodi:nodetypes="cc" />
    <g
       id="g937"
       transform="matrix(0.58378019,0,0,0.58378019,53.796255,62.663977)">
      <g
         transform="matrix(0.50938398,0,0,0.50938398,75.245909,145.62946)"
         id="g5324">
        <g
           id="g5310"
           transform="matrix(0.26458333,0,0,0.26458333,64.826501,1.6529823)"
           style="fill:#000000">
          <path
             style="fill:#000000"
             d="m 22.789259,-1.6228686 c 0.26003,-3.4296193 1.150326,-3.7372977 9.475726,-3.1591383 7.005933,0.4865287 7.899943,1.4065089 7.954438,7.2888959 0,0 0.01815,1.9592018 0.01815,1.9592018 0,0 -0.491742,-0.032914 -0.491742,-0.032914 C 37.951123,1.8638407 36.369845,1.2666706 31.038144,0.90527435 22.512972,0.32741665 19.532028,0.3716628 16.754184,1.1694419 12.180432,2.34142 10.127916,6.0284245 10.213491,12.9353 c 0.112893,9.111774 3.339067,12.133421 13.670081,12.75863 7.510983,0.454547 10.463299,0.267178 12.323393,-0.595761 2.053818,-0.97216 3.318043,-2.235684 4.277103,-4.614894 0,0 0.196311,0.01223 0.196311,0.01223 0,0 0.04842,5.243497 0.04842,5.243497 0,0 10.95193,0.665868 10.95193,0.665868 0,0 -0.185329,-22.8928645 -0.185329,-22.8928645 -0.05636,-6.9624682 -0.763968,-9.82285 -2.646695,-12.6471108 -2.577021,-3.3687687 -4.940018,-4.1521007 -14.99627,-4.8775387 -9.31944,-0.672285 -14.687365,-0.318314 -17.364211,0.972366 -3.571304,1.970923 -5.036052,4.8351905 -5.366594,10.4964423 0,0 11.666268,0.7977827 11.666268,0.7977827 0,0 0.0014,0.1231824 0.0014,0.1231824 z m 7.837547,10.5959281 c 4.835915,0.3165151 6.708615,0.5614082 7.399931,0.8512197 1.284526,0.6951288 1.982901,1.8403738 1.996534,3.3071818 0.0318,3.420815 -2.219528,4.254981 -10.401236,3.738238 -6.236054,-0.393859 -7.932264,-1.359821 -7.966659,-4.430502 -0.03579,-3.195587 1.841073,-3.9328259 8.97143,-3.4661375 z M 20.89914,-19.517975 c 0,0 9.639268,0.584758 9.639268,0.584758 3.334856,-2.957536 6.784237,-3.808841 17.41026,-3.996818 0,0 -12.668645,-6.744977 -12.668645,-6.744977 -3.451838,1.216901 -12.635741,5.959693 -14.380883,10.157037 z m 35.457705,8.228649 c 0,0 0.287994,37.996012 0.287994,37.996012 0,0 11.334476,0.689126 11.334476,0.689126 0,0 -0.1,-15.620815 -0.1,-15.620815 -0.03729,-5.8253586 0.239859,-7.8705556 1.389452,-9.6138874 1.052561,-1.74945478 3.173457,-2.4533487 5.68275,-2.28033354 4.62291,0.31874848 5.880756,1.97933654 5.908877,7.54619404 0,0 10.5317,0.704187 10.5317,0.704187 0,0 -0.01003,-2.5325875 -0.01003,-2.5325875 -0.04494,-11.3526795 -3.122528,-15.3231287 -12.151207,-15.9734786 -6.271212,-0.451725 -9.452551,1.1448618 -11.552649,5.863016 0,0 -0.581431,-0.040748 -0.581431,-0.040748 0,0 -0.03705,-5.724388 -0.03705,-5.724388 0,0 -10.702893,-1.012297 -10.702893,-1.012297 z m 38.12077,2.7377887 c 0,0 0.136458,37.5667183 0.136458,37.5667183 0,0 11.086487,0.674049 11.086487,0.674049 0,0 -0.0928,-37.4414159 -0.0928,-37.4414159 0,0 -11.130105,-0.7993514 -11.130105,-0.7993514 z m -0.05629,-15.4970447 c 0,0 0.03872,10.659558 0.03872,10.659558 0,0 11.135725,0.815556 11.135725,0.815556 0,0 -0.0263,-10.623795 -0.0263,-10.623795 0,0 -11.148105,-0.851319 -11.148105,-0.851319 z m 56.500555,4.314633 c 0,0 -10.85196,-0.828704 -10.85196,-0.828704 0,0 -0.022,20.16984227 -0.022,20.16984227 0,0 -0.46435,-0.0326748 -0.46435,-0.0326748 -2.04074,-4.91384027 -4.5541,-6.28844847 -12.21335,-6.84097167 -7.5061,-0.5414743 -10.6113,-0.1651053 -13.24736,1.9277129 -3.11054,2.4222475 -4.33004,6.781322 -4.31063,16.2597923 0.0191,9.340225 0.78076,13.09451 3.234,16.112972 2.54215,3.01803 6.29518,4.317778 14.23953,4.798832 7.81433,0.473179 10.6902,-0.65487 12.82513,-5.023114 0,0 0.55546,0.03459 0.55546,0.03459 0,0 -0.006,4.852156 -0.006,4.852156 0,0 10.14597,0.617222 10.14597,0.617222 0,0 0.11516,-52.047658 0.11516,-52.047658 z M 130.92247,3.501327 c 7.72774,0.5333731 9.11899,2.0571424 9.11057,9.782835 -0.005,4.273518 -0.47025,6.260395 -1.67655,7.131971 -1.20703,0.990691 -4.17978,1.51352 -8.18195,1.258916 -8.22019,-0.522941 -9.43913,-1.912165 -9.44656,-10.029149 0.087,-7.5259331 1.5872,-8.7386525 10.19449,-8.144573 z m 44.25448,-7.2010964 c -9.67231,-0.6973979 -13.88998,-0.1720757 -16.55997,2.1254769 -2.85717,2.40561099 -3.69466,5.9027414 -3.71741,14.5432075 -0.028,10.631333 0.60539,14.092129 3.25571,17.084468 2.73597,2.991392 6.29395,4.029821 16.83992,4.66841 10.38949,0.629113 13.90321,0.02579 16.61543,-2.606096 2.5301,-2.640345 3.27008,-5.974436 3.33745,-15.891794 0.0619,-9.1186478 -0.72378,-12.570175 -3.49535,-15.46324942 -2.59878,-2.65169318 -6.65937,-3.76705588 -16.27578,-4.46042298 z m -0.049,10.369932 c 2.99658,0.2067195 5.53303,0.7343523 6.79686,1.5263673 1.98399,1.192851 2.5162,2.9894501 2.48814,7.9127391 -0.044,7.726437 -1.40513,8.926849 -9.46021,8.414412 -3.45117,-0.219551 -5.81517,-0.722517 -7.08704,-1.626657 -1.9107,-1.181305 -2.36123,-2.740672 -2.34275,-7.687193 0.0291,-7.7833855 1.49632,-9.099047 9.605,-8.5396684 z"
             id="rJg02Q_EPz-5" />
          <path
             style="fill:#000000"
             d="m 10.393965,51.586975 c 0,0 0.01367,1.100318 0.01367,1.100318 0.0334,2.688606 0.449509,4.174922 1.755529,5.339888 1.405522,1.290845 3.890276,1.782236 10.026295,2.092702 5.129711,0.25955 7.685114,0.02489 9.05292,-0.754773 1.46396,-0.895483 2.134323,-2.558891 2.107537,-5.229371 -0.04386,-4.373085 -1.73516,-6.408746 -5.87367,-6.755206 -1.876183,-0.223738 -7.11823,-0.630748 -8.307004,-0.695429 -4.364328,-0.115296 -5.36544,-0.780776 -5.394941,-3.227338 -0.01328,-1.10136 0.27473,-1.941497 0.765991,-2.403299 0.786412,-0.689755 3.165587,-0.922803 7.229943,-0.694111 4.252445,0.239275 6.427959,0.727251 7.227158,1.746618 0.399403,0.509432 0.602859,1.129561 0.619342,2.712968 0,0 3.051717,0.168182 3.051717,0.168182 -0.02702,-2.677514 -0.231188,-3.419043 -0.83162,-4.426553 -1.301637,-2.144178 -3.774651,-3.016663 -9.904165,-3.367147 -5.356256,-0.30627 -8.03467,0.03031 -9.316592,0.936872 -1.281102,1.029601 -1.859192,2.589036 -1.828888,5.039045 0.05602,4.529223 1.767067,6.210105 6.533878,6.465295 6.929644,0.492738 7.522209,0.52444 8.311983,0.566693 3.648042,0.195169 4.838338,1.109575 4.864701,3.662258 0.01129,1.093591 -0.177929,1.812283 -0.761994,2.389077 -0.876968,0.80467 -2.253221,0.976649 -7.186471,0.722557 -8.120921,-0.418275 -8.719569,-0.693023 -8.768192,-4.721902 0,0 -0.0074,-0.610732 -0.0074,-0.610732 0,0 -3.379753,-0.05661 -3.379753,-0.05661 z M 46.226323,38.826134 c -4.008601,-0.228929 -6.061997,0.01832 -7.523371,0.907352 -2.339929,1.447972 -3.389276,4.549769 -3.337981,9.775633 0.05362,5.462839 0.963435,8.297974 3.232589,10.109672 1.674399,1.295065 3.827329,1.7667 9.092195,2.032721 4.569361,0.230878 6.507263,-0.0326 8.049998,-1.03834 2.215806,-1.452098 3.161361,-4.413663 3.12228,-9.718164 -0.03824,-5.189618 -0.931156,-8.016735 -3.078687,-9.829881 -1.564767,-1.419516 -3.804817,-1.910486 -9.557023,-2.238993 z m 0.514369,3.060459 c 3.607371,0.202852 5.556115,0.554451 6.63069,1.219602 1.853601,1.070783 2.450968,3.037165 2.484367,7.385663 0.02966,3.862025 -0.440305,5.766563 -1.594884,6.91214 -1.15603,1.025431 -2.707046,1.307392 -6.890103,1.092233 -3.31472,-0.170496 -4.976665,-0.497885 -6.153702,-1.04252 -2.06202,-0.954132 -2.864814,-3.055424 -2.908644,-7.664791 0.02993,-7.159956 1.292877,-8.303794 8.432276,-7.902327 z m 12.93377,0.968798 c 0,0 3.966965,0.222795 3.966965,0.222795 0,0 0.130587,19.025532 0.130587,19.025532 0,0 2.794736,0.141504 2.794736,0.141504 0,0 -0.124936,-19.00976 -0.124936,-19.00976 0,0 8.853882,0.497256 8.853882,0.497256 0,0 -0.01699,-3.00686 -0.01699,-3.00686 0,0 -8.856705,-0.505182 -8.856705,-0.505182 0,0 -0.0048,-0.723831 -0.0048,-0.723831 -0.03253,-4.949098 0.734416,-5.749048 5.746482,-5.574203 0,0 2.980795,0.05534 2.980795,0.05534 0,0 -0.01705,-3.013058 -0.01705,-3.013058 0,0 -3.174337,-0.06947 -3.174337,-0.06947 -6.946151,-0.173985 -8.482245,1.426779 -8.429088,9.159923 0,0 -3.968461,-0.226359 -3.968461,-0.226359 0,0 0.118883,3.026372 0.118883,3.026372 z m 20.849652,-7.237356 c 0,0 0.02759,5.408592 0.02759,5.408592 0,0 -4.313063,-0.246015 -4.313063,-0.246015 0,0 0.01668,3.006001 0.01668,3.006001 0,0 4.311694,0.242155 4.311694,0.242155 0,0 0.05383,10.552627 0.05383,10.552627 0.01771,3.47249 0.215499,4.798858 0.986142,6.154103 1.058654,1.846927 3.064162,2.665194 6.775952,2.852871 3.703737,0.18727 5.502552,-0.436289 6.537836,-2.289028 0.658357,-1.276284 0.937436,-2.691314 0.925708,-6.028994 0,0 -0.0046,-1.311868 -0.0046,-1.311868 0,0 -2.750076,-0.147128 -2.750076,-0.147128 0,0 0.005,1.312946 0.005,1.312946 0.01,2.624815 -0.08171,3.45474 -0.552878,4.264887 -0.564715,1.163087 -1.512563,1.47202 -3.983085,1.345033 -2.664568,-0.136962 -3.905341,-0.67864 -4.577764,-1.78896 -0.481458,-0.981445 -0.482607,-1.220654 -0.597587,-5.294133 0,0 -0.04556,-9.466623 -0.04556,-9.466623 0,0 12.185519,0.684369 12.185519,0.684369 0,0 -0.01059,-2.988754 -0.01059,-2.988754 0,0 -12.189365,-0.695274 -12.189365,-0.695274 0,0 -0.02601,-5.404117 -0.02601,-5.404117 0,0 -2.775363,-0.16269 -2.775363,-0.16269 z m 15.275382,6.278317 c 0,0 8.009324,22.234522 8.009324,22.234522 0,0 4.04647,0.204881 4.04647,0.204881 0,0 5.22385,-18.124419 5.22385,-18.124419 0,0 0.28162,0.01579 0.28162,0.01579 0,0 5.26928,18.654183 5.26928,18.654183 0,0 4.01127,0.203099 4.01127,0.203099 0,0 7.90361,-21.206193 7.90361,-21.206193 0,0 -3.16323,-0.180429 -3.16323,-0.180429 0,0 -6.51452,18.105957 -6.51452,18.105957 0,0 -0.27993,-0.01444 -0.27993,-0.01444 0,0 -5.26136,-18.779176 -5.26136,-18.779176 0,0 -4.2258,-0.241037 -4.2258,-0.241037 0,0 -5.13355,18.266139 -5.13355,18.266139 0,0 -0.28241,-0.01457 -0.28241,-0.01457 0,0 -6.756653,-18.945892 -6.756653,-18.945892 0,0 -3.127971,-0.178418 -3.127971,-0.178418 z m 38.548764,8.695424 c 0,0 1.2e-4,-0.23608 1.2e-4,-0.23608 0.001,-2.951982 1.02131,-3.485265 6.84858,-3.157582 4.42631,0.248902 5.8983,0.802399 6.90735,2.270464 0.64157,0.976282 0.82345,1.926686 0.81894,4.158978 0,0 -0.005,2.348658 -0.005,2.348658 0,0 -0.18367,-0.0099 -0.18367,-0.0099 -1.19063,-2.061314 -2.29349,-2.473915 -9.207,-2.850322 -3.6063,-0.196345 -5.18081,-0.04611 -6.20048,0.370487 -1.76248,0.730798 -2.41239,2.34837 -2.41288,5.769902 -3.8e-4,2.594016 0.37037,3.909538 1.48231,5.144421 1.20351,1.238453 2.86876,1.675666 8.86904,1.978845 5.15235,0.260335 6.34705,-0.14811 7.63656,-2.426619 0,0 0.0918,0.0047 0.0918,0.0047 0,0 -0.005,2.460687 -0.005,2.460687 0,0 2.658,0.13458 2.658,0.13458 0,0 0.026,-11.250091 0.026,-11.250091 0.0117,-5.047679 -0.26011,-6.59017 -1.35862,-8.062448 -1.37437,-1.959981 -3.39708,-2.663933 -9.11394,-2.990421 -7.31269,-0.417625 -9.54085,0.756256 -9.54184,5.248305 0,0 -2.1e-4,0.945159 -2.1e-4,0.945159 0,0 2.68976,0.148235 2.68976,0.148235 z m 6.83783,5.557264 c 5.89369,0.315723 7.54615,1.108647 7.54051,3.924918 -0.006,2.814617 -1.38415,3.447132 -6.99607,3.158281 -4.15199,-0.213707 -6.00054,-0.426545 -6.7403,-0.935546 -0.92531,-0.518863 -1.29533,-1.362607 -1.29461,-3.012161 6.1e-4,-1.414356 0.37158,-2.337771 1.02012,-2.774761 0.741,-0.549779 2.03648,-0.598252 6.47035,-0.360731 z m 13.1703,-10.912635 c 0,0 -0.0555,21.451 -0.0555,21.451 0,0 2.64959,0.134155 2.64959,0.134155 0,0 0.0281,-9.826518 0.0281,-9.826518 0.0215,-7.500415 1.12243,-8.729068 7.50884,-8.370167 4.09269,0.229998 4.99692,1.215909 4.97844,5.654085 0,0 -0.006,1.51738 -0.006,1.51738 0,0 2.71947,0.147205 2.71947,0.147205 0,0 0.01,-2.216028 0.01,-2.216028 0.0125,-2.800659 -0.52265,-4.816035 -1.69629,-6.167731 -1.08397,-1.347839 -2.44539,-1.776503 -5.72083,-1.963563 -3.19063,-0.182216 -4.56066,-0.02587 -5.5673,0.503321 -0.91571,0.534622 -1.5578,1.202296 -2.01812,2.232356 0,0 -0.18292,-0.01027 -0.18292,-0.01027 0,0 0.008,-2.816369 0.008,-2.816369 0,0 -2.65514,-0.268852 -2.65514,-0.268852 z m 37.68773,16.765151 c -0.0985,1.384442 -0.19021,1.727007 -0.64123,2.28245 -0.81348,1.231494 -2.33775,1.500414 -6.01437,1.311304 -4.94487,-0.254345 -6.74429,-0.811671 -7.72973,-2.141235 -0.80691,-1.088679 -1.16002,-2.736052 -1.14633,-5.52905 0,0 18.32438,0.982273 18.32438,0.982273 -0.0555,-4.985006 -0.39969,-6.97528 -1.6397,-8.901151 -1.50796,-2.291748 -3.47681,-2.985123 -9.13868,-3.30847 -3.96581,-0.226486 -5.8637,0.01512 -7.22394,0.871137 -2.17826,1.394081 -3.09757,4.377011 -3.12121,9.506887 -0.0199,4.309514 0.77972,7.377491 2.30795,8.967935 1.43617,1.583904 3.95684,2.176007 9.61959,2.462329 6.62688,0.335072 8.96074,-1.280619 9.08461,-6.363304 0,0 -2.68134,-0.141105 -2.68134,-0.141105 z m -15.42705,-6.982714 c 0.2946,-4.762747 1.74531,-5.730821 7.42486,-5.411445 6.37756,0.358626 7.98295,1.609866 7.95273,6.249218 0,0 -15.37759,-0.837773 -15.37759,-0.837773 z"
             id="hola-6" />
        </g>
        <path
           style="fill:#000000;fill-opacity:1;stroke:#000000;stroke-width:0.26458332px;stroke-linecap:butt;stroke-linejoin:miter;stroke-opacity:1"
           d="m 68.213011,21.804328 c 0,0 47.549279,2.180821 47.549279,2.180821 0,0 0.0843,0.0039 0.0843,0.0039"
           id="path5312" />
        <g
           id="text5316"
           style="font-style:normal;font-variant:normal;font-weight:normal;font-stretch:normal;font-size:7.41951704px;line-height:1.25;font-family:'American Captain';-inkscape-font-specification:'American Captain';letter-spacing:0px;word-spacing:0px;fill:#000000;fill-opacity:1;stroke:none;stroke-width:0.18548793"
           aria-label="headquarter">
          <path
             style="font-style:normal;font-variant:normal;font-weight:normal;font-stretch:normal;font-family:'Microgramma D Extended';-inkscape-font-specification:'Microgramma D Extended';fill:#000000;fill-opacity:1;stroke-width:0.18548793"
             d="m 68.46411,25.403222 c 0,0 0.07252,5.983855 0.07252,5.983855 0,0 0.534438,0.01897 0.534438,0.01897 0,0 -0.02324,-1.951478 -0.02324,-1.951478 -0.0094,-0.788608 0.01767,-0.975738 0.197793,-1.219661 0.22317,-0.313872 0.653315,-0.431333 1.479044,-0.398766 0.729501,0.02877 1.065747,0.140358 1.243307,0.4065 0.162711,0.247544 0.194201,0.472043 0.20335,1.329413 0,0 0.02075,1.944785 0.02075,1.944785 0,0 0.530215,0.01882 0.530215,0.01882 0,0 -0.02248,-2.148887 -0.02248,-2.148887 -0.01027,-0.982038 -0.0718,-1.30588 -0.300248,-1.600719 -0.265588,-0.350159 -0.681981,-0.483058 -1.61562,-0.520461 -1.103842,-0.04422 -1.490112,0.09275 -1.711047,0.604024 0,0 -0.04397,-0.0017 -0.04397,-0.0017 0,0 -0.02908,-2.44218 -0.02908,-2.44218 0,0 -0.535745,-0.02249 -0.535745,-0.02249 z"
             id="path5331" />
          <path
             style="font-style:normal;font-variant:normal;font-weight:normal;font-stretch:normal;font-family:'Microgramma D Extended';-inkscape-font-specification:'Microgramma D Extended';fill:#000000;fill-opacity:1;stroke-width:0.18548793"
             d="m 76.933084,30.41685 c -0.01925,0.265475 -0.03302,0.335945 -0.11843,0.43929 -0.170622,0.233346 -0.465229,0.293693 -1.222198,0.266396 -1.00401,-0.03621 -1.366492,-0.129337 -1.571739,-0.394794 -0.161376,-0.210607 -0.23704,-0.533913 -0.2569,-1.069059 0,0 3.724754,0.139992 3.724754,0.139992 -0.02275,-0.977227 -0.09788,-1.353153 -0.352934,-1.727462 -0.313451,-0.439196 -0.710974,-0.570742 -1.866391,-0.617018 -0.81053,-0.03246 -1.193966,0.01463 -1.467639,0.191063 -0.432381,0.277337 -0.622458,0.84991 -0.612106,1.858118 0.0087,0.846986 0.174092,1.42304 0.496061,1.737278 0.299774,0.295379 0.814424,0.411446 1.969897,0.452397 1.353967,0.04799 1.818274,-0.272254 1.831396,-1.255775 0,0 -0.553771,-0.02043 -0.553771,-0.02043 z m -3.160406,-1.319198 c 0.0488,-0.916395 0.329384,-1.119388 1.487491,-1.073724 1.29938,0.05123 1.625605,0.286326 1.640781,1.193211 0,0 -3.128272,-0.119487 -3.128272,-0.119487 z"
             id="path5333" />
          <path
             style="font-style:normal;font-variant:normal;font-weight:normal;font-stretch:normal;font-family:'Microgramma D Extended';-inkscape-font-specification:'Microgramma D Extended';fill:#000000;fill-opacity:1;stroke-width:0.18548793"
             d="m 78.531919,28.871524 c 0,0 -4.34e-4,-0.05324 -4.34e-4,-0.05324 0.0025,-0.567668 0.20268,-0.657385 1.341973,-0.612463 0.865105,0.03411 1.165576,0.125596 1.35313,0.416062 0.122508,0.181651 0.159407,0.359922 0.162386,0.78435 0,0 0.0031,0.44196 0.0031,0.44196 0,0 -0.04277,-0.0016 -0.04277,-0.0016 -0.230954,-0.397635 -0.459668,-0.459411 -1.817782,-0.511259 -0.702084,-0.0268 -1.017368,-0.0034 -1.217495,0.08654 -0.343307,0.146605 -0.469917,0.461122 -0.464463,1.108568 0.0042,0.496446 0.07807,0.747178 0.295124,0.967518 0.245751,0.238925 0.561539,0.30322 1.749323,0.345316 1.006475,0.03567 1.248211,-0.04399 1.494477,-0.47642 0,0 0.02137,7.7e-4 0.02137,7.7e-4 0,0 -0.0038,0.476313 -0.0038,0.476313 0,0 0.519644,0.01845 0.519644,0.01845 0,0 -0.01467,-2.153571 -0.01467,-2.153571 -0.0066,-0.972076 -0.05836,-1.248116 -0.288374,-1.54014 -0.280679,-0.373894 -0.666815,-0.486712 -1.789336,-0.531671 -1.441159,-0.05772 -1.862969,0.174095 -1.855761,1.035606 0,0 0.0015,0.177558 0.0015,0.177558 0,0 0.552831,0.02137 0.552831,0.02137 z m 1.347471,1.052405 c 1.164218,0.04371 1.478969,0.196876 1.482696,0.72693 0.0038,0.547488 -0.258902,0.670401 -1.365183,0.630507 -0.815369,-0.0294 -1.173661,-0.06888 -1.324784,-0.153991 -0.187178,-0.104164 -0.260194,-0.266226 -0.262664,-0.567474 -0.0022,-0.265866 0.06092,-0.440736 0.189158,-0.542278 0.149643,-0.109574 0.400286,-0.126748 1.280777,-0.09369 0,0 0,-5e-6 0,-5e-6 z"
             id="path5335" />
          <path
             style="font-style:normal;font-variant:normal;font-weight:normal;font-stretch:normal;font-family:'Microgramma D Extended';-inkscape-font-specification:'Microgramma D Extended';fill:#000000;fill-opacity:1;stroke-width:0.18548793"
             d="m 86.623461,26.165522 c 0,0 -0.515469,-0.02164 -0.515469,-0.02164 0,0 0.01173,2.281832 0.01173,2.281832 0,0 -0.0353,-0.0014 -0.0353,-0.0014 -0.228217,-0.440424 -0.53269,-0.567104 -1.438444,-0.60339 -0.985647,-0.03949 -1.390064,0.0061 -1.658888,0.189721 -0.417628,0.283808 -0.598833,0.850911 -0.592284,1.840038 0.0064,0.961888 0.166054,1.47025 0.558746,1.801567 0.292403,0.239378 0.675737,0.323392 1.589115,0.355763 1.052702,0.03731 1.327331,-0.04951 1.571674,-0.514833 0,0 0.0282,0.001 0.0282,0.001 0,0 0.0027,0.517959 0.0027,0.517959 0,0 0.507207,0.01801 0.507207,0.01801 0,0 -0.02895,-5.864649 -0.02895,-5.864649 z m -2.016739,2.218122 c 1.308343,0.0516 1.535487,0.298139 1.542349,1.635065 0.0035,0.676716 -0.08639,1.024763 -0.318076,1.227119 -0.20367,0.177088 -0.549313,0.226114 -1.376479,0.196285 -1.247133,-0.04497 -1.49713,-0.300691 -1.505258,-1.570502 -0.0046,-0.723658 0.08537,-1.090876 0.318474,-1.293614 0.204781,-0.177304 0.530884,-0.226224 1.33899,-0.194353 z"
             id="path5337" />
          <path
             style="font-style:normal;font-variant:normal;font-weight:normal;font-stretch:normal;font-family:'Microgramma D Extended';-inkscape-font-specification:'Microgramma D Extended';fill:#000000;fill-opacity:1;stroke-width:0.18548793"
             d="m 91.36237,33.653607 c 0,0 -0.0169,-5.50301 -0.0169,-5.50301 0,0 -0.488785,-0.01955 -0.488785,-0.01955 0,0 0.0017,0.516665 0.0017,0.516665 0,0 -0.02794,-0.0011 -0.02794,-0.0011 -0.218161,-0.47278 -0.512205,-0.589679 -1.548647,-0.63119 -0.743782,-0.02979 -1.13699,0.0072 -1.389543,0.120072 -0.519454,0.24299 -0.735153,0.779382 -0.73029,1.807263 0.0045,0.94807 0.133412,1.443969 0.472397,1.798068 0.289304,0.308197 0.675626,0.400713 1.768594,0.439448 0.601403,0.02132 0.880699,-0.01247 1.075797,-0.127814 0.160193,-0.09909 0.271473,-0.20864 0.34073,-0.363351 0,0 0.02791,10e-4 0.02791,10e-4 0,0 0.0064,1.946259 0.0064,1.946259 0,0 0.508623,0.01723 0.508623,0.01723 z M 89.171801,28.57246 c 0.700576,0.02762 1.078589,0.08633 1.274777,0.207901 0.31512,0.204944 0.428045,0.568118 0.43064,1.364141 0.0022,0.681906 -0.08721,1.071828 -0.302906,1.273664 -0.187913,0.176691 -0.495103,0.226781 -1.201522,0.201307 -0.658456,-0.02374 -1.023307,-0.08069 -1.213266,-0.201433 -0.316787,-0.195529 -0.444946,-0.5772 -0.448471,-1.357992 -0.0059,-1.299466 0.232117,-1.536033 1.460748,-1.487588 z"
             id="path5339" />
          <path
             style="font-style:normal;font-variant:normal;font-weight:normal;font-stretch:normal;font-family:'Microgramma D Extended';-inkscape-font-specification:'Microgramma D Extended';fill:#000000;fill-opacity:1;stroke-width:0.18548793"
             d="m 91.950369,28.174789 c 0,0 0.0063,2.237516 0.0063,2.237516 0.0024,0.838047 0.08697,1.224984 0.317229,1.486167 0.251013,0.287885 0.661112,0.406983 1.451922,0.43501 0.996931,0.03533 1.328526,-0.09194 1.583378,-0.595529 0,0 0.02763,9.99e-4 0.02763,9.99e-4 0,0 8.95e-4,0.59954 8.95e-4,0.59954 0,0 0.503863,0.01789 0.503863,0.01789 0,0 -0.0052,-4.026173 -0.0052,-4.026173 0,0 -0.504671,-0.02018 -0.504671,-0.02018 0,0 0.003,1.99409 0.003,1.99409 8.69e-4,0.582829 -0.04019,0.850879 -0.178094,1.045801 -0.213737,0.340011 -0.607769,0.456215 -1.376507,0.428493 -0.596506,-0.02151 -0.89525,-0.110715 -1.076357,-0.309023 -0.188205,-0.216119 -0.23754,-0.47086 -0.239537,-1.230044 0,0 -0.0054,-2.044214 -0.0054,-2.044214 0,0 -0.508486,-0.02034 -0.508486,-0.02034 z"
             id="path5341" />
          <path
             style="font-style:normal;font-variant:normal;font-weight:normal;font-stretch:normal;font-family:'Microgramma D Extended';-inkscape-font-specification:'Microgramma D Extended';fill:#000000;fill-opacity:1;stroke-width:0.18548793"
             d="m 96.946546,29.583115 c 0,0 -4.4e-5,-0.05215 -4.4e-5,-0.05215 0.0064,-0.556065 0.199235,-0.644102 1.293063,-0.600972 0.830619,0.03275 1.118564,0.122139 1.296674,0.40654 0.116399,0.177857 0.150597,0.352468 0.1505,0.768247 0,0 -1.01e-4,0.432957 -1.01e-4,0.432957 0,0 -0.04107,-0.0015 -0.04107,-0.0015 -0.21905,-0.389366 -0.438288,-0.449714 -1.742278,-0.499495 -0.674076,-0.02573 -0.977023,-0.0025 -1.169841,0.08567 -0.330713,0.143864 -0.454498,0.452045 -0.453788,1.086259 5.43e-4,0.486304 0.06974,0.731865 0.276651,0.947556 0.234336,0.23388 0.537159,0.296645 1.677607,0.337064 0.966411,0.03425 1.199145,-0.04396 1.438692,-0.467764 0,0 0.02052,7.4e-4 0.02052,7.4e-4 0,0 -0.0069,0.466629 -0.0069,0.466629 0,0 0.498989,0.01771 0.498989,0.01771 0,0 9.1e-4,-2.109764 9.1e-4,-2.109764 4e-4,-0.952279 -0.0474,-1.222657 -0.266254,-1.508554 -0.266975,-0.366054 -0.63705,-0.476271 -1.714817,-0.519438 -1.383623,-0.05542 -1.790316,0.171984 -1.789419,1.015864 0,0 1.86e-4,0.173926 1.86e-4,0.173926 0,0 0.53075,0.02051 0.53075,0.02051 z m 1.286727,1.02992 c 1.117843,0.04197 1.419083,0.191788 1.418969,0.71105 -1.17e-4,0.536346 -0.253339,0.656943 -1.315582,0.618637 -0.782877,-0.02823 -1.126697,-0.06665 -1.271236,-0.14992 -0.179031,-0.101907 -0.248019,-0.26061 -0.248286,-0.555707 -2.36e-4,-0.260436 0.0616,-0.431781 0.185449,-0.531343 0.144476,-0.107446 0.385304,-0.124452 1.230686,-0.09271 0,0 0,-5e-6 0,-5e-6 z"
             id="path5343" />
          <path
             style="font-style:normal;font-variant:normal;font-weight:normal;font-stretch:normal;font-family:'Microgramma D Extended';-inkscape-font-specification:'Microgramma D Extended';fill:#000000;fill-opacity:1;stroke-width:0.18548793"
             d="m 100.71933,28.525491 c 0,0 -0.003,4.003951 -0.003,4.003951 0,0 0.49783,0.01767 0.49783,0.01767 0,0 0.002,-1.848012 0.002,-1.848012 0.001,-1.409416 0.21292,-1.643342 1.41198,-1.596063 0.77495,0.03056 0.94439,0.218466 0.94292,1.046557 0,0 -5e-4,0.28453 -5e-4,0.28453 0,0 0.50864,0.01931 0.50864,0.01931 0,0 8.1e-4,-0.413644 8.1e-4,-0.413644 0.001,-0.517245 -0.10674,-0.900973 -0.31664,-1.142255 -0.21004,-0.24144 -0.46126,-0.320578 -1.08002,-0.345361 -0.59918,-0.024 -0.86502,-3.8e-5 -1.05608,0.113453 -0.17062,0.09703 -0.29357,0.230613 -0.37563,0.417743 0,0 -0.0341,-0.0013 -0.0341,-0.0013 0,0 4.5e-4,-0.536599 4.5e-4,-0.536599 0,0 -0.49862,-0.01994 -0.49862,-0.01994 z"
             id="path5345" />
          <path
             style="font-style:normal;font-variant:normal;font-weight:normal;font-stretch:normal;font-family:'Microgramma D Extended';-inkscape-font-specification:'Microgramma D Extended';fill:#000000;fill-opacity:1;stroke-width:0.18548793"
             d="m 105.00378,27.705132 c 0,0 -0.002,0.991617 -0.002,0.991617 0,0 -0.77231,-0.03089 -0.77231,-0.03089 0,0 -0.001,0.543382 -0.001,0.543382 0,0 0.77215,0.03041 0.77215,0.03041 0,0 -0.005,1.928432 -0.005,1.928432 -0.001,0.627827 0.0385,0.878618 0.17308,1.124144 0.1816,0.324396 0.53903,0.465907 1.20649,0.489562 0.65972,0.02338 0.99639,-0.101806 1.17902,-0.446669 0.12848,-0.235353 0.16968,-0.491017 0.17179,-1.108335 0,0 8.5e-4,-0.248727 8.5e-4,-0.248727 0,0 -0.49093,-0.01843 -0.49093,-0.01843 0,0 -8e-4,0.248867 -8e-4,0.248867 -0.002,0.48901 -0.0223,0.63408 -0.0967,0.777184 -0.10832,0.210502 -0.27676,0.264466 -0.71449,0.248681 -0.47188,-0.01702 -0.69432,-0.102348 -0.82205,-0.304568 -0.10086,-0.16695 -0.10079,-0.192731 -0.11238,-0.949715 0,0 0.004,-1.720984 0.004,-1.720984 0,0 2.18476,0.08604 2.18476,0.08604 0,0 0.002,-0.541239 0.002,-0.541239 0,0 -2.18523,-0.0874 -2.18523,-0.0874 0,0 0.003,-0.991056 0.003,-0.991056 0,0 -0.49403,-0.02031 -0.49403,-0.02031 z"
             id="path5347" />
          <path
             style="font-style:normal;font-variant:normal;font-weight:normal;font-stretch:normal;font-family:'Microgramma D Extended';-inkscape-font-specification:'Microgramma D Extended';fill:#000000;fill-opacity:1;stroke-width:0.18548793"
             d="m 111.52614,31.692838 c -0.0213,0.255334 -0.0349,0.323125 -0.11536,0.422625 -0.16105,0.224634 -0.4347,0.283053 -1.13545,0.257783 -0.92938,-0.03352 -1.26387,-0.122601 -1.45052,-0.377598 -0.14672,-0.202306 -0.2126,-0.51309 -0.22408,-1.027643 0,0 3.4479,0.129588 3.4479,0.129588 -0.008,-0.939762 -0.0732,-1.301176 -0.30468,-1.660774 -0.28468,-0.4219 -0.65117,-0.547824 -1.72065,-0.590659 -0.75019,-0.03005 -1.10587,0.01579 -1.36157,0.185822 -0.40396,0.267276 -0.58736,0.818073 -0.59081,1.787469 -0.003,0.814402 0.14282,1.3681 0.43691,1.66985 0.27378,0.283654 0.74889,0.394609 1.81849,0.432517 1.25347,0.04442 1.68768,-0.26416 1.7125,-1.210069 0,0 -0.51268,-0.01891 -0.51268,-0.01891 z m -2.90996,-1.264305 c 0.057,-0.881213 0.31948,-1.07679 1.39136,-1.034526 1.20277,0.04743 1.5019,0.273037 1.50428,1.145128 0,0 -2.89564,-0.110602 -2.89564,-0.110602 z"
             id="path5349" />
          <path
             style="font-style:normal;font-variant:normal;font-weight:normal;font-stretch:normal;font-family:'Microgramma D Extended';-inkscape-font-specification:'Microgramma D Extended';fill:#000000;fill-opacity:1;stroke-width:0.18548793"
             d="m 112.49488,28.996437 c 0,0 -0.021,3.950373 -0.021,3.950373 0,0 0.48478,0.01721 0.48478,0.01721 0,0 0.01,-1.823318 0.01,-1.823318 0.008,-1.390559 0.21495,-1.62146 1.38257,-1.575421 0.75465,0.02976 0.91881,0.215071 0.91358,1.032109 0,0 -0.002,0.280734 -0.002,0.280734 0,0 0.49534,0.01881 0.49534,0.01881 0,0 0.003,-0.408128 0.003,-0.408128 0.003,-0.510345 -0.0998,-0.888898 -0.30317,-1.126852 -0.20347,-0.238108 -0.44779,-0.316059 -1.05034,-0.340193 -0.58348,-0.02337 -0.84251,4.07e-4 -1.02911,0.112477 -0.16663,0.09582 -0.28699,0.227675 -0.36777,0.412341 0,0 -0.0332,-0.0013 -0.0332,-0.0013 0,0 0.003,-0.529413 0.003,-0.529413 0,0 -0.48553,-0.01942 -0.48553,-0.01942 z"
             id="path5351" />
        </g>
      </g>
    </g>
  </g>
  <style
     id="style1152"
     type="text/css">
	.st0{fill:#292E6E;}
</style>
  <style
     id="style5153"
     type="text/css">
	.st0{fill:#292E6E;}
</style>
  <style
     id="style5238"
     type="text/css">
	.st0{fill:#292E6E;}
</style>
  <style
     id="style5296"
     type="text/css">
	.st0{fill:#292E6E;}
</style>
</svg>
