<?xml version="1.0" encoding="UTF-8" standalone="no"?>
<svg
   xmlns:dc="http://purl.org/dc/elements/1.1/"
   xmlns:cc="http://creativecommons.org/ns#"
   xmlns:rdf="http://www.w3.org/1999/02/22-rdf-syntax-ns#"
   xmlns:svg="http://www.w3.org/2000/svg"
   xmlns="http://www.w3.org/2000/svg"
   xmlns:sodipodi="http://sodipodi.sourceforge.net/DTD/sodipodi-0.dtd"
   xmlns:inkscape="http://www.inkscape.org/namespaces/inkscape"
   width="478.76007"
   height="344.78394"
   viewBox="0 0 478.76007 344.78393"
   version="1.1"
   id="svg1654"
   sodipodi:docname="Hand-coding.svg"
   inkscape:version="0.92.4 (5da689c313, 2019-01-14)">
  <metadata
     id="metadata1660">
    <rdf:RDF>
      <cc:Work
         rdf:about="">
        <dc:format>image/svg+xml</dc:format>
        <dc:type
           rdf:resource="http://purl.org/dc/dcmitype/StillImage" />
        <dc:title></dc:title>
      </cc:Work>
    </rdf:RDF>
  </metadata>
  <defs
     id="defs1658">
    <style
       id="style5909">
        .cls-bg21{fill:#f8f8ff;}
        .cls-bg22{fill:#bac5f4;}
        .cls-bg23{fill:#e1e6fb;}
      </style>
    <clipPath
       id="fe9b49f8-e166-4e47-ac65-a2d5a59265ce">
      <path
         fill="none"
         d="M734.19,333.45c-6.71,56.78-32.6,122.79-84.4,153.12-78.23,45.82-71.69,116.3-224.38,147a313.33,313.33,0,0,1-67.69,6.39,260.44,260.44,0,0,1-33.24-2.72c-97-14.18-162.34-81.63-186.3-163C106.7,367,169.62,297,211.36,254.71S283.64,80.85,433.51,49.62A304.56,304.56,0,0,1,503.09,43c53.32,1.36,111.48,18.82,151.72,55.36q4.56,4.08,8.83,8.52C719.57,164.25,743.34,256.05,734.19,333.45Z"
         data-name="SVGID"
         id="b1f04b0c-412f-4f15-bef7-21759d12595e" />
    </clipPath>
  </defs>
  <sodipodi:namedview
     pagecolor="#ffffff"
     bordercolor="#666666"
     borderopacity="1"
     objecttolerance="10"
     gridtolerance="10"
     guidetolerance="10"
     inkscape:pageopacity="0"
     inkscape:pageshadow="2"
     inkscape:window-width="1366"
     inkscape:window-height="705"
     id="namedview1656"
     showgrid="false"
     fit-margin-top="0"
     fit-margin-left="0"
     fit-margin-right="0"
     fit-margin-bottom="0"
     inkscape:zoom="0.69118012"
     inkscape:cx="476.19412"
     inkscape:cy="76.056035"
     inkscape:window-x="1912"
     inkscape:window-y="113"
     inkscape:window-maximized="1"
     inkscape:current-layer="svg1654" />
  <g
     id="g6366"
     transform="matrix(0.54200985,0,0,0.54200985,-4.5627791,-11.739787)">
    <path
       id="path5974"
       d="m 734.19,333.45 c -6.71,56.78 -32.6,122.79 -84.4,153.12 -78.23,45.82 -71.69,116.3 -224.38,147 a 313.33,313.33 0 0 1 -67.69,6.39 260.44,260.44 0 0 1 -33.24,-2.72 c -97,-14.18 -162.34,-81.63 -186.3,-163 C 106.7,367 169.62,297 211.36,254.71 253.1,212.42 283.64,80.85 433.51,49.62 A 304.56,304.56 0 0 1 503.09,43 c 53.32,1.36 111.48,18.82 151.72,55.36 q 4.56,4.08 8.83,8.52 c 55.93,57.37 79.7,149.17 70.55,226.57 z"
       inkscape:connector-curvature="0"
       style="fill:#0071f2" />
    <path
       id="path5976"
       d="m 734.19,333.45 c -6.71,56.78 -32.6,122.79 -84.4,153.12 -78.23,45.82 -71.69,116.3 -224.38,147 a 313.33,313.33 0 0 1 -67.69,6.39 260.44,260.44 0 0 1 -33.24,-2.72 c -97,-14.18 -162.34,-81.63 -186.3,-163 C 106.7,367 169.62,297 211.36,254.71 253.1,212.42 283.64,80.85 433.51,49.62 A 304.56,304.56 0 0 1 503.09,43 c 53.32,1.36 111.48,18.82 151.72,55.36 q 4.56,4.08 8.83,8.52 c 55.93,57.37 79.7,149.17 70.55,226.57 z"
       inkscape:connector-curvature="0"
       style="opacity:0.7;fill:#ffffff" />
    <g
       data-name="freepik--Table--inject-546"
       id="eaf174e0-ebbb-4b42-a98f-45f9edbc98ad">
      <path
         id="path5978"
         d="m 697.39,420.64 h -18.51 a 0.68,0.68 0 0 1 0,-1.36 h 18.51 a 0.68,0.68 0 0 1 0,1.36 z"
         inkscape:connector-curvature="0"
         style="fill:#2f2e41" />
      <path
         id="path5980"
         d="M 670.62,420.64 H 141.88 a 0.68,0.68 0 0 1 0,-1.36 h 528.74 a 0.68,0.68 0 0 1 0,1.36 z"
         inkscape:connector-curvature="0"
         style="fill:#2f2e41" />
    </g>
    <g
       data-name="freepik--Gears--inject-546"
       id="e6f31740-1334-4c1a-b3b9-32a2fdb0f816">
      <path
         id="path5983"
         d="m 644.06,302.44 h -11.82 l -1.47,-10.33 a 37.46,37.46 0 0 1 -13.58,-5.67 l -8.31,6.23 -8.35,-8.35 6.26,-8.34 a 37.5,37.5 0 0 1 -5.6,-13.58 l -10.28,-1.48 v -11.81 l 10.32,-1.48 a 37.58,37.58 0 0 1 5.68,-13.58 l -6.23,-8.31 8.35,-8.35 8.34,6.26 a 37.32,37.32 0 0 1 13.58,-5.6 l 1.48,-10.28 h 11.8 l 1.49,10.32 a 37.3,37.3 0 0 1 13.58,5.68 l 8.31,-6.23 8.35,8.35 -6.26,8.34 a 37.08,37.08 0 0 1 5.6,13.58 l 10.28,1.47 v 11.81 l -10.32,1.48 a 37.63,37.63 0 0 1 -5.68,13.59 l 6.23,8.31 -8.35,8.35 -8.31,-6.29 a 37.32,37.32 0 0 1 -13.58,5.6 z m -10.64,-1.36 h 9.51 l 1.44,-10.08 0.49,-0.09 a 36,36 0 0 0 13.92,-5.74 l 0.41,-0.28 8.15,6.14 6.68,-6.7 -6.11,-8.15 0.28,-0.39 a 36.11,36.11 0 0 0 5.83,-14 l 0.08,-0.48 10.2,-1.45 v -9.46 l -10.08,-1.4 -0.09,-0.48 a 35.91,35.91 0 0 0 -5.73,-14 l -0.27,-0.41 6.12,-8.15 -6.68,-6.68 -8.15,6.11 -0.41,-0.28 a 36,36 0 0 0 -14,-5.83 l -0.47,-0.08 -1.51,-10.07 h -9.51 l -1.44,10.08 -0.47,0.1 a 35.8,35.8 0 0 0 -14,5.73 l -0.41,0.27 -8.15,-6.12 -6.68,6.68 6.11,8.15 -0.27,0.4 a 36,36 0 0 0 -5.83,13.95 l -0.09,0.48 -10.12,1.45 v 9.51 l 10.08,1.44 0.09,0.47 a 35.85,35.85 0 0 0 5.84,14 l 0.27,0.4 -6.14,8.15 6.7,6.69 8.15,-6.12 0.39,0.28 a 35.73,35.73 0 0 0 13.95,5.82 l 0.48,0.1 z m 4.84,-19.55 a 26.46,26.46 0 1 1 26.46,-26.45 26.46,26.46 0 0 1 -26.46,26.45 z m 0,-51.54 a 25.1,25.1 0 1 0 25.1,25.1 v 0 A 25.12,25.12 0 0 0 638.26,230 Z"
         inkscape:connector-curvature="0"
         style="fill:#2f2e41" />
      <path
         id="path5985"
         d="m 685.33,354.13 h -8.77 l -1.06,-7.42 a 26.88,26.88 0 0 1 -9.51,-4 l -6,4.48 -6.21,-6.2 4.5,-6 a 26.53,26.53 0 0 1 -3.93,-9.5 L 647,324.44 v -8.84 l 7.41,-1.06 a 26.78,26.78 0 0 1 4,-9.51 l -4.47,-6 6.21,-6.21 6,4.49 a 26.74,26.74 0 0 1 9.51,-3.92 L 676.7,286 h 8.77 l 1.06,7.42 a 26.93,26.93 0 0 1 9.51,4 l 6,-4.47 6.21,6.2 -4.5,6 a 26.65,26.65 0 0 1 3.93,9.51 l 7.39,1.06 v 8.84 l -7.42,1.06 a 26.78,26.78 0 0 1 -4,9.51 l 4.47,6 -6.12,6.18 -6,-4.49 a 27.18,27.18 0 0 1 -9.51,3.92 z m -7.6,-1.36 h 6.44 l 1,-7.18 0.49,-0.1 a 25.57,25.57 0 0 0 9.92,-4.07 l 0.41,-0.27 5.82,4.37 4.54,-4.55 -4.35,-5.8 0.27,-0.41 a 25.57,25.57 0 0 0 4.15,-9.9 l 0.08,-0.47 7.21,-1 v -6.42 l -7.18,-1 -0.09,-0.48 a 25.68,25.68 0 0 0 -4.07,-9.93 l -0.27,-0.4 4.36,-5.82 -4.46,-4.66 -5.85,4.32 -0.41,-0.27 a 25.59,25.59 0 0 0 -9.89,-4.15 l -0.49,-0.08 -1,-7.21 h -6.46 l -1,7.19 -0.49,0.09 a 25.27,25.27 0 0 0 -9.92,4.07 l -0.41,0.28 -5.85,-4.27 -4.54,4.55 4.31,5.8 -0.27,0.41 a 25.4,25.4 0 0 0 -4.14,9.9 l -0.08,0.48 -7.22,1 v 6.35 l 7.19,1 0.08,0.47 a 25.62,25.62 0 0 0 4.07,9.93 l 0.28,0.39 -4.36,5.83 4.53,4.55 5.82,-4.36 0.39,0.29 a 25.7,25.7 0 0 0 9.9,4.07 l 0.49,0.1 z m 3.3,-13.58 A 19.11,19.11 0 1 1 700.14,320.08 19.11,19.11 0 0 1 681,339.19 Z m 0,-36.86 A 17.75,17.75 0 1 0 698.78,320.08 17.75,17.75 0 0 0 681,302.33 Z"
         inkscape:connector-curvature="0"
         style="fill:#2f2e41" />
      <path
         id="path5987"
         d="m 225,366.92 h -10.9 l -1.36,-9.42 a 34.1,34.1 0 0 1 -12.34,-5.16 l -7.59,5.66 -7.69,-7.66 5.7,-7.62 a 34.58,34.58 0 0 1 -5.08,-12.37 L 176.36,329 v -10.85 l 9.42,-1.36 A 34.24,34.24 0 0 1 191,304.46 l -5.7,-7.59 7.69,-7.7 7.62,5.72 A 34.19,34.19 0 0 1 213,289.78 l 1.36,-9.4 h 10.87 l 1.36,9.44 a 33.86,33.86 0 0 1 12.33,5.18 l 7.59,-5.69 7.7,7.7 -5.72,7.62 a 34,34 0 0 1 5.08,12.37 l 9.4,1.36 v 10.86 l -9.51,1.36 a 34.1,34.1 0 0 1 -5.14,12.35 l 5.69,7.59 -7.7,7.69 -7.62,-5.71 a 33.85,33.85 0 0 1 -12.38,5.08 z m -9.7,-1.35 h 8.6 l 1.36,-9.2 0.49,-0.08 a 32.76,32.76 0 0 0 12.74,-5.23 l 0.39,-0.27 7.46,5.58 6,-6 -5.57,-7.42 0.27,-0.41 a 32.84,32.84 0 0 0 5.31,-12.72 l 0.1,-0.47 9.22,-1.36 v -8.51 l -9.2,-1.36 -0.09,-0.49 a 32.85,32.85 0 0 0 -5.23,-12.74 l -0.27,-0.4 5.59,-7.45 -6,-6 -7.47,5.52 -0.4,-0.28 a 33.13,33.13 0 0 0 -12.7,-5.31 l -0.48,-0.08 -1.36,-9.23 h -8.61 l -1.36,9.19 -0.47,0.1 a 32.7,32.7 0 0 0 -12.74,5.23 l -0.41,0.27 -7.46,-5.6 -6,6 5.57,7.43 -0.29,0.41 a 32.74,32.74 0 0 0 -5.3,12.7 l -0.09,0.47 -9.22,1.36 v 8.53 l 9.19,1.36 0.08,0.47 a 32.94,32.94 0 0 0 5.23,12.74 l 0.27,0.41 -5.58,7.46 6,6 7.43,-5.57 0.39,0.28 a 32.67,32.67 0 0 0 12.72,5.3 l 0.47,0.09 z m 4.36,-17.66 a 24.21,24.21 0 1 1 24.19,-24.22 v 0 a 24.23,24.23 0 0 1 -24.19,24.15 z m 0,-47 a 22.85,22.85 0 1 0 22.83,22.85 v 0 a 22.85,22.85 0 0 0 -22.83,-22.89 v 0 z"
         inkscape:connector-curvature="0"
         style="fill:#2f2e41" />
      <path
         id="path5989"
         d="m 182.51,295.58 h -7.1 l -0.83,-5.8 a 21.14,21.14 0 0 1 -7.28,-3 l -4.67,3.5 -5,-5.07 3.5,-4.68 a 21,21 0 0 1 -3,-7.3 l -5.77,-0.82 v -7.11 l 5.78,-0.83 a 21.52,21.52 0 0 1 3.05,-7.28 l -3.49,-4.57 5,-5 4.68,3.52 a 21.17,21.17 0 0 1 7.31,-3 l 0.83,-5.77 h 7.09 l 0.83,5.79 a 21,21 0 0 1 7.28,3 l 4.62,-3.55 5,5 -3.51,4.68 a 21.34,21.34 0 0 1 3,7.3 l 5.77,0.83 v 7.09 l -5.8,0.82 a 21.32,21.32 0 0 1 -3,7.3 l 3.49,4.66 -4.93,5 -4.69,-3.52 a 21.39,21.39 0 0 1 -7.31,3 z m -5.92,-1.36 h 4.74 l 0.79,-5.57 0.49,-0.09 a 20,20 0 0 0 7.66,-3.14 l 0.4,-0.29 4.51,3.4 3.36,-3.36 -3.37,-4.49 0.27,-0.41 a 19.58,19.58 0 0 0 3.19,-7.65 l 0.1,-0.47 5.59,-0.8 v -4.74 l -5.58,-0.8 -0.08,-0.48 a 19.66,19.66 0 0 0 -3.15,-7.67 l -0.27,-0.41 3.38,-4.51 -3.36,-3.35 -4.49,3.38 -0.41,-0.29 a 19.73,19.73 0 0 0 -7.65,-3.19 l -0.47,-0.09 -0.8,-5.59 h -4.74 l -0.79,5.57 -0.49,0.1 a 19.79,19.79 0 0 0 -7.66,3.13 l -0.41,0.28 -4.51,-3.39 -3.35,3.36 3.37,4.49 -0.27,0.41 a 19.66,19.66 0 0 0 -3.2,7.65 l -0.09,0.47 -5.58,0.81 v 4.74 l 5.57,0.8 0.08,0.47 a 19.76,19.76 0 0 0 3.15,7.68 l 0.27,0.39 -3.38,4.52 3.34,3.36 4.49,-3.38 0.41,0.28 a 19.43,19.43 0 0 0 7.65,3.19 l 0.47,0.08 z m 2.46,-10.28 A 15,15 0 1 1 194,268.84 v 0 a 15.05,15.05 0 0 1 -14.95,15.1 z m 0,-28.65 A 13.67,13.67 0 1 0 192.63,269 v -0.16 a 13.7,13.7 0 0 0 -13.58,-13.55 z"
         inkscape:connector-curvature="0"
         style="fill:#2f2e41" />
      <path
         id="path5991"
         d="M 421.26,198.41 H 412 l -1.12,-7.92 a 28.54,28.54 0 0 1 -10.24,-4.28 l -6.42,4.79 -6.59,-6.59 4.81,-6.4 a 28.39,28.39 0 0 1 -4.23,-10.25 l -7.88,-1.13 v -9.32 l 7.88,-1.17 a 28.67,28.67 0 0 1 4.27,-10.24 l -4.77,-6.37 6.61,-6.48 6.4,4.8 A 28.62,28.62 0 0 1 411,133.64 l 1.13,-7.89 h 9.3 l 1.13,7.92 a 28.52,28.52 0 0 1 10.24,4.27 l 6.37,-4.89 6.59,6.58 L 441,146 a 28.58,28.58 0 0 1 4.21,10.26 l 7.88,1.13 v 9.3 l -7.92,1.15 a 28.66,28.66 0 0 1 -4.26,10.22 l 4.78,6.39 -6.59,6.57 -6.4,-4.79 a 28.55,28.55 0 0 1 -10.27,4.21 z m -8.15,-1.36 h 6.94 l 1.1,-7.68 0.49,-0.09 a 27.39,27.39 0 0 0 10.62,-4.37 l 0.41,-0.27 6.23,4.67 5,-4.92 -4.65,-6.2 0.28,-0.41 A 27.2,27.2 0 0 0 444,167.19 l 0.1,-0.48 7.7,-1.1 v -7 l -7.8,-1.11 -0.1,-0.47 a 27.31,27.31 0 0 0 -4.36,-10.64 l -0.27,-0.41 4.62,-6.13 -4.89,-4.92 -6.21,4.66 -0.4,-0.29 a 27.65,27.65 0 0 0 -10.6,-4.43 l -0.49,-0.08 -1.1,-7.71 h -6.94 l -1.1,7.69 -0.49,0.08 A 27.5,27.5 0 0 0 401,139.21 l -0.4,0.28 -6.24,-4.67 -4.82,4.88 4.65,6.22 -0.28,0.39 a 27.59,27.59 0 0 0 -4.42,10.61 l -0.1,0.47 -7.7,1.1 v 7 l 7.67,1.1 0.1,0.47 a 27.31,27.31 0 0 0 4.36,10.64 l 0.27,0.39 -4.67,6.24 4.91,4.91 6.21,-4.66 0.41,0.28 a 27.13,27.13 0 0 0 10.59,4.42 l 0.49,0.1 z m 3.62,-14.62 a 20.38,20.38 0 1 1 20.38,-20.38 v 0 a 20.38,20.38 0 0 1 -20.38,20.38 z m 0,-39.39 a 19,19 0 1 0 19,19 19,19 0 0 0 -19,-19 z"
         inkscape:connector-curvature="0"
         style="fill:#2f2e41" />
    </g>
    <polygon
       id="polygon5994"
       points="374.76,501.65 374.15,502.65 372.67,505.05 182.33,505.05 258.51,419.97 551.25,419.96 627.81,504.5 438.32,504.5 436.47,502.65 435.46,501.65 "
       style="fill:#0071f2" />
    <polygon
       id="polygon5996"
       points="374.76,501.65 374.15,502.65 372.67,505.05 182.33,505.05 258.51,419.97 551.25,419.96 627.81,504.5 438.32,504.5 436.47,502.65 435.46,501.65 "
       style="opacity:0.4;fill:#ffffff" />
    <path
       id="path5998"
       d="m 182.34,505 v 5.42 a 3.56,3.56 0 0 0 3.56,3.58 h 436.85 a 5.05,5.05 0 0 0 5.06,-5 v -4.46 H 438.32 l -2.86,-2.86 h -60.69 l -2.1,3.39 z"
       inkscape:connector-curvature="0"
       style="fill:#2f2e41" />
    <path
       id="path6000"
       d="m 263.22,227.82 h 283.63 a 4.71,4.71 0 0 1 4.71,4.71 V 420 h -293 V 232.54 a 4.71,4.71 0 0 1 4.66,-4.72 z"
       inkscape:connector-curvature="0"
       style="fill:#2f2e41" />
    <rect
       id="rect6002"
       rx="1.14"
       height="174.62"
       width="282"
       y="239.03"
       x="263.95999"
       style="fill:#ffffff" />
    <path
       id="path6004"
       d="m 528.22,247.62 v 152.54 a 2.78,2.78 0 0 1 -2.79,2.79 H 284.62 a 2.78,2.78 0 0 1 -2.78,-2.79 V 247.62 a 2.78,2.78 0 0 1 2.78,-2.77 h 240.81 a 2.79,2.79 0 0 1 2.79,2.77 z"
       inkscape:connector-curvature="0"
       style="fill:#0071f2" />
    <path
       id="path6006"
       d="m 528.22,247.62 v 6.67 H 281.84 v -6.67 a 2.78,2.78 0 0 1 2.78,-2.77 h 240.81 a 2.79,2.79 0 0 1 2.79,2.77 z"
       inkscape:connector-curvature="0"
       style="opacity:0.4;fill:#ffffff" />
    <circle
       id="circle6008"
       r="1.63"
       cy="249.14"
       cx="285.89001"
       style="fill:#0071f2" />
    <circle
       id="circle6010"
       r="1.63"
       cy="249.14"
       cx="292.31"
       style="fill:#2f2e41" />
    <circle
       id="circle6012"
       r="1.63"
       cy="249.14"
       cx="298.17001"
       style="fill:#ffffff" />
    <rect
       id="rect6014"
       rx="0.28"
       height="6.0999999"
       width="6.0999999"
       y="264.88"
       x="302.64001"
       style="opacity:0.4;fill:#ffffff" />
    <rect
       id="rect6016"
       rx="0.28"
       height="6.0999999"
       width="8.75"
       y="264.88"
       x="312.32999"
       style="opacity:0.75;fill:#ffffff" />
    <rect
       id="rect6018"
       rx="0.28"
       height="6.0999999"
       width="6.0999999"
       y="300.10999"
       x="302.64001"
       style="fill:#ffffff" />
    <rect
       id="rect6020"
       rx="0.28"
       height="6.0999999"
       width="8.75"
       y="300.10999"
       x="312.32999"
       style="fill:#2f2e41" />
    <rect
       id="rect6022"
       rx="0.28"
       height="6.0999999"
       width="6.0999999"
       y="311.73001"
       x="302.64001"
       style="opacity:0.4;fill:#ffffff" />
    <rect
       id="rect6024"
       rx="0.28"
       height="6.0999999"
       width="12.22"
       y="311.73001"
       x="323.56"
       style="fill:#ffffff" />
    <rect
       id="rect6026"
       rx="0.28"
       height="6.0999999"
       width="6.0999999"
       y="323.89999"
       x="302.64001"
       style="fill:#ffffff" />
    <rect
       id="rect6028"
       rx="0.28"
       height="6.0999999"
       width="12.22"
       y="323.89999"
       x="316.70001"
       style="opacity:0.75;fill:#ffffff" />
    <g
       id="g6034"
       style="opacity:0.4">
      <rect
         id="rect6030"
         rx="0.28"
         height="6.0999999"
         width="6.0999999"
         y="370.91"
         x="302.64001"
         style="fill:#ffffff" />
      <rect
         id="rect6032"
         rx="0.28"
         height="6.0999999"
         width="12.22"
         y="370.91"
         x="316.70001"
         style="fill:#ffffff" />
    </g>
    <g
       id="g6040"
       style="opacity:0.4">
      <rect
         id="rect6036"
         rx="0.28"
         height="6.0999999"
         width="6.0999999"
         y="382.56"
         x="302.64001"
         style="fill:#ffffff" />
      <rect
         id="rect6038"
         rx="0.28"
         height="6.0999999"
         width="12.22"
         y="382.56"
         x="316.70001"
         style="fill:#ffffff" />
    </g>
    <rect
       id="rect6042"
       rx="0.28"
       height="6.0999999"
       width="6.0999999"
       y="394.92999"
       x="302.64001"
       style="fill:#ffffff" />
    <rect
       id="rect6044"
       rx="0.28"
       height="6.0999999"
       width="8.8400002"
       y="394.92999"
       x="312.31"
       style="fill:#2f2e41" />
    <rect
       id="rect6046"
       rx="0.28"
       height="6.0999999"
       width="6.0999999"
       y="335.34"
       x="302.64001"
       style="opacity:0.4;fill:#ffffff" />
    <rect
       id="rect6048"
       rx="0.28"
       height="6.0999999"
       width="12.22"
       y="335.34"
       x="316.70001"
       style="fill:#ffffff" />
    <rect
       id="rect6050"
       rx="0.28"
       height="6.0999999"
       width="36.459999"
       y="335.34"
       x="331.67001"
       style="opacity:0.75;fill:#ffffff" />
    <rect
       id="rect6052"
       rx="0.28"
       height="6.0999999"
       width="36.459999"
       y="335.34"
       x="371.19"
       style="fill:#2f2e41" />
    <rect
       id="rect6054"
       rx="0.28"
       height="6.0999999"
       width="19.139999"
       y="335.34"
       x="410.72"
       style="opacity:0.75;fill:#ffffff" />
    <g
       id="g6066"
       style="opacity:0.4">
      <rect
         id="rect6056"
         rx="0.28"
         height="6.0999999"
         width="6.0999999"
         y="347.5"
         x="302.64001"
         style="fill:#ffffff" />
      <rect
         id="rect6058"
         rx="0.28"
         height="6.0999999"
         width="12.22"
         y="347.5"
         x="316.70001"
         style="fill:#ffffff" />
      <rect
         id="rect6060"
         rx="0.28"
         height="6.0999999"
         width="36.459999"
         y="347.5"
         x="331.67001"
         style="fill:#ffffff" />
      <rect
         id="rect6062"
         rx="0.28"
         height="6.0999999"
         width="36.459999"
         y="347.5"
         x="371.19"
         style="fill:#ffffff" />
      <rect
         id="rect6064"
         rx="0.28"
         height="6.0999999"
         width="19.139999"
         y="347.5"
         x="410.72"
         style="fill:#ffffff" />
    </g>
    <rect
       id="rect6068"
       rx="0.28"
       height="6.0999999"
       width="6.0999999"
       y="358.75"
       x="302.64001"
       style="fill:#ffffff" />
    <rect
       id="rect6070"
       rx="0.28"
       height="6.0999999"
       width="12.22"
       y="358.75"
       x="316.70001"
       style="opacity:0.75;fill:#ffffff" />
    <rect
       id="rect6072"
       rx="0.28"
       height="6.0999999"
       width="36.459999"
       y="358.75"
       x="331.67001"
       style="fill:#2f2e41" />
    <rect
       id="rect6074"
       rx="0.28"
       height="6.0999999"
       width="36.459999"
       y="358.75"
       x="371.19"
       style="fill:#ffffff" />
    <rect
       id="rect6076"
       rx="0.28"
       height="6.0999999"
       width="19.139999"
       y="358.75"
       x="410.72"
       style="fill:#2f2e41" />
    <rect
       id="rect6078"
       rx="0.28"
       height="6.0999999"
       width="70.019997"
       y="264.88"
       x="323.42001"
       style="fill:#2f2e41" />
    <rect
       id="rect6080"
       rx="0.28"
       height="6.0999999"
       width="6.0999999"
       y="276.35001"
       x="302.64001"
       style="opacity:0.4;fill:#ffffff" />
    <rect
       id="rect6082"
       rx="0.28"
       height="6.0999999"
       width="11.37"
       y="276.35001"
       x="317.87"
       style="opacity:0.75;fill:#ffffff" />
    <rect
       id="rect6084"
       rx="0.28"
       height="6.0999999"
       width="16.43"
       y="276.35001"
       x="413.42999"
       style="opacity:0.75;fill:#ffffff" />
    <rect
       id="rect6086"
       rx="0.28"
       height="6.0999999"
       width="40.080002"
       y="276.35001"
       x="432.88"
       style="fill:#2f2e41" />
    <rect
       id="rect6088"
       rx="0.28"
       height="6.0999999"
       width="79.040001"
       y="276.35001"
       x="331.67001"
       style="fill:#ffffff" />
    <rect
       id="rect6090"
       rx="0.28"
       height="6.0999999"
       width="6.0999999"
       y="288.5"
       x="302.64001"
       style="opacity:0.4;fill:#ffffff" />
    <rect
       id="rect6092"
       rx="0.28"
       height="6.0999999"
       width="11.37"
       y="288.5"
       x="317.87"
       style="opacity:0.75;fill:#ffffff" />
    <rect
       id="rect6094"
       rx="0.28"
       height="6.0999999"
       width="16.43"
       y="288.5"
       x="413.42999"
       style="opacity:0.75;fill:#ffffff" />
    <rect
       id="rect6096"
       rx="0.28"
       height="6.0999999"
       width="40.080002"
       y="288.5"
       x="432.88"
       style="fill:#ffffff" />
    <rect
       id="rect6098"
       rx="0.28"
       height="6.0999999"
       width="79.040001"
       y="288.5"
       x="331.67001"
       style="fill:#2f2e41" />
    <circle
       id="circle6100"
       r="2.9400001"
       cy="233.98"
       cx="405.10999"
       style="opacity:0.2" />
    <path
       id="path6102"
       d="m 689.58,397.06 v 90.12 a 4.09,4.09 0 0 1 -4.1,4.07 H 631.9 a 4.08,4.08 0 0 1 -4.09,-4.07 v -90.12 h 0.48 c 2.55,1.46 15.21,2.58 30.41,2.58 15.2,0 27.85,-1.12 30.4,-2.58 z"
       inkscape:connector-curvature="0"
       style="fill:#0071f2" />
    <path
       id="path6104"
       d="m 689.58,408.52 v 78.66 a 4.09,4.09 0 0 1 -4.1,4.07 H 631.9 a 4.08,4.08 0 0 1 -4.09,-4.07 v -3.66 c 8.67,1.2 38.06,3.59 50.9,-17.24 a 32.41,32.41 0 0 0 2.61,-5.4 c 2.68,-6.99 8.24,-24.64 8.26,-52.36 z"
       inkscape:connector-curvature="0"
       style="opacity:0.2" />
    <path
       id="path6106"
       d="m 690.41,408.52 a 7.58,7.58 0 0 0 -0.83,0 V 420 a 7.58,7.58 0 0 1 0.83,0 c 10.3,0 18.67,8.74 18.67,19.5 0,10.76 -8.37,19.5 -18.67,19.5 -0.29,0 -0.55,0 -0.83,0 v 11.4 c 0.28,0 0.54,0 0.83,0 16.36,0 29.63,-13.85 29.63,-31 0,-17.15 -13.27,-30.88 -29.63,-30.88 z"
       inkscape:connector-curvature="0"
       style="fill:#0071f2" />
    <path
       id="path6108"
       d="M 689.58,408.55 V 420 c 0,0 5.37,-0.13 8.42,1.67 v -12.12 a 33.25,33.25 0 0 0 -8.42,-1 z"
       inkscape:connector-curvature="0"
       style="opacity:0.4;fill:#ffffff" />
    <path
       id="path6110"
       d="m 689.58,458.94 v 11.46 c 0,0 5.4,0.07 8.62,-1.06 l -0.65,-11.86 a 18,18 0 0 1 -7.97,1.46 z"
       inkscape:connector-curvature="0"
       style="opacity:0.4;fill:#ffffff" />
    <rect
       id="rect6112"
       height="31.33"
       width="2.1800001"
       y="399.23999"
       x="642.64001"
       style="fill:#ffffff" />
    <path
       id="path6114"
       d="m 482.13,502.65 h -45.66 l -1,-1 h -60.7 l -0.61,1 H 327.4 a 1.33,1.33 0 0 1 -1.2,-1.81 l 11.39,-30.07 135.46,0.07 10.3,30 a 1.32,1.32 0 0 1 -1.22,1.81 z"
       inkscape:connector-curvature="0"
       style="opacity:0.4;fill:#ffffff" />
    <path
       id="path6116"
       d="m 635.88,443 v -9 a 3,3 0 0 1 1.09,-2.31 l 6.21,-5.14 a 0.89,0.89 0 0 1 1.11,0 l 6.8,5.38 a 3,3 0 0 1 1.14,2.36 V 443 a 1.2,1.2 0 0 1 -1.2,1.2 h -13.95 a 1.2,1.2 0 0 1 -1.2,-1.2 z"
       inkscape:connector-curvature="0"
       style="fill:#2f2e41" />
    <line
       id="line6118"
       stroke-miterlimit="10"
       y2="430.76999"
       x2="473.45001"
       y1="430.76999"
       x1="337.26001"
       style="fill:none;stroke:#ffffff;stroke-width:0.25;stroke-miterlimit:10" />
    <line
       id="line6120"
       stroke-miterlimit="10"
       y2="437.64999"
       x2="457.76999"
       y1="437.64999"
       x1="352.94"
       style="fill:none;stroke:#ffffff;stroke-width:0.25;stroke-miterlimit:10" />
    <line
       id="line6122"
       stroke-miterlimit="10"
       y2="444.04001"
       x2="451.76999"
       y1="444.04001"
       x1="358.94"
       style="fill:none;stroke:#ffffff;stroke-width:0.25;stroke-miterlimit:10" />
    <line
       id="line6124"
       stroke-miterlimit="10"
       y2="452.63"
       x2="485.42001"
       y1="452.63"
       x1="325.29999"
       style="fill:none;stroke:#ffffff;stroke-width:0.25;stroke-miterlimit:10" />
    <line
       id="line6126"
       stroke-miterlimit="10"
       y2="461.70001"
       x2="455.07001"
       y1="461.70001"
       x1="355.76001"
       style="fill:none;stroke:#ffffff;stroke-width:0.25;stroke-miterlimit:10" />
    <line
       id="line6128"
       stroke-miterlimit="10"
       y2="445.04001"
       x2="333.63"
       y1="460.35001"
       x1="328.26999"
       style="fill:none;stroke:#ffffff;stroke-width:0.25;stroke-miterlimit:10" />
    <line
       id="line6130"
       stroke-miterlimit="10"
       y2="452.70001"
       x2="348.07001"
       y1="430.76999"
       x1="354.17001"
       style="fill:none;stroke:#ffffff;stroke-width:0.25;stroke-miterlimit:10" />
    <line
       id="line6132"
       stroke-miterlimit="10"
       y2="444.04001"
       x2="359.79001"
       y1="437.64999"
       x1="360.73001"
       style="fill:none;stroke:#ffffff;stroke-width:0.25;stroke-miterlimit:10" />
    <line
       id="line6134"
       stroke-miterlimit="10"
       y2="437.64999"
       x2="367.35001"
       y1="430.76999"
       x1="368.57999"
       style="fill:none;stroke:#ffffff;stroke-width:0.25;stroke-miterlimit:10" />
    <line
       id="line6136"
       stroke-miterlimit="10"
       y2="452.63"
       x2="364.53"
       y1="444.04001"
       x1="366.06"
       style="fill:none;stroke:#ffffff;stroke-width:0.25;stroke-miterlimit:10" />
    <line
       id="line6138"
       stroke-miterlimit="10"
       y2="444.04001"
       x2="382"
       y1="452.63"
       x1="381.17999"
       style="fill:none;stroke:#ffffff;stroke-width:0.25;stroke-miterlimit:10" />
    <line
       id="line6140"
       stroke-miterlimit="10"
       y2="444.04001"
       x2="375.14001"
       y1="437.64999"
       x1="375.85001"
       style="fill:none;stroke:#ffffff;stroke-width:0.25;stroke-miterlimit:10" />
    <line
       id="line6142"
       stroke-miterlimit="10"
       y2="437.64999"
       x2="383.35999"
       y1="430.76999"
       x1="383.72"
       style="fill:none;stroke:#ffffff;stroke-width:0.25;stroke-miterlimit:10" />
    <line
       id="line6144"
       stroke-miterlimit="10"
       y2="437.95999"
       x2="398.76999"
       y1="431.07001"
       x1="399.12"
       style="fill:none;stroke:#ffffff;stroke-width:0.25;stroke-miterlimit:10" />
    <line
       id="line6146"
       stroke-miterlimit="10"
       y2="444.04001"
       x2="391.45999"
       y1="437.64999"
       x1="391.45999"
       style="fill:none;stroke:#ffffff;stroke-width:0.25;stroke-miterlimit:10" />
    <line
       id="line6148"
       stroke-miterlimit="10"
       y2="444.04001"
       x2="407.23999"
       y1="437.64999"
       x1="407.23999"
       style="fill:none;stroke:#ffffff;stroke-width:0.25;stroke-miterlimit:10" />
    <line
       id="line6150"
       stroke-miterlimit="10"
       y2="452.63"
       x2="398.10999"
       y1="444.04001"
       x1="398.10999"
       style="fill:none;stroke:#ffffff;stroke-width:0.25;stroke-miterlimit:10" />
    <line
       id="line6152"
       stroke-miterlimit="10"
       y2="452.63"
       x2="415.06"
       y1="444.04001"
       x1="415.06"
       style="fill:none;stroke:#ffffff;stroke-width:0.25;stroke-miterlimit:10" />
    <line
       id="line6154"
       stroke-miterlimit="10"
       y2="452.63"
       x2="431.04001"
       y1="444.04001"
       x1="431.04001"
       style="fill:none;stroke:#ffffff;stroke-width:0.25;stroke-miterlimit:10" />
    <line
       id="line6156"
       stroke-miterlimit="10"
       y2="461.70001"
       x2="447.78"
       y1="444.16"
       x1="446.28"
       style="fill:none;stroke:#ffffff;stroke-width:0.25;stroke-miterlimit:10" />
    <line
       id="line6158"
       stroke-miterlimit="10"
       y2="461.70001"
       x2="465.98999"
       y1="444.47"
       x1="463.54001"
       style="fill:none;stroke:#ffffff;stroke-width:0.25;stroke-miterlimit:10" />
    <line
       id="line6160"
       stroke-miterlimit="10"
       y2="461.70001"
       x2="483.42999"
       y1="444.23999"
       x1="479.29001"
       style="fill:none;stroke:#ffffff;stroke-width:0.25;stroke-miterlimit:10" />
    <line
       id="line6162"
       stroke-miterlimit="10"
       y2="437.64999"
       x2="422.88"
       y1="444.04001"
       x1="423.38"
       style="fill:none;stroke:#ffffff;stroke-width:0.25;stroke-miterlimit:10" />
    <line
       id="line6164"
       stroke-miterlimit="10"
       y2="444.04001"
       x2="439.70001"
       y1="437.64999"
       x1="438.70001"
       style="fill:none;stroke:#ffffff;stroke-width:0.25;stroke-miterlimit:10" />
    <line
       id="line6166"
       stroke-miterlimit="10"
       y2="437.64999"
       x2="414.22"
       y1="430.76999"
       x1="414.22"
       style="fill:none;stroke:#ffffff;stroke-width:0.25;stroke-miterlimit:10" />
    <line
       id="line6168"
       stroke-miterlimit="10"
       y2="437.64999"
       x2="429.16"
       y1="430.76999"
       x1="429.16"
       style="fill:none;stroke:#ffffff;stroke-width:0.25;stroke-miterlimit:10" />
    <line
       id="line6170"
       stroke-miterlimit="10"
       y2="437.64999"
       x2="444.48999"
       y1="430.76999"
       x1="444.48999"
       style="fill:none;stroke:#ffffff;stroke-width:0.25;stroke-miterlimit:10" />
    <line
       id="line6172"
       stroke-miterlimit="10"
       y2="437.64999"
       x2="459.26999"
       y1="430.76999"
       x1="459.26999"
       style="fill:none;stroke:#ffffff;stroke-width:0.25;stroke-miterlimit:10" />
    <path
       id="path6174"
       d="m 689.58,396.52 c 0,0.17 -0.16,0.37 -0.48,0.54 -2.55,1.46 -15.21,2.58 -30.4,2.58 -15.19,0 -27.86,-1.12 -30.41,-2.58 -0.33,-0.17 -0.48,-0.37 -0.48,-0.54 0,-1.72 13.83,-3.12 30.89,-3.12 17.06,0 30.88,1.4 30.88,3.12 z"
       inkscape:connector-curvature="0"
       style="fill:#0071f2" />
    <ellipse
       id="ellipse6176"
       ry="2.45"
       rx="27.309999"
       cy="397.17999"
       cx="657.70001"
       style="fill:#ffffff" />
    <path
       id="path6178"
       d="M 553.65,99.67 A 77.66,77.66 0 0 0 500,233.47 l -11.06,20.64 27.17,-8.8 A 77.67,77.67 0 1 0 553.65,99.67 Z"
       inkscape:connector-curvature="0"
       style="fill:#2f2e41" />
    <path
       id="path6180"
       d="m 550,94.13 a 77.67,77.67 0 0 0 -53.68,133.8 l -11.05,20.63 27.16,-8.79 A 77.68,77.68 0 1 0 550,94.13 Z"
       inkscape:connector-curvature="0"
       style="fill:#ffffff" />
    <path
       id="path6182"
       d="m 550,250.16 a 78.6,78.6 0 0 1 -37.69,-9.66 l -26.82,8.71 a 0.69,0.69 0 0 1 -0.74,-0.22 0.72,0.72 0 0 1 -0.08,-0.76 l 10.87,-20.17 a 78.35,78.35 0 1 1 54.52,22.1 z m -37.61,-11.07 a 0.73,0.73 0 0 1 0.33,0.08 77.15,77.15 0 1 0 -15.92,-11.73 0.65,0.65 0 0 1 0.12,0.8 l -10.25,19.15 25.51,-8.27 z"
       inkscape:connector-curvature="0"
       style="fill:#2f2e41" />
    <path
       id="path6184"
       d="M 524,203.82 494.12,182.74 V 171.56 L 524,150.28 v 11.27 l -21.4,15.55 21.4,15.55 z"
       inkscape:connector-curvature="0"
       style="fill:#0071f2" />
    <path
       id="path6186"
       d="M 533.08,207.58 555.83,123 h 9.71 l -22.86,84.55 z"
       inkscape:connector-curvature="0"
       style="fill:#0071f2" />
    <path
       id="path6188"
       d="m 574.61,203.82 v -11.17 l 21.5,-15.65 -21.5,-15.44 v -11.28 l 30,21.19 v 11.16 z"
       inkscape:connector-curvature="0"
       style="fill:#0071f2" />
    <path
       id="path6190"
       d="m 527.7,199.19 -29.88,-21.08 v -11.17 l 29.88,-21.29 v 11.27 L 506.29,172.47 527.7,188 Z"
       inkscape:connector-curvature="0"
       style="fill:#2f2e41" />
    <path
       id="path6192"
       d="m 536.77,203 22.75,-84.54 h 9.71 L 546.37,203 Z"
       inkscape:connector-curvature="0"
       style="fill:#2f2e41" />
    <path
       id="path6194"
       d="M 578.31,199.19 V 188 l 21.52,-15.64 -21.52,-15.46 v -11.25 l 30,21.18 V 178 Z"
       inkscape:connector-curvature="0"
       style="fill:#2f2e41" />
    <g
       id="g6228"
       clip-path="url(#fe9b49f8-e166-4e47-ac65-a2d5a59265ce)">
      <path
         id="path6196"
         d="m 292.23,493.19 a 4.58,4.58 0 0 1 -1.81,4.25 c -6.71,5.1 -29.13,27.69 -52.7,113.82 H 129.34 c 21.88,-64 90.47,-134.21 103.1,-146.78 a 7.41,7.41 0 0 1 4.9,-2.16 c 6.08,-0.26 20.57,-0.28 33.17,4.68 10.67,4.23 20,12 21.72,26.19 z"
         inkscape:connector-curvature="0"
         style="fill:#0071f2" />
      <path
         id="path6198"
         d="m 360.73,468.44 c 0,12.29 -21.5,9.44 -21.5,9.44 -9.22,-0.44 -14.91,2.39 -14.91,2.39 -13.83,4.4 -33.31,7.08 -33.31,7.08 a 0.32,0.32 0 0 0 0,-0.08 30.8,30.8 0 0 0 -6.54,-11.07 4.93,4.93 0 0 0 -0.5,-0.52 C 269.83,461.01 243.84,462.21 243.84,462.21 L 272.12,441 c 0,0 1.63,-0.45 3.81,-5.29 0,0 3.44,-8.72 7.8,-8.72 h 7.78 c 0,0 7.15,-13.22 12.75,-9.65 a 22.87,22.87 0 0 1 4.68,3.9 c 0,0 10.89,-11.2 19.61,-3 0,0 7.15,8.71 8.71,12.46 a 15.2,15.2 0 0 1 8.76,1.92 51.59,51.59 0 0 1 12.38,10.38 2.4,2.4 0 0 1 0.54,1 2.36,2.36 0 0 1 -0.37,2.2 c -4.9,6.21 -13.42,-1.92 -13.42,-1.92 -5.27,1.09 -13.59,0.66 -13.59,0.66 -3.51,7.45 -13.38,12.5 -13.38,12.5 11,4.82 18.63,2.62 18.63,2.62 17.67,-3.23 22.33,3.55 23.51,6.77 v 0 a 7.37,7.37 0 0 1 0.41,1.61 z"
         inkscape:connector-curvature="0"
         style="fill:#f9b499" />
      <path
         id="path6200"
         d="m 312.67,431.07 21.94,-0.78 c 0,0 -5.44,-9.64 -11,-8.56 0.03,0 -5.49,1.09 -10.94,9.34 z"
         inkscape:connector-curvature="0"
         style="fill:#f7a48b" />
      <path
         id="path6202"
         d="m 358.57,446.24 c -4.9,6.21 -13.42,-1.92 -13.42,-1.92 -5.27,1.09 -13.59,0.66 -13.59,0.66 -3.51,7.45 -13.38,12.5 -13.38,12.5 a 13.51,13.51 0 0 1 -5.51,-3.37 c 0,0 16.34,-3.58 17.43,-11.84 0,0 11.2,2 14.64,-2.48 0,0 2.18,7.45 8.23,6.06 a 21.87,21.87 0 0 0 5.95,-1.83 v 0 a 2.36,2.36 0 0 1 -0.35,2.22 z"
         inkscape:connector-curvature="0"
         style="fill:#f7a48b" />
      <path
         id="path6204"
         d="m 360.73,468.44 c 0,12.29 -21.5,9.44 -21.5,9.44 -9.22,-0.44 -14.91,2.39 -14.91,2.39 -13.83,4.4 -33.31,7.08 -33.31,7.08 a 0.32,0.32 0 0 0 0,-0.08 28.6,28.6 0 0 0 -6.54,-11.07 4.93,4.93 0 0 0 -0.5,-0.52 11.21,11.21 0 0 0 2.2,-1.68 1.79,1.79 0 0 1 2.14,-0.31 c 2.79,1.59 11,4.9 27.52,1.74 a 20.8,20.8 0 0 0 3.3,-1 25.48,25.48 0 0 1 9.11,-1.54 c 0,0 14.12,0.59 19.18,-5.05 a 1.41,1.41 0 0 1 1.82,-0.24 c 2.13,1.37 7.09,3.73 11.1,-0.77 v 0 a 7.37,7.37 0 0 1 0.39,1.61 z"
         inkscape:connector-curvature="0"
         style="fill:#f7a48b" />
      <path
         id="path6206"
         d="m 289.34,428.58 a 3.88,3.88 0 0 1 -0.65,2.92 10,10 0 0 1 -1.82,2.26 10.63,10.63 0 0 1 -5,2.67 11.51,11.51 0 0 1 1.66,-2.34 26.58,26.58 0 0 1 1.89,-1.93 c 0.65,-0.59 1.32,-1.17 2,-1.73 a 12.12,12.12 0 0 0 1.92,-1.85 z"
         inkscape:connector-curvature="0"
         style="fill:#f7a48b" />
      <path
         id="path6208"
         d="m 297,429.62 a 17,17 0 0 1 10,-6.62 16.84,16.84 0 0 1 -10,6.63 z"
         inkscape:connector-curvature="0"
         style="fill:#f7a48b" />
      <path
         id="path6210"
         d="m 292.23,493.19 a 4.58,4.58 0 0 1 -1.81,4.25 c -6.71,5.1 -29.13,27.69 -52.7,113.82 h -44.78 c 0,0 39.89,-26.12 71,-92.73 0,0 10.87,-21.39 6.56,-51.53 10.68,4.23 20.01,12 21.73,26.19 z"
         inkscape:connector-curvature="0"
         style="opacity:0.2" />
      <path
         id="path6212"
         d="m 518.49,493.19 a 4.58,4.58 0 0 0 1.81,4.25 c 6.71,5.1 29.13,27.69 52.7,113.82 h 108.38 c -21.88,-64 -90.47,-134.21 -103.1,-146.78 a 7.42,7.42 0 0 0 -4.91,-2.16 c -6.07,-0.26 -20.56,-0.28 -33.16,4.68 -10.67,4.23 -20,12 -21.72,26.19 z"
         inkscape:connector-curvature="0"
         style="fill:#0071f2" />
      <path
         id="path6214"
         d="M 519.21,427 H 527 c 4.35,0 7.8,8.72 7.8,8.72 2.18,4.84 3.81,5.29 3.81,5.29 l 28.3,21.18 c 0,0 -26,-1.2 -40.13,13.47 a 4.93,4.93 0 0 0 -0.5,0.52 30.8,30.8 0 0 0 -6.54,11.07 0.32,0.32 0 0 0 0,0.08 c 0,0 -19.48,-2.68 -33.31,-7.08 0,0 -5.69,-2.83 -14.91,-2.39 0,0 -21.5,2.85 -21.5,-9.44 a 7.37,7.37 0 0 1 0.39,-1.57 v 0 c 1.18,-3.22 5.84,-10 23.51,-6.77 0,0 7.67,2.2 18.63,-2.62 0,0 -9.87,-5.05 -13.38,-12.5 0,0 -8.32,0.43 -13.59,-0.66 0,0 -8.52,8.13 -13.42,1.92 a 2.36,2.36 0 0 1 -0.38,-2.2 2.54,2.54 0 0 1 0.55,-1 51.39,51.39 0 0 1 12.38,-10.35 15.17,15.17 0 0 1 8.75,-1.92 c 0,0 6.87,-15.25 28.33,-9.5 -0.01,0.02 7.75,-3.63 17.42,5.75 z"
         inkscape:connector-curvature="0"
         style="fill:#f9b499" />
      <path
         id="path6216"
         d="m 498.05,431.07 -21.94,-0.78 c 0,0 5.44,-6.53 11,-5.44 -0.03,0 6.24,-0.22 10.94,6.22 z"
         inkscape:connector-curvature="0"
         style="fill:#f7a48b" />
      <path
         id="path6218"
         d="m 452.15,446.24 c 4.9,6.21 13.42,-1.92 13.42,-1.92 5.27,1.09 13.59,0.66 13.59,0.66 3.51,7.45 13.38,12.5 13.38,12.5 a 13.57,13.57 0 0 0 5.51,-3.37 c 0,0 -16.34,-3.58 -17.43,-11.84 0,0 -11.2,2 -14.64,-2.48 0,0 -2.18,7.45 -8.24,6.06 A 21.87,21.87 0 0 1 451.8,444 v 0 a 2.36,2.36 0 0 0 0.35,2.24 z"
         inkscape:connector-curvature="0"
         style="fill:#f7a48b" />
      <path
         id="path6220"
         d="m 450,468.44 c 0,12.29 21.5,9.44 21.5,9.44 9.22,-0.44 14.91,2.39 14.91,2.39 13.83,4.4 33.31,7.08 33.31,7.08 a 0.32,0.32 0 0 1 0,-0.08 28.6,28.6 0 0 1 6.54,-11.07 4.93,4.93 0 0 1 0.5,-0.52 11.21,11.21 0 0 1 -2.2,-1.68 1.79,1.79 0 0 0 -2.14,-0.31 c -2.79,1.59 -11,4.9 -27.52,1.74 a 20.8,20.8 0 0 1 -3.3,-1 25.48,25.48 0 0 0 -9.11,-1.54 c 0,0 -14.12,0.59 -19.18,-5.05 a 1.41,1.41 0 0 0 -1.82,-0.24 c -2.13,1.37 -7.1,3.73 -11.1,-0.77 v 0 a 7.37,7.37 0 0 0 -0.39,1.61 z"
         inkscape:connector-curvature="0"
         style="fill:#f7a48b" />
      <path
         id="path6222"
         d="m 521.37,428.58 a 12.17,12.17 0 0 0 2,1.85 c 0.67,0.56 1.33,1.14 2,1.73 a 26.58,26.58 0 0 1 1.89,1.93 11.51,11.51 0 0 1 1.66,2.34 10.63,10.63 0 0 1 -5,-2.67 10,10 0 0 1 -1.92,-2.26 3.93,3.93 0 0 1 -0.63,-2.92 z"
         inkscape:connector-curvature="0"
         style="fill:#f7a48b" />
      <path
         id="path6224"
         d="m 513.7,429.62 a 16.84,16.84 0 0 1 -10,-6.63 17,17 0 0 1 10,6.63 z"
         inkscape:connector-curvature="0"
         style="fill:#f7a48b" />
      <path
         id="path6226"
         d="m 518.49,493.19 a 4.58,4.58 0 0 0 1.81,4.25 c 6.71,5.1 29.13,27.69 52.7,113.82 h 44.78 c 0,0 -39.9,-26.12 -71,-92.73 0,0 -10.87,-21.39 -6.56,-51.53 -10.68,4.23 -20.01,12 -21.73,26.19 z"
         inkscape:connector-curvature="0"
         style="opacity:0.2" />
    </g>
  </g>
</svg>
