<svg xmlns="http://www.w3.org/2000/svg" width="478.76" height="344.78">
  <g data-name="freepik--background-simple--inject-6">
    <path fill="#0071f2" d="M372.53 60.11c-24.91-25.96-63.85-39.78-100.7-43.18a317.97 317.97 0 0 0-32.5-1.26C132.39 16.7 101.07 59 107.92 79.38c6.85 20.37 26.14 32.9-1.68 61.1s-59.2 70.5-43.26 112.8c15.94 42.3 81.92 75.2 177.5 69.99 95.58-5.2 157.61-5.74 177.51-44.9 19.9-39.14-23.6-66.08-29.72-99.62-3.79-20.82 5.94-41.8 6.65-62.55.77-22.45-8.05-41.16-22.38-56.09z" data-primary="true"/>
    <path fill="#fff" d="M684.41 123.79c-49.48-51.56-126.81-79-200-85.76a631.46 631.46 0 0 0-64.52-2.51c-212.4 2.08-274.61 86.08-261 126.53 13.61 40.45 51.91 65.34-3.34 121.34s-117.55 140-85.9 224c31.65 84 162.69 149.34 352.5 139 189.81-10.34 313-11.4 352.51-89.15 39.51-77.75-46.85-131.24-59.03-197.86-7.51-41.33 11.81-83 13.22-124.21 1.52-44.58-15.99-81.73-44.44-111.38z" opacity=".7" style="isolation:isolate" transform="translate(27.9 -2.22) scale(.50355)"/>
  </g>
  <path fill="#0071f2" d="M147.12 148c-2.82 10.18-3.2 16.5-3.2 27.58 0 66.69 54.64 120.74 122.04 120.74a122.36 122.36 0 0 0 83.85-33l-84.47-85.06z" data-primary="true"/>
  <path fill="#2f2e41" d="M355.01 258.14a119.8 119.8 0 0 0-.47-165.61l-82 82.8z" data-secondary="true"/>
  <path fill="#e6e7e8" d="M150.18 140c16.18-47.93 61.9-85.16 115.78-85.16a122.33 122.33 0 0 1 84.35 33.48l-84.37 83.63Z"/>
  <path fill="#d1d3d4" d="M364.12 135.9a.74.74 0 0 1-.56-.23.75.75 0 0 1 .05-1.07l22.33-20.43a.77.77 0 0 1 .5-.2h53.93a.76.76 0 1 1 0 1.52h-53.63l-22.11 20.23a.76.76 0 0 1-.51.19z"/>
  <circle cx="295.53" cy="256.87" r="3.54" fill="#2f2e41" data-secondary="true"/>
  <circle cx="362.75" cy="136.52" r="3.54" fill="#d1d3d4"/>
  <circle cx="270.45" cy="69.06" r="3.54" fill="#2f2e41" data-secondary="true"/>
  <rect width="88.38" height="56.89" x="294.95" y="22.89" fill="#0071f2" data-primary="true" rx="3.21"/>
  <path fill="#fff" d="M301.3 41.12h14.08v35.07H301.3z"/>
  <path fill="#2f2e41" d="M322.01 29.52h14.64v46.67h-14.64z" data-secondary="true"/>
  <path fill="#d1d3d4" d="M342.49 54.84h14.64v21.35h-14.64z"/>
  <path fill="#fff" d="M362.75 34.77h14.64V76.2h-14.64z"/>
  <path fill="#0071f2" d="M405.72 98.96h-6.2v3.27a2.83 2.83 0 0 1 1.14-.82 4.03 4.03 0 0 1 1.58-.31 4.34 4.34 0 0 1 2.52.67 3.84 3.84 0 0 1 1.4 1.7 5.57 5.57 0 0 1 .45 2.24 4.96 4.96 0 0 1-1.25 3.52q-1.26 1.33-3.57 1.33a5.24 5.24 0 0 1-3.47-1.08 4.1 4.1 0 0 1-1.48-2.85h2.6a2.01 2.01 0 0 0 .78 1.22 2.47 2.47 0 0 0 1.54.46 2.04 2.04 0 0 0 1.7-.7 2.87 2.87 0 0 0 .57-1.88 2.52 2.52 0 0 0-.58-1.8 2.23 2.23 0 0 0-1.71-.63 2.09 2.09 0 0 0-2.1 1.47h-2.56v-8.16h8.63zm4.12-.71q1.2-1.87 3.97-1.87c1.84 0 3.17.62 3.96 1.87.8 1.25 1.2 2.97 1.2 5.18 0 2.2-.4 3.96-1.2 5.22-.8 1.25-2.12 1.89-3.96 1.89-1.85 0-3.17-.63-3.97-1.9-.8-1.26-1.2-3.02-1.2-5.21 0-2.2.4-3.94 1.2-5.18zm6.29 2.8a3.22 3.22 0 0 0-.73-1.58 2.44 2.44 0 0 0-3.22 0 3.22 3.22 0 0 0-.73 1.58 13.1 13.1 0 0 0-.18 2.38 14.38 14.38 0 0 0 .17 2.44 3.1 3.1 0 0 0 .73 1.58 2.52 2.52 0 0 0 3.24 0 3.02 3.02 0 0 0 .73-1.58 14.32 14.32 0 0 0 .18-2.44 13.1 13.1 0 0 0-.2-2.38zm5.39-3.26a3.5 3.5 0 1 1-.85 2.28 3.02 3.02 0 0 1 .85-2.28zm1.12 2.28c0 1 .35 1.5 1.05 1.5a.96.96 0 0 0 .8-.37 1.86 1.86 0 0 0 .29-1.13c0-1.01-.37-1.52-1.1-1.52-.72 0-1.04.52-1.04 1.52zm10.3-2.87-7.52 13.37h-2.6l7.5-13.37zm-3.02 8.2a3.02 3.02 0 0 1 2.18-.8 2.96 2.96 0 0 1 2.17.8 3.02 3.02 0 0 1 .83 2.29 3.09 3.09 0 0 1-.83 2.3 2.94 2.94 0 0 1-2.17.82 3.02 3.02 0 0 1-2.2-.82 3.07 3.07 0 0 1-.83-2.3 3.02 3.02 0 0 1 .84-2.28zm1.07 2.29c0 1 .37 1.51 1.1 1.51.72 0 1.06-.5 1.06-1.51 0-1-.35-1.51-1.06-1.51-.71 0-1.1.52-1.1 1.5zM206.45 29.46a2.01 2.01 0 0 0-1.34-.4 2.1 2.1 0 0 0-1.95 1.06c-.4.7-.62 1.86-.63 3.45a3.13 3.13 0 0 1 1.33-1.2 4.28 4.28 0 0 1 1.91-.43 4.43 4.43 0 0 1 2.2.54 3.74 3.74 0 0 1 1.51 1.56 5.78 5.78 0 0 1 0 4.87 3.91 3.91 0 0 1-1.62 1.67 5.8 5.8 0 0 1-5.63-.3 4.6 4.6 0 0 1-1.59-2.45 14.47 14.47 0 0 1-.45-3.89q0-3.49 1.2-5.28c.81-1.2 2.08-1.78 3.81-1.78a4.26 4.26 0 0 1 3.12 1.08 4.3 4.3 0 0 1 1.28 2.72h-2.49a2.2 2.2 0 0 0-.66-1.22zm-2.99 5.28a2.14 2.14 0 0 0-.68 1.71 2.24 2.24 0 0 0 2.44 2.43 2.17 2.17 0 0 0 1.64-.63 2.36 2.36 0 0 0 .6-1.7 2.52 2.52 0 0 0-.58-1.76 2.19 2.19 0 0 0-1.72-.65 2.52 2.52 0 0 0-1.7.6zm9.84-5.95q1.19-1.87 3.96-1.87t3.97 1.87q1.19 1.87 1.19 5.18 0 3.3-1.2 5.22c-.79 1.26-2.11 1.89-3.96 1.89s-3.17-.63-3.96-1.9c-.8-1.25-1.2-3.01-1.2-5.21s.4-3.93 1.2-5.18zm6.3 2.8a3.22 3.22 0 0 0-.72-1.59 2.44 2.44 0 0 0-3.23 0 3.23 3.23 0 0 0-.73 1.58 13.21 13.21 0 0 0-.18 2.38 14.97 14.97 0 0 0 .17 2.44 3.06 3.06 0 0 0 .73 1.58 2.52 2.52 0 0 0 3.25 0 3.1 3.1 0 0 0 .72-1.58 14.42 14.42 0 0 0 .17-2.44 13.21 13.21 0 0 0-.18-2.37zm9.9-3.26a3.49 3.49 0 1 1-.85 2.28 3.02 3.02 0 0 1 .85-2.28zm1.12 2.28c0 1 .35 1.5 1.05 1.5a.96.96 0 0 0 .8-.37 1.87 1.87 0 0 0 .29-1.13c0-1.01-.36-1.51-1.09-1.51-.72 0-1.05.5-1.05 1.5zm10.3-2.87-7.51 13.38h-2.59l7.5-13.38zm-3.02 8.2a3.02 3.02 0 0 1 2.19-.8 2.96 2.96 0 0 1 2.17.8 3.02 3.02 0 0 1 .83 2.29 3.09 3.09 0 0 1-.83 2.3 2.96 2.96 0 0 1-2.17.82 3.02 3.02 0 0 1-2.22-.82 3.07 3.07 0 0 1-.84-2.3 3 3 0 0 1 .84-2.28zm1.08 2.29c0 1 .36 1.51 1.09 1.51.72 0 1.07-.5 1.07-1.51 0-1-.36-1.51-1.07-1.51-.71 0-1.1.52-1.1 1.51zm113.39 238.28-5.09 11.9h-2.71l5.12-11.58h-6.54v-2.3h9.2zm10.95.29h-6.2v3.27a2.87 2.87 0 0 1 1.15-.81 4.03 4.03 0 0 1 1.59-.32 4.32 4.32 0 0 1 2.52.67 3.88 3.88 0 0 1 1.41 1.71 5.68 5.68 0 0 1 .44 2.23 4.98 4.98 0 0 1-1.25 3.52q-1.25 1.34-3.57 1.34a5.24 5.24 0 0 1-3.47-1.1 4.1 4.1 0 0 1-1.47-2.84h2.6a2.06 2.06 0 0 0 .77 1.23 2.47 2.47 0 0 0 1.5.46 2.06 2.06 0 0 0 1.71-.71 2.87 2.87 0 0 0 .58-1.88 2.52 2.52 0 0 0-.59-1.8 2.24 2.24 0 0 0-1.71-.62 2.1 2.1 0 0 0-2.1 1.47h-2.53v-8.17h8.64zm7.99-1.16a3.49 3.49 0 1 1-.85 2.27 3.02 3.02 0 0 1 .85-2.27zm1.12 2.27c0 1 .35 1.5 1.05 1.5a.96.96 0 0 0 .8-.36 1.86 1.86 0 0 0 .3-1.14c0-1.01-.37-1.51-1.1-1.51-.72 0-1.05.52-1.05 1.5zm10.3-2.87-7.5 13.38h-2.6l7.49-13.38zm-3.02 8.21a3.02 3.02 0 0 1 2.2-.81 2.95 2.95 0 0 1 2.16.81 3.02 3.02 0 0 1 .83 2.28 3.09 3.09 0 0 1-.83 2.3 2.94 2.94 0 0 1-2.17.82 3.02 3.02 0 0 1-2.2-.82 3.07 3.07 0 0 1-.84-2.3 3.02 3.02 0 0 1 .84-2.28zm1.08 2.28c0 1 .37 1.51 1.1 1.51.72 0 1.06-.5 1.06-1.5 0-1.02-.36-1.52-1.07-1.52-.7 0-1.1.52-1.1 1.51zM288.93 138.8a17.62 17.62 0 0 0 0-10.84l-6.39-1.65c0 .07.04.14.06.2a21.18 21.18 0 0 0-.89-2.3l3.57-5.87a17.68 17.68 0 0 0-7.67-7.66l-5.68 3.35.2.11a21.92 21.92 0 0 0-2.27-1l-1.63-6.67a17.66 17.66 0 0 0-10.83 0l-1.65 6.39.2-.06a21.65 21.65 0 0 0-2.3.89l-5.87-3.57a17.65 17.65 0 0 0-7.67 7.66l3.35 5.69.12-.2a21.4 21.4 0 0 0-1 2.27l-6.68 1.65a17.66 17.66 0 0 0 0 10.83l6.39 1.65c0-.07-.04-.14-.06-.2a21.18 21.18 0 0 0 .89 2.3l-3.57 5.87a17.65 17.65 0 0 0 7.66 7.66l5.69-3.34-.2-.12a20.87 20.87 0 0 0 2.27 1l1.63 6.68a17.66 17.66 0 0 0 10.83 0l1.66-6.41-.2.05a20.65 20.65 0 0 0 2.3-.89l5.87 3.57a17.65 17.65 0 0 0 7.64-7.66l-3.34-5.69-.12.2a20.87 20.87 0 0 0 1-2.27zm-26.51 4.1a9.92 9.92 0 1 1 9.92-9.92 9.92 9.92 0 0 1-9.92 9.92z" data-primary="true"/>
  <path fill="#fff" d="M269.6 213.14a17.66 17.66 0 0 0 0-10.83l-6.39-1.66c0 .07.04.14.06.22a21.18 21.18 0 0 0-.89-2.31l3.57-5.87a17.68 17.68 0 0 0-7.67-7.67l-5.68 3.35.2.12a20.87 20.87 0 0 0-2.27-1l-1.63-6.68a17.66 17.66 0 0 0-10.83 0l-1.66 6.38.22-.05a21.65 21.65 0 0 0-2.32.88l-5.86-3.56a17.68 17.68 0 0 0-7.67 7.68l3.35 5.69.11-.2a20.87 20.87 0 0 0-1 2.27l-6.68 1.63a17.62 17.62 0 0 0 0 10.83l6.39 1.66c0-.08-.04-.14-.06-.21a22 22 0 0 0 .89 2.3l-3.57 5.87a17.68 17.68 0 0 0 7.67 7.66l5.68-3.35-.2-.11a20.87 20.87 0 0 0 2.27 1l1.63 6.68a17.66 17.66 0 0 0 10.84 0l1.65-6.39-.21.06a21.65 21.65 0 0 0 2.3-.89l5.87 3.57a17.68 17.68 0 0 0 7.67-7.67l-3.34-5.72-.11.2a21.4 21.4 0 0 0 1-2.27zm-26.51 4.11a9.93 9.93 0 1 1 9.92-9.92 9.93 9.93 0 0 1-9.93 9.92z"/>
  <path fill="#2f2e41" d="M392.04 296.26h-53.67a.75.75 0 0 1-.5-.2l-41.34-37.36a.75.75 0 0 1 1-1.11l41.12 37.16h53.38a.76.76 0 1 1 0 1.51zM269.84 69.2a.73.73 0 0 1-.5-.18l-22.76-20.19H192.1a.76.76 0 0 1 0-1.5h54.75a.76.76 0 0 1 .5.19l22.98 20.37a.75.75 0 0 1-.5 1.31z" data-secondary="true"/>
  <path fill="#f9b499" d="m89.25 233.08-2.47 65.82c3.53 1.59 10.45-2.42 10.45-2.42l12.1-64.7z"/>
  <path fill="#0071f2" d="m84.05 295.9-.65 9.21 27.7.8c2.67-10-13.86-8.63-13.86-8.63v-.79a15.82 15.82 0 0 1-13.19-.58z" data-primary="true"/>
  <path d="m84.05 295.9-.65 9.21 27.7.8c2.67-10-13.86-8.63-13.86-8.63v-.79a15.82 15.82 0 0 1-13.19-.58z" opacity=".2"/>
  <path fill="#f9b499" d="m93.25 231.73-6.22 72.11-10.72-.25s-6.9-53.57-7.22-57.57c-.32-4 1.24-14.83 1.5-15.5z"/>
  <path fill="#f7a48b" d="M92.78 236.7c-.04.45-.1 1-.15 1.81l-.65 6.66c-.53 5.63-1.28 13.42-2.01 21.98a2676.6 2676.6 0 0 0-1.8 22c-.21 2.79-.4 5.1-.5 6.68-.06.75-.15 1.36-.15 1.81a3.44 3.44 0 0 1-.1.64v-.65c0-.45.05-1 .09-1.82l.38-6.67a989.7 989.7 0 0 1 3.83-44l.8-6.64.22-1.82a3.87 3.87 0 0 1 .11-.62 3.06 3.06 0 0 1-.07.64z"/>
  <path fill="#0071f2" d="M75.68 298.96c-.76.24-1.95 1-2.02 1.78a5.94 5.94 0 0 0 1.01 5.15c3.27 4.27 10.4 12 12.59 14.3a2.01 2.01 0 0 0 2.11.5 2.38 2.38 0 0 0 .42-.22 6.59 6.59 0 0 0 2.35-8.61l-4.8-9.42v-2.15c-3.76 4.31-11.58-1.39-11.58-1.39z" data-primary="true"/>
  <path fill="#2f2e41" d="M75.61 94.96s4.82-.43 5.83-.12a115.57 115.57 0 0 0 23.44 4.48 8.87 8.87 0 0 0 4.09-.33 3.47 3.47 0 0 0 2.06-2.31c-.06.79-.06 1.58-.06 2.37l7.55 2.15c1.38-2.3 1.3-5.25.59-7.84-.72-2.6-2.02-5-3.02-7.5-3.89-9.87-2.82-19.79-2.38-31.36l-37.26-.39c-2.66 11.99-3.6 28.98-.84 40.85z" data-secondary="true"/>
  <path fill="#f9b499" d="m143.24 116.77.63 6.84 6.98-1.82s13.46 1.01 14.67.8a5.04 5.04 0 0 0 1.52-.4l.18-.66a13.54 13.54 0 0 0 3.06-.1c1.48-.27.33-1.02 1.48-1.29a3.96 3.96 0 0 0 1.51-.6l.07-1.14c1.45-.5 0-1.97 0-1.97l-8.66-.25c-1.19-.47-7.05-.13-7.18-.4-.13-.27 3.3-.79 5.16-1.06l.14-.02a1 1 0 0 0 .72-1.27c-1.49-1.33-4.95-.22-6.02-.29-1.07-.07-6.08-.55-7.25 0a4.43 4.43 0 0 0-1.76 2.28z"/>
  <path fill="#f7a48b" d="M152.4 115.36a7.44 7.44 0 0 1 2.37 1.01 5.47 5.47 0 0 1 1.8 1.9 2.01 2.01 0 0 1 .35 1 9.72 9.72 0 0 1-.56-.9 6.21 6.21 0 0 0-1.78-1.73 19 19 0 0 0-3.29-1.43 2.56 2.56 0 0 1 1.1.15zm12 5.13a5.2 5.2 0 0 1 2.15.38c.5.35.56.79.5.79a1.9 1.9 0 0 0-.63-.54 6.7 6.7 0 0 0-2.05-.25 13.16 13.16 0 0 1-3.02-.37 13.27 13.27 0 0 1 3.05-.01zm-1.05-1.76a22.57 22.57 0 0 0 3.4.24 16.11 16.11 0 0 1 1.9.05 5.04 5.04 0 0 1 1.51.4 1.95 1.95 0 0 1 .87.64c.15.25.07.41.04.4-.03 0 0-.15-.15-.32a2.15 2.15 0 0 0-.85-.5 8.8 8.8 0 0 0-3.34-.33 15.83 15.83 0 0 1-3.44-.34 5.93 5.93 0 0 1-1.38-.36 5.86 5.86 0 0 1 1.44.12zm1.35-1.58c.93 0 2.21.07 3.61.14.72.08 1.39.03 2.02.08a7.6 7.6 0 0 1 1.64.27 2.4 2.4 0 0 1 1 .5c.19.21.22.38.19.39-.04.02-.08-.13-.28-.28a2.46 2.46 0 0 0-1-.36 9.34 9.34 0 0 0-1.59-.18c-.6-.06-1.29 0-2.01-.06-1.42-.08-2.7-.16-3.63-.24a6.76 6.76 0 0 1-1.5-.2 6.5 6.5 0 0 1 1.54-.06z"/>
  <path fill="#f9b499" d="m101.97 84.94-14.29-4.85-3.23-.32-1.24 6 2.56 7.84 4.53 1.9 8.22 1.83 8.13-.17 1.74-3.4z"/>
  <path fill="#e6e7e8" d="M121.31 108.93a25.3 25.3 0 0 1 .97 10.38c-.63 6.04-3.62 7.86-3.62 7.86l1.55 35.89-39.46-6.55-4.8-48.03 10.93-17.07s12.09 3.55 16.87 3.66c4.8.1 4.38-2.55 4.38-2.55z"/>
  <path fill="#2f2e41" d="M121.26 155.82s-1.06 7.23-1.45 17.15c-.39 9.93-11.31 62.95-11.31 62.95l-38.66-2.07s-5.19-42.14-7.24-55.54c-2.06-13.4 6.26-31.78 6.26-31.78z" data-secondary="true"/>
  <path d="M94.13 199.98c1.26 11.65 2.19 21.15 2.06 21.15-.13 0-1.2-9.43-2.48-21.08-1.26-11.64-2.17-21.14-2.05-21.14.12 0 1.2 9.43 2.47 21.07z" opacity=".2"/>
  <path fill="#263238" d="M94.25 138.22a1.83 1.83 0 0 1 .73-1.09 2.01 2.01 0 0 1 1.95-.22 2.04 2.04 0 0 1-.21 3.86 2.01 2.01 0 0 1-1.9-.43 1.86 1.86 0 0 1-.63-1.16.88.88 0 0 1 0-.5c.03 0 .03.17.1.46a1.85 1.85 0 0 0 .65 1 1.77 1.77 0 0 0 1.65.31 1.74 1.74 0 0 0 .18-3.26 1.77 1.77 0 0 0-1.68.14 1.87 1.87 0 0 0-.73.93l-.15.44a.76.76 0 0 1 .04-.48z"/>
  <path fill="#0071f2" d="m101.98 80.96-.2 4.44s6.34 8.62 8.83 12.61a363.75 363.75 0 0 1 8.61 14.87c4.5 8.45-1.67 14.16-1.67 14.16l-.31 5.76-1.34 43.73 8.9-2.37-1.87-36.63a4.29 4.29 0 0 0 5.62 1.44c7.6-4.08 21.66-16.29 21.66-16.29l-4.75-9.04-17.4 7.73v-.43c0-.42-2.47-4.7-2.47-4.7l.13-2.27c.03-.85-3.24-6.16-3.24-6.16s-.81-8.75-2.05-12.38c-1.23-3.63-5.5-9-6.61-9.63-1.11-.63-10.13-2.67-10.13-2.67z" data-primary="true"/>
  <path fill="#263238" d="M124.36 131.6a17.15 17.15 0 0 1 .42-4.68 10.83 10.83 0 0 1 1.86-4.31 4.16 4.16 0 0 1 1.08-.95 1.09 1.09 0 0 1 .5-.2 6.01 6.01 0 0 0-1.37 1.3 11.78 11.78 0 0 0-1.71 4.24 20.37 20.37 0 0 0-.5 4.59 17.66 17.66 0 0 1 0 1.93 6.7 6.7 0 0 1-.28-1.93z"/>
  <path fill="#fff" d="M121.4 121.77a10.2 10.2 0 0 0 .5-4.75 27.5 27.5 0 0 0-2.1-6.88c-1-2.52-2.07-5.37-3.39-8.22a26.97 26.97 0 0 0-2.27-3.95c-.84-1.2-1.81-2.26-2.7-3.3a33.62 33.62 0 0 1-4.07-6.04 85.7 85.7 0 0 0-2.67-4.09l-.8-1.09a2.05 2.05 0 0 1-.25-.38 2.52 2.52 0 0 1 .31.35l.8 1.04c.7.93 1.68 2.29 2.77 4.03a35.04 35.04 0 0 0 4.08 5.97 41.1 41.1 0 0 1 2.74 3.3 27.39 27.39 0 0 1 2.3 4.04c1.34 2.88 2.35 5.7 3.37 8.24a26.6 26.6 0 0 1 2.04 6.97 9.9 9.9 0 0 1-.6 4.86 7.74 7.74 0 0 1-.61 1.19 2.32 2.32 0 0 1-.3.36 12.73 12.73 0 0 0 .85-1.65z" opacity=".2"/>
  <path fill="#263238" d="m123.33 141.9-.37-2.03c-.3-1.72-.76-4.1-1.13-6.74a36.97 36.97 0 0 1-.45-6.83c0-.44.05-.84.08-1.18l.1-.89a3.16 3.16 0 0 1 .16-.75c.06 0-.09 1.08-.09 2.82a46.36 46.36 0 0 0 .53 6.78l1.04 6.75c.12.87.21 1.57.26 2.05a3.46 3.46 0 0 1 0 .8 3.34 3.34 0 0 1-.13-.78z"/>
  <path d="M128.1 121.39c-1.5 1.14-1.98 2.61-2.51 4.44-.54 1.84-.7 3.75-1.14 5.61a.78.78 0 0 1-.15.36c-.31.35-.88.03-1.1-.37a4.24 4.24 0 0 1-.19-2.8 13.56 13.56 0 0 1 1.48-4.53 5.44 5.44 0 0 1 3.53-2.73" opacity=".3"/>
  <path fill="#0071f2" d="M84.57 83.82c0 .45 6.4 15.06 8.9 21.81 2.49 6.75 5.84 22.69 6.54 28.89.7 6.2-2.16 40.28-2.16 40.28l-34.31-11.78c1.1-9.83 10.42-29.6 10.42-29.6l-3.7-20.44s-7.93-25.35-6.32-27.2c1.6-1.84 14.45-4.42 14.45-4.42l2.24-2.43 4.53-.5s-.57 4.95-.59 5.39z" data-primary="true"/>
  <path d="M73.57 137.26a3 3 0 0 0 1.58 1.01c1.88.55 3.88-.05 5.83-.74s3.95-1.43 5.9-2.22a11.85 11.85 0 0 0 2.77-1.42 21.15 21.15 0 0 1 1.96-1.58c2.1-1.23 5.76.04 7.97-.98l-.18-1.12c-1.38-.33-2.06-.36-3.44-.67-3.53-.75-6.94 1.32-10.38 2.38-3.63 1.1-7.56 1.1-11.03 2.67a2.52 2.52 0 0 0-1.18.9 1.71 1.71 0 0 0 .2 1.77z" opacity=".3"/>
  <path fill="#0071f2" d="M59.45 90.76c-1.47 3.22-2.01 8.75-2.01 8.75l-3.16 12.46-3.67 19.75a12.49 12.49 0 0 0 1.82 4.92c1.56 2.42 7.46 1.83 13.37.7 5.92-1.11 23.92-6.54 23.92-6.54l-1.37-9.57-19.24.26s7.09-15.73 6.08-21.15c-1-5.42-6.04-16.26-6.54-16.5-1.9-.85-7.73 3.72-9.2 6.92zm19.37-8.58.12 1.43c.11 1.22.3 3.02.7 5.18a52.37 52.37 0 0 0 1.97 7.5c.47 1.38 1 2.81 1.67 4.26a8.23 8.23 0 0 0 .5 1.06 1.56 1.56 0 0 0 .93.56l2.37.75.8.23.35.11-.32.2-2.95 1.94.04-.25 8.03 11.92 2.38 3.52.61.96a1.58 1.58 0 0 1 .2.34 1.8 1.8 0 0 1-.24-.3l-.68-.93-2.42-3.48-8.08-11.83-.1-.15.15-.1 2.95-1.92.05.3-.8-.23-2.39-.74a1.83 1.83 0 0 1-1.1-.7 8.21 8.21 0 0 1-.55-1.11 52.92 52.92 0 0 1-1.66-4.29 50.98 50.98 0 0 1-1.9-7.55 47.74 47.74 0 0 1-.59-5.23c-.05-.63-.05-1.1-.05-1.43a2.06 2.06 0 0 1 0-.5 4.12 4.12 0 0 1 .01.48z" data-primary="true"/>
  <path fill="#fff" d="m78.82 82.18.12 1.43c.11 1.22.3 3.02.7 5.18a52.37 52.37 0 0 0 1.97 7.5c.47 1.38 1 2.81 1.67 4.26a8.23 8.23 0 0 0 .5 1.06 1.56 1.56 0 0 0 .93.56l2.37.75.8.23.35.11-.32.2-2.95 1.94.04-.25 8.03 11.92 2.38 3.52.61.96a1.58 1.58 0 0 1 .2.34 1.8 1.8 0 0 1-.24-.3l-.68-.93-2.42-3.48-8.08-11.83-.1-.15.15-.1 2.95-1.92.05.3-.8-.23-2.39-.74a1.83 1.83 0 0 1-1.1-.7 8.21 8.21 0 0 1-.55-1.11 52.92 52.92 0 0 1-1.66-4.29 50.98 50.98 0 0 1-1.9-7.55 47.74 47.74 0 0 1-.59-5.23c-.05-.63-.05-1.1-.05-1.43a2.06 2.06 0 0 1 0-.5 4.12 4.12 0 0 1 .01.48z" opacity=".2"/>
  <path d="M68.18 84.07a3.66 3.66 0 0 1 1.11.2 6.77 6.77 0 0 1 3.14 2.63 14.3 14.3 0 0 1 1.39 2.52 21.11 21.11 0 0 1 1.1 3.1 23.74 23.74 0 0 1 .9 7.44 17.83 17.83 0 0 1-.6 3.83l-.95 3.48a158.2 158.2 0 0 1-1.76 5.86c-.53 1.65-1 2.98-1.39 3.88-.2.44-.34.79-.47 1a1.37 1.37 0 0 1-.2.34 2.65 2.65 0 0 1 .14-.36l.4-1.04c.34-.9.79-2.25 1.29-3.91.5-1.67 1.13-3.63 1.68-5.86.55-2.24 1.44-4.64 1.51-7.27a24 24 0 0 0-.86-7.35 23.67 23.67 0 0 0-1.06-3.06 14.71 14.71 0 0 0-1.34-2.48 6.76 6.76 0 0 0-3.02-2.61 5.78 5.78 0 0 0-1.46-.32 1.2 1.2 0 0 1 .45-.02zm-2.43 36.43a14.15 14.15 0 0 1 3.72 1.11c-.04.08-1.7-.37-3.8-.79-2.08-.42-3.79-.62-3.79-.72a13.33 13.33 0 0 1 3.87.4z" opacity=".2"/>
  <path fill="#455a64" d="m138.35 127.92-28.05 32s-21.56-22.07-20.57-21.96c.44.04 28.12-29.47 28.12-29.47z"/>
  <path fill="#f9b499" d="m88.61 122.41 1.3 8.3 3.22-.73s7.55.59 9.09.2c1.54-.4 5.32-.87 5.32-.87a2.17 2.17 0 0 0 .11 1.45 2.1 2.1 0 0 0 1.3 1l1.3-2.7c.6 1.08 1.5.07 1.5.07l.9-2.37c.7 1.38 1.9.1 1.9.1l.27-3.16a5.04 5.04 0 0 0 1.58 1.04c.73.23.79-1 .79-1l-3.3-4.4-7.52-1.17-11.17 4.39z"/>
  <path fill="#f7a48b" d="M109.3 119.27a11.46 11.46 0 0 1 1.47.42 18.3 18.3 0 0 1 1.76.65 8.93 8.93 0 0 1 1.64.92 1.21 1.21 0 0 1 .5.74 4.43 4.43 0 0 1 .09.71 3.25 3.25 0 0 1-.05 1.41c-.04 0-.06-.5-.2-1.37a5.8 5.8 0 0 0-.13-.68.86.86 0 0 0-.4-.54 10.12 10.12 0 0 0-1.59-.87 24.6 24.6 0 0 0-1.71-.67c-.54-.2-1-.37-1.42-.47a3.92 3.92 0 0 0-1.35-.09 1.75 1.75 0 0 1 1.39-.16zm-.84 2.69c.79.22 1.9.42 3.09.85a2.2 2.2 0 0 1 .87.45 2.75 2.75 0 0 1 .39.8 2.96 2.96 0 0 1 .23 1.47 4.77 4.77 0 0 1-.3.93 2.55 2.55 0 0 1-.15.33 1.17 1.17 0 0 1 0-.36 4.74 4.74 0 0 0 .18-.94 4.43 4.43 0 0 0-.62-2.01 1.9 1.9 0 0 0-.74-.36c-1.15-.42-2.24-.65-3.02-.93a3.32 3.32 0 0 1-1.2-.6 11.28 11.28 0 0 1 1.27.37zm2.04 6.37a1.74 1.74 0 0 0 .1-.94 1.19 1.19 0 0 0-.74-.8 3.75 3.75 0 0 0-1.2-.22l-1.05-.1c-.3-.03-.56-.09-.7-.09h-.24c-.02 0 .04-.16.22-.16a4.3 4.3 0 0 1 .72 0h1.06a3.87 3.87 0 0 1 1.33.23 1.47 1.47 0 0 1 .91 1.06 1.74 1.74 0 0 1-.2 1.11 2.6 2.6 0 0 1-.6.8 5.22 5.22 0 0 1 .4-.89z"/>
  <path fill="#2f2e41" d="M75.44 62.8c.81 5.34 3.9 6.77 8.44 9.66l28.15-11.87c2.23-2.25 3.36-10.93.93-17.62-1.19-3.35-2.2-7-5.14-9.01a18.63 18.63 0 0 0-7.52-3.23c-5.22-.68-10.01-.18-14.42 2.7-4.95 3.22-6.62 9.12-8.3 14.8-1.04 3.52-2.69 10.98-2.14 14.58z" data-secondary="true"/>
  <path fill="#f9b499" d="m82.97 41.97-.5 44.3c9.24 4.38 16.74 5.69 19.4-1.64l.28-6.16.2-2.86s7.13-.87 9.03-10c.96-4.54 1.06-12.05.96-18.2-.09-5.54-3.42-12.47-8.95-12.15l-17.4 3.53a3.25 3.25 0 0 0-3.02 3.18z"/>
  <path fill="#f7a48b" d="M102.2 77.87c-9.24.43-11.98-6.15-11.98-6.15a23.46 23.46 0 0 0 12.16 3.87z"/>
  <path fill="#2f2e41" d="M103.55 33.82a25.97 25.97 0 0 0-13.57-.56c-3.17.73-6.44 2.28-7.9 5.18-2.13 4.2.28 9.42-1.01 13.93a3.34 3.34 0 0 0 3.95.23 6.55 6.55 0 0 0 2.52-3.33l-.34 1.88c2.79.5 5.64-.87 7.67-2.86 2.02-1.99 3.36-4.53 4.67-7.05a12.4 12.4 0 0 1-3.16 6.89 3.37 3.37 0 0 0 2.94-.68 7.44 7.44 0 0 0 1.9-2.46 20.4 20.4 0 0 0 2.37-10.81" data-secondary="true"/>
  <path fill="#263238" d="M103.22 34.44v-.2.2z"/>
  <path fill="#2f2e41" d="M101.38 48.46a4.6 4.6 0 0 1 1.99.24 2.22 2.22 0 0 0 1.93-.23 2.38 2.38 0 0 0 .65-1.18 27.52 27.52 0 0 0 1.11-9.3 28.33 28.33 0 0 1 1.65 5.35 10.07 10.07 0 0 1-.43 5.53.8.8 0 0 0 1.11.08 1.9 1.9 0 0 0 .58-1.1 13.94 13.94 0 0 0 .1-4.67c.78 1.7.94 3.63 1.28 5.46.35 1.84 1.01 3.75 2.47 4.9a24.56 24.56 0 0 0 .38-7.05 21.33 21.33 0 0 0-1.58-5.75 16.67 16.67 0 0 0-3.27-5.54c-2.52-2.6-3.73-1.68-5.54-.92l-.58.18a26.3 26.3 0 0 1-1.85 14zM94.7 95.4c-2.7 1.79-5.53 2.65-8.19 3.68a19.03 19.03 0 0 1-5.93-6.6c.34 1.5.75 3.01 1.24 4.48l-.8.65a37.86 37.86 0 0 1-4.03-19.57l5.84-31.22 8.06-.43c1.57 6.04-3.27 12.26-2.15 18.4.47 2.51 1.92 4.84 2.01 7.41.08 2.44-1.1 4.76-1.04 7.18.08 2.87 1.79 5.4 3.24 7.87 1.46 2.47 2.7 5.44 1.76 8.14z" data-secondary="true"/>
  <path fill="#0071f2" d="M362.75 171.95h53.27v53.27h-53.27z" data-primary="true"/>
  <path fill="#fff" d="M381.05 196.8a1.6 1.6 0 0 1 .25-.86 1.7 1.7 0 0 1 .73-.63 3.2 3.2 0 0 1 2.39 0 1.74 1.74 0 0 1 .73.63 1.63 1.63 0 0 1 .24.87 1.51 1.51 0 0 1-.24.85 1.62 1.62 0 0 1-.63.57 1.63 1.63 0 0 1 1 1.57 1.82 1.82 0 0 1-.3 1.05 1.93 1.93 0 0 1-.83.68 3.1 3.1 0 0 1-2.38 0 1.91 1.91 0 0 1-.83-.68 1.82 1.82 0 0 1-.3-1.05 1.73 1.73 0 0 1 .27-.96 1.65 1.65 0 0 1 .76-.61 1.51 1.51 0 0 1-.86-1.42zm1.36 2.22a.9.9 0 0 0-.32.73.92.92 0 0 0 .3.72 1.18 1.18 0 0 0 .83.27 1.14 1.14 0 0 0 .82-.28.92.92 0 0 0 .3-.7.9.9 0 0 0-.3-.74 1.22 1.22 0 0 0-.82-.25 1.28 1.28 0 0 0-.83.25zm1.5-2.7a1.17 1.17 0 0 0-1.4 0 .86.86 0 0 0-.26.67.81.81 0 0 0 .27.64 1.12 1.12 0 0 0 1.38 0 .8.8 0 0 0 .28-.64.87.87 0 0 0-.25-.68zm6.93-.05h-2.86v1.5a1.36 1.36 0 0 1 .5-.36 1.9 1.9 0 0 1 .74-.15 1.98 1.98 0 0 1 1.15.31 1.76 1.76 0 0 1 .66.79 2.7 2.7 0 0 1 .2 1 2.29 2.29 0 0 1-.58 1.64 2.13 2.13 0 0 1-1.64.62 2.43 2.43 0 0 1-1.6-.5 1.91 1.91 0 0 1-.69-1.32h1.21a.97.97 0 0 0 .36.56 1.14 1.14 0 0 0 .7.21.96.96 0 0 0 .8-.32 1.32 1.32 0 0 0 .26-.87 1.17 1.17 0 0 0-.27-.83 1.04 1.04 0 0 0-.8-.29.97.97 0 0 0-.96.68h-1.18v-3.78h3.99zm1.62-.54a1.61 1.61 0 1 1-.39 1.05 1.4 1.4 0 0 1 .4-1.05zm.5 1.05q0 .7.51.7a.45.45 0 0 0 .37-.17.88.88 0 0 0 .13-.5c0-.47-.17-.7-.5-.7-.33 0-.5.21-.5.67zm4.75-1.32-3.46 6.17h-1.2l3.44-6.17zm-1.39 3.78a1.4 1.4 0 0 1 1-.37 1.36 1.36 0 0 1 1.01.37 1.65 1.65 0 0 1 0 2.11 1.37 1.37 0 0 1-1 .38 1.38 1.38 0 0 1-1.01-.38 1.41 1.41 0 0 1-.39-1.05 1.38 1.38 0 0 1 .38-1.06zm.5 1.06q0 .7.5.7.51 0 .51-.7c0-.46-.17-.69-.5-.69-.34 0-.52.23-.52.69z"/>
  <path fill="#2f2e41" d="M389.38 177.2c-12.38 0-22.42 9.81-22.42 21.92 0 12.1 10.04 21.9 22.42 21.9 12.38 0 22.42-9.8 22.42-21.9 0-12.1-10.04-21.92-22.42-21.92zm0 33.8c-6.85 0-12.4-5.32-12.4-11.88 0-6.56 5.53-11.89 12.4-11.89s12.4 5.32 12.4 11.89c0 6.56-5.55 11.88-12.4 11.88z" data-secondary="true"/>
  <path fill="#fff" d="M411.8 199.12c0-12.09-10.04-21.92-22.42-21.92v10.03c6.85 0 12.4 5.32 12.4 11.89z"/>
  <g data-name="freepik--Chart--inject-89">
    <path fill="#fafafa" d="M253.7 313.74h-76.37v-60.47l76.4-.15z"/>
    <path fill="#2f2e41" d="M253.7 313.74v-60.62l.07.07-76.32.15h-.13l.1-.07v60.47l-.09-.06 76.38.06-76.38.07h-.07V253.2h.2l76.32-.11h.07v.06l-.16 60.6z" data-secondary="true"/>
    <path fill="#2f2e41" d="M248.56 308.07h-4l-10.9.03H182.1v-.1c0-10.3 0-19.13.04-25.42V308l-.1-.1h51.47l10.93.07h3.72z" data-secondary="true"/>
    <path fill="#0071f2" d="M187.58 299.32h6.7v6.71h-6.7zm9.83-4.8h6.7v11.51h-6.7zm9.87-5.45h6.7v16.96h-6.7zm9.57-6.07h6.7v23.03h-6.7zm9.78-7.78h6.7v30.8h-6.7zm9.72-5.92h6.7v36.41h-6.7z" data-primary="true"/>
    <path fill="#fff" d="M197.41 294.52h6.7v11.51h-6.7zm38.94-25.22h6.7v36.41h-6.7z" opacity=".5"/>
    <path fill="#2f2e41" d="m187.58 292.43.1-.06.25-.18 1.01-.68 3.82-2.52 13.32-8.72.15-.1v3.19l-.15-.09 5.24-3.52 18.5-12.4 5.62-3.7 1.5-1 .4-.25a.61.61 0 0 1 .15-.09l-.13.1-.39.27-1.5 1.01-5.6 3.83-18.46 12.43-5.24 3.52-.16.11v-3.2l.15.08c-5.35 3.5-10.03 6.5-13.34 8.64l-3.87 2.52-1.04.66-.27.16c-.02-.02-.05 0-.06 0z" data-secondary="true"/>
    <path fill="#2f2e41" d="M237.54 265.12a3.24 3.24 0 0 1-.08-.82v-2.02l.1.11h-2.45a3.96 3.96 0 0 1-.91-.08 3.96 3.96 0 0 1 .91-.07h2.56v2.13a4.4 4.4 0 0 1-.13.75zm-23.79-3.98c0 .06-5.86.1-13.1.1s-13.08-.04-13.08-.1 5.86-.1 13.09-.1 13.09.06 13.09.1zm-16.58 2.41c0 .06-2.2.1-4.9.1s-4.91-.04-4.91-.1 2.2-.1 4.9-.1 4.91.04 4.91.1zm5.23 0a17.05 17.05 0 0 1-3.8 0 17.05 17.05 0 0 1 3.8 0z" data-secondary="true"/>
    <path fill="#fff" d="M216.85 283h6.7v23.03h-6.7z" opacity=".3"/>
  </g>
</svg>
