<?xml version="1.0" encoding="UTF-8" standalone="no"?>
<svg
   xmlns:dc="http://purl.org/dc/elements/1.1/"
   xmlns:cc="http://creativecommons.org/ns#"
   xmlns:rdf="http://www.w3.org/1999/02/22-rdf-syntax-ns#"
   xmlns:svg="http://www.w3.org/2000/svg"
   xmlns="http://www.w3.org/2000/svg"
   xmlns:sodipodi="http://sodipodi.sourceforge.net/DTD/sodipodi-0.dtd"
   xmlns:inkscape="http://www.inkscape.org/namespaces/inkscape"
   width="478.76007"
   height="344.78394"
   viewBox="0 0 478.76007 344.78393"
   version="1.1"
   id="svg1654"
   sodipodi:docname="leader.svg"
   inkscape:version="0.92.4 (5da689c313, 2019-01-14)">
  <metadata
     id="metadata1660">
    <rdf:RDF>
      <cc:Work
         rdf:about="">
        <dc:format>image/svg+xml</dc:format>
        <dc:type
           rdf:resource="http://purl.org/dc/dcmitype/StillImage" />
        <dc:title></dc:title>
      </cc:Work>
    </rdf:RDF>
  </metadata>
  <defs
     id="defs1658"><style
   id="style5909">
        .cls-bg21{fill:#f8f8ff;}
        .cls-bg22{fill:#bac5f4;}
        .cls-bg23{fill:#e1e6fb;}
      </style>
<clipPath
   id="fe9b49f8-e166-4e47-ac65-a2d5a59265ce">
  <path
     fill="none"
     d="M734.19,333.45c-6.71,56.78-32.6,122.79-84.4,153.12-78.23,45.82-71.69,116.3-224.38,147a313.33,313.33,0,0,1-67.69,6.39,260.44,260.44,0,0,1-33.24-2.72c-97-14.18-162.34-81.63-186.3-163C106.7,367,169.62,297,211.36,254.71S283.64,80.85,433.51,49.62A304.56,304.56,0,0,1,503.09,43c53.32,1.36,111.48,18.82,151.72,55.36q4.56,4.08,8.83,8.52C719.57,164.25,743.34,256.05,734.19,333.45Z"
     data-name="SVGID"
     id="b1f04b0c-412f-4f15-bef7-21759d12595e" />
</clipPath>

	
	
	
	
	
	
	
	
	
</defs>
  <sodipodi:namedview
     pagecolor="#ffffff"
     bordercolor="#666666"
     borderopacity="1"
     objecttolerance="10"
     gridtolerance="10"
     guidetolerance="10"
     inkscape:pageopacity="0"
     inkscape:pageshadow="2"
     inkscape:window-width="1366"
     inkscape:window-height="705"
     id="namedview1656"
     showgrid="false"
     fit-margin-top="0"
     fit-margin-left="0"
     fit-margin-right="0"
     fit-margin-bottom="0"
     inkscape:zoom="0.69118012"
     inkscape:cx="474.03447"
     inkscape:cy="160.01485"
     inkscape:window-x="1912"
     inkscape:window-y="113"
     inkscape:window-maximized="1"
     inkscape:current-layer="svg1654" />
  <g
     id="g962"
     transform="matrix(0.77439741,0,0,0.77439741,94.347579,25.386856)">
</g>
  <g
     id="g964"
     transform="matrix(0.77439741,0,0,0.77439741,94.347579,25.386856)">
</g>
  <g
     id="g966"
     transform="matrix(0.77439741,0,0,0.77439741,94.347579,25.386856)">
</g>
  <g
     id="g968"
     transform="matrix(0.77439741,0,0,0.77439741,94.347579,25.386856)">
</g>
  <g
     id="g970"
     transform="matrix(0.77439741,0,0,0.77439741,94.347579,25.386856)">
</g>
  <g
     id="g972"
     transform="matrix(0.77439741,0,0,0.77439741,94.347579,25.386856)">
</g>
  <g
     id="g974"
     transform="matrix(0.77439741,0,0,0.77439741,94.347579,25.386856)">
</g>
  <g
     id="g976"
     transform="matrix(0.77439741,0,0,0.77439741,94.347579,25.386856)">
</g>
  <g
     id="g978"
     transform="matrix(0.77439741,0,0,0.77439741,94.347579,25.386856)">
</g>
  <g
     id="g980"
     transform="matrix(0.77439741,0,0,0.77439741,94.347579,25.386856)">
</g>
  <g
     id="g982"
     transform="matrix(0.77439741,0,0,0.77439741,94.347579,25.386856)">
</g>
  <g
     id="g984"
     transform="matrix(0.77439741,0,0,0.77439741,94.347579,25.386856)">
</g>
  <g
     id="g986"
     transform="matrix(0.77439741,0,0,0.77439741,94.347579,25.386856)">
</g>
  <g
     id="g988"
     transform="matrix(0.77439741,0,0,0.77439741,94.347579,25.386856)">
</g>
  <g
     id="g990"
     transform="matrix(0.77439741,0,0,0.77439741,94.347579,25.386856)">
</g>
  <style
     id="style2491"
     type="text/css">
	.st0{fill:#FFC54D;}
	.st1{fill:#C19D72;}
	.st2{fill:#A88763;}
</style>
  <g
     id="g2501"
     transform="matrix(3.5094034,0,0,3.5094034,28.66459,-40.470715)">
    <path
       id="path2493"
       d="m 101,34 -0.2,-1.7 h -10 c 0.5,-3.4 0.8,-6.9 1,-10.5 0.1,-1.9 -1.4,-3.5 -3.1,-3.5 H 31.4 c -1.8,0 -3.2,1.6 -3.1,3.5 0.1,3.6 0.5,7.1 1,10.5 h -10 L 19,34 c -0.1,0.4 -1.2,10.6 5.4,19.8 4.3,6 11,10.1 19.7,12.2 2.8,2.8 5.9,4.9 9.2,6.2 -0.4,4.1 -0.9,8.1 -1.4,11.8 H 68.2 C 67.6,80.2 67.1,76.3 66.7,72.2 70,71 73.1,68.9 75.9,66 84.6,63.9 91.3,59.8 95.6,53.8 102.2,44.6 101,34.4 101,34 Z M 27.3,51.3 C 23.1,45.5 22.6,39.2 22.6,36.2 h 7.3 c 1.9,9.5 5.3,17.9 9.6,24.2 -5.2,-2 -9.3,-5.1 -12.2,-9.1 z m 65.4,0 c -2.9,4 -7,7.1 -12.2,9.1 4.4,-6.4 7.7,-14.7 9.6,-24.2 h 7.3 c 0,3 -0.6,9.3 -4.7,15.1 z"
       class="st0"
       inkscape:connector-curvature="0"
       style="fill:#ffc54d" />
    <path
       id="path2495"
       d="M 77,98.1 H 43 c -1,0 -1.8,-0.8 -1.8,-1.8 V 83.5 c 0,-1 0.8,-1.8 1.8,-1.8 h 34 c 1,0 1.8,0.8 1.8,1.8 v 12.8 c 0,1 -0.8,1.8 -1.8,1.8 z"
       class="st1"
       inkscape:connector-curvature="0"
       style="fill:#c19d72" />
    <path
       id="path2497"
       d="m 37.9,101.9 h 44.2 c 1,0 1.8,-0.8 1.8,-1.8 v -3.8 c 0,-1 -0.8,-1.8 -1.8,-1.8 H 37.9 c -1,0 -1.8,0.8 -1.8,1.8 v 3.8 c 0,0.9 0.8,1.8 1.8,1.8 z"
       class="st2"
       inkscape:connector-curvature="0"
       style="fill:#a88763" />
    <path
       id="path2499"
       d="M 68,91 H 52 c -0.7,0 -1.2,-0.5 -1.2,-1.2 v -2.5 c 0,-0.7 0.5,-1.2 1.2,-1.2 h 16 c 0.7,0 1.2,0.5 1.2,1.2 v 2.5 c 0,0.7 -0.6,1.2 -1.2,1.2 z"
       class="st0"
       inkscape:connector-curvature="0"
       style="fill:#ffc54d" />
  </g>
</svg>
