<?xml version="1.0" encoding="UTF-8" standalone="no"?>
<svg
   xmlns:dc="http://purl.org/dc/elements/1.1/"
   xmlns:cc="http://creativecommons.org/ns#"
   xmlns:rdf="http://www.w3.org/1999/02/22-rdf-syntax-ns#"
   xmlns:svg="http://www.w3.org/2000/svg"
   xmlns="http://www.w3.org/2000/svg"
   xmlns:sodipodi="http://sodipodi.sourceforge.net/DTD/sodipodi-0.dtd"
   xmlns:inkscape="http://www.inkscape.org/namespaces/inkscape"
   width="478.76007"
   height="344.78394"
   viewBox="0 0 478.76007 344.78393"
   version="1.1"
   id="svg1654"
   sodipodi:docname="lead.svg"
   inkscape:version="0.92.4 (5da689c313, 2019-01-14)">
  <metadata
     id="metadata1660">
    <rdf:RDF>
      <cc:Work
         rdf:about="">
        <dc:format>image/svg+xml</dc:format>
        <dc:type
           rdf:resource="http://purl.org/dc/dcmitype/StillImage" />
        <dc:title></dc:title>
      </cc:Work>
    </rdf:RDF>
  </metadata>
  <defs
     id="defs1658"><style
   id="style5909">
        .cls-bg21{fill:#f8f8ff;}
        .cls-bg22{fill:#bac5f4;}
        .cls-bg23{fill:#e1e6fb;}
      </style>
<clipPath
   id="fe9b49f8-e166-4e47-ac65-a2d5a59265ce">
  <path
     fill="none"
     d="M734.19,333.45c-6.71,56.78-32.6,122.79-84.4,153.12-78.23,45.82-71.69,116.3-224.38,147a313.33,313.33,0,0,1-67.69,6.39,260.44,260.44,0,0,1-33.24-2.72c-97-14.18-162.34-81.63-186.3-163C106.7,367,169.62,297,211.36,254.71S283.64,80.85,433.51,49.62A304.56,304.56,0,0,1,503.09,43c53.32,1.36,111.48,18.82,151.72,55.36q4.56,4.08,8.83,8.52C719.57,164.25,743.34,256.05,734.19,333.45Z"
     data-name="SVGID"
     id="b1f04b0c-412f-4f15-bef7-21759d12595e" />
</clipPath>

	
	
	
</defs>
  <sodipodi:namedview
     pagecolor="#ffffff"
     bordercolor="#666666"
     borderopacity="1"
     objecttolerance="10"
     gridtolerance="10"
     guidetolerance="10"
     inkscape:pageopacity="0"
     inkscape:pageshadow="2"
     inkscape:window-width="1366"
     inkscape:window-height="705"
     id="namedview1656"
     showgrid="false"
     fit-margin-top="0"
     fit-margin-left="0"
     fit-margin-right="0"
     fit-margin-bottom="0"
     inkscape:zoom="0.69118012"
     inkscape:cx="474.03447"
     inkscape:cy="160.01485"
     inkscape:window-x="1912"
     inkscape:window-y="113"
     inkscape:window-maximized="1"
     inkscape:current-layer="svg1654" />
  <g
     transform="matrix(0.80217407,0,0,0.83584046,27.630128,21.121153)"
     id="Layer_1"
     data-name="Layer 1"
     style="color:#212529;font-style:normal;font-variant:normal;font-weight:400;font-size:16px;line-height:24px;font-family:Averta, 'Helvetica Neue', 'Open Sans', Arial, sans-serif;font-variant-ligatures:normal;font-variant-caps:normal;font-variant-numeric:normal;text-indent:0px;text-align:center;text-decoration:none;text-decoration-line:none;text-decoration-style:solid;text-decoration-color:#212529;letter-spacing:normal;word-spacing:0px;text-transform:none;writing-mode:lr-tb;direction:ltr;dominant-baseline:auto;baseline-shift:0px;text-anchor:start;white-space:normal;clip-rule:nonzero;display:inline;visibility:visible;opacity:1;isolation:auto;mix-blend-mode:normal;vector-effect:none;fill:#000000;fill-opacity:1;fill-rule:nonzero;stroke:none;stroke-width:1px;stroke-linecap:butt;stroke-linejoin:miter;stroke-miterlimit:4;stroke-dasharray:none;stroke-dashoffset:0px;stroke-opacity:1;marker-start:none;marker-mid:none;marker-end:none;paint-order:normal;color-rendering:auto;image-rendering:auto;shape-rendering:auto;text-rendering:auto"
     clip-path="none">
    <path
       inkscape:connector-curvature="0"
       class="cls-bg21"
       d="m 884,552 c -7.73,-51.51 -25,-56 -38.28,-82 -12.09,-23.65 -21.84,-62.34 12.28,-90 53,-43 118,1 118,1 0,0 103,59 121,62 18,3 62,33 117,-3 55,-36 102,-33 117,-6 15,27 -19,105 -27,121 -8,16 4,66 17,86 13,20 54,82 -34,80 -88,-2 -352,1 -352,1 0,0 -94.77,-1.77 -78,-94 14,-77 30,-56 27,-76 z"
       transform="translate(-834.52,-361.14)"
       style="color:#212529;font-style:normal;font-variant:normal;font-weight:400;font-size:16px;line-height:24px;font-family:Averta, 'Helvetica Neue', 'Open Sans', Arial, sans-serif;font-variant-ligatures:normal;font-variant-caps:normal;font-variant-numeric:normal;text-indent:0px;text-align:center;text-decoration:none;text-decoration-line:none;text-decoration-style:solid;text-decoration-color:#212529;letter-spacing:normal;word-spacing:0px;text-transform:none;writing-mode:lr-tb;direction:ltr;dominant-baseline:auto;baseline-shift:0px;text-anchor:start;white-space:normal;clip-rule:nonzero;display:inline;visibility:visible;opacity:1;isolation:auto;mix-blend-mode:normal;vector-effect:none;fill:#f8f8ff;fill-opacity:1;fill-rule:nonzero;stroke:none;stroke-width:1px;stroke-linecap:butt;stroke-linejoin:miter;stroke-miterlimit:4;stroke-dasharray:none;stroke-dashoffset:0px;stroke-opacity:1;marker-start:none;marker-mid:none;marker-end:none;paint-order:normal;color-rendering:auto;image-rendering:auto;shape-rendering:auto;text-rendering:auto"
       clip-path="none"
       id="path1618" />
    <circle
       class="cls-bg22"
       cx="83.480003"
       cy="163.86"
       r="20"
       style="color:#212529;font-style:normal;font-variant:normal;font-weight:400;font-size:16px;line-height:24px;font-family:Averta, 'Helvetica Neue', 'Open Sans', Arial, sans-serif;font-variant-ligatures:normal;font-variant-caps:normal;font-variant-numeric:normal;text-indent:0px;text-align:center;text-decoration:none;text-decoration-line:none;text-decoration-style:solid;text-decoration-color:#212529;letter-spacing:normal;word-spacing:0px;text-transform:none;writing-mode:lr-tb;direction:ltr;dominant-baseline:auto;baseline-shift:0px;text-anchor:start;white-space:normal;clip-rule:nonzero;display:inline;visibility:visible;opacity:1;isolation:auto;mix-blend-mode:normal;vector-effect:none;fill:#bac5f4;fill-opacity:1;fill-rule:nonzero;stroke:none;stroke-width:1px;stroke-linecap:butt;stroke-linejoin:miter;stroke-miterlimit:4;stroke-dasharray:none;stroke-dashoffset:0px;stroke-opacity:1;marker-start:none;marker-mid:none;marker-end:none;paint-order:normal;color-rendering:auto;image-rendering:auto;shape-rendering:auto;text-rendering:auto"
       clip-path="none"
       id="circle1620" />
    <circle
       class="cls-bg22"
       cx="49.98"
       cy="188.36"
       r="13.5"
       style="color:#212529;font-style:normal;font-variant:normal;font-weight:400;font-size:16px;line-height:24px;font-family:Averta, 'Helvetica Neue', 'Open Sans', Arial, sans-serif;font-variant-ligatures:normal;font-variant-caps:normal;font-variant-numeric:normal;text-indent:0px;text-align:center;text-decoration:none;text-decoration-line:none;text-decoration-style:solid;text-decoration-color:#212529;letter-spacing:normal;word-spacing:0px;text-transform:none;writing-mode:lr-tb;direction:ltr;dominant-baseline:auto;baseline-shift:0px;text-anchor:start;white-space:normal;clip-rule:nonzero;display:inline;visibility:visible;opacity:1;isolation:auto;mix-blend-mode:normal;vector-effect:none;fill:#bac5f4;fill-opacity:1;fill-rule:nonzero;stroke:none;stroke-width:1px;stroke-linecap:butt;stroke-linejoin:miter;stroke-miterlimit:4;stroke-dasharray:none;stroke-dashoffset:0px;stroke-opacity:1;marker-start:none;marker-mid:none;marker-end:none;paint-order:normal;color-rendering:auto;image-rendering:auto;shape-rendering:auto;text-rendering:auto"
       clip-path="none"
       id="circle1622" />
    <circle
       class="cls-bg22"
       cx="51.98"
       cy="157.36"
       r="7.5"
       style="color:#212529;font-style:normal;font-variant:normal;font-weight:400;font-size:16px;line-height:24px;font-family:Averta, 'Helvetica Neue', 'Open Sans', Arial, sans-serif;font-variant-ligatures:normal;font-variant-caps:normal;font-variant-numeric:normal;text-indent:0px;text-align:center;text-decoration:none;text-decoration-line:none;text-decoration-style:solid;text-decoration-color:#212529;letter-spacing:normal;word-spacing:0px;text-transform:none;writing-mode:lr-tb;direction:ltr;dominant-baseline:auto;baseline-shift:0px;text-anchor:start;white-space:normal;clip-rule:nonzero;display:inline;visibility:visible;opacity:1;isolation:auto;mix-blend-mode:normal;vector-effect:none;fill:#bac5f4;fill-opacity:1;fill-rule:nonzero;stroke:none;stroke-width:1px;stroke-linecap:butt;stroke-linejoin:miter;stroke-miterlimit:4;stroke-dasharray:none;stroke-dashoffset:0px;stroke-opacity:1;marker-start:none;marker-mid:none;marker-end:none;paint-order:normal;color-rendering:auto;image-rendering:auto;shape-rendering:auto;text-rendering:auto"
       clip-path="none"
       id="circle1624" />
    <circle
       class="cls-bg22"
       cx="495.48001"
       cy="298.85999"
       r="20"
       style="color:#212529;font-style:normal;font-variant:normal;font-weight:400;font-size:16px;line-height:24px;font-family:Averta, 'Helvetica Neue', 'Open Sans', Arial, sans-serif;font-variant-ligatures:normal;font-variant-caps:normal;font-variant-numeric:normal;text-indent:0px;text-align:center;text-decoration:none;text-decoration-line:none;text-decoration-style:solid;text-decoration-color:#212529;letter-spacing:normal;word-spacing:0px;text-transform:none;writing-mode:lr-tb;direction:ltr;dominant-baseline:auto;baseline-shift:0px;text-anchor:start;white-space:normal;clip-rule:nonzero;display:inline;visibility:visible;opacity:1;isolation:auto;mix-blend-mode:normal;vector-effect:none;fill:#bac5f4;fill-opacity:1;fill-rule:nonzero;stroke:none;stroke-width:1px;stroke-linecap:butt;stroke-linejoin:miter;stroke-miterlimit:4;stroke-dasharray:none;stroke-dashoffset:0px;stroke-opacity:1;marker-start:none;marker-mid:none;marker-end:none;paint-order:normal;color-rendering:auto;image-rendering:auto;shape-rendering:auto;text-rendering:auto"
       clip-path="none"
       id="circle1626" />
    <circle
       class="cls-bg22"
       cx="14.98"
       cy="62.360001"
       r="7.5"
       style="color:#212529;font-style:normal;font-variant:normal;font-weight:400;font-size:16px;line-height:24px;font-family:Averta, 'Helvetica Neue', 'Open Sans', Arial, sans-serif;font-variant-ligatures:normal;font-variant-caps:normal;font-variant-numeric:normal;text-indent:0px;text-align:center;text-decoration:none;text-decoration-line:none;text-decoration-style:solid;text-decoration-color:#212529;letter-spacing:normal;word-spacing:0px;text-transform:none;writing-mode:lr-tb;direction:ltr;dominant-baseline:auto;baseline-shift:0px;text-anchor:start;white-space:normal;clip-rule:nonzero;display:inline;visibility:visible;opacity:1;isolation:auto;mix-blend-mode:normal;vector-effect:none;fill:#bac5f4;fill-opacity:1;fill-rule:nonzero;stroke:none;stroke-width:1px;stroke-linecap:butt;stroke-linejoin:miter;stroke-miterlimit:4;stroke-dasharray:none;stroke-dashoffset:0px;stroke-opacity:1;marker-start:none;marker-mid:none;marker-end:none;paint-order:normal;color-rendering:auto;image-rendering:auto;shape-rendering:auto;text-rendering:auto"
       clip-path="none"
       id="circle1628" />
    <circle
       class="cls-bg23"
       cx="139.98"
       cy="297.35999"
       r="35.5"
       style="color:#212529;font-style:normal;font-variant:normal;font-weight:400;font-size:16px;line-height:24px;font-family:Averta, 'Helvetica Neue', 'Open Sans', Arial, sans-serif;font-variant-ligatures:normal;font-variant-caps:normal;font-variant-numeric:normal;text-indent:0px;text-align:center;text-decoration:none;text-decoration-line:none;text-decoration-style:solid;text-decoration-color:#212529;letter-spacing:normal;word-spacing:0px;text-transform:none;writing-mode:lr-tb;direction:ltr;dominant-baseline:auto;baseline-shift:0px;text-anchor:start;white-space:normal;clip-rule:nonzero;display:inline;visibility:visible;opacity:1;isolation:auto;mix-blend-mode:normal;vector-effect:none;fill:#e1e6fb;fill-opacity:1;fill-rule:nonzero;stroke:none;stroke-width:1px;stroke-linecap:butt;stroke-linejoin:miter;stroke-miterlimit:4;stroke-dasharray:none;stroke-dashoffset:0px;stroke-opacity:1;marker-start:none;marker-mid:none;marker-end:none;paint-order:normal;color-rendering:auto;image-rendering:auto;shape-rendering:auto;text-rendering:auto"
       clip-path="none"
       id="circle1630" />
    <circle
       class="cls-bg23"
       cx="374.48001"
       cy="325.85999"
       r="24"
       style="color:#212529;font-style:normal;font-variant:normal;font-weight:400;font-size:16px;line-height:24px;font-family:Averta, 'Helvetica Neue', 'Open Sans', Arial, sans-serif;font-variant-ligatures:normal;font-variant-caps:normal;font-variant-numeric:normal;text-indent:0px;text-align:center;text-decoration:none;text-decoration-line:none;text-decoration-style:solid;text-decoration-color:#212529;letter-spacing:normal;word-spacing:0px;text-transform:none;writing-mode:lr-tb;direction:ltr;dominant-baseline:auto;baseline-shift:0px;text-anchor:start;white-space:normal;clip-rule:nonzero;display:inline;visibility:visible;opacity:1;isolation:auto;mix-blend-mode:normal;vector-effect:none;fill:#e1e6fb;fill-opacity:1;fill-rule:nonzero;stroke:none;stroke-width:1px;stroke-linecap:butt;stroke-linejoin:miter;stroke-miterlimit:4;stroke-dasharray:none;stroke-dashoffset:0px;stroke-opacity:1;marker-start:none;marker-mid:none;marker-end:none;paint-order:normal;color-rendering:auto;image-rendering:auto;shape-rendering:auto;text-rendering:auto"
       clip-path="none"
       id="circle1632" />
    <circle
       class="cls-bg23"
       cx="466.48001"
       cy="201.86"
       r="13"
       style="color:#212529;font-style:normal;font-variant:normal;font-weight:400;font-size:16px;line-height:24px;font-family:Averta, 'Helvetica Neue', 'Open Sans', Arial, sans-serif;font-variant-ligatures:normal;font-variant-caps:normal;font-variant-numeric:normal;text-indent:0px;text-align:center;text-decoration:none;text-decoration-line:none;text-decoration-style:solid;text-decoration-color:#212529;letter-spacing:normal;word-spacing:0px;text-transform:none;writing-mode:lr-tb;direction:ltr;dominant-baseline:auto;baseline-shift:0px;text-anchor:start;white-space:normal;clip-rule:nonzero;display:inline;visibility:visible;opacity:1;isolation:auto;mix-blend-mode:normal;vector-effect:none;fill:#e1e6fb;fill-opacity:1;fill-rule:nonzero;stroke:none;stroke-width:1px;stroke-linecap:butt;stroke-linejoin:miter;stroke-miterlimit:4;stroke-dasharray:none;stroke-dashoffset:0px;stroke-opacity:1;marker-start:none;marker-mid:none;marker-end:none;paint-order:normal;color-rendering:auto;image-rendering:auto;shape-rendering:auto;text-rendering:auto"
       clip-path="none"
       id="circle1634" />
    <circle
       class="cls-bg23"
       cx="369.48001"
       cy="84.860001"
       r="26"
       style="color:#212529;font-style:normal;font-variant:normal;font-weight:400;font-size:16px;line-height:24px;font-family:Averta, 'Helvetica Neue', 'Open Sans', Arial, sans-serif;font-variant-ligatures:normal;font-variant-caps:normal;font-variant-numeric:normal;text-indent:0px;text-align:center;text-decoration:none;text-decoration-line:none;text-decoration-style:solid;text-decoration-color:#212529;letter-spacing:normal;word-spacing:0px;text-transform:none;writing-mode:lr-tb;direction:ltr;dominant-baseline:auto;baseline-shift:0px;text-anchor:start;white-space:normal;clip-rule:nonzero;display:inline;visibility:visible;opacity:1;isolation:auto;mix-blend-mode:normal;vector-effect:none;fill:#e1e6fb;fill-opacity:1;fill-rule:nonzero;stroke:none;stroke-width:1px;stroke-linecap:butt;stroke-linejoin:miter;stroke-miterlimit:4;stroke-dasharray:none;stroke-dashoffset:0px;stroke-opacity:1;marker-start:none;marker-mid:none;marker-end:none;paint-order:normal;color-rendering:auto;image-rendering:auto;shape-rendering:auto;text-rendering:auto"
       clip-path="none"
       id="circle1636" />
    <circle
       class="cls-bg23"
       cx="130.98"
       cy="15.36"
       r="12.5"
       style="color:#212529;font-style:normal;font-variant:normal;font-weight:400;font-size:16px;line-height:24px;font-family:Averta, 'Helvetica Neue', 'Open Sans', Arial, sans-serif;font-variant-ligatures:normal;font-variant-caps:normal;font-variant-numeric:normal;text-indent:0px;text-align:center;text-decoration:none;text-decoration-line:none;text-decoration-style:solid;text-decoration-color:#212529;letter-spacing:normal;word-spacing:0px;text-transform:none;writing-mode:lr-tb;direction:ltr;dominant-baseline:auto;baseline-shift:0px;text-anchor:start;white-space:normal;clip-rule:nonzero;display:inline;visibility:visible;opacity:1;isolation:auto;mix-blend-mode:normal;vector-effect:none;fill:#e1e6fb;fill-opacity:1;fill-rule:nonzero;stroke:none;stroke-width:1px;stroke-linecap:butt;stroke-linejoin:miter;stroke-miterlimit:4;stroke-dasharray:none;stroke-dashoffset:0px;stroke-opacity:1;marker-start:none;marker-mid:none;marker-end:none;paint-order:normal;color-rendering:auto;image-rendering:auto;shape-rendering:auto;text-rendering:auto"
       clip-path="none"
       id="circle1638" />
    <circle
       class="cls-bg23"
       cx="90.980003"
       cy="264.35999"
       r="12.5"
       style="color:#212529;font-style:normal;font-variant:normal;font-weight:400;font-size:16px;line-height:24px;font-family:Averta, 'Helvetica Neue', 'Open Sans', Arial, sans-serif;font-variant-ligatures:normal;font-variant-caps:normal;font-variant-numeric:normal;text-indent:0px;text-align:center;text-decoration:none;text-decoration-line:none;text-decoration-style:solid;text-decoration-color:#212529;letter-spacing:normal;word-spacing:0px;text-transform:none;writing-mode:lr-tb;direction:ltr;dominant-baseline:auto;baseline-shift:0px;text-anchor:start;white-space:normal;clip-rule:nonzero;display:inline;visibility:visible;opacity:1;isolation:auto;mix-blend-mode:normal;vector-effect:none;fill:#e1e6fb;fill-opacity:1;fill-rule:nonzero;stroke:none;stroke-width:1px;stroke-linecap:butt;stroke-linejoin:miter;stroke-miterlimit:4;stroke-dasharray:none;stroke-dashoffset:0px;stroke-opacity:1;marker-start:none;marker-mid:none;marker-end:none;paint-order:normal;color-rendering:auto;image-rendering:auto;shape-rendering:auto;text-rendering:auto"
       clip-path="none"
       id="circle1640" />
    <circle
       class="cls-bg22"
       cx="493.98001"
       cy="119.36"
       r="12.5"
       style="color:#212529;font-style:normal;font-variant:normal;font-weight:400;font-size:16px;line-height:24px;font-family:Averta, 'Helvetica Neue', 'Open Sans', Arial, sans-serif;font-variant-ligatures:normal;font-variant-caps:normal;font-variant-numeric:normal;text-indent:0px;text-align:center;text-decoration:none;text-decoration-line:none;text-decoration-style:solid;text-decoration-color:#212529;letter-spacing:normal;word-spacing:0px;text-transform:none;writing-mode:lr-tb;direction:ltr;dominant-baseline:auto;baseline-shift:0px;text-anchor:start;white-space:normal;clip-rule:nonzero;display:inline;visibility:visible;opacity:1;isolation:auto;mix-blend-mode:normal;vector-effect:none;fill:#bac5f4;fill-opacity:1;fill-rule:nonzero;stroke:none;stroke-width:1px;stroke-linecap:butt;stroke-linejoin:miter;stroke-miterlimit:4;stroke-dasharray:none;stroke-dashoffset:0px;stroke-opacity:1;marker-start:none;marker-mid:none;marker-end:none;paint-order:normal;color-rendering:auto;image-rendering:auto;shape-rendering:auto;text-rendering:auto"
       clip-path="none"
       id="circle1642" />
    <circle
       class="cls-bg22"
       cx="473.98001"
       cy="331.35999"
       r="13.5"
       style="color:#212529;font-style:normal;font-variant:normal;font-weight:400;font-size:16px;line-height:24px;font-family:Averta, 'Helvetica Neue', 'Open Sans', Arial, sans-serif;font-variant-ligatures:normal;font-variant-caps:normal;font-variant-numeric:normal;text-indent:0px;text-align:center;text-decoration:none;text-decoration-line:none;text-decoration-style:solid;text-decoration-color:#212529;letter-spacing:normal;word-spacing:0px;text-transform:none;writing-mode:lr-tb;direction:ltr;dominant-baseline:auto;baseline-shift:0px;text-anchor:start;white-space:normal;clip-rule:nonzero;display:inline;visibility:visible;opacity:1;isolation:auto;mix-blend-mode:normal;vector-effect:none;fill:#bac5f4;fill-opacity:1;fill-rule:nonzero;stroke:none;stroke-width:1px;stroke-linecap:butt;stroke-linejoin:miter;stroke-miterlimit:4;stroke-dasharray:none;stroke-dashoffset:0px;stroke-opacity:1;marker-start:none;marker-mid:none;marker-end:none;paint-order:normal;color-rendering:auto;image-rendering:auto;shape-rendering:auto;text-rendering:auto"
       clip-path="none"
       id="circle1644" />
    <circle
       class="cls-bg22"
       cx="503.98001"
       cy="338.35999"
       r="7.5"
       style="color:#212529;font-style:normal;font-variant:normal;font-weight:400;font-size:16px;line-height:24px;font-family:Averta, 'Helvetica Neue', 'Open Sans', Arial, sans-serif;font-variant-ligatures:normal;font-variant-caps:normal;font-variant-numeric:normal;text-indent:0px;text-align:center;text-decoration:none;text-decoration-line:none;text-decoration-style:solid;text-decoration-color:#212529;letter-spacing:normal;word-spacing:0px;text-transform:none;writing-mode:lr-tb;direction:ltr;dominant-baseline:auto;baseline-shift:0px;text-anchor:start;white-space:normal;clip-rule:nonzero;display:inline;visibility:visible;opacity:1;isolation:auto;mix-blend-mode:normal;vector-effect:none;fill:#bac5f4;fill-opacity:1;fill-rule:nonzero;stroke:none;stroke-width:1px;stroke-linecap:butt;stroke-linejoin:miter;stroke-miterlimit:4;stroke-dasharray:none;stroke-dashoffset:0px;stroke-opacity:1;marker-start:none;marker-mid:none;marker-end:none;paint-order:normal;color-rendering:auto;image-rendering:auto;shape-rendering:auto;text-rendering:auto"
       clip-path="none"
       id="circle1646" />
  </g>
  <g
     id="g962"
     transform="matrix(0.77439741,0,0,0.77439741,94.347579,25.386856)" />
  <g
     id="g964"
     transform="matrix(0.77439741,0,0,0.77439741,94.347579,25.386856)" />
  <g
     id="g966"
     transform="matrix(0.77439741,0,0,0.77439741,94.347579,25.386856)" />
  <g
     id="g968"
     transform="matrix(0.77439741,0,0,0.77439741,94.347579,25.386856)" />
  <g
     id="g970"
     transform="matrix(0.77439741,0,0,0.77439741,94.347579,25.386856)" />
  <g
     id="g972"
     transform="matrix(0.77439741,0,0,0.77439741,94.347579,25.386856)" />
  <g
     id="g974"
     transform="matrix(0.77439741,0,0,0.77439741,94.347579,25.386856)" />
  <g
     id="g976"
     transform="matrix(0.77439741,0,0,0.77439741,94.347579,25.386856)" />
  <g
     id="g978"
     transform="matrix(0.77439741,0,0,0.77439741,94.347579,25.386856)" />
  <g
     id="g980"
     transform="matrix(0.77439741,0,0,0.77439741,94.347579,25.386856)" />
  <g
     id="g982"
     transform="matrix(0.77439741,0,0,0.77439741,94.347579,25.386856)" />
  <g
     id="g984"
     transform="matrix(0.77439741,0,0,0.77439741,94.347579,25.386856)" />
  <g
     id="g986"
     transform="matrix(0.77439741,0,0,0.77439741,94.347579,25.386856)" />
  <g
     id="g988"
     transform="matrix(0.77439741,0,0,0.77439741,94.347579,25.386856)" />
  <g
     id="g990"
     transform="matrix(0.77439741,0,0,0.77439741,94.347579,25.386856)" />
  <style
     id="style2491"
     type="text/css">
	.st0{fill:#FFC54D;}
	.st1{fill:#C19D72;}
	.st2{fill:#A88763;}
</style>
  <path
     id="path873"
     d="m 323.95366,118.0763 c -8.05901,7.82875 -19.57187,12.66415 -32.69653,12.66415 -12.8944,0 -24.63752,-4.8354 -32.69653,-12.66415 v 0 c 1.38155,-4.14463 4.37489,-7.82874 8.51952,-9.6708 l 12.66415,-5.98669 c 0.46051,-1.6118 2.30257,-3.914372 2.30257,-3.914372 -0.92103,-1.381543 -1.6118,-2.993344 -2.30257,-4.605144 -0.92103,0 -2.07232,-0.921029 -2.76309,-2.072315 -0.69077,-1.151286 -0.46051,-2.53283 0,-3.453858 -2.07231,-5.295917 -3.45386,-13.354919 3.2236,-19.341607 l -2.99334,0.690772 c 0,0 3.91437,-7.368231 11.74312,-4.605145 0,0 -0.69077,-1.151286 -3.2236,-1.842057 0,0 3.45385,-1.611801 5.52617,0.921028 0,0 1.15129,-0.921028 0,-1.842057 0,0 6.21694,0.230257 11.51286,5.295916 7.13797,6.907716 5.52617,15.657491 2.99334,21.413921 0.23026,0.690772 0.23026,1.842058 -0.23025,2.763087 -0.46052,1.151286 -1.38155,1.842058 -2.30257,2.072315 -0.46052,0.690771 -2.07232,3.453858 -2.76309,4.605144 0,0 2.07231,2.302572 2.30257,3.914372 l 12.66415,5.98669 c 4.14463,1.84206 7.13797,5.29591 8.51952,9.6708 z"
     style="fill:#1e90ff;stroke-width:0.57564306;fill-opacity:1"
     inkscape:connector-curvature="0" />
  <path
     id="path875"
     d="m 323.95366,194.98221 c -8.05901,7.82875 -19.57187,12.66415 -32.69653,12.66415 -12.8944,0 -24.63752,-4.8354 -32.69653,-12.66415 v 0 c 1.38155,-4.14463 4.37489,-7.82874 8.51952,-9.6708 l 12.66415,-5.98669 c 0.46051,-1.6118 2.30257,-3.91437 2.30257,-3.91437 -0.92103,-1.38154 -1.6118,-2.99334 -2.30257,-4.60514 -0.92103,0 -2.07232,-0.92103 -2.76309,-2.07232 -0.69077,-1.15129 -0.46051,-2.53283 0,-3.45386 -2.07231,-5.29591 -3.45386,-13.35492 3.2236,-19.3416 l -3.2236,0.69077 c 0,0 3.91437,-7.36823 11.74312,-4.60515 0,0 -0.69077,-1.15128 -3.2236,-1.84205 0,0 3.45386,-1.61181 5.52617,0.92102 0,0 1.15129,-0.92102 0,-1.84205 0,0 6.21695,0.23025 11.51286,5.29591 7.13798,6.90772 5.52618,15.65749 2.99335,21.41392 0.23025,0.69078 0.23025,1.84206 -0.23026,2.76309 -0.46051,1.15129 -1.38154,1.84206 -2.30257,2.07232 -0.46052,0.69077 -2.07232,3.45385 -2.76309,4.60514 0,0 2.07232,2.30257 2.30257,3.91437 l 12.66415,5.98669 c 4.37489,1.84206 7.36823,5.29592 8.74978,9.6708 z"
     style="fill:#1e90ff;stroke-width:0.57564306;fill-opacity:1"
     inkscape:connector-curvature="0" />
  <path
     id="path877"
     d="m 323.95366,271.88812 c -8.05901,7.82875 -19.57187,12.66415 -32.69653,12.66415 -12.8944,0 -24.63752,-4.8354 -32.69653,-12.66415 v 0 c 1.38155,-4.14463 4.37489,-7.82874 8.51952,-9.6708 l 12.66415,-5.98669 c 0.46051,-1.6118 2.30257,-3.91437 2.30257,-3.91437 -0.92103,-1.38154 -1.6118,-2.99334 -2.30257,-4.60514 -0.92103,0 -2.07232,-0.92103 -2.76309,-2.07232 -0.69077,-1.15128 -0.46051,-2.53283 0,-3.45386 -2.07231,-5.29591 -3.45386,-13.35492 3.2236,-19.3416 l -3.2236,0.69077 c 0,0 3.91437,-7.36823 11.74312,-4.60515 0,0 -0.69077,-1.15128 -3.2236,-1.84205 0,0 3.45386,-1.6118 5.52617,0.92103 0,0 1.15129,-0.92103 0,-1.84206 0,0 6.21695,0.23025 11.51286,5.29591 7.13798,6.90772 5.52618,15.65749 2.99335,21.41393 0.23025,0.69077 0.23025,1.84205 -0.23026,2.76308 -0.46051,1.15129 -1.38154,1.84206 -2.30257,2.07232 -0.46052,0.69077 -2.07232,3.45386 -2.76309,4.60514 0,0 2.07232,2.30257 2.30257,3.91437 l 12.66415,5.98669 c 4.37489,1.84206 7.36823,5.29592 8.74978,9.6708 z"
     style="fill:#1e90ff;stroke-width:0.57564306;fill-opacity:1"
     inkscape:connector-curvature="0" />
  <path
     inkscape:connector-curvature="0"
     style="fill:#324a5e;stroke-width:0.57564306"
     d="m 162.08283,272.34864 c 0,0 1.38154,4.60514 -0.46051,5.98669 0,0 -1.84206,0.46051 -1.61181,2.99334 0,0 0,2.99334 -3.91437,2.76309 0,0 -10.13132,1.15128 -11.74312,-1.15129 0,0 -1.15128,-1.38154 -0.46051,-3.45386 l 11.97337,-4.37488 z"
     id="path881" />
  <g
     id="g887"
     transform="matrix(0.57564305,0,0,0.57564305,83.104603,27.1247)">
	<path
   inkscape:connector-curvature="0"
   style="fill:#2b3b4e"
   d="m 134.4,414 c 0,0 7.6,6.4 2,15.2 0,0 -4,5.6 -4,8.4 0,0 0.4,8.8 -8.8,6.8 0,0 -9.2,-6.8 -15.6,-1.2 0,0 -4.8,-0.4 -2.4,-6.8 0,0 5.2,-6.8 8.4,-12.8 0,0 2,-1.2 0.8,-6 z"
   id="path883" />

	<path
   inkscape:connector-curvature="0"
   style="fill:#2b3b4e"
   d="m 155.6,426 c 0,0 -2.4,8 0.8,10.4 0,0 3.2,0.8 2.8,5.2 0,0 0,5.2 6.8,4.8 0,0 17.6,2 20.4,-2 0,0 2,-2.4 0.8,-6 l -20.8,-7.6 z"
   id="path885" />

</g>
  <path
     inkscape:connector-curvature="0"
     style="fill:#324a5e;stroke-width:0.57564306"
     d="m 174.0562,265.44092 c 0,0 -4.37488,3.68412 -1.15128,8.74978 0,0 2.30257,3.2236 2.30257,4.8354 0,0 -0.23026,5.06566 5.06566,3.91437 0,0 5.29592,-3.91437 8.98003,-0.69077 0,0 2.76309,-0.23026 1.38154,-3.91437 0,0 -2.99334,-3.91438 -4.8354,-7.36823 0,0 -1.15128,-0.69078 -0.46051,-3.45386 z"
     id="path889" />
  <polygon
     style="fill:#e6e9ee"
     points="163.2,125.2 127.6,125.2 145.2,194.8 "
     id="polygon891"
     transform="matrix(0.57564305,0,0,0.57564305,83.104603,27.1247)" />
  <polygon
     style="fill:#f1543f"
     points="150.4,132.8 152.8,125.2 139.6,125.2 142,132.8 "
     id="polygon893"
     transform="matrix(0.57564305,0,0,0.57564305,83.104603,27.1247)" />
  <polygon
     style="fill:#ff7058"
     points="142,132.8 133.2,185.6 146.4,194.4 159.6,185.6 150.4,132.8 146.4,132.8 "
     id="polygon895"
     transform="matrix(0.57564305,0,0,0.57564305,83.104603,27.1247)" />
  <path
     inkscape:connector-curvature="0"
     style="fill:#324a5e;stroke-width:0.57564306"
     d="m 148.03714,155.37797 c -1.84206,10.36158 -3.91437,29.01241 -0.46052,50.65659 0,0 3.22361,49.96582 0.23026,61.01816 0,0 5.98669,10.36158 16.34826,0 0,0 0.23026,-82.20182 2.99335,-85.65568 v -26.01907 z"
     id="path897" />
  <path
     inkscape:connector-curvature="0"
     style="fill:#2b3b4e;stroke-width:0.57564306"
     d="m 167.14849,155.37797 v 26.24932 c 2.76308,3.45386 2.99334,85.65569 2.99334,85.65569 10.36158,10.36158 16.34826,0 16.34826,0 -2.99334,-11.05235 0.23026,-61.01816 0.23026,-61.01816 3.45386,-21.64418 1.38155,-40.29502 -0.46051,-50.65659 h -19.11135 z"
     id="path899" />
  <polygon
     style="fill:#ced5e0"
     points="160.4,115.6 132,115.6 128,125.2 162.8,125.2 "
     id="polygon901"
     transform="matrix(0.57564305,0,0,0.57564305,83.104603,27.1247)" />
  <path
     inkscape:connector-curvature="0"
     style="fill:#2b3b4e;stroke-width:0.57564306"
     d="m 157.47769,97.122895 -18.19033,6.677455 c 0,0 11.05235,33.61756 6.21695,56.18277 0,0 -1.84206,11.51286 -0.46051,20.26263 0,0 12.66414,9.21029 17.49954,0.69077 0,0 6.44721,-20.26263 5.29592,-40.06475 l -5.75643,-15.19698 z"
     id="path903" />
  <g
     id="g909"
     transform="matrix(0.57564305,0,0,0.57564305,83.104603,27.1247)">
	<path
   inkscape:connector-curvature="0"
   style="fill:#324a5e"
   d="m 132,115.6 -15.2,16.4 5.6,2.4 -4.4,4 c 0,0 14.4,43.6 29.2,58.8 0,0.4 -16,-67.6 -15.2,-81.6 z"
   id="path905" />

	<path
   inkscape:connector-curvature="0"
   style="fill:#324a5e"
   d="m 163.2,121.6 31.6,11.6 c 0,0 -19.2,58.4 -10.8,97.6 0,0 3.2,20 0.8,35.2 0,0 -22,16 -30.4,1.2 0,0 -11.2,-35.2 -9.2,-69.6 l 10,-26.4 z"
   id="path907" />

</g>
  <g
     id="g915"
     transform="matrix(0.57564305,0,0,0.57564305,83.104603,27.1247)">
	<path
   inkscape:connector-curvature="0"
   style="fill:#2b3b4e"
   d="m 160.4,115.6 15.2,16.4 -5.6,2.4 4.4,4 c 0,0 -14.4,43.6 -29.2,58.8 0,0.4 16,-67.6 15.2,-81.6 z"
   id="path911" />

	<circle
   style="fill:#2b3b4e"
   cx="150.8"
   cy="200.8"
   r="3.2"
   id="circle913" />

</g>
  <polygon
     style="fill:#ff7058"
     points="179.2,172.4 165.6,175.2 170.8,166.4 "
     id="polygon917"
     transform="matrix(0.57564305,0,0,0.57564305,83.104603,27.1247)" />
  <rect
     x="-157.5233"
     y="-163.43761"
     transform="rotate(168.21699)"
     style="fill:#2b3b4e;stroke-width:0.57562661"
     width="10.360703"
     height="2.532757"
     id="rect919" />
  <path
     inkscape:connector-curvature="0"
     style="fill:#f9b54c;stroke-width:0.57564306"
     d="m 196.39116,177.25241 c 0.23025,2.07231 0.23025,3.45386 0.23025,3.45386 0.46052,0.46051 1.84206,2.30257 1.84206,2.30257 2.53283,2.07231 1.15129,3.68411 1.15129,3.68411 l 0.23025,1.6118 c 0.69078,0.69078 0.23026,2.07232 0.23026,2.07232 -1.38154,2.53283 -2.30257,0.46051 -2.30257,0.46051 -1.38154,1.84206 -2.30257,-0.46051 -2.30257,-0.46051 -1.84206,0.69077 -2.30258,-0.92103 -2.30258,-0.92103 0,0 -3.2236,0.46051 -2.53283,-6.67746 0.23026,-1.6118 0.23026,-3.45386 0,-5.29592 h 5.75644 z"
     id="path921" />
  <path
     inkscape:connector-curvature="0"
     style="fill:#ffd05b;stroke-width:0.57564306"
     d="m 193.62807,184.39038 c 0,-0.23026 0.23026,-1.38154 0.23026,-1.38154 -0.46052,1.38154 1.15128,2.30257 1.15128,2.30257 -0.23026,0 -0.23026,-0.92103 -0.23026,-0.92103 0.23026,1.15129 2.30258,2.07232 2.30258,2.07232 0.23025,-0.69078 0.92103,-1.38155 0.92103,-1.38155 -0.46052,0.69077 -0.69078,1.38155 -0.69078,1.38155 0.46052,0 0.69078,0.46051 0.69078,0.46051 -0.46052,-0.46051 -0.69078,0 -0.69078,0 0.92103,0.23026 0.69078,1.15129 0.69078,1.15129 0,-0.92103 -0.69078,-0.92103 -0.69078,-0.92103 0.46052,0.46051 0.23026,0.92103 0.23026,0.92103 0,-0.69077 -0.92103,-0.92103 -0.92103,-0.92103 0.46052,-0.69077 0,-0.46052 0,-0.46052 -0.92103,-1.15128 -1.15128,0.23026 -1.38154,0.46052 h -0.23026 c 0.46052,-1.15129 0,-1.38155 0,-1.38155 -0.92103,-0.69077 -0.92103,0.46052 -0.92103,0.46052 0,1.84206 -1.38154,2.76309 -1.38154,2.76309 h -0.46051 c 0.92102,-0.46052 1.15128,-1.38155 1.15128,-1.38155 0.69077,-1.84206 -0.23026,-2.07231 -0.23026,-2.07231 -1.6118,-0.23026 -1.15128,1.15128 -1.15128,1.15128 -0.69077,0.23026 -1.38155,0 -1.38155,0 0.23026,0 0.69078,-0.46051 0.69078,-0.46051 0.69077,-0.46052 -0.23026,-1.6118 -0.23026,-1.6118 0.46051,0.46051 2.30257,0.46051 2.30257,0.46051 0.92103,0 0.23026,-0.92103 0.23026,-0.92103 l -0.46052,0.23026 c 0,-0.23026 -0.46051,-1.38154 -0.46051,-1.38154 0.46051,0.23026 0.92103,1.15128 0.92103,1.38154 z"
     id="path923" />
  <g
     id="g931"
     transform="matrix(0.57564305,0,0,0.57564305,83.104603,27.1247)">
	<path
   inkscape:connector-curvature="0"
   style="fill:#f9b54c"
   d="m 202.8,278 c 0,0 -0.4,0.4 -1.6,2.4 0,0 -0.4,0.4 -0.4,0.8 -0.4,0.8 -0.8,0.8 -1.6,0.8 -0.8,-0.4 -2,-0.4 -2.8,-0.4 0,0 -0.8,0 -1.6,0 -0.4,0 -0.8,-0.4 -0.8,-0.8 0.4,-0.8 0.8,-2 2.4,-2 0,0 1.6,-0.4 2.4,0 0,0 -2.8,-0.8 -4,0.8 0,0 -1.6,1.6 -0.4,2.4 0,0 4,0 4.4,0.4 0,0 1.6,0.8 2.4,-0.4 0,0 0.4,-2 2,-1.6 0,0 -0.4,-0.4 -1.2,-0.4 -0.4,0 0,-1.2 0.8,-2 z"
   id="path925" />

	<path
   inkscape:connector-curvature="0"
   style="fill:#f9b54c"
   d="m 199.2,282 c -0.4,0.8 0.4,2.8 0.4,2.8 -0.4,-0.4 -0.4,-0.8 -0.4,-0.8 0,0.4 -0.4,0.4 -0.4,0.8 0.4,-1.2 0,-2.8 0,-2.8 z"
   id="path927" />

	<path
   inkscape:connector-curvature="0"
   style="fill:#f9b54c"
   d="m 195.2,283.6 c 0,0 0,-0.4 0,0 -0.4,-0.4 -0.4,-0.4 -0.4,-0.4 0.4,-0.8 0.4,-2 0.4,-2 h 0.4 c 0.4,1.2 -0.4,2.4 -0.4,2.4 z"
   id="path929" />

</g>
  <rect
     x="189.7137"
     y="173.79855"
     style="fill:#ffffff;stroke-width:0.57564306"
     width="7.5984883"
     height="5.2959161"
     id="rect933" />
  <path
     inkscape:connector-curvature="0"
     style="fill:#f9b54c;stroke-width:0.57564306"
     d="m 138.36634,177.25241 c -0.23026,2.07231 -0.23026,3.45386 -0.23026,3.45386 -0.46052,0.46051 -1.84206,2.30257 -1.84206,2.30257 -2.53283,2.07231 -1.15129,3.68411 -1.15129,3.68411 l -0.23025,1.6118 c -0.69077,0.69078 -0.23026,2.07232 -0.23026,2.07232 1.38154,2.53283 2.30257,0.46051 2.30257,0.46051 1.38155,1.84206 2.30257,-0.46051 2.30257,-0.46051 1.84206,0.69077 2.30258,-0.92103 2.30258,-0.92103 0,0 3.2236,0.46051 2.53283,-6.67746 -0.23026,-1.6118 -0.23026,-3.45386 0,-5.29592 h -5.75643 z"
     id="path935" />
  <path
     inkscape:connector-curvature="0"
     style="fill:#ffd05b;stroke-width:0.57564306"
     d="m 141.12942,184.39038 c 0,-0.23026 -0.23025,-1.38154 -0.23025,-1.38154 0.46051,1.38154 -1.15129,2.30257 -1.15129,2.30257 0.23026,0 0.23026,-0.92103 0.23026,-0.92103 -0.23026,1.15129 -2.30258,2.07232 -2.30258,2.07232 -0.23025,-0.69078 -0.92102,-1.38155 -0.92102,-1.38155 0.46051,0.69077 0.69077,1.38155 0.69077,1.38155 -0.46052,0 -0.69077,0.46051 -0.69077,0.46051 0.46051,-0.46051 0.69077,0 0.69077,0 -0.92103,0.23026 -0.69077,1.15129 -0.69077,1.15129 0,-0.92103 0.69077,-0.92103 0.69077,-0.92103 -0.46052,0.46051 -0.23026,0.92103 -0.23026,0.92103 0,-0.69077 0.92103,-0.92103 0.92103,-0.92103 -0.46052,-0.69077 0,-0.46052 0,-0.46052 0.92103,-1.15128 1.15128,0.23026 1.38154,0.46052 h 0.23026 c -0.46052,-1.15129 0,-1.38155 0,-1.38155 0.92103,-0.69077 0.92103,0.46052 0.92103,0.46052 0,1.84206 1.38154,2.76309 1.38154,2.76309 h 0.46052 c -0.92103,-0.46052 -1.15129,-1.38155 -1.15129,-1.38155 -0.69077,-1.84206 0.23026,-2.07231 0.23026,-2.07231 1.6118,-0.23026 1.15128,1.15128 1.15128,1.15128 0.69077,0.23026 1.38155,0 1.38155,0 -0.23026,0 -0.69078,-0.46051 -0.69078,-0.46051 -0.69077,-0.46052 0.23026,-1.6118 0.23026,-1.6118 -0.46051,0.46051 -2.30257,0.46051 -2.30257,0.46051 -0.92103,0 -0.23026,-0.92103 -0.23026,-0.92103 l 0.46052,0.23026 c 0,-0.23026 0.46051,-1.38154 0.46051,-1.38154 -0.46051,0.23026 -0.92103,1.15128 -0.92103,1.38154 z"
     id="path937" />
  <g
     id="g945"
     transform="matrix(0.57564305,0,0,0.57564305,83.104603,27.1247)">
	<path
   inkscape:connector-curvature="0"
   style="fill:#f9b54c"
   d="m 90.4,278 c 0,0 0.4,0.4 1.6,2.4 0,0 0.4,0.4 0.4,0.8 0.4,0.8 0.8,0.8 1.6,0.8 0.8,-0.4 2,-0.4 2.8,-0.4 0,0 0.8,0 1.6,0 0.4,0 0.8,-0.4 0.8,-0.8 -0.4,-0.8 -0.8,-2 -2.4,-2 0,0 -1.6,-0.4 -2.4,0 0,0 2.8,-0.8 4,0.8 0,0 1.6,1.6 0.4,2.4 0,0 -4,0 -4.4,0.4 0,0 -1.6,0.8 -2.4,-0.4 0,0 -0.4,-2 -2,-1.6 0,0 0.4,-0.4 1.2,-0.4 0,0 -0.4,-1.2 -0.8,-2 z"
   id="path939" />

	<path
   inkscape:connector-curvature="0"
   style="fill:#f9b54c"
   d="m 93.6,282 c 0.4,0.8 -0.4,2.8 -0.4,2.8 0.4,-0.4 0.4,-0.8 0.4,-0.8 0,0.4 0.4,0.4 0.4,0.8 -0.4,-1.2 0,-2.8 0,-2.8 z"
   id="path941" />

	<path
   inkscape:connector-curvature="0"
   style="fill:#f9b54c"
   d="m 97.6,283.6 c 0,0 0,-0.4 0,0 0.4,-0.4 0.4,-0.4 0.4,-0.4 -0.4,-0.8 -0.4,-2 -0.4,-2 h -0.4 c -0.4,1.2 0.4,2.4 0.4,2.4 z"
   id="path943" />

</g>
  <rect
     x="137.44531"
     y="173.79855"
     style="fill:#ffffff;stroke-width:0.57564306"
     width="7.5984883"
     height="5.2959161"
     id="rect947" />
  <path
     inkscape:connector-curvature="0"
     style="fill:#2b3b4e;stroke-width:0.57564306"
     d="m 198.92398,176.79189 h -10.59183 c 0,0 -0.23025,-27.17035 1.15129,-32.46627 0,0 0.46051,-5.29591 -0.92103,-9.6708 1.84206,-16.34826 6.67746,-30.85447 6.67746,-31.08472 0,0.23025 5.29592,13.58517 3.68411,73.22179 z"
     id="path949" />
  <path
     inkscape:connector-curvature="0"
     style="fill:#324a5e;stroke-width:0.57564306"
     d="m 135.60325,176.79189 h 10.59183 c 0,0 0.23026,-27.17035 -1.15128,-32.46627 0,0 -0.46052,-5.29591 0.92102,-9.6708 -1.84205,-16.34826 -6.67746,-30.85447 -6.67746,-31.08472 0,0.23025 -5.29591,13.58517 -3.68411,73.22179 z"
     id="path951" />
  <ellipse
     style="fill:#f9b54c;stroke-width:0.57564306"
     cx="167.37874"
     cy="91.596718"
     rx="6.9077168"
     ry="7.5984883"
     id="ellipse953" />
  <g
     id="g959"
     transform="matrix(0.57564305,0,0,0.57564305,83.104603,27.1247)">
	<path
   inkscape:connector-curvature="0"
   style="fill:#ffffff"
   d="m 158,109.6 c 0,0 2.4,11.6 -11.6,15.6 0,0 8,1.6 11.6,11.6 -0.4,0 9.2,-14.8 0,-27.2 z"
   id="path955" />

	<path
   inkscape:connector-curvature="0"
   style="fill:#ffffff"
   d="m 134.4,109.6 c 0,0 -2.4,11.6 11.6,15.6 0,0 -8,1.6 -11.6,11.6 0.4,0 -8.8,-14.8 0,-27.2 z"
   id="path957" />

</g>
  <path
     inkscape:connector-curvature="0"
     style="fill:#ffd05b;stroke-width:0.57564306"
     d="m 177.04955,84.689005 c -0.92103,2.763087 -1.38154,4.605144 -1.38154,4.835402 v 0 c -2.30258,2.993343 -5.06566,5.065658 -8.28926,5.065658 -2.99335,0 -5.52618,-1.842057 -7.59849,-4.605144 -4.60515,-5.75643 -1.38155,-16.118005 -1.38155,-16.118005 2.30258,2.532829 9.67081,2.763086 9.67081,2.763086 -2.99335,-0.460514 -3.68412,-2.763086 -3.68412,-3.223601 0.69077,1.611801 7.82875,2.53283 7.82875,2.53283 7.36823,1.381543 4.8354,8.749774 4.8354,8.749774 z"
     id="path961" />
  <path
     inkscape:connector-curvature="0"
     style="fill:#324a5e;stroke-width:0.57564306"
     d="m 163.23412,63.044826 c 0,0 10.13131,-4.14463 15.42723,5.065659 5.52617,9.901061 -1.38154,20.492893 -2.76309,21.413922 0,0 0.46052,-1.611801 1.38155,-5.065659 0,0 2.53283,-7.368231 -5.06566,-8.519517 0,0 -7.13798,-0.921029 -7.82875,-2.53283 0,0 0.46052,2.53283 3.68412,3.223601 0,0 -7.36823,-0.230257 -9.67081,-2.763086 0,0 -3.2236,10.361575 1.38155,16.118005 0,0 -8.05901,-6.447202 -7.13798,-16.348263 0.23026,0.230258 -0.23025,-13.354918 10.59184,-10.591832 z"
     id="path963" />
  <path
     inkscape:connector-curvature="0"
     style="fill:#1e90ff;stroke-width:0.57564306;fill-opacity:1"
     d="m 239.219,87.221834 h 16.57852 c 1.6118,0 3.2236,-1.381543 3.2236,-3.223601 0,-1.842057 -1.38154,-3.223601 -3.2236,-3.223601 h -19.57187 c -1.6118,0 -3.2236,1.381544 -3.2236,3.223601 v 84.274147 h -16.57852 c -1.6118,0 -3.2236,1.38154 -3.2236,3.2236 0,1.6118 1.38155,3.2236 3.2236,3.2236 h 16.57852 v 84.27414 c 0,1.6118 1.38155,3.2236 3.2236,3.2236 h 17.2693 c 1.6118,0 3.2236,-1.38154 3.2236,-3.2236 0,-1.6118 -1.38155,-3.2236 -3.2236,-3.2236 H 239.219 Z"
     id="path965" />
  <g
     id="g967"
     transform="matrix(0.57564305,0,0,0.57564305,83.104603,27.1247)">
</g>
  <g
     id="g969"
     transform="matrix(0.57564305,0,0,0.57564305,83.104603,27.1247)">
</g>
  <g
     id="g971"
     transform="matrix(0.57564305,0,0,0.57564305,83.104603,27.1247)">
</g>
  <g
     id="g973"
     transform="matrix(0.57564305,0,0,0.57564305,83.104603,27.1247)">
</g>
  <g
     id="g975"
     transform="matrix(0.57564305,0,0,0.57564305,83.104603,27.1247)">
</g>
  <g
     id="g977"
     transform="matrix(0.57564305,0,0,0.57564305,83.104603,27.1247)">
</g>
  <g
     id="g979"
     transform="matrix(0.57564305,0,0,0.57564305,83.104603,27.1247)">
</g>
  <g
     id="g981"
     transform="matrix(0.57564305,0,0,0.57564305,83.104603,27.1247)">
</g>
  <g
     id="g983"
     transform="matrix(0.57564305,0,0,0.57564305,83.104603,27.1247)">
</g>
  <g
     id="g985"
     transform="matrix(0.57564305,0,0,0.57564305,83.104603,27.1247)">
</g>
  <g
     id="g987"
     transform="matrix(0.57564305,0,0,0.57564305,83.104603,27.1247)">
</g>
  <g
     id="g989"
     transform="matrix(0.57564305,0,0,0.57564305,83.104603,27.1247)">
</g>
  <g
     id="g991"
     transform="matrix(0.57564305,0,0,0.57564305,83.104603,27.1247)">
</g>
  <g
     id="g993"
     transform="matrix(0.57564305,0,0,0.57564305,83.104603,27.1247)">
</g>
  <g
     id="g995"
     transform="matrix(0.57564305,0,0,0.57564305,83.104603,27.1247)">
</g>
</svg>
