<svg xmlns="http://www.w3.org/2000/svg" xml:space="preserve" viewBox="0 0 455.73 455.73">
  <path fill="#0084b1" d="M0 0h455.73v455.73H0z"/>
  <path fill="#fff" d="M107.25 69.22c20.88.01 38.1 17.25 38.05 38.23-.05 21.96-18.28 38.52-38.3 38.04-20.31.41-38.16-16.55-38.15-38.19 0-20.98 17.28-38.1 38.4-38.08zm22.18 317.25H84.71c-5.8 0-10.5-4.7-10.5-10.5v-190.8c0-5.8 4.7-10.5 10.5-10.5h44.72c5.8 0 10.51 4.7 10.51 10.5v190.78c0 5.8-4.7 10.51-10.5 10.51zm257.45-144.79c0-40-32.42-72.42-72.42-72.42H303a64.28 64.28 0 0 0-56.36 33.27c-.37-.06-.6-.09-.6-.08v-23.42c0-2.4-1.95-4.36-4.36-4.36h-55.8a4.36 4.36 0 0 0-4.36 4.36v203.08c0 2.4 1.95 4.36 4.36 4.36l57.01.02a4.36 4.36 0 0 0 4.37-4.37V264.8c0-20.28 16.17-37.12 36.45-37.35a36.75 36.75 0 0 1 26.5 10.8 36.76 36.76 0 0 1 10.8 26.08v117.8a4.37 4.37 0 0 0 4.37 4.37l57.15.02a4.36 4.36 0 0 0 4.36-4.37V241.68z"/>
</svg>
