<?xml version="1.0" encoding="UTF-8" standalone="no"?>
<svg
   xmlns:dc="http://purl.org/dc/elements/1.1/"
   xmlns:cc="http://creativecommons.org/ns#"
   xmlns:rdf="http://www.w3.org/1999/02/22-rdf-syntax-ns#"
   xmlns:svg="http://www.w3.org/2000/svg"
   xmlns="http://www.w3.org/2000/svg"
   xmlns:sodipodi="http://sodipodi.sourceforge.net/DTD/sodipodi-0.dtd"
   xmlns:inkscape="http://www.inkscape.org/namespaces/inkscape"
   width="478.76007"
   height="344.78394"
   viewBox="0 0 478.76007 344.78393"
   version="1.1"
   id="svg1654"
   sodipodi:docname="man-boss.svg"
   inkscape:version="0.92.4 (5da689c313, 2019-01-14)">
  <metadata
     id="metadata1660">
    <rdf:RDF>
      <cc:Work
         rdf:about="">
        <dc:format>image/svg+xml</dc:format>
        <dc:type
           rdf:resource="http://purl.org/dc/dcmitype/StillImage" />
        <dc:title></dc:title>
      </cc:Work>
    </rdf:RDF>
  </metadata>
  <defs
     id="defs1658"><style
   id="style5909">
        .cls-bg21{fill:#f8f8ff;}
        .cls-bg22{fill:#bac5f4;}
        .cls-bg23{fill:#e1e6fb;}
      </style>
<clipPath
   id="fe9b49f8-e166-4e47-ac65-a2d5a59265ce">
  <path
     fill="none"
     d="M734.19,333.45c-6.71,56.78-32.6,122.79-84.4,153.12-78.23,45.82-71.69,116.3-224.38,147a313.33,313.33,0,0,1-67.69,6.39,260.44,260.44,0,0,1-33.24-2.72c-97-14.18-162.34-81.63-186.3-163C106.7,367,169.62,297,211.36,254.71S283.64,80.85,433.51,49.62A304.56,304.56,0,0,1,503.09,43c53.32,1.36,111.48,18.82,151.72,55.36q4.56,4.08,8.83,8.52C719.57,164.25,743.34,256.05,734.19,333.45Z"
     data-name="SVGID"
     id="b1f04b0c-412f-4f15-bef7-21759d12595e" />
</clipPath>

	
	
	
</defs>
  <sodipodi:namedview
     pagecolor="#ffffff"
     bordercolor="#666666"
     borderopacity="1"
     objecttolerance="10"
     gridtolerance="10"
     guidetolerance="10"
     inkscape:pageopacity="0"
     inkscape:pageshadow="2"
     inkscape:window-width="1366"
     inkscape:window-height="705"
     id="namedview1656"
     showgrid="false"
     fit-margin-top="0"
     fit-margin-left="0"
     fit-margin-right="0"
     fit-margin-bottom="0"
     inkscape:zoom="0.69118012"
     inkscape:cx="474.03447"
     inkscape:cy="132.41649"
     inkscape:window-x="1912"
     inkscape:window-y="113"
     inkscape:window-maximized="1"
     inkscape:current-layer="svg1654" />
  <path
     id="path1618"
     clip-path="none"
     style="color:#212529;font-style:normal;font-variant:normal;font-weight:400;font-size:16px;line-height:24px;font-family:Averta, 'Helvetica Neue', 'Open Sans', Arial, sans-serif;font-variant-ligatures:normal;font-variant-caps:normal;font-variant-numeric:normal;text-indent:0px;text-align:center;text-decoration:none;text-decoration-line:none;text-decoration-style:solid;text-decoration-color:#212529;letter-spacing:normal;word-spacing:0px;text-transform:none;writing-mode:lr-tb;direction:ltr;dominant-baseline:auto;baseline-shift:0px;text-anchor:start;white-space:normal;clip-rule:nonzero;display:inline;visibility:visible;opacity:1;isolation:auto;mix-blend-mode:normal;vector-effect:none;fill:#f8f8ff;fill-opacity:1;fill-rule:nonzero;stroke:none;stroke-width:0.67620546px;stroke-linecap:butt;stroke-linejoin:miter;stroke-miterlimit:4;stroke-dasharray:none;stroke-dashoffset:0px;stroke-opacity:1;marker-start:none;marker-mid:none;marker-end:none;paint-order:normal;color-rendering:auto;image-rendering:auto;shape-rendering:auto;text-rendering:auto"
     d="m 98.467478,100.85825 c 18.047842,-28.029299 9.107632,-35.803343 12.276442,-52.963656 2.87589,-15.6126 13.93354,-37.9326604 47.86884,-40.6910789 52.72852,-4.3019172 74.30547,38.3982779 74.30547,38.3982779 0,0 38.96767,62.345277 49.03402,69.614837 10.06636,7.26957 24.57635,36.28114 75.45374,36.09328 50.8774,-0.18786 79.31476,16.39668 76.79009,34.60542 -2.52469,18.20874 -58.80748,45.97181 -71.00238,51.33737 -12.19492,5.36554 -26.86517,34.01752 -27.53872,48.11219 -0.67355,14.09468 -2.31811,58.01303 -57.17367,28.75498 C 223.62574,284.86184 55.050116,201.55124 55.050116,201.55124 c 0,0 -59.2466854,-31.31854 -7.540175,-71.67336 43.167704,-33.691259 43.949161,-18.13701 50.957537,-29.01963 z"
     class="cls-bg21"
     inkscape:connector-curvature="0" />
  <g
     id="g962"
     transform="matrix(0.77439741,0,0,0.77439741,94.347579,25.386856)" />
  <g
     id="g964"
     transform="matrix(0.77439741,0,0,0.77439741,94.347579,25.386856)" />
  <g
     id="g966"
     transform="matrix(0.77439741,0,0,0.77439741,94.347579,25.386856)" />
  <g
     id="g968"
     transform="matrix(0.77439741,0,0,0.77439741,94.347579,25.386856)" />
  <g
     id="g970"
     transform="matrix(0.77439741,0,0,0.77439741,94.347579,25.386856)" />
  <g
     id="g972"
     transform="matrix(0.77439741,0,0,0.77439741,94.347579,25.386856)" />
  <g
     id="g974"
     transform="matrix(0.77439741,0,0,0.77439741,94.347579,25.386856)" />
  <g
     id="g976"
     transform="matrix(0.77439741,0,0,0.77439741,94.347579,25.386856)" />
  <g
     id="g978"
     transform="matrix(0.77439741,0,0,0.77439741,94.347579,25.386856)" />
  <g
     id="g980"
     transform="matrix(0.77439741,0,0,0.77439741,94.347579,25.386856)" />
  <g
     id="g982"
     transform="matrix(0.77439741,0,0,0.77439741,94.347579,25.386856)" />
  <g
     id="g984"
     transform="matrix(0.77439741,0,0,0.77439741,94.347579,25.386856)" />
  <g
     id="g986"
     transform="matrix(0.77439741,0,0,0.77439741,94.347579,25.386856)" />
  <g
     id="g988"
     transform="matrix(0.77439741,0,0,0.77439741,94.347579,25.386856)" />
  <g
     id="g990"
     transform="matrix(0.77439741,0,0,0.77439741,94.347579,25.386856)" />
  <style
     id="style2491"
     type="text/css">
	.st0{fill:#FFC54D;}
	.st1{fill:#C19D72;}
	.st2{fill:#A88763;}
</style>
  <g
     id="g967"
     transform="matrix(0.57564305,0,0,0.57564305,83.104603,27.1247)">
</g>
  <g
     id="g969"
     transform="matrix(0.57564305,0,0,0.57564305,83.104603,27.1247)">
</g>
  <g
     id="g971"
     transform="matrix(0.57564305,0,0,0.57564305,83.104603,27.1247)">
</g>
  <g
     id="g973"
     transform="matrix(0.57564305,0,0,0.57564305,83.104603,27.1247)">
</g>
  <g
     id="g975"
     transform="matrix(0.57564305,0,0,0.57564305,83.104603,27.1247)">
</g>
  <g
     id="g977"
     transform="matrix(0.57564305,0,0,0.57564305,83.104603,27.1247)">
</g>
  <g
     id="g979"
     transform="matrix(0.57564305,0,0,0.57564305,83.104603,27.1247)">
</g>
  <g
     id="g981"
     transform="matrix(0.57564305,0,0,0.57564305,83.104603,27.1247)">
</g>
  <g
     id="g983"
     transform="matrix(0.57564305,0,0,0.57564305,83.104603,27.1247)">
</g>
  <g
     id="g985"
     transform="matrix(0.57564305,0,0,0.57564305,83.104603,27.1247)">
</g>
  <g
     id="g987"
     transform="matrix(0.57564305,0,0,0.57564305,83.104603,27.1247)">
</g>
  <g
     id="g989"
     transform="matrix(0.57564305,0,0,0.57564305,83.104603,27.1247)">
</g>
  <g
     id="g991"
     transform="matrix(0.57564305,0,0,0.57564305,83.104603,27.1247)">
</g>
  <g
     id="g993"
     transform="matrix(0.57564305,0,0,0.57564305,83.104603,27.1247)">
</g>
  <g
     id="g995"
     transform="matrix(0.57564305,0,0,0.57564305,83.104603,27.1247)">
</g>
  <path
     inkscape:connector-curvature="0"
     style="fill:#f9b54c;stroke-width:0.64720273"
     d="m 258.70279,178.37259 c 0.0647,-0.77664 0.0647,-1.55328 0.0647,-2.39464 -0.12944,-3.55962 1.55329,-6.47204 4.07738,-8.34892 -8.15475,-12.62045 -15.0151,-31.97182 -15.0151,-31.97182 h -26.27641 c 0,0 -10.29053,29.96549 -20.64577,39.47938 l 33.20151,10.54939 v 0.51776 l 0.77664,-0.25887 0.77664,0.25887 v -0.51776 z"
     id="path4877" />
  <path
     inkscape:connector-curvature="0"
     style="fill:#e6e9ee;stroke-width:0.64720273"
     d="m 267.50476,173.64801 -32.74847,2.78298 -30.28907,-2.97713 -1.68273,0.19415 c 0,0 -14.17374,29.18884 -15.27399,31.97182 -1.10025,2.78297 11.13189,55.20639 11.13189,58.83072 0,3.62434 47.18107,24.14067 47.18107,24.14067 l 30.54796,-50.22294 z"
     id="path4879" />
  <polygon
     style="fill:#f1543f"
     points="260.2,334.1 243.6,334.1 232.5,306.3 271.2,306.3 "
     id="polygon4881"
     transform="matrix(0.64720268,0,0,0.64720268,71.72595,-21.807193)" />
  <polygon
     style="fill:#ff7058"
     points="251.9,431 271.2,405.4 260.2,334.1 243.6,334.1 232.5,405.4 "
     id="polygon4883"
     transform="matrix(0.64720268,0,0,0.64720268,71.72595,-21.807193)" />
  <g
     id="g4889"
     transform="matrix(0.64720268,0,0,0.64720268,71.72595,-21.807193)">
	<path
   inkscape:connector-curvature="0"
   style="fill:#ffffff"
   d="m 289.7,282.7 c 0,0 28.5,24.2 -13.9,50.9 L 252,306.7 Z"
   id="path4885" />

	<path
   inkscape:connector-curvature="0"
   style="fill:#ffffff"
   d="m 214.1,282.7 c 0,0 -28.5,24.2 13.9,50.9 l 23.8,-26.9 z"
   id="path4887" />

</g>
  <path
     inkscape:connector-curvature="0"
     style="fill:#324a5e;stroke-width:0.64720273"
     d="m 169.77715,261.60287 c -1.68272,7.11922 -3.68906,16.56838 -5.4365,27.31194 -13.39709,-6.40731 -25.75867,-14.62678 -36.76112,-24.33481 3.17129,-25.04675 9.31972,-50.87013 20.25744,-75.26968 0,0 0,0.0647 0.0647,0.12944 l 6.27787,14.30318 c 0,0.12944 0.0647,0.25888 0.12943,0.3236 l 19.15721,43.68618 c -0.0647,0.0647 -1.61801,5.24234 -3.68905,13.85015 z"
     id="path4891" />
  <path
     inkscape:connector-curvature="0"
     style="fill:#2b3b4e;stroke-width:0.64720273"
     d="m 246.47067,304.64184 c -3.75378,0.25888 -7.50756,0.38832 -11.39077,0.38832 -3.8185,0 -7.637,-0.12944 -11.39077,-0.38832 -17.60392,-1.22969 -34.36646,-5.17762 -49.96404,-11.52021 -0.90609,-11.32604 -2.32994,-21.81073 -4.01267,-31.45405 -4.40097,-25.69394 -10.74356,-45.23947 -15.46814,-57.47159 -0.0647,-0.12945 -0.12944,-0.25889 -0.12944,-0.32361 -3.30073,-8.47835 -5.82483,-13.3971 -6.27787,-14.30318 -0.0647,-0.12944 -0.0647,-0.12944 -0.0647,-0.12944 16.11535,-1.10025 29.12412,-5.56594 38.83216,-10.41996 12.7499,-6.4073 19.8044,-13.3971 20.51633,-14.10902 l 0.0647,-0.0647 -4.40097,8.80195 -3.68906,24.9173 19.41608,58.63656 15.59759,21.03409 0.9708,1.2944 2.00633,2.71826 2.78297,3.75378 2.78297,3.81849 v 0 c 2.13577,2.39465 3.30073,7.63699 3.8185,14.82094 z"
     id="path4893" />
  <path
     inkscape:connector-curvature="0"
     style="fill:#324a5e;stroke-width:0.64720273"
     d="m 207.18546,164.84606 c 0,0 -8.09003,52.81174 35.53143,124.97483 0,0 -34.10758,-17.21559 -56.8244,-102.25801 l 13.20294,-5.50123 -13.20294,-2.58881 z"
     id="path4895" />
  <path
     inkscape:connector-curvature="0"
     style="fill:#2b3b4e;stroke-width:0.64720273"
     d="m 342.7097,264.64472 c -11.06716,9.64331 -23.42873,17.86278 -36.7611,24.27009 -1.74746,-10.74356 -3.75378,-20.19272 -5.43651,-27.24723 -2.07105,-8.60779 -3.62434,-13.85014 -3.62434,-13.85014 l 19.28664,-44.00977 c 0,-0.0647 0,-0.12945 0.0647,-0.19417 l 6.14842,-14.10902 c 0.0647,-0.12944 0.0647,-0.12944 0.0647,-0.12944 10.93773,24.39954 17.15087,50.22293 20.25744,75.26968 z"
     id="path4897" />
  <path
     inkscape:connector-curvature="0"
     style="fill:#324a5e;stroke-width:0.64720273"
     d="m 322.45226,189.37504 c 0,0 0,0.0647 -0.0647,0.12944 -0.45304,0.90608 -2.91242,5.69539 -6.14842,14.10902 -0.0647,0.0647 -0.0647,0.12944 -0.0647,0.19417 -4.72458,12.23212 -11.1966,31.90708 -15.6623,57.85991 -1.68272,9.64332 -3.04185,20.12801 -4.01266,31.45405 -15.59758,6.34259 -32.42485,10.29052 -49.96404,11.52021 -3.75378,0.25888 -7.50756,0.38832 -11.39077,0.38832 -3.8185,0 -7.637,-0.12944 -11.39076,-0.38832 0.58248,-7.11924 1.74745,-12.36157 3.75376,-14.75622 v 0 l 5.17763,-7.05451 0.38832,-0.45304 2.00633,-2.71825 0.9708,-1.29441 15.59759,-21.03408 19.22192,-58.11881 0.19416,-0.51776 -3.62433,-24.91731 -4.40099,-8.80195 0.0647,0.0647 c 0.71191,0.71192 7.7017,7.76643 20.45159,14.0443 9.70805,4.72458 22.78153,9.25499 38.89688,10.29052 z"
     id="path4899" />
  <path
     inkscape:connector-curvature="0"
     style="fill:#2b3b4e;stroke-width:0.64720273"
     d="m 263.10378,164.84606 c 0,0 8.09002,52.81174 -35.53143,124.97483 0,0 34.10758,-17.21559 56.82439,-102.25801 l -13.20294,-5.50123 13.20294,-2.58881 z"
     id="path4901" />
  <g
     id="g4907"
     transform="matrix(0.64720268,0,0,0.64720268,71.72595,-21.807193)">
	<path
   inkscape:connector-curvature="0"
   style="fill:#f9b54c"
   d="m 315.1,199.6 c -0.8,9.8 -4.3,17.7 -7.9,17.7 -3.6,0 -5.7,-7.9 -4.9,-17.7 0.8,-9.8 4.3,-17.7 7.9,-17.7 3.6,0 5.7,7.9 4.9,17.7 z"
   id="path4903" />

	<path
   inkscape:connector-curvature="0"
   style="fill:#f9b54c"
   d="m 189.9,199.6 c 0.8,9.8 4.3,17.7 7.9,17.7 3.6,0 5.7,-7.9 4.9,-17.7 -0.8,-9.8 -4.3,-17.7 -7.9,-17.7 -3.6,0 -5.7,7.9 -4.9,17.7 z"
   id="path4905" />

</g>
  <path
     inkscape:connector-curvature="0"
     style="fill:#ffd05b;stroke-width:0.64720273"
     d="m 263.49209,71.325267 c -2.13577,-4.659861 -6.92507,-7.636994 -12.23212,-7.636994 H 235.4035 219.54704 c -5.30707,0 -10.09637,2.977133 -12.23214,7.636994 -5.1129,11.196604 -6.14842,30.677413 -6.21314,43.880343 0,8.73724 3.36546,17.2156 9.51388,23.75234 l 4.98346,5.24234 c 4.59513,4.85403 10.48468,8.41364 17.02142,10.29052 l 2.78298,0.77665 2.78297,-0.77665 c 6.60147,-1.87688 12.49101,-5.43649 17.02143,-10.29052 l 4.98347,-5.24234 c 6.14842,-6.53674 9.51387,-14.95038 9.51387,-23.75234 -0.0647,-13.20293 -1.10025,-32.683739 -6.21315,-43.880343 z"
     id="path4909" />
  <path
     inkscape:connector-curvature="0"
     style="fill:#11110f;stroke-width:0.64720273"
     d="m 273.7179,60.32283 c -0.58248,-1.876896 -1.35913,-3.68906 -1.87689,-5.501225 -0.3236,-1.229686 -0.58248,-2.58881 -1.22968,-3.68906 -1.35913,-2.459373 -4.33626,-3.753778 -7.11924,-3.494892 -2.78296,0.258873 -5.30706,1.876883 -7.18394,3.883215 0.45304,-2.653529 0.51776,-5.501225 -0.77664,-7.831149 -1.48858,-2.653529 -4.46571,-4.142101 -7.44284,-4.659861 -2.97714,-0.58249 -6.01899,-0.388323 -8.99612,-0.647209 -3.30072,-0.323591 -6.60146,-1.164955 -9.9022,-0.841363 -2.71825,0.258886 -5.17762,1.812177 -7.89587,2.394655 -28.15332,6.472025 -25.95283,39.932402 -25.56451,48.799082 0.12944,2.394643 0.32361,4.789298 1.03554,6.989785 0.9708,2.912415 2.84768,5.371792 4.85401,7.701712 0.51776,-1.61801 0.45304,-3.430174 0.84137,-5.048183 0.58247,-2.459361 0.84136,-4.983453 1.48856,-7.378108 0.6472,-2.329924 3.36545,-14.820934 4.4657,-17.215589 1.48856,-3.365455 4.20682,-6.407307 7.76643,-7.313389 6.73091,-1.747446 13.52654,4.336256 20.45161,3.236006 1.2944,-0.194155 2.52409,-0.711914 3.8185,-1.100237 1.42384,-0.51776 2.84768,-0.970801 4.33625,-1.359124 3.23601,-0.906082 6.7309,-1.618009 9.96692,-0.711927 3.55961,1.035519 6.40731,3.883216 8.21947,7.183953 1.81217,3.300737 2.65353,6.989785 3.49489,10.678845 0.45305,2.200487 0.90609,4.400975 0.71193,6.666181 0,0.194167 -0.0647,0.323604 -0.0647,0.517771 0.12943,1.812165 -0.0647,3.62433 0.25887,5.371776 0.25889,1.359123 0.71193,2.718247 0.97081,4.077385 0.12944,0.64719 0.25888,1.22967 0.38833,1.87688 2.39464,-4.400974 4.07737,-9.190271 4.98345,-14.173737 0.71193,-4.012664 0.90608,-8.090035 1.10025,-12.167417 0.19416,-5.501213 0.38832,-11.067156 -1.10025,-16.244776 z"
     id="path4911" />
  <g
     id="g4913"
     transform="translate(358.04997,1.1354806)">
</g>
  <g
     id="g4915"
     transform="translate(358.04997,1.1354806)">
</g>
  <g
     id="g4917"
     transform="translate(358.04997,1.1354806)">
</g>
  <g
     id="g4919"
     transform="translate(358.04997,1.1354806)">
</g>
  <g
     id="g4921"
     transform="translate(358.04997,1.1354806)">
</g>
  <g
     id="g4923"
     transform="translate(358.04997,1.1354806)">
</g>
  <g
     id="g4925"
     transform="translate(358.04997,1.1354806)">
</g>
  <g
     id="g4927"
     transform="translate(358.04997,1.1354806)">
</g>
  <g
     id="g4929"
     transform="translate(358.04997,1.1354806)">
</g>
  <g
     id="g4931"
     transform="translate(358.04997,1.1354806)">
</g>
  <g
     id="g4933"
     transform="translate(358.04997,1.1354806)">
</g>
  <g
     id="g4935"
     transform="translate(358.04997,1.1354806)">
</g>
  <g
     id="g4937"
     transform="translate(358.04997,1.1354806)">
</g>
  <g
     id="g4939"
     transform="translate(358.04997,1.1354806)">
</g>
  <g
     id="g4941"
     transform="translate(358.04997,1.1354806)">
</g>
</svg>
