<?xml version="1.0" encoding="UTF-8" standalone="no"?>
<svg
   xmlns:dc="http://purl.org/dc/elements/1.1/"
   xmlns:cc="http://creativecommons.org/ns#"
   xmlns:rdf="http://www.w3.org/1999/02/22-rdf-syntax-ns#"
   xmlns:svg="http://www.w3.org/2000/svg"
   xmlns="http://www.w3.org/2000/svg"
   xmlns:sodipodi="http://sodipodi.sourceforge.net/DTD/sodipodi-0.dtd"
   xmlns:inkscape="http://www.inkscape.org/namespaces/inkscape"
   width="478.76007"
   height="344.78394"
   viewBox="0 0 478.76007 344.78393"
   version="1.1"
   id="svg1654"
   sodipodi:docname="manufacture.svg"
   inkscape:version="0.92.4 (5da689c313, 2019-01-14)">
  <metadata
     id="metadata1660">
    <rdf:RDF>
      <cc:Work
         rdf:about="">
        <dc:format>image/svg+xml</dc:format>
        <dc:type
           rdf:resource="http://purl.org/dc/dcmitype/StillImage" />
        <dc:title></dc:title>
      </cc:Work>
    </rdf:RDF>
  </metadata>
  <defs
     id="defs1658"><style
   id="style5909">
        .cls-bg21{fill:#f8f8ff;}
        .cls-bg22{fill:#bac5f4;}
        .cls-bg23{fill:#e1e6fb;}
      </style>
<clipPath
   id="fe9b49f8-e166-4e47-ac65-a2d5a59265ce">
  <path
     fill="none"
     d="M734.19,333.45c-6.71,56.78-32.6,122.79-84.4,153.12-78.23,45.82-71.69,116.3-224.38,147a313.33,313.33,0,0,1-67.69,6.39,260.44,260.44,0,0,1-33.24-2.72c-97-14.18-162.34-81.63-186.3-163C106.7,367,169.62,297,211.36,254.71S283.64,80.85,433.51,49.62A304.56,304.56,0,0,1,503.09,43c53.32,1.36,111.48,18.82,151.72,55.36q4.56,4.08,8.83,8.52C719.57,164.25,743.34,256.05,734.19,333.45Z"
     data-name="SVGID"
     id="b1f04b0c-412f-4f15-bef7-21759d12595e" />
</clipPath>

	
	
	
	
	
	
	
	
	
</defs>
  <sodipodi:namedview
     pagecolor="#ffffff"
     bordercolor="#666666"
     borderopacity="1"
     objecttolerance="10"
     gridtolerance="10"
     guidetolerance="10"
     inkscape:pageopacity="0"
     inkscape:pageshadow="2"
     inkscape:window-width="1366"
     inkscape:window-height="705"
     id="namedview1656"
     showgrid="false"
     fit-margin-top="0"
     fit-margin-left="0"
     fit-margin-right="0"
     fit-margin-bottom="0"
     inkscape:zoom="0.69118012"
     inkscape:cx="476.19412"
     inkscape:cy="76.056035"
     inkscape:window-x="1912"
     inkscape:window-y="113"
     inkscape:window-maximized="1"
     inkscape:current-layer="svg1654" />
  <path
     d="m 238.91596,132.54023 h 139.10888 c 0.18276,-1.29635 0.28265,-2.62521 0.28265,-3.97421 0,-15.88444 -12.87435,-28.759573 -28.76654,-28.759573 -4.42181,0 -8.61052,0.997423 -12.36015,2.783183 -0.69154,-15.272664 -13.28402,-27.439222 -28.73092,-27.439222 -15.88367,0 -28.76577,12.875906 -28.76577,28.763442 0,2.54622 0.33686,5.01345 0.95483,7.35755 -3.96878,-2.06764 -8.48584,-3.25169 -13.28014,-3.25169 -14.44096,0 -26.38836,10.64951 -28.44284,24.52052 z"
     style="fill:#dedde0;stroke-width:0.77439743"
     id="XMLID_1326_"
     inkscape:connector-curvature="0" />
  <path
     d="M 293.12378,186.74804 217.27,228.12332 227.3,318.3956 H 378.30749 V 186.74804 l -85.18371,46.46385 z m 30.97589,69.69577 h 23.23193 v 23.23192 h -23.23193 z m -61.95179,23.23192 h -23.23192 v -23.23192 h 23.23192 z"
     style="fill:#004670;stroke-width:0.77439743;fill-opacity:1"
     id="XMLID_1327_"
     inkscape:connector-curvature="0" />
  <polygon
     points="92.185,298.37 92.185,138.372 38.351,138.372 11.685,378.37 92.185,378.37 92.185,328.37 76.685,328.37 76.685,298.37 "
     style="fill:#1e90ff;fill-opacity:1"
     id="XMLID_1331_"
     transform="matrix(0.77439741,0,0,0.77439741,94.347579,25.386856)" />
  <polygon
     points="92.185,138.372 92.185,298.37 106.685,298.37 106.685,328.37 92.185,328.37 92.185,378.37 171.685,378.37 158.733,261.799 145.019,138.372 "
     style="fill:#007da7;fill-opacity:1"
     id="XMLID_1332_"
     transform="matrix(0.77439741,0,0,0.77439741,94.347579,25.386856)" />
  <path
     d="m 254.6703,81.875275 c 0,-16.799003 -13.61778,-30.416781 -30.41678,-30.416781 -4.67968,0 -9.11079,1.06015 -13.07183,2.947356 -0.73103,-16.148509 -14.05067,-29.018994 -30.38116,-29.018994 -16.799,0 -30.41678,13.618553 -30.41678,30.416781 0,2.691806 0.35313,5.299976 1.00981,7.784243 -4.20265,-2.192319 -8.97758,-3.439099 -14.04602,-3.439099 -15.27189,0 -27.90696,11.258964 -30.07914,25.9276 h 147.10298 c 0.19128,-1.373781 0.29892,-2.773117 0.29892,-4.201106 z"
     style="fill:#acabb1;stroke-width:0.77439743"
     id="XMLID_1333_"
     inkscape:connector-curvature="0" />
  <rect
     height="23.231922"
     width="23.231922"
     style="fill:#ffffff;stroke-width:0.77439743"
     y="256.44382"
     x="238.91595"
     id="XMLID_1334_" />
  <rect
     height="23.231922"
     width="23.231922"
     style="fill:#ffffff;stroke-width:0.77439743"
     y="256.44382"
     x="324.09967"
     id="XMLID_1335_" />
  <polygon
     points="92.185,298.37 76.685,298.37 76.685,328.37 92.185,328.37 106.685,328.37 106.685,298.37 "
     style="fill:#ffffff"
     id="XMLID_1336_"
     transform="matrix(0.77439741,0,0,0.77439741,94.347579,25.386856)" />
  <polygon
     points="26.685,108.372 26.685,138.372 38.351,138.372 92.185,138.372 145.019,138.372 156.685,138.372 156.685,108.372 "
     style="fill:#565659"
     id="XMLID_1337_"
     transform="matrix(0.77439741,0,0,0.77439741,94.347579,25.386856)" />
  <g
     id="g962"
     transform="matrix(0.77439741,0,0,0.77439741,94.347579,25.386856)">
</g>
  <g
     id="g964"
     transform="matrix(0.77439741,0,0,0.77439741,94.347579,25.386856)">
</g>
  <g
     id="g966"
     transform="matrix(0.77439741,0,0,0.77439741,94.347579,25.386856)">
</g>
  <g
     id="g968"
     transform="matrix(0.77439741,0,0,0.77439741,94.347579,25.386856)">
</g>
  <g
     id="g970"
     transform="matrix(0.77439741,0,0,0.77439741,94.347579,25.386856)">
</g>
  <g
     id="g972"
     transform="matrix(0.77439741,0,0,0.77439741,94.347579,25.386856)">
</g>
  <g
     id="g974"
     transform="matrix(0.77439741,0,0,0.77439741,94.347579,25.386856)">
</g>
  <g
     id="g976"
     transform="matrix(0.77439741,0,0,0.77439741,94.347579,25.386856)">
</g>
  <g
     id="g978"
     transform="matrix(0.77439741,0,0,0.77439741,94.347579,25.386856)">
</g>
  <g
     id="g980"
     transform="matrix(0.77439741,0,0,0.77439741,94.347579,25.386856)">
</g>
  <g
     id="g982"
     transform="matrix(0.77439741,0,0,0.77439741,94.347579,25.386856)">
</g>
  <g
     id="g984"
     transform="matrix(0.77439741,0,0,0.77439741,94.347579,25.386856)">
</g>
  <g
     id="g986"
     transform="matrix(0.77439741,0,0,0.77439741,94.347579,25.386856)">
</g>
  <g
     id="g988"
     transform="matrix(0.77439741,0,0,0.77439741,94.347579,25.386856)">
</g>
  <g
     id="g990"
     transform="matrix(0.77439741,0,0,0.77439741,94.347579,25.386856)">
</g>
</svg>
