<?xml version="1.0" encoding="UTF-8" standalone="no"?>
<!-- Generator: Adobe Illustrator 16.0.0, SVG Export Plug-In . SVG Version: 6.00 Build 0)  -->

<svg
   xmlns:dc="http://purl.org/dc/elements/1.1/"
   xmlns:cc="http://creativecommons.org/ns#"
   xmlns:rdf="http://www.w3.org/1999/02/22-rdf-syntax-ns#"
   xmlns:svg="http://www.w3.org/2000/svg"
   xmlns="http://www.w3.org/2000/svg"
   xmlns:sodipodi="http://sodipodi.sourceforge.net/DTD/sodipodi-0.dtd"
   xmlns:inkscape="http://www.inkscape.org/namespaces/inkscape"
   version="1.1"
   id="Capa_1"
   x="0px"
   y="0px"
   width="92.833px"
   height="92.833px"
   viewBox="0 0 92.833 92.833"
   style="enable-background:new 0 0 92.833 92.833;"
   xml:space="preserve"
   sodipodi:docname="menu-mobile.svg"
   inkscape:version="0.92.4 (5da689c313, 2019-01-14)"><metadata
   id="metadata860"><rdf:RDF><cc:Work
       rdf:about=""><dc:format>image/svg+xml</dc:format><dc:type
         rdf:resource="http://purl.org/dc/dcmitype/StillImage" /></cc:Work></rdf:RDF></metadata><defs
   id="defs858" /><sodipodi:namedview
   pagecolor="#ffffff"
   bordercolor="#666666"
   borderopacity="1"
   objecttolerance="10"
   gridtolerance="10"
   guidetolerance="10"
   inkscape:pageopacity="0"
   inkscape:pageshadow="2"
   inkscape:window-width="1366"
   inkscape:window-height="705"
   id="namedview856"
   showgrid="false"
   inkscape:zoom="5.4506479"
   inkscape:cx="46.4165"
   inkscape:cy="46.4165"
   inkscape:window-x="1912"
   inkscape:window-y="113"
   inkscape:window-maximized="1"
   inkscape:current-layer="Capa_1" />
<g
   id="g823"
   style="fill:#292e6e;fill-opacity:1">
	<g
   id="g821"
   style="fill:#292e6e;fill-opacity:1">
		<path
   d="M89.834,1.75H3c-1.654,0-3,1.346-3,3v13.334c0,1.654,1.346,3,3,3h86.833c1.653,0,3-1.346,3-3V4.75    C92.834,3.096,91.488,1.75,89.834,1.75z"
   id="path815"
   style="fill:#292e6e;fill-opacity:1" />
		<path
   d="M89.834,36.75H3c-1.654,0-3,1.346-3,3v13.334c0,1.654,1.346,3,3,3h86.833c1.653,0,3-1.346,3-3V39.75    C92.834,38.096,91.488,36.75,89.834,36.75z"
   id="path817"
   style="fill:#292e6e;fill-opacity:1" />
		<path
   d="M89.834,71.75H3c-1.654,0-3,1.346-3,3v13.334c0,1.654,1.346,3,3,3h86.833c1.653,0,3-1.346,3-3V74.75    C92.834,73.095,91.488,71.75,89.834,71.75z"
   id="path819"
   style="fill:#292e6e;fill-opacity:1" />
	</g>
</g>
<g
   id="g825">
</g>
<g
   id="g827">
</g>
<g
   id="g829">
</g>
<g
   id="g831">
</g>
<g
   id="g833">
</g>
<g
   id="g835">
</g>
<g
   id="g837">
</g>
<g
   id="g839">
</g>
<g
   id="g841">
</g>
<g
   id="g843">
</g>
<g
   id="g845">
</g>
<g
   id="g847">
</g>
<g
   id="g849">
</g>
<g
   id="g851">
</g>
<g
   id="g853">
</g>
</svg>