<?xml version="1.0" encoding="UTF-8" standalone="no"?>
<!-- Created with Inkscape (http://www.inkscape.org/) -->

<svg
   xmlns:dc="http://purl.org/dc/elements/1.1/"
   xmlns:cc="http://creativecommons.org/ns#"
   xmlns:rdf="http://www.w3.org/1999/02/22-rdf-syntax-ns#"
   xmlns:svg="http://www.w3.org/2000/svg"
   xmlns="http://www.w3.org/2000/svg"
   xmlns:sodipodi="http://sodipodi.sourceforge.net/DTD/sodipodi-0.dtd"
   xmlns:inkscape="http://www.inkscape.org/namespaces/inkscape"
   width="145.25424mm"
   height="59.349655mm"
   viewBox="0 0 145.25424 59.349655"
   version="1.1"
   id="svg8"
   sodipodi:docname="mes.svg"
   inkscape:version="0.92.4 (5da689c313, 2019-01-14)">
  <defs
     id="defs2" />
  <sodipodi:namedview
     id="base"
     pagecolor="#ffffff"
     bordercolor="#666666"
     borderopacity="1.0"
     inkscape:pageopacity="0.0"
     inkscape:pageshadow="2"
     inkscape:zoom="0.7"
     inkscape:cx="438.96633"
     inkscape:cy="-25.150479"
     inkscape:document-units="mm"
     inkscape:current-layer="layer1"
     showgrid="false"
     fit-margin-top="0"
     fit-margin-left="0"
     fit-margin-right="0"
     fit-margin-bottom="0"
     inkscape:window-width="1366"
     inkscape:window-height="705"
     inkscape:window-x="1912"
     inkscape:window-y="113"
     inkscape:window-maximized="1" />
  <metadata
     id="metadata5">
    <rdf:RDF>
      <cc:Work
         rdf:about="">
        <dc:format>image/svg+xml</dc:format>
        <dc:type
           rdf:resource="http://purl.org/dc/dcmitype/StillImage" />
        <dc:title></dc:title>
      </cc:Work>
    </rdf:RDF>
  </metadata>
  <g
     inkscape:label="Capa 1"
     inkscape:groupmode="layer"
     id="layer1"
     transform="translate(-13.622322,-12.733909)">
    <path
       style="opacity:0.09299999;fill:#1e90ff;fill-opacity:1;stroke:none;stroke-width:0.26458332px;stroke-linecap:butt;stroke-linejoin:miter;stroke-opacity:1"
       d="m 102.80952,21.077379 c -22.475241,6.014074 -41.955354,-7.181547 -58.20833,12.85119 -16.252975,20.03274 34.773809,36.28571 34.773809,36.28571 0,0 28.972631,8.78009 60.098221,-11.71726 15.49702,-10.20536 28.34821,-31.749996 11.33928,-41.199401 -17.00892,-9.4494064 -25.52773,-2.234308 -48.00298,3.779761 z"
       id="path856"
       inkscape:connector-curvature="0"
       sodipodi:nodetypes="zscssz" />
    <g
       aria-label="Manufacturing Execution System"
       style="font-style:normal;font-variant:normal;font-weight:normal;font-stretch:normal;font-size:8.08233643px;line-height:1.25;font-family:'American Captain';-inkscape-font-specification:'American Captain';letter-spacing:0px;word-spacing:0px;fill:#1e90ff;fill-opacity:1;stroke:none;stroke-width:0.2020584"
       id="text821">
      <path
         inkscape:connector-curvature="0"
         d="m 13.622322,53.955769 v 5.390918 h 0.719328 v -4.720084 h 0.315211 l 3.038959,4.720084 h 0.581928 l 3.006629,-4.720084 h 0.299047 v 4.720084 h 0.719328 v -5.390918 h -1.446739 l -2.869229,4.574602 -2.925806,-4.574602 z"
         style="font-style:normal;font-variant:normal;font-weight:normal;font-stretch:normal;font-family:'Microgramma D Extended';-inkscape-font-specification:'Microgramma D Extended';fill:#1e90ff;fill-opacity:1;stroke-width:0.2020584"
         id="path943" />
      <path
         inkscape:connector-curvature="0"
         d="m 23.683442,56.72801 v -0.04849 c 0.0081,-0.517269 0.234388,-0.606175 1.51948,-0.606175 0.977962,0 1.31742,0.07274 1.527561,0.331376 0.1374,0.161647 0.177812,0.323293 0.177812,0.711245 v 0.404117 h -0.04849 c -0.258635,-0.355623 -0.51727,-0.404117 -2.052914,-0.404117 -0.792069,0 -1.147692,0.03233 -1.373997,0.121236 -0.387952,0.145482 -0.533434,0.436446 -0.533434,1.026456 0,0.452611 0.08082,0.678916 0.323293,0.872893 0.2748,0.21014 0.630422,0.258634 1.97209,0.258634 1.13961,0 1.414409,-0.08082 1.697291,-0.48494 h 0.02425 l -0.0081,0.436446 h 0.59001 v -1.97209 c 0,-0.889057 -0.05658,-1.139609 -0.315211,-1.398244 -0.315211,-0.331376 -0.751657,-0.420281 -2.020584,-0.420281 -1.62455,0 -2.101408,0.226305 -2.101408,1.010292 v 0.161646 z m 1.511397,0.913304 c 1.317421,0 1.673044,0.129318 1.673044,0.614258 0,0.501105 -0.299047,0.62234 -1.551809,0.62234 -0.921386,0 -1.325503,-0.02425 -1.495232,-0.09699 -0.210141,-0.08891 -0.290964,-0.234388 -0.290964,-0.509187 0,-0.242471 0.07274,-0.404117 0.218223,-0.501105 0.169729,-0.105071 0.452611,-0.129318 1.446738,-0.129318 z"
         style="font-style:normal;font-variant:normal;font-weight:normal;font-stretch:normal;font-family:'Microgramma D Extended';-inkscape-font-specification:'Microgramma D Extended';fill:#1e90ff;fill-opacity:1;stroke-width:0.2020584"
         id="path945" />
      <path
         inkscape:connector-curvature="0"
         d="m 28.127591,55.604566 v 3.742121 h 0.59001 v -1.72962 c 0,-0.711245 0.03233,-0.889057 0.218224,-1.10728 0.258634,-0.315211 0.72741,-0.436446 1.648796,-0.436446 0.816316,0 1.188104,0.08891 1.38208,0.323294 0.169729,0.193976 0.21014,0.420281 0.21014,1.091115 v 1.858937 h 0.590011 v -2.109489 c 0,-0.703164 -0.08082,-1.018375 -0.307129,-1.268927 -0.290964,-0.315211 -0.735492,-0.412199 -1.810443,-0.412199 -1.228515,0 -1.640714,0.129317 -1.883185,0.614257 h -0.04849 v -0.565763 z"
         style="font-style:normal;font-variant:normal;font-weight:normal;font-stretch:normal;font-family:'Microgramma D Extended';-inkscape-font-specification:'Microgramma D Extended';fill:#1e90ff;fill-opacity:1;stroke-width:0.2020584"
         id="path947" />
      <path
         inkscape:connector-curvature="0"
         d="m 33.36002,55.604566 v 2.069078 c 0,0.775904 0.09699,1.131527 0.363705,1.365915 0.290964,0.258634 0.767822,0.355622 1.689208,0.355622 1.163857,0 1.551809,-0.129317 1.850855,-0.606175 h 0.03233 v 0.557681 h 0.590011 v -3.742121 h -0.590011 v 1.850855 c 0,0.541516 -0.04849,0.792069 -0.21014,0.977962 -0.250553,0.323294 -0.711246,0.444529 -1.608385,0.444529 -0.695081,0 -1.042622,-0.07274 -1.252762,-0.250553 -0.218223,-0.193976 -0.2748,-0.428363 -0.2748,-1.131527 v -1.891266 z"
         style="font-style:normal;font-variant:normal;font-weight:normal;font-stretch:normal;font-family:'Microgramma D Extended';-inkscape-font-specification:'Microgramma D Extended';fill:#1e90ff;fill-opacity:1;stroke-width:0.2020584"
         id="path949" />
      <path
         inkscape:connector-curvature="0"
         d="m 38.150572,56.113753 h 0.840563 v 3.232934 h 0.590011 v -3.232934 h 1.891266 V 55.604566 H 39.59731 l 0.0081,-0.129318 c 0,-0.848645 0.169729,-0.986045 1.228515,-1.00221 l 0.638504,-0.02425 v -0.509187 l -0.678916,0.02425 c -1.479067,0.03233 -1.802361,0.331376 -1.802361,1.640715 h -0.840563 z"
         style="font-style:normal;font-variant:normal;font-weight:normal;font-stretch:normal;font-family:'Microgramma D Extended';-inkscape-font-specification:'Microgramma D Extended';fill:#1e90ff;fill-opacity:1;stroke-width:0.2020584"
         id="path951" />
      <path
         inkscape:connector-curvature="0"
         d="m 42.484346,56.72801 v -0.04849 c 0.0081,-0.517269 0.234387,-0.606175 1.519479,-0.606175 0.977963,0 1.317421,0.07274 1.527561,0.331376 0.1374,0.161647 0.177812,0.323293 0.177812,0.711245 v 0.404117 h -0.04849 c -0.258635,-0.355623 -0.51727,-0.404117 -2.052914,-0.404117 -0.792069,0 -1.147691,0.03233 -1.373997,0.121236 -0.387952,0.145482 -0.533434,0.436446 -0.533434,1.026456 0,0.452611 0.08082,0.678916 0.323293,0.872893 0.2748,0.21014 0.630423,0.258634 1.972091,0.258634 1.139609,0 1.414408,-0.08082 1.69729,-0.48494 h 0.02425 l -0.0081,0.436446 h 0.59001 v -1.97209 c 0,-0.889057 -0.05658,-1.139609 -0.315211,-1.398244 -0.315211,-0.331376 -0.751657,-0.420281 -2.020584,-0.420281 -1.624549,0 -2.101407,0.226305 -2.101407,1.010292 v 0.161646 z m 1.511397,0.913304 c 1.31742,0 1.673043,0.129318 1.673043,0.614258 0,0.501105 -0.299046,0.62234 -1.551808,0.62234 -0.921387,0 -1.325504,-0.02425 -1.495233,-0.09699 -0.21014,-0.08891 -0.290964,-0.234388 -0.290964,-0.509187 0,-0.242471 0.07274,-0.404117 0.218223,-0.501105 0.169729,-0.105071 0.452611,-0.129318 1.446739,-0.129318 z"
         style="font-style:normal;font-variant:normal;font-weight:normal;font-stretch:normal;font-family:'Microgramma D Extended';-inkscape-font-specification:'Microgramma D Extended';fill:#1e90ff;fill-opacity:1;stroke-width:0.2020584"
         id="path953" />
      <path
         inkscape:connector-curvature="0"
         d="m 50.937335,57.988855 c -0.02425,0.72741 -0.290964,0.880974 -1.503315,0.880974 -0.783986,0 -1.236597,-0.04849 -1.470985,-0.161646 -0.339458,-0.153565 -0.48494,-0.51727 -0.48494,-1.188104 0,-1.220433 0.266717,-1.446738 1.713455,-1.446738 1.373998,0 1.697291,0.161647 1.713456,0.86481 h 0.614257 c -0.02425,-0.48494 -0.10507,-0.743575 -0.323293,-0.961798 -0.299047,-0.315211 -0.808234,-0.420281 -2.00442,-0.420281 -0.897139,0 -1.333585,0.06466 -1.656879,0.24247 -0.468775,0.258634 -0.686998,0.783986 -0.686998,1.681126 0,0.775904 0.169729,1.277009 0.517269,1.559891 0.331376,0.274799 0.848646,0.355622 2.182231,0.355622 0.969881,0 1.390162,-0.10507 1.681126,-0.412199 0.218223,-0.226305 0.307129,-0.493022 0.315211,-0.994127 z"
         style="font-style:normal;font-variant:normal;font-weight:normal;font-stretch:normal;font-family:'Microgramma D Extended';-inkscape-font-specification:'Microgramma D Extended';fill:#1e90ff;fill-opacity:1;stroke-width:0.2020584"
         id="path955" />
      <path
         inkscape:connector-curvature="0"
         d="m 52.632728,54.675097 v 0.929469 h -0.921386 v 0.509187 h 0.921386 v 1.810443 c 0,0.590011 0.04849,0.824398 0.210141,1.050704 0.218223,0.299046 0.646587,0.420281 1.446738,0.420281 0.792069,0 1.196186,-0.129317 1.414409,-0.460693 0.153565,-0.226305 0.202059,-0.468775 0.202059,-1.050704 v -0.234387 h -0.590011 v 0.234387 c 0,0.460694 -0.02425,0.598093 -0.113153,0.735493 -0.129317,0.202058 -0.331375,0.258635 -0.856727,0.258635 -0.565764,0 -0.832481,-0.07274 -0.986045,-0.258635 -0.121235,-0.153564 -0.121235,-0.177811 -0.1374,-0.889057 v -1.616467 h 2.618677 v -0.509187 h -2.618677 v -0.929469 z"
         style="font-style:normal;font-variant:normal;font-weight:normal;font-stretch:normal;font-family:'Microgramma D Extended';-inkscape-font-specification:'Microgramma D Extended';fill:#1e90ff;fill-opacity:1;stroke-width:0.2020584"
         id="path957" />
      <path
         inkscape:connector-curvature="0"
         d="m 56.312593,55.604566 v 2.069078 c 0,0.775904 0.09699,1.131527 0.363706,1.365915 0.290964,0.258634 0.767821,0.355622 1.689208,0.355622 1.163856,0 1.551808,-0.129317 1.850855,-0.606175 h 0.03233 v 0.557681 h 0.590011 v -3.742121 h -0.590011 v 1.850855 c 0,0.541516 -0.04849,0.792069 -0.210141,0.977962 -0.250552,0.323294 -0.711245,0.444529 -1.608384,0.444529 -0.695081,0 -1.042622,-0.07274 -1.252763,-0.250553 -0.218223,-0.193976 -0.274799,-0.428363 -0.274799,-1.131527 v -1.891266 z"
         style="font-style:normal;font-variant:normal;font-weight:normal;font-stretch:normal;font-family:'Microgramma D Extended';-inkscape-font-specification:'Microgramma D Extended';fill:#1e90ff;fill-opacity:1;stroke-width:0.2020584"
         id="path959" />
      <path
         inkscape:connector-curvature="0"
         d="m 61.483016,55.604566 v 3.742121 h 0.59001 v -1.72962 c 0,-1.317421 0.250553,-1.543726 1.673044,-1.543726 0.921386,0 1.123445,0.169729 1.123445,0.945633 v 0.266718 h 0.606175 v -0.387953 c 0,-0.48494 -0.129317,-0.840563 -0.37987,-1.058786 -0.250552,-0.218223 -0.549599,-0.282881 -1.285091,-0.282881 -0.711246,0 -1.026457,0.03233 -1.252762,0.145482 -0.202059,0.09699 -0.347541,0.226305 -0.444529,0.404116 h -0.04041 v -0.501104 z"
         style="font-style:normal;font-variant:normal;font-weight:normal;font-stretch:normal;font-family:'Microgramma D Extended';-inkscape-font-specification:'Microgramma D Extended';fill:#1e90ff;fill-opacity:1;stroke-width:0.2020584"
         id="path961" />
      <path
         inkscape:connector-curvature="0"
         d="m 65.895717,55.604566 v 3.742121 h 0.590011 v -3.742121 z m 0,-1.648797 v 0.703163 h 0.590011 v -0.703163 z"
         style="font-style:normal;font-variant:normal;font-weight:normal;font-stretch:normal;font-family:'Microgramma D Extended';-inkscape-font-specification:'Microgramma D Extended';fill:#1e90ff;fill-opacity:1;stroke-width:0.2020584"
         id="path963" />
      <path
         inkscape:connector-curvature="0"
         d="m 67.165908,55.604566 v 3.742121 h 0.59001 v -1.72962 c 0,-0.711245 0.03233,-0.889057 0.218223,-1.10728 0.258635,-0.315211 0.727411,-0.436446 1.648797,-0.436446 0.816316,0 1.188103,0.08891 1.382079,0.323294 0.169729,0.193976 0.210141,0.420281 0.210141,1.091115 v 1.858937 h 0.590011 v -2.109489 c 0,-0.703164 -0.08082,-1.018375 -0.307129,-1.268927 -0.290964,-0.315211 -0.735493,-0.412199 -1.810443,-0.412199 -1.228516,0 -1.640715,0.129317 -1.883185,0.614257 h -0.04849 v -0.565763 z"
         style="font-style:normal;font-variant:normal;font-weight:normal;font-stretch:normal;font-family:'Microgramma D Extended';-inkscape-font-specification:'Microgramma D Extended';fill:#1e90ff;fill-opacity:1;stroke-width:0.2020584"
         id="path965" />
      <path
         inkscape:connector-curvature="0"
         d="m 76.617316,55.604566 0.0081,0.476857 h -0.03233 c -0.10507,-0.153564 -0.185894,-0.24247 -0.355623,-0.339458 -0.258635,-0.145482 -0.533434,-0.185893 -1.365915,-0.185893 -0.961798,0 -1.398244,0.04849 -1.721537,0.185893 -0.549599,0.24247 -0.808234,0.75974 -0.808234,1.632632 0,0.751658 0.177811,1.220433 0.565764,1.519479 0.299046,0.226306 0.792069,0.315212 1.842772,0.315212 1.204268,0 1.503315,-0.08082 1.826608,-0.484941 h 0.04041 c -0.03233,0.767822 -0.06466,0.953716 -0.234388,1.163857 -0.202058,0.258635 -0.630422,0.339458 -1.761949,0.339458 -1.204268,0 -1.519479,-0.145482 -1.567973,-0.695081 h -0.614258 c 0,0.347541 0.04041,0.48494 0.177811,0.670834 0.299047,0.404117 0.816316,0.541517 2.069079,0.541517 1.398244,0 1.826608,-0.08891 2.166066,-0.460694 0.282881,-0.315211 0.363705,-0.72741 0.363705,-1.875102 v -2.80457 z m -1.745785,0.468775 c 1.438656,0 1.745785,0.218223 1.745785,1.252762 0,0.638505 -0.10507,0.961798 -0.37987,1.155774 -0.226305,0.153565 -0.614257,0.210141 -1.446738,0.210141 -0.678916,0 -1.099198,-0.04041 -1.301256,-0.129317 -0.355623,-0.161647 -0.51727,-0.51727 -0.51727,-1.171939 0,-0.590011 0.1374,-0.961798 0.412199,-1.115363 0.24247,-0.145482 0.670834,-0.202058 1.48715,-0.202058 z"
         style="font-style:normal;font-variant:normal;font-weight:normal;font-stretch:normal;font-family:'Microgramma D Extended';-inkscape-font-specification:'Microgramma D Extended';fill:#1e90ff;fill-opacity:1;stroke-width:0.2020584"
         id="path967" />
      <path
         inkscape:connector-curvature="0"
         d="m 79.970093,59.346687 h 5.285848 v -0.630422 h -4.56652 V 56.86541 h 4.364462 v -0.630422 h -4.364462 v -1.648797 h 4.558438 v -0.630422 h -5.277766 z"
         style="font-style:normal;font-variant:normal;font-weight:normal;font-stretch:normal;font-family:'Microgramma D Extended';-inkscape-font-specification:'Microgramma D Extended';fill:#1e90ff;fill-opacity:1;stroke-width:0.2020584"
         id="path969" />
      <path
         inkscape:connector-curvature="0"
         d="m 85.537184,55.604566 1.899349,1.778114 -2.133737,1.964007 h 0.921386 l 1.664961,-1.59222 1.648797,1.59222 h 0.921386 l -2.109489,-1.964007 1.891266,-1.778114 h -0.872892 l -1.479068,1.422491 -1.470985,-1.422491 z"
         style="font-style:normal;font-variant:normal;font-weight:normal;font-stretch:normal;font-family:'Microgramma D Extended';-inkscape-font-specification:'Microgramma D Extended';fill:#1e90ff;fill-opacity:1;stroke-width:0.2020584"
         id="path971" />
      <path
         inkscape:connector-curvature="0"
         d="m 94.626655,58.190913 c -0.02425,0.24247 -0.04041,0.307129 -0.1374,0.404117 -0.193976,0.218223 -0.525352,0.282882 -1.373997,0.282882 -1.123445,0 -1.527562,-0.07274 -1.753867,-0.307129 -0.177811,-0.185894 -0.258635,-0.476858 -0.274799,-0.961798 h 4.170485 c -0.01616,-0.889057 -0.09699,-1.228515 -0.37987,-1.559891 -0.34754,-0.387952 -0.792069,-0.493022 -2.085242,-0.493022 -0.905222,0 -1.333586,0.05658 -1.640715,0.226305 -0.48494,0.266717 -0.703163,0.792069 -0.703163,1.705373 0,0.767822 0.177811,1.285091 0.533434,1.559891 0.331376,0.258635 0.905222,0.34754 2.198396,0.34754 1.519479,0 2.044831,-0.307128 2.069078,-1.204268 z m -3.523899,-1.091115 c 0.06466,-0.832481 0.37987,-1.026457 1.673044,-1.026457 1.45482,0 1.818526,0.202058 1.826608,1.026457 z"
         style="font-style:normal;font-variant:normal;font-weight:normal;font-stretch:normal;font-family:'Microgramma D Extended';-inkscape-font-specification:'Microgramma D Extended';fill:#1e90ff;fill-opacity:1;stroke-width:0.2020584"
         id="path973" />
      <path
         inkscape:connector-curvature="0"
         d="m 99.794425,57.988855 c -0.02425,0.72741 -0.290964,0.880974 -1.503315,0.880974 -0.783986,0 -1.236597,-0.04849 -1.470985,-0.161646 -0.339458,-0.153565 -0.48494,-0.51727 -0.48494,-1.188104 0,-1.220433 0.266717,-1.446738 1.713455,-1.446738 1.373998,0 1.697291,0.161647 1.713456,0.86481 h 0.614254 c -0.0242,-0.48494 -0.10507,-0.743575 -0.32329,-0.961798 -0.299047,-0.315211 -0.808234,-0.420281 -2.00442,-0.420281 -0.897139,0 -1.333585,0.06466 -1.656879,0.24247 -0.468775,0.258634 -0.686998,0.783986 -0.686998,1.681126 0,0.775904 0.169729,1.277009 0.517269,1.559891 0.331376,0.274799 0.848646,0.355622 2.182231,0.355622 0.969881,0 1.390162,-0.10507 1.681127,-0.412199 0.21822,-0.226305 0.30713,-0.493022 0.31521,-0.994127 z"
         style="font-style:normal;font-variant:normal;font-weight:normal;font-stretch:normal;font-family:'Microgramma D Extended';-inkscape-font-specification:'Microgramma D Extended';fill:#1e90ff;fill-opacity:1;stroke-width:0.2020584"
         id="path975" />
      <path
         inkscape:connector-curvature="0"
         d="m 100.89173,55.604566 v 2.069078 c 0,0.775904 0.097,1.131527 0.36371,1.365915 0.29096,0.258634 0.76782,0.355622 1.68921,0.355622 1.16385,0 1.55181,-0.129317 1.85085,-0.606175 h 0.0323 v 0.557681 h 0.59001 v -3.742121 h -0.59001 v 1.850855 c 0,0.541516 -0.0485,0.792069 -0.21014,0.977962 -0.25055,0.323294 -0.71125,0.444529 -1.60838,0.444529 -0.69509,0 -1.04263,-0.07274 -1.25277,-0.250553 -0.21822,-0.193976 -0.2748,-0.428363 -0.2748,-1.131527 v -1.891266 z"
         style="font-style:normal;font-variant:normal;font-weight:normal;font-stretch:normal;font-family:'Microgramma D Extended';-inkscape-font-specification:'Microgramma D Extended';fill:#1e90ff;fill-opacity:1;stroke-width:0.2020584"
         id="path977" />
      <path
         inkscape:connector-curvature="0"
         d="m 106.636,54.675097 v 0.929469 h -0.92139 v 0.509187 h 0.92139 v 1.810443 c 0,0.590011 0.0485,0.824398 0.21014,1.050704 0.21822,0.299046 0.64659,0.420281 1.44674,0.420281 0.79207,0 1.19618,-0.129317 1.41441,-0.460693 0.15356,-0.226305 0.20205,-0.468775 0.20205,-1.050704 v -0.234387 h -0.59001 v 0.234387 c 0,0.460694 -0.0242,0.598093 -0.11315,0.735493 -0.12932,0.202058 -0.33138,0.258635 -0.85673,0.258635 -0.56576,0 -0.83248,-0.07274 -0.98604,-0.258635 -0.12124,-0.153564 -0.12124,-0.177811 -0.1374,-0.889057 v -1.616467 h 2.61868 v -0.509187 h -2.61868 v -0.929469 z"
         style="font-style:normal;font-variant:normal;font-weight:normal;font-stretch:normal;font-family:'Microgramma D Extended';-inkscape-font-specification:'Microgramma D Extended';fill:#1e90ff;fill-opacity:1;stroke-width:0.2020584"
         id="path979" />
      <path
         inkscape:connector-curvature="0"
         d="m 110.36435,55.604566 v 3.742121 h 0.59001 v -3.742121 z m 0,-1.648797 v 0.703163 h 0.59001 v -0.703163 z"
         style="font-style:normal;font-variant:normal;font-weight:normal;font-stretch:normal;font-family:'Microgramma D Extended';-inkscape-font-specification:'Microgramma D Extended';fill:#1e90ff;fill-opacity:1;stroke-width:0.2020584"
         id="path981" />
      <path
         inkscape:connector-curvature="0"
         d="m 113.84911,55.556072 c -0.84865,0 -1.26893,0.05658 -1.57606,0.218223 -0.49302,0.258634 -0.71933,0.792069 -0.71933,1.681126 0,0.921386 0.1859,1.398244 0.66276,1.673043 0.33945,0.202059 0.80015,0.266717 1.89934,0.266717 0.95372,0 1.374,-0.05658 1.69729,-0.24247 0.46878,-0.266717 0.67084,-0.775904 0.67084,-1.681126 0,-0.872892 -0.18589,-1.357832 -0.63851,-1.648796 -0.32329,-0.202059 -0.78398,-0.266717 -1.99633,-0.266717 z m 0.097,0.517269 c 0.75973,0 1.16385,0.04041 1.39016,0.145482 0.37987,0.169729 0.51727,0.501105 0.51727,1.236598 0,0.654669 -0.097,0.986045 -0.33946,1.180021 -0.24247,0.185893 -0.57385,0.24247 -1.44674,0.24247 -0.69508,0 -1.0507,-0.03233 -1.29317,-0.121235 -0.43645,-0.153565 -0.59001,-0.48494 -0.59001,-1.260845 0,-1.204268 0.26671,-1.422491 1.76195,-1.422491 z"
         style="font-style:normal;font-variant:normal;font-weight:normal;font-stretch:normal;font-family:'Microgramma D Extended';-inkscape-font-specification:'Microgramma D Extended';fill:#1e90ff;fill-opacity:1;stroke-width:0.2020584"
         id="path983" />
      <path
         inkscape:connector-curvature="0"
         d="m 117.04907,55.604566 v 3.742121 h 0.59002 v -1.72962 c 0,-0.711245 0.0323,-0.889057 0.21822,-1.10728 0.25863,-0.315211 0.72741,-0.436446 1.6488,-0.436446 0.81631,0 1.1881,0.08891 1.38207,0.323294 0.16973,0.193976 0.21015,0.420281 0.21015,1.091115 v 1.858937 h 0.59001 v -2.109489 c 0,-0.703164 -0.0808,-1.018375 -0.30713,-1.268927 -0.29097,-0.315211 -0.7355,-0.412199 -1.81045,-0.412199 -1.22851,0 -1.64071,0.129317 -1.88318,0.614257 h -0.0485 v -0.565763 z"
         style="font-style:normal;font-variant:normal;font-weight:normal;font-stretch:normal;font-family:'Microgramma D Extended';-inkscape-font-specification:'Microgramma D Extended';fill:#1e90ff;fill-opacity:1;stroke-width:0.2020584"
         id="path985" />
      <path
         inkscape:connector-curvature="0"
         d="m 124.26168,57.665561 c -0.008,0.09699 -0.008,0.226306 -0.008,0.24247 0,0.670834 0.12124,0.953716 0.49303,1.188104 0.33137,0.202058 0.80015,0.266717 2.02866,0.266717 1.62455,0 2.40854,-0.08082 2.81266,-0.274799 0.42836,-0.218224 0.63042,-0.630423 0.63042,-1.309339 0,-0.404117 -0.0727,-0.703163 -0.23439,-0.929469 -0.25055,-0.363705 -0.62234,-0.493022 -1.40633,-0.493022 -1.43865,-0.0081 -1.43865,-0.0081 -1.83469,-0.0081 -0.63042,-0.0081 -1.0507,-0.04849 -1.30125,-0.113153 -0.36371,-0.105071 -0.4607,-0.266717 -0.4607,-0.75974 0,-0.767822 0.4122,-0.921386 2.44895,-0.921386 0.67892,0 1.18002,0.04849 1.44674,0.1374 0.37179,0.121235 0.45261,0.258634 0.45261,0.783986 v 0.08082 h 0.71933 c -0.008,-0.695081 -0.097,-0.961799 -0.40412,-1.204269 -0.37179,-0.299046 -0.96988,-0.412199 -2.18223,-0.412199 -0.51727,0 -1.24468,0.03233 -1.64071,0.08082 -0.61426,0.07274 -0.89714,0.161646 -1.17194,0.387952 -0.26672,0.218223 -0.40412,0.573846 -0.40412,1.058786 0,1.099198 0.52535,1.503314 1.94784,1.503314 2.63485,0 2.63485,0 2.90156,0.08891 0.28288,0.09699 0.38796,0.307129 0.38796,0.775904 0,0.460694 -0.16973,0.727411 -0.51727,0.800152 -0.30713,0.07274 -1.02646,0.121235 -1.72962,0.121235 -1.0992,0 -1.72962,-0.04041 -1.93976,-0.121235 -0.2748,-0.105071 -0.3233,-0.234388 -0.33946,-0.856728 v -0.113153 z"
         style="font-style:normal;font-variant:normal;font-weight:normal;font-stretch:normal;font-family:'Microgramma D Extended';-inkscape-font-specification:'Microgramma D Extended';fill:#1e90ff;fill-opacity:1;stroke-width:0.2020584"
         id="path987" />
      <path
         inkscape:connector-curvature="0"
         d="m 130.37862,55.604566 2.10949,3.742121 h 0.20205 c -0.35562,0.65467 -0.55768,0.775905 -1.34166,0.775905 -0.11316,0 -0.15357,0 -0.2748,-0.01617 v 0.541516 c 0.12931,0.0081 0.20206,0.0081 0.33137,0.0081 0.61426,0 0.89714,-0.06466 1.18002,-0.258635 0.29905,-0.210141 0.49303,-0.476858 0.92139,-1.301256 l 1.82661,-3.491569 h -0.69508 l -1.68113,3.265263 h -0.0727 l -1.81044,-3.265263 z"
         style="font-style:normal;font-variant:normal;font-weight:normal;font-stretch:normal;font-family:'Microgramma D Extended';-inkscape-font-specification:'Microgramma D Extended';fill:#1e90ff;fill-opacity:1;stroke-width:0.2020584"
         id="path989" />
      <path
         inkscape:connector-curvature="0"
         d="m 135.46077,58.045431 v 0.193976 c 0,0.460693 0.0889,0.695081 0.34754,0.880975 0.28288,0.210141 0.79207,0.274799 2.06907,0.274799 1.06687,0 1.60839,-0.05658 1.87511,-0.202058 0.30713,-0.169729 0.44453,-0.444529 0.44453,-0.905222 0,-0.735492 -0.34755,-1.058786 -1.20427,-1.091115 -0.38795,-0.01617 -1.47099,-0.04041 -1.72154,-0.03233 -0.89714,0.01617 -1.11536,-0.08082 -1.11536,-0.493022 0,-0.193976 0.0566,-0.331376 0.16973,-0.412199 0.16973,-0.129318 0.66275,-0.185894 1.49523,-0.185894 0.88906,0 1.33358,0.06466 1.49523,0.234388 0.0889,0.08082 0.11315,0.177811 0.11315,0.452611 h 0.63043 c 0,-0.444529 -0.0323,-0.565764 -0.16973,-0.735493 -0.2748,-0.355623 -0.78399,-0.468775 -2.04483,-0.468775 -1.0992,0 -1.65688,0.07274 -1.9236,0.24247 -0.26672,0.177811 -0.39604,0.460693 -0.39604,0.86481 0,0.751657 0.34755,1.018374 1.33359,1.034539 1.43057,0.01616 1.55181,0.01616 1.71346,0.01616 0.75165,-0.0081 0.99412,0.1374 0.99412,0.581929 0,0.185893 -0.0485,0.315211 -0.16164,0.404116 -0.17781,0.145482 -0.46878,0.177812 -1.50332,0.177812 -1.68112,0 -1.81044,-0.04849 -1.80236,-0.72741 l -0.008,-0.105071 z"
         style="font-style:normal;font-variant:normal;font-weight:normal;font-stretch:normal;font-family:'Microgramma D Extended';-inkscape-font-specification:'Microgramma D Extended';fill:#1e90ff;fill-opacity:1;stroke-width:0.2020584"
         id="path991" />
      <path
         inkscape:connector-curvature="0"
         d="m 141.349,54.675097 v 0.929469 h -0.92138 v 0.509187 h 0.92138 v 1.810443 c 0,0.590011 0.0485,0.824398 0.21014,1.050704 0.21823,0.299046 0.64659,0.420281 1.44674,0.420281 0.79207,0 1.19619,-0.129317 1.41441,-0.460693 0.15356,-0.226305 0.20206,-0.468775 0.20206,-1.050704 v -0.234387 h -0.59001 v 0.234387 c 0,0.460694 -0.0242,0.598093 -0.11315,0.735493 -0.12932,0.202058 -0.33138,0.258635 -0.85673,0.258635 -0.56577,0 -0.83248,-0.07274 -0.98605,-0.258635 -0.12123,-0.153564 -0.12123,-0.177811 -0.1374,-0.889057 v -1.616467 h 2.61868 v -0.509187 h -2.61868 v -0.929469 z"
         style="font-style:normal;font-variant:normal;font-weight:normal;font-stretch:normal;font-family:'Microgramma D Extended';-inkscape-font-specification:'Microgramma D Extended';fill:#1e90ff;fill-opacity:1;stroke-width:0.2020584"
         id="path993" />
      <path
         inkscape:connector-curvature="0"
         d="m 149.214,58.190913 c -0.0242,0.24247 -0.0404,0.307129 -0.1374,0.404117 -0.19398,0.218223 -0.52536,0.282882 -1.374,0.282882 -1.12345,0 -1.52756,-0.07274 -1.75387,-0.307129 -0.17781,-0.185894 -0.25863,-0.476858 -0.2748,-0.961798 h 4.17049 c -0.0162,-0.889057 -0.097,-1.228515 -0.37987,-1.559891 -0.34754,-0.387952 -0.79207,-0.493022 -2.08524,-0.493022 -0.90523,0 -1.33359,0.05658 -1.64072,0.226305 -0.48494,0.266717 -0.70316,0.792069 -0.70316,1.705373 0,0.767822 0.17781,1.285091 0.53343,1.559891 0.33138,0.258635 0.90522,0.34754 2.1984,0.34754 1.51948,0 2.04483,-0.307128 2.06908,-1.204268 z m -3.5239,-1.091115 c 0.0647,-0.832481 0.37987,-1.026457 1.67304,-1.026457 1.45482,0 1.81853,0.202058 1.82661,1.026457 z"
         style="font-style:normal;font-variant:normal;font-weight:normal;font-stretch:normal;font-family:'Microgramma D Extended';-inkscape-font-specification:'Microgramma D Extended';fill:#1e90ff;fill-opacity:1;stroke-width:0.2020584"
         id="path995" />
      <path
         inkscape:connector-curvature="0"
         d="m 150.37294,55.604566 v 3.742121 h 0.59001 v -1.470985 c 0,-0.929469 0.0485,-1.252762 0.23438,-1.462903 0.21823,-0.24247 0.59001,-0.339458 1.34167,-0.339458 0.70316,0 1.06687,0.08082 1.27701,0.2748 0.15356,0.153564 0.20206,0.355622 0.20206,0.897139 v 2.101407 h 0.59001 v -1.470985 c 0,-0.913304 0.0566,-1.228515 0.26672,-1.470985 0.20205,-0.24247 0.55768,-0.331376 1.30933,-0.331376 1.2366,0 1.47099,0.185894 1.47099,1.171939 v 2.101407 h 0.59001 v -1.97209 c 0,-0.872892 -0.0485,-1.091115 -0.29096,-1.365915 -0.31521,-0.339458 -0.74358,-0.45261 -1.76195,-0.45261 -1.07495,0 -1.50332,0.161646 -1.74579,0.654669 -0.29904,-0.509187 -0.71933,-0.654669 -1.93976,-0.654669 -0.9133,0 -1.16385,0.0889 -1.53564,0.541516 v -0.493022 z"
         style="font-style:normal;font-variant:normal;font-weight:normal;font-stretch:normal;font-family:'Microgramma D Extended';-inkscape-font-specification:'Microgramma D Extended';fill:#1e90ff;fill-opacity:1;stroke-width:0.2020584"
         id="path997" />
    </g>
    <g
       aria-label="MES"
       style="font-style:normal;font-variant:normal;font-weight:normal;font-stretch:normal;font-size:35.71264267px;line-height:1.25;font-family:'American Captain';-inkscape-font-specification:'American Captain';letter-spacing:0px;word-spacing:0px;fill:#1e90ff;fill-opacity:1;stroke:none;stroke-width:0.89281595"
       id="text821-3">
      <path
         inkscape:connector-curvature="0"
         d="m 35.520867,24.545401 v 23.820333 h 7.142529 L 42.484832,30.545125 h 1.285656 l 8.963873,17.820609 h 6.035436 l 8.963874,-17.820609 h 1.21423 l -0.178564,17.820609 h 7.142529 V 24.545401 H 62.841039 L 55.734223,40.008976 48.66312,24.545401 Z"
         style="font-style:normal;font-variant:normal;font-weight:bold;font-stretch:normal;font-family:'Microgramma D Extended';-inkscape-font-specification:'Microgramma D Extended Bold';fill:#1e90ff;fill-opacity:1;stroke-width:0.89281595"
         id="path936" />
      <path
         inkscape:connector-curvature="0"
         d="M 79.254903,24.545401 V 48.365734 H 105.75368 V 42.651711 H 86.397431 v -3.78554 H 104.64659 V 33.616413 H 86.397431 v -3.464127 h 19.213399 v -5.606885 z"
         style="font-style:normal;font-variant:normal;font-weight:bold;font-stretch:normal;font-family:'Microgramma D Extended';-inkscape-font-specification:'Microgramma D Extended Bold';fill:#1e90ff;fill-opacity:1;stroke-width:0.89281595"
         id="path938" />
      <path
         inkscape:connector-curvature="0"
         d="m 107.20507,40.47324 v 1.142805 c 0,3.285563 0.53569,4.678356 2.17847,5.714022 1.67849,1.07138 4.57122,1.392794 11.96374,1.392794 7.10681,0 10.10667,-0.178564 11.53518,-0.714253 2.46417,-0.928529 3.46413,-2.96415 3.46413,-7.106816 0,-3.321276 -0.60712,-4.928345 -2.2499,-5.999724 -1.53564,-0.964242 -3.07129,-1.142805 -10.92807,-1.392793 -5.03548,-0.142851 -6.99968,-0.249989 -7.64251,-0.428552 -0.74996,-0.178563 -1.07137,-0.642828 -1.07137,-1.535644 0,-1.749919 0.49997,-1.89277 6.64255,-1.89277 5.14262,0 6.03543,0.07143 6.64255,0.428552 0.53569,0.321414 0.64283,0.642828 0.71425,1.964195 h 6.99968 c 0.0357,-0.464264 0.0357,-0.964241 0.0357,-1.107092 0,-2.821298 -0.5714,-4.321229 -1.99991,-5.285471 -1.67849,-1.142804 -4.17837,-1.464218 -11.10663,-1.464218 -5.71402,0 -8.99958,0.142851 -10.39238,0.428552 -3.28556,0.714253 -4.57121,2.749873 -4.57121,7.285379 0,5.249758 1.64278,6.749689 7.53536,6.928253 l 1.92849,0.07143 3.85696,0.178563 5.71402,0.214276 c 2.32133,0.03571 2.85702,0.392839 2.85702,1.821345 0,2.107046 0,2.107046 -7.78536,2.107046 -5.10691,0 -5.89259,-0.07143 -6.57113,-0.499977 -0.5714,-0.357127 -0.71425,-0.821391 -0.71425,-2.249897 z"
         style="font-style:normal;font-variant:normal;font-weight:bold;font-stretch:normal;font-family:'Microgramma D Extended';-inkscape-font-specification:'Microgramma D Extended Bold';fill:#1e90ff;fill-opacity:1;stroke-width:0.89281595"
         id="path940" />
    </g>
  </g>
</svg>
