<svg xmlns="http://www.w3.org/2000/svg" width="478.76" height="344.78">
  <path fill="#fff" d="M103.34 20.78h327.42v254.77H103.34z"/>
  <path fill="#2f2e41" d="M431.15 275.94h-328.2V20.4h328.19Zm-327.43-.77h326.65v-254H103.71Z"/>
  <path fill="#2f2e41" d="M143.15 98.34h.77v155.83h-.77zm49.81 31.62h.77v124.09h-.77zm48.53-33.21h.77v124.09h-.77zm42.69-25.3h.77v124.09h-.77zm50.9 60.09h.77v124.09h-.77zm55.8-35.58h.77v124.09h-.77z"/>
  <path fill="#2f2e41" d="M194.53 130.45a1.16 1.16 0 1 1-1.16-1.16 1.16 1.16 0 0 1 1.16 1.16z"/>
  <circle cx="241.87" cy="96.01" r="1.16" fill="#2f2e41"/>
  <path fill="#2f2e41" d="M241.87 100.08a4.07 4.07 0 1 1 4.07-4.07 4.07 4.07 0 0 1-4.07 4.07zm0-7.87a3.8 3.8 0 1 0 3.8 3.8 3.8 3.8 0 0 0-3.8-3.8z"/>
  <circle cx="284.42" cy="71.55" r="1.16" fill="#2f2e41"/>
  <circle cx="335.46" cy="131.61" r="1.16" fill="#2f2e41"/>
  <circle cx="391.26" cy="96.01" r="1.16" fill="#263238"/>
  <path fill="#2f2e41" d="M144.68 97.18a1.16 1.16 0 1 1-1.16-1.17 1.15 1.15 0 0 1 1.15 1.15z"/>
  <path fill="#1e8fff" d="M402.22 151.98a4.64 4.64 0 0 1-.91.3 20.01 20.01 0 0 0-2.64.9 25.24 25.24 0 0 0-8.45 6.4c-3.2 3.43-6.34 8.2-10.31 13.57a66.24 66.24 0 0 1-7.01 8.13 39.15 39.15 0 0 1-4.55 3.77 31.7 31.7 0 0 1-5.49 2.99 30.75 30.75 0 0 1-13.14 2.2 34.01 34.01 0 0 1-7.06-.88 18.39 18.39 0 0 1-6.83-3 21.87 21.87 0 0 1-5.34-5.57 83.06 83.06 0 0 1-4.06-6.68c-2.56-4.64-5.2-9.28-8.22-13.92-3.01-4.63-5.7-9.69-8.75-14.59a69.81 69.81 0 0 0-10.73-13.84 31.43 31.43 0 0 0-7.2-5.16 23.87 23.87 0 0 0-8.5-2.5 30.03 30.03 0 0 0-17.78 3.79 44.65 44.65 0 0 0-13.5 12.6 137.93 137.93 0 0 0-9.63 15.54 158.06 158.06 0 0 1-9.32 15.19 74.67 74.67 0 0 1-11.33 12.9 40.97 40.97 0 0 1-3.28 2.62 38.5 38.5 0 0 1-3.49 2.27 30.45 30.45 0 0 1-7.53 3.1 26.41 26.41 0 0 1-3.94.73 14.2 14.2 0 0 1-2 .1h-1.96a30.3 30.3 0 0 1-7.55-1.4 51.1 51.1 0 0 1-12.78-6.67c-3.8-2.6-7.26-5.33-10.66-7.73a55.6 55.6 0 0 0-10.1-6.12 33.7 33.7 0 0 0-10.05-2.87 24.73 24.73 0 0 0-9.04.59 14.4 14.4 0 0 0-1.96.62 12.14 12.14 0 0 0-1.84.73 24.22 24.22 0 0 0-3.2 1.76 35.39 35.39 0 0 0-4.8 3.87l-1.67 1.83a15.46 15.46 0 0 0-1.34 1.54l-1.7 2.23a5.16 5.16 0 0 1-.62.73 4.07 4.07 0 0 1 .48-.83l1.55-2.32a16.38 16.38 0 0 1 1.29-1.63l1.62-1.92a32.54 32.54 0 0 1 4.81-4.05 23.96 23.96 0 0 1 3.2-1.87 10.91 10.91 0 0 1 1.86-.77 15.54 15.54 0 0 1 2.01-.7 25.6 25.6 0 0 1 9.36-.77 34.54 34.54 0 0 1 10.4 2.82 57.42 57.42 0 0 1 10.37 6.14c3.43 2.43 6.91 5.1 10.65 7.64a49.8 49.8 0 0 0 12.47 6.4 28.16 28.16 0 0 0 7.2 1.29h1.88a12.6 12.6 0 0 0 1.87-.12 24.37 24.37 0 0 0 3.72-.71 33.95 33.95 0 0 0 13.72-7.68 72.98 72.98 0 0 0 11.04-12.66 160.83 160.83 0 0 0 9.2-15.05 139.26 139.26 0 0 1 9.75-15.72 46.43 46.43 0 0 1 14.01-13.06 32.46 32.46 0 0 1 9.12-3.45 31.95 31.95 0 0 1 9.59-.55 25.5 25.5 0 0 1 9.12 2.7 32.25 32.25 0 0 1 7.58 5.41 71.65 71.65 0 0 1 10.96 14.18c3.1 4.95 5.8 9.94 8.7 14.62 2.9 4.68 5.68 9.43 8.2 14.02 2.5 4.6 5.04 9.1 8.94 11.85a17 17 0 0 0 6.38 2.83 34.1 34.1 0 0 0 6.79.9 30 30 0 0 0 12.64-2.01 31.4 31.4 0 0 0 5.32-2.84 38.27 38.27 0 0 0 4.46-3.6 64.42 64.42 0 0 0 6.95-7.94c4.03-5.32 7.3-10.05 10.6-13.44a24.51 24.51 0 0 1 8.83-6.22 14.27 14.27 0 0 1 2.72-.78 5.18 5.18 0 0 1 .9-.18z"/>
  <path fill="#2f2e41" d="M142.39 49.38h57.09v3.18h-57.09zm0 7.43h28.21v3.18h-28.21zM107.74 0h318.22a4.8 4.8 0 0 1 4.8 4.8v15.96H102.94V4.81a4.8 4.8 0 0 1 4.8-4.81Z"/>
  <path fill="#fff" d="M119.95 10.79a2.24 2.24 0 1 1-2.24-2.23 2.23 2.23 0 0 1 2.24 2.23zm9.75 0a2.24 2.24 0 1 1-2.24-2.23 2.23 2.23 0 0 1 2.24 2.23zm9.76 0a2.24 2.24 0 1 1-2.24-2.23 2.23 2.23 0 0 1 2.24 2.23z"/>
  <rect width="132.55" height="55.04" x="38.89" y="68.82" fill="#e0e0e0" rx="2.79"/>
  <path fill="#1e8fff" d="M66.43 86.2a6.18 6.18 0 1 1-6.19-6.18 6.18 6.18 0 0 1 6.19 6.19zm6.17-4.26h43.06v2.39H72.6z"/>
  <path fill="#fff" d="M72.6 87.37h83.75v2.39H72.6z"/>
  <path fill="#1e8fff" d="M66.43 105.2a6.18 6.18 0 1 1-6.19-6.18 6.18 6.18 0 0 1 6.19 6.19zm6.17-4.26h21.99v2.39H72.6z"/>
  <path fill="#fff" d="M72.6 106.37h83.75v2.39H72.6z"/>
  <rect width="171.02" height="72.7" x="7.7" y="235.7" fill="#e0e0e0" rx="4.22"/>
  <path fill="#1e8fff" d="m38.99 270.83-.1-14.74a18.8 18.8 0 0 0-12.18 4.75 17.41 17.41 0 0 0-5.86 15.26c.08.7.2 1.42.34 2.13a.07.07 0 0 1 0 .06l17.78-4zm18.35-4.54A17.5 17.5 0 0 0 43 256.24l-.56-.05h-1.55l.1 14.74v3.46l17.77 3.82a16.8 16.8 0 0 0 .4-3.83 19 19 0 0 0-1.82-8.09z"/>
  <path d="M57.34 266.29A17.5 17.5 0 0 0 43 256.24l-.56-.05h-1.55l.1 14.74v3.46l17.77 3.82a16.8 16.8 0 0 0 .4-3.83 19 19 0 0 0-1.82-8.09z" opacity=".2"/>
  <path fill="#1e8fff" d="m39.93 276.1-17.78 4a18.21 18.21 0 0 0 35.56-.12l-17.78-3.87"/>
  <path d="m39.93 276.1-17.78 4a18.21 18.21 0 0 0 35.56-.12l-17.78-3.87" opacity=".1"/>
  <path fill="#fff" d="M71.08 260.49h90.26v4.09H71.08zm0 10.79h90.26v4.09H71.08zm0 11.91h48.79v4.09H71.08z"/>
  <rect width="178.31" height="171.69" x="239.45" y="173.1" fill="#e6e6e6" rx="8.96"/>
  <path fill="#2f2e41" d="M251.91 290.71h5.85v1.69h-5.85zm13.24 9.02h7.49v1.69h-7.49zm26.06 0h7.49v1.69h-7.49zm26.05 0h7.49v1.69h-7.49zm-65.35-31.55h5.85v1.69h-5.85zm0-42.39h5.85v1.69h-5.85zm0-21.3h5.85v1.69h-5.85zm.3 42.5h5.85v1.69h-5.85zm13.96.8h137.86v.77H266.17zm0-21.35h137.86v.77H266.17zm.31-21.46h137.86v.77H266.48zm-.31 63.47h137.86v.77H266.17z"/>
  <path fill="#1e8fff" d="M267.91 287.83v-18.8l11.72-18.2 7.96 6.1 16.32-25.35 9.6 6.78 13.39-23.43 10.89 8.86 16.32-31.03 17.58 34.68 14.24-17.35 16.74-4.8v82.5z"/>
  <path fill="#2f2e41" d="M404.34 198.66h-4.58l-12.85.06h.12l-13.77 18-.08.08h-.1l-34.47.05.23-.12-14.5 24.15-14.23 23.66-.2.34-.24-.33L291 238.87h.37l-17.04 26.55c-2.03 3.2-3.64 5.62-4.75 7.32-.53.84-.96 1.47-1.26 1.92-.3.46-.45.64-.45.64l.4-.67 1.2-1.95 4.64-7.41L291 238.63l.17-.27.2.27 18.73 25.63h-.44l14.21-23.66 14.52-24.12.07-.13h34.62l-.17.08 13.89-17.89v-.06h.08l12.89.06h4.27z"/>
  <path fill="#2f2e41" d="M296.86 244.79a1.32 1.32 0 1 1-1.36-1.29h.04a1.3 1.3 0 0 1 1.32 1.26zm39.77-22.62a1.32 1.32 0 1 1-1.37-1.28h.05a1.31 1.31 0 0 1 1.32 1.29z"/>
  <ellipse cx="273.71" cy="322.26" fill="#fff" rx="8.56" ry="8.23"/>
  <path fill="#fff" d="M294.95 316.74h100.48v3.08H294.95zm0 7.7h41.72v3.08h-41.72z"/>
  <rect width="118.39" height="98.2" x="360.37" y="39.75" fill="#e6e6e6" rx="5.26"/>
  <path fill="#1e8fff" d="M381.04 79.07h6.38v48.18h-6.38zm29-3.92h6.38v52.09h-6.38zm30.04-6.61h6.38v58.71h-6.38zm-14.1 35.24h6.38v23.46h-6.38z"/>
  <path d="M425.98 103.78h6.38v23.46h-6.38z" opacity=".2"/>
  <path fill="#1e8fff" d="M388.47 73.89h6.38v53.35h-6.38z"/>
  <path d="M388.47 73.9h6.39v53.34h-6.39z" opacity=".1"/>
  <path fill="#1e8fff" d="M418 62.73h6.38v64.52H418z"/>
  <path d="M418 62.73h6.38v64.51H418z" opacity=".1"/>
  <path fill="#1e8fff" d="M456.55 62.73h6.38v64.52h-6.38z"/>
  <path d="M456.55 62.73h6.39v64.51h-6.39z" opacity=".2"/>
  <path fill="#1e8fff" d="M448.22 49.98h6.38v77.26h-6.38z"/>
  <path d="M448.22 49.98h6.39v77.26h-6.39z" opacity=".1"/>
  <path fill="#1e8fff" d="M396.28 93.39h6.38v33.86h-6.38z"/>
  <path d="M396.28 93.39h6.38v33.85h-6.38z" opacity=".2"/>
  <path fill="#2f2e41" d="M367.38 118.67h3.9v1.29h-3.9zm0-17.14h3.9v1.29h-3.9zm0-32.28h3.9v1.29h-3.9zm0-16.21h3.9v1.29h-3.9zm.2 32.35h3.9v1.29h-3.9z"/>
  <rect width="121.44" height="34.05" x="224.04" y="31.77" fill="#1e8fff" rx="3.44"/>
  <path fill="#fff" d="M249.63 54.47a7.4 7.4 0 1 1-1.13-10.41 7.45 7.45 0 0 1 1.13 10.41z"/>
  <path fill="#1e8fff" d="M248.02 47.32a30.54 30.54 0 0 1-3.98 4.26l-.98.93-.2.2-.18-.2a21.54 21.54 0 0 1-2.97-3.35 21.54 21.54 0 0 1 3.35 2.98h-.38l.97-.96a31.32 31.32 0 0 1 4.37-3.86z"/>
  <path fill="#fff" d="M399.3 64.7h-38.73a.77.77 0 1 1 0-1.55h38.74a.77.77 0 1 1 0 1.55z"/>
  <rect width="134.45" height="37.7" y="162.04" fill="#e6e6e6" rx="3.44"/>
  <path fill="#fff" d="M28.34 187.14a8.2 8.2 0 1 1-1.27-11.52 8.19 8.19 0 0 1 1.27 11.5z"/>
  <path fill="#2f2e41" d="M26.56 179.22a38.81 38.81 0 0 1-4.45 4.7L21.05 185l-.2.2-.19-.2a25.9 25.9 0 0 1-3.3-3.7 25.5 25.5 0 0 1 3.69 3.32h-.37l1.06-1.06a37.67 37.67 0 0 1 4.82-4.33zm87.93-1.5H35.24a.39.39 0 0 1 0-.78h79.25a.39.39 0 0 1 0 .78zm-22.33 7.11H35.24a.39.39 0 0 1-.39-.39.39.39 0 0 1 .39-.38h56.92a.39.39 0 0 1 .39.38.39.39 0 0 1-.4.39z"/>
  <path fill="none" stroke="#fff" stroke-linecap="round" stroke-linejoin="round" stroke-width=".77" d="M259.16 45.23h79.25m-79.25 7.11h56.92"/>
  <path fill="#2f2e41" d="M402.7 291.98v.77H260.16V189.83h.77v102.15z"/>
</svg>
