<?xml version="1.0" encoding="UTF-8" standalone="no"?>
<svg
   xmlns:dc="http://purl.org/dc/elements/1.1/"
   xmlns:cc="http://creativecommons.org/ns#"
   xmlns:rdf="http://www.w3.org/1999/02/22-rdf-syntax-ns#"
   xmlns:svg="http://www.w3.org/2000/svg"
   xmlns="http://www.w3.org/2000/svg"
   xmlns:sodipodi="http://sodipodi.sourceforge.net/DTD/sodipodi-0.dtd"
   xmlns:inkscape="http://www.inkscape.org/namespaces/inkscape"
   width="478.76007"
   height="344.78394"
   viewBox="0 0 478.76007 344.78393"
   version="1.1"
   id="svg1654"
   sodipodi:docname="warranty.svg"
   inkscape:version="0.92.4 (5da689c313, 2019-01-14)">
  <metadata
     id="metadata1660">
    <rdf:RDF>
      <cc:Work
         rdf:about="">
        <dc:format>image/svg+xml</dc:format>
        <dc:type
           rdf:resource="http://purl.org/dc/dcmitype/StillImage" />
        <dc:title></dc:title>
      </cc:Work>
    </rdf:RDF>
  </metadata>
  <defs
     id="defs1658"><style
   id="style5909">
        .cls-bg21{fill:#f8f8ff;}
        .cls-bg22{fill:#bac5f4;}
        .cls-bg23{fill:#e1e6fb;}
      </style>
<clipPath
   id="fe9b49f8-e166-4e47-ac65-a2d5a59265ce">
  <path
     fill="none"
     d="M734.19,333.45c-6.71,56.78-32.6,122.79-84.4,153.12-78.23,45.82-71.69,116.3-224.38,147a313.33,313.33,0,0,1-67.69,6.39,260.44,260.44,0,0,1-33.24-2.72c-97-14.18-162.34-81.63-186.3-163C106.7,367,169.62,297,211.36,254.71S283.64,80.85,433.51,49.62A304.56,304.56,0,0,1,503.09,43c53.32,1.36,111.48,18.82,151.72,55.36q4.56,4.08,8.83,8.52C719.57,164.25,743.34,256.05,734.19,333.45Z"
     data-name="SVGID"
     id="b1f04b0c-412f-4f15-bef7-21759d12595e" />
</clipPath>

	
	
	
	
	
	
	
	
	
</defs>
  <sodipodi:namedview
     pagecolor="#ffffff"
     bordercolor="#666666"
     borderopacity="1"
     objecttolerance="10"
     gridtolerance="10"
     guidetolerance="10"
     inkscape:pageopacity="0"
     inkscape:pageshadow="2"
     inkscape:window-width="1366"
     inkscape:window-height="705"
     id="namedview1656"
     showgrid="false"
     fit-margin-top="0"
     fit-margin-left="0"
     fit-margin-right="0"
     fit-margin-bottom="0"
     inkscape:zoom="0.69118012"
     inkscape:cx="474.03447"
     inkscape:cy="160.01485"
     inkscape:window-x="1912"
     inkscape:window-y="113"
     inkscape:window-maximized="1"
     inkscape:current-layer="svg1654" />
  <g
     id="g962"
     transform="matrix(0.77439741,0,0,0.77439741,94.347579,25.386856)">
</g>
  <g
     id="g964"
     transform="matrix(0.77439741,0,0,0.77439741,94.347579,25.386856)">
</g>
  <g
     id="g966"
     transform="matrix(0.77439741,0,0,0.77439741,94.347579,25.386856)">
</g>
  <g
     id="g968"
     transform="matrix(0.77439741,0,0,0.77439741,94.347579,25.386856)">
</g>
  <g
     id="g970"
     transform="matrix(0.77439741,0,0,0.77439741,94.347579,25.386856)">
</g>
  <g
     id="g972"
     transform="matrix(0.77439741,0,0,0.77439741,94.347579,25.386856)">
</g>
  <g
     id="g974"
     transform="matrix(0.77439741,0,0,0.77439741,94.347579,25.386856)">
</g>
  <g
     id="g976"
     transform="matrix(0.77439741,0,0,0.77439741,94.347579,25.386856)">
</g>
  <g
     id="g978"
     transform="matrix(0.77439741,0,0,0.77439741,94.347579,25.386856)">
</g>
  <g
     id="g980"
     transform="matrix(0.77439741,0,0,0.77439741,94.347579,25.386856)">
</g>
  <g
     id="g982"
     transform="matrix(0.77439741,0,0,0.77439741,94.347579,25.386856)">
</g>
  <g
     id="g984"
     transform="matrix(0.77439741,0,0,0.77439741,94.347579,25.386856)">
</g>
  <g
     id="g986"
     transform="matrix(0.77439741,0,0,0.77439741,94.347579,25.386856)">
</g>
  <g
     id="g988"
     transform="matrix(0.77439741,0,0,0.77439741,94.347579,25.386856)">
</g>
  <g
     id="g990"
     transform="matrix(0.77439741,0,0,0.77439741,94.347579,25.386856)">
</g>
  <g
     style="clip-rule:evenodd;fill-rule:evenodd;stroke-linejoin:round;stroke-miterlimit:2"
     id="g2036"
     transform="matrix(10.62537,0,0,10.62537,69.589759,5.5194183)">
    <g
       id="g2022"
       transform="translate(-96,-384)">
      <g
         id="g2018"
         transform="matrix(1,0,0,1.5,0,-195)">
        <path
           id="path2016"
           style="fill:#90e0ef"
           d="m 123,390.139 c 0,-0.198 -0.131,-0.384 -0.358,-0.511 -0.227,-0.127 -0.526,-0.18 -0.817,-0.145 -2.73,0.256 -5.925,-0.246 -8.658,-1.533 -0.695,-0.339 -1.638,-0.338 -2.332,0.003 -2.729,1.296 -5.919,1.817 -8.651,1.551 -0.288,-0.036 -0.586,0.015 -0.812,0.139 -0.226,0.125 -0.357,0.311 -0.357,0.506 -0.015,2.275 -0.015,8.668 -0.015,10.992 0,0.523 0.458,0.998 1.172,1.214 2.238,0.678 7.065,2.141 9,2.728 0.526,0.159 1.13,0.159 1.656,0 1.935,-0.587 6.762,-2.05 9,-2.728 0.714,-0.216 1.172,-0.691 1.172,-1.214 0,-2.328 0,-8.738 0,-11.002 z"
           inkscape:connector-curvature="0" />
      </g>
      <path
         id="path2020"
         style="fill:#1990a7"
         d="m 124,406.712 v -16.504 c 0,-0.592 -0.262,-1.153 -0.716,-1.533 -0.448,-0.375 -1.037,-0.535 -1.613,-0.439 -2.5,0.348 -5.421,-0.358 -7.924,-2.127 -1.043,-0.755 -2.454,-0.752 -3.494,0.007 -2.491,1.773 -5.394,2.51 -7.889,2.156 -0.592,-0.104 -1.181,0.051 -1.63,0.423 -0.455,0.377 -0.719,0.938 -0.719,1.529 C 100,393.632 100,403.225 100,406.712 v 0 c 0,1.177 0.688,2.244 1.759,2.731 2.237,1.017 7.064,3.211 9,4.091 0.788,0.359 1.694,0.359 2.482,0 1.936,-0.88 6.763,-3.074 9,-4.091 1.071,-0.487 1.759,-1.554 1.759,-2.731 z m -2.001,-16.504 0.001,10e-4 v 16.503 c 0,0.392 -0.229,0.748 -0.586,0.911 -2.237,1.016 -7.065,3.211 -9,4.09 -0.263,0.12 -0.565,0.12 -0.828,0 -1.935,-0.879 -6.763,-3.074 -9,-4.09 -0.357,-0.163 -0.586,-0.519 -0.586,-0.911 0,-3.481 0,-13.048 0.015,-16.47 l 0.003,10e-4 c 2.98,0.435 6.441,-0.394 9.398,-2.5 l 0.006,-0.004 c 0.348,-0.256 0.813,-0.257 1.156,-0.007 l 0.006,0.004 c 2.963,2.095 6.425,2.894 9.38,2.478 z m -14.706,9.499 3.147,3.147 c 0.39,0.39 1.023,0.39 1.414,0 l 5.894,-5.894 c 0.39,-0.39 0.39,-1.024 0,-1.414 -0.391,-0.391 -1.024,-0.391 -1.414,0 l -5.187,5.186 c 0,0 -2.44,-2.439 -2.44,-2.439 -0.39,-0.39 -1.024,-0.39 -1.414,0 -0.39,0.39 -0.39,1.024 0,1.414 z M 122,390.209 c 0,0 0,0 0,0 z"
         inkscape:connector-curvature="0" />
    </g>
  </g>
</svg>
