<?xml version="1.0" encoding="UTF-8" standalone="no"?>
<svg
   xmlns:dc="http://purl.org/dc/elements/1.1/"
   xmlns:cc="http://creativecommons.org/ns#"
   xmlns:rdf="http://www.w3.org/1999/02/22-rdf-syntax-ns#"
   xmlns:svg="http://www.w3.org/2000/svg"
   xmlns="http://www.w3.org/2000/svg"
   xmlns:sodipodi="http://sodipodi.sourceforge.net/DTD/sodipodi-0.dtd"
   xmlns:inkscape="http://www.inkscape.org/namespaces/inkscape"
   width="478.76007"
   height="344.78394"
   viewBox="0 0 478.76007 344.78393"
   version="1.1"
   id="svg1654"
   sodipodi:docname="warranty.svg"
   inkscape:version="0.92.4 (5da689c313, 2019-01-14)">
  <metadata
     id="metadata1660">
    <rdf:RDF>
      <cc:Work
         rdf:about="">
        <dc:format>image/svg+xml</dc:format>
        <dc:type
           rdf:resource="http://purl.org/dc/dcmitype/StillImage" />
        <dc:title />
      </cc:Work>
    </rdf:RDF>
  </metadata>
  <defs
     id="defs1658">
    <style
       id="style5909">
        .cls-bg21{fill:#f8f8ff;}
        .cls-bg22{fill:#bac5f4;}
        .cls-bg23{fill:#e1e6fb;}
      </style>
    <clipPath
       id="fe9b49f8-e166-4e47-ac65-a2d5a59265ce">
      <path
         fill="none"
         d="M734.19,333.45c-6.71,56.78-32.6,122.79-84.4,153.12-78.23,45.82-71.69,116.3-224.38,147a313.33,313.33,0,0,1-67.69,6.39,260.44,260.44,0,0,1-33.24-2.72c-97-14.18-162.34-81.63-186.3-163C106.7,367,169.62,297,211.36,254.71S283.64,80.85,433.51,49.62A304.56,304.56,0,0,1,503.09,43c53.32,1.36,111.48,18.82,151.72,55.36q4.56,4.08,8.83,8.52C719.57,164.25,743.34,256.05,734.19,333.45Z"
         data-name="SVGID"
         id="b1f04b0c-412f-4f15-bef7-21759d12595e" />
    </clipPath>
  </defs>
  <sodipodi:namedview
     pagecolor="#ffffff"
     bordercolor="#666666"
     borderopacity="1"
     objecttolerance="10"
     gridtolerance="10"
     guidetolerance="10"
     inkscape:pageopacity="0"
     inkscape:pageshadow="2"
     inkscape:window-width="1366"
     inkscape:window-height="705"
     id="namedview1656"
     showgrid="false"
     fit-margin-top="0"
     fit-margin-left="0"
     fit-margin-right="0"
     fit-margin-bottom="0"
     inkscape:zoom="0.69118012"
     inkscape:cx="207.09971"
     inkscape:cy="160.01485"
     inkscape:window-x="1912"
     inkscape:window-y="113"
     inkscape:window-maximized="1"
     inkscape:current-layer="svg1654" />
  <g
     id="g962"
     transform="matrix(0.77439741,0,0,0.77439741,94.347579,25.386856)" />
  <g
     id="g964"
     transform="matrix(0.77439741,0,0,0.77439741,94.347579,25.386856)" />
  <g
     id="g966"
     transform="matrix(0.77439741,0,0,0.77439741,94.347579,25.386856)" />
  <g
     id="g968"
     transform="matrix(0.77439741,0,0,0.77439741,94.347579,25.386856)" />
  <g
     id="g970"
     transform="matrix(0.77439741,0,0,0.77439741,94.347579,25.386856)" />
  <g
     id="g972"
     transform="matrix(0.77439741,0,0,0.77439741,94.347579,25.386856)" />
  <g
     id="g974"
     transform="matrix(0.77439741,0,0,0.77439741,94.347579,25.386856)" />
  <g
     id="g976"
     transform="matrix(0.77439741,0,0,0.77439741,94.347579,25.386856)" />
  <g
     id="g978"
     transform="matrix(0.77439741,0,0,0.77439741,94.347579,25.386856)" />
  <g
     id="g980"
     transform="matrix(0.77439741,0,0,0.77439741,94.347579,25.386856)" />
  <g
     id="g982"
     transform="matrix(0.77439741,0,0,0.77439741,94.347579,25.386856)" />
  <g
     id="g984"
     transform="matrix(0.77439741,0,0,0.77439741,94.347579,25.386856)" />
  <g
     id="g986"
     transform="matrix(0.77439741,0,0,0.77439741,94.347579,25.386856)" />
  <g
     id="g988"
     transform="matrix(0.77439741,0,0,0.77439741,94.347579,25.386856)" />
  <g
     id="g990"
     transform="matrix(0.77439741,0,0,0.77439741,94.347579,25.386856)" />
  <path
     id="path1618"
     clip-path="none"
     style="color:#212529;font-style:normal;font-variant:normal;font-weight:400;font-size:16px;line-height:24px;font-family:Averta, 'Helvetica Neue', 'Open Sans', Arial, sans-serif;font-variant-ligatures:normal;font-variant-caps:normal;font-variant-numeric:normal;text-indent:0px;text-align:center;text-decoration:none;text-decoration-line:none;text-decoration-style:solid;text-decoration-color:#212529;letter-spacing:normal;word-spacing:0px;text-transform:none;writing-mode:lr-tb;direction:ltr;dominant-baseline:auto;baseline-shift:0px;text-anchor:start;white-space:normal;clip-rule:nonzero;display:inline;visibility:visible;opacity:1;isolation:auto;mix-blend-mode:normal;vector-effect:none;fill:#f8f8ff;fill-opacity:1;fill-rule:nonzero;stroke:none;stroke-width:0.67620546px;stroke-linecap:butt;stroke-linejoin:miter;stroke-miterlimit:4;stroke-dasharray:none;stroke-dashoffset:0px;stroke-opacity:1;marker-start:none;marker-mid:none;marker-end:none;paint-order:normal;color-rendering:auto;image-rendering:auto;shape-rendering:auto;text-rendering:auto"
     d="m 369.09892,210.17221 c -12.22237,31.01579 -1.93532,36.89285 -1.68956,54.34155 0.23058,15.87359 -6.25208,39.9242 -38.99404,49.26109 -50.8712,14.52321 -80.37663,-23.13713 -80.37663,-23.13713 0,0 -50.3999,-53.52815 -61.69279,-58.69038 -11.2929,-5.16224 -31.19258,-30.7789 -81.05232,-20.65218 -49.859755,10.12672 -80.989788,-0.58082 -82.072155,-18.93186 -1.082348,-18.35104 48.689813,-56.57764 59.60105,-64.22288 10.91126,-7.64523 19.699475,-38.611651 17.605655,-52.566195 -2.093825,-13.954554 -9.063517,-57.347519 50.45203,-39.373476 59.51555,17.974022 241.12155,66.735231 241.12155,66.735231 0,0 64.22467,19.13669 21.40124,68.81796 -35.75146,41.47753 -39.55746,26.37589 -44.30403,38.41827 z"
     class="cls-bg21"
     inkscape:connector-curvature="0" />
  <g
     style="clip-rule:evenodd;fill-rule:evenodd;stroke-linejoin:round;stroke-miterlimit:2;fill:#2990ff;fill-opacity:0.20888889"
     id="g2018"
     transform="matrix(9.0894068,0,0,13.63411,-773.70063,-5238.9596)">
    <path
       id="path2016"
       style="fill:#2990ff;fill-opacity:0.20888889"
       d="m 123,390.139 c 0,-0.198 -0.131,-0.384 -0.358,-0.511 -0.227,-0.127 -0.526,-0.18 -0.817,-0.145 -2.73,0.256 -5.925,-0.246 -8.658,-1.533 -0.695,-0.339 -1.638,-0.338 -2.332,0.003 -2.729,1.296 -5.919,1.817 -8.651,1.551 -0.288,-0.036 -0.586,0.015 -0.812,0.139 -0.226,0.125 -0.357,0.311 -0.357,0.506 -0.015,2.275 -0.015,8.668 -0.015,10.992 0,0.523 0.458,0.998 1.172,1.214 2.238,0.678 7.065,2.141 9,2.728 0.526,0.159 1.13,0.159 1.656,0 1.935,-0.587 6.762,-2.05 9,-2.728 0.714,-0.216 1.172,-0.691 1.172,-1.214 0,-2.328 0,-8.738 0,-11.002 z"
       inkscape:connector-curvature="0" />
  </g>
  <path
     id="path2020"
     style="clip-rule:evenodd;fill:#1e90ff;fill-rule:evenodd;stroke-width:9.08940697;stroke-linejoin:round;stroke-miterlimit:2;fill-opacity:1"
     d="M 353.38581,230.24552 V 80.233949 c 0,-5.380929 -2.38142,-10.480086 -6.50801,-13.934061 -4.07206,-3.408528 -9.42572,-4.862833 -14.66122,-3.99025 -22.72351,3.163114 -49.27367,-3.254007 -72.02445,-19.333168 -9.48026,-6.862502 -22.30541,-6.835234 -31.75839,0.06363 -22.64171,16.115518 -49.02826,22.814411 -71.70633,19.596761 -5.38093,-0.945298 -10.73459,0.46356 -14.81574,3.844819 -4.13568,3.426706 -6.53528,8.525864 -6.53528,13.897703 -0.13634,30.976697 -0.13634,118.171377 -0.13634,149.866137 v 0 c 0,10.69823 6.25351,20.39663 15.98827,24.82317 20.333,9.24393 64.20757,29.18608 81.80466,37.18476 7.16245,3.2631 15.39745,3.2631 22.55991,0 17.59709,-7.99868 61.47165,-27.94083 81.80466,-37.18476 9.73475,-4.42654 15.98826,-14.12494 15.98826,-24.82317 z m -18.1879,-150.011571 0.009,0.0091 V 230.24552 c 0,3.56305 -2.08147,6.79887 -5.32639,8.28045 -20.33301,9.23484 -64.21666,29.18608 -81.80466,37.17567 -2.39052,1.09073 -5.13552,1.09073 -7.52603,0 -17.588,-7.98959 -61.47166,-27.94083 -81.80466,-37.17567 -3.24492,-1.48158 -5.3264,-4.7174 -5.3264,-8.28045 0,-31.64023 0,-118.59858 0.13634,-149.702532 l 0.0273,0.0091 c 27.08644,3.953892 58.54487,-3.581226 85.42225,-22.723517 l 0.0545,-0.03636 c 3.16312,-2.326888 7.38969,-2.335977 10.50736,-0.06363 l 0.0545,0.03636 c 26.93191,19.042307 58.39943,26.304743 85.25863,22.52355 z m -133.66882,86.340271 28.60437,28.60437 c 3.54487,3.54487 9.29846,3.54487 12.85242,0 l 53.57296,-53.57297 c 3.54487,-3.54487 3.54487,-9.30755 0,-12.85242 -3.55396,-3.55396 -9.30755,-3.55396 -12.85242,0 l -47.14675,47.13767 c 0,0 -22.17815,-22.16907 -22.17815,-22.16907 -3.54487,-3.54487 -9.30756,-3.54487 -12.85243,0 -3.54486,3.54487 -3.54486,9.30756 0,12.85242 z M 335.207,80.243038 c 0,0 0,0 0,0 z"
     inkscape:connector-curvature="0" />
</svg>
